/* XPM */
static char *ce2fd63977ca49dc9436c6915b3951f4zskSSvmBSlX9HMsS[] = {
/* columns rows colors chars-per-pixel */
"50 50 112 2 ",
"   c #22170E",
".  c #23180E",
"X  c #2A1A0F",
"o  c #261B10",
"O  c #2B1D12",
"+  c #321F13",
"@  c #3C2213",
"#  c #3E2E22",
"$  c #422414",
"%  c #492715",
"&  c #422A1A",
"*  c #4F2F1C",
"=  c #532B17",
"-  c #552E19",
";  c #56311D",
":  c #5A321E",
">  c #65341C",
",  c #6C371E",
"<  c #6D391F",
"1  c #70391F",
"2  c #513525",
"3  c #5A3826",
"4  c #543C2C",
"5  c #583C2C",
"6  c #663923",
"7  c #743C20",
"8  c #7A3F22",
"9  c #4E4036",
"0  c #52463C",
"q  c #5C4A3D",
"w  c #6F452F",
"e  c #7D4325",
"r  c #654635",
"t  c #634C3E",
"y  c #6B4F3E",
"u  c #834325",
"i  c #8A4727",
"p  c #8C4827",
"a  c #874E2D",
"s  c #8F4A28",
"d  c #924B29",
"f  c #994F2B",
"g  c #8B512F",
"h  c #94502C",
"j  c #9B532F",
"k  c #8F5739",
"l  c #945733",
"z  c #9C5C36",
"x  c #945B3C",
"c  c #9A5E39",
"v  c #A1532D",
"b  c #A15731",
"n  c #A35831",
"m  c #AB5C33",
"M  c #B75E33",
"N  c #B85F34",
"B  c #B16037",
"V  c #B86035",
"C  c #B6633A",
"Z  c #BB673A",
"A  c #BE683B",
"S  c #C36C3E",
"D  c #CB6A3B",
"F  c #805741",
"G  c #835F4B",
"H  c #A36B49",
"J  c #AF6C4A",
"K  c #B76942",
"L  c #BD6F41",
"P  c #BF7042",
"I  c #B7734B",
"U  c #B27957",
"Y  c #887265",
"T  c #9C7B69",
"R  c #C26B40",
"E  c #C67245",
"W  c #D07543",
"Q  c #DA7441",
"!  c #D57C4C",
"~  c #D37D50",
"^  c #948377",
"/  c #A78C7B",
"(  c #B9917A",
")  c #C5805A",
"_  c #CA865D",
"`  c #D68156",
"'  c #DD8553",
"]  c #E98A54",
"[  c #E0895D",
"{  c #F69257",
"}  c #F69258",
"|  c #E3956B",
" . c #F69760",
".. c #F59F6D",
"X. c #B89A87",
"o. c #B3A59B",
"O. c #BCAA9D",
"+. c #E7A682",
"@. c #CBB5A7",
"#. c #C4B9B0",
"$. c #C9BBB1",
"%. c #D6C5B9",
"&. c #EFCBB4",
"*. c #DCD4CC",
"=. c #EED3C0",
"-. c #EBD8CA",
";. c #E8DACE",
":. c #E1D8D0",
">. c #E1DBD2",
",. c #E2DAD2",
"<. c #E2DBD3",
"1. c #E6DED5",
/* pixels */
"X.' } } } } } } } } } } } } } } } } } } } }  .&.1.:.( ] } } } } } } } } } } } } } } } } } } } { ..=.",
"6 h m m m m m m m m m m m m m m m m m m m m B ` G t 6 b m m m m m m m m m m m m m m m m m m m m C [ ",
"- u d d d d d d d d d d d d d d d d d d d d f D * X - i d d d d d d d d d d d d d d d d d d d d v Q ",
"- u d d d d d d d d d d d d d d d d d d d d f D - O - p d d d d d d d d d d d d d d d d d d d d v Q ",
"- u d d d d d d d d d d d d d d d d d d d d f D - O - p d d d d d d d d d d d d d d d d d d d d v Q ",
"- u d d d d d d d d d d d d d d d d d d d d f D - O - p d d d d d d d d d d d d d d d d d d d d v Q ",
"- u d d d d d d d d d d d d d d d d d d d d f D - O - p d d d d d d d d d d d d d d d d d d d d v Q ",
"- u d d d d d d d d d d d d d d d d d d d d f D - O - p d d d d d d d d d d d d d d d d d d d d v Q ",
"- u d d d d d d d d d d d d d d d d d d d d f D - O - p d d d d d d d d d d d d d d d d d d d d v Q ",
"- u d d d d d d d d d d d d d d d d d d d d f D - O - p d d d d d d d d d d d d d d d d d d d d v Q ",
"- u d d d d d d d d d d d d d d d d d d d d f D - O - p d d d d d d d d d d d d d d d d d d d d v Q ",
"- u d d d d d d d d d d d d d d d d d d d d f D - O - p d d d d d d d d d d d d d d d d d d d d v Q ",
"- u d d d d d d d d d d d d d d d d d d d d f D - O - p d d d d d d d d d d d d d d d d d d d d v Q ",
"- u d d d d d d d d d d d d d d d d d d d d h D - O - p d d d d d d d d d d d d d d d d d d d d v Q ",
"r > 1 1 1 1 1 1 1 1 1 1 1 1 1 1 1 1 1 1 1 < 7 s @ O % , 1 1 1 1 1 1 1 1 1 1 1 1 1 1 1 1 1 1 1 < 8 J ",
"#.4 @ @ @ @ @ @ @ @ @ @ @ @ @ @ @ @ @ @ @ @ @ + o o O @ @ @ @ @ @ @ @ @ @ @ @ @ @ @ @ @ @ @ @ @ 5 $.",
":.0 o O O O O O O O o o o o O O O O O O O O O O O O O O O O O O O O O o o o o O O O O O O O O o q :.",
"@.I L L L L L L L L H # o O a E L L L L L L L L L L L L L L L L L L L H # o O g P L L L L L L A _ -.",
"w m A A A A A A A A ~ x o $ d A A A A A A A A A A A A A A A A A A A A ~ k o $ h S A A A A A A A E | ",
"- u d d d d d d d s M b O @ 1 d d d d d d d d d d d d d d d d d d d s M j o $ 7 d d d d d d d s v Q ",
"- u d d d d d d d d V b o @ 7 d d d d d d d d d d d d d d d d d d d d V j o $ 7 d d d d d d d d v Q ",
"- u d d d d d d d d V b o @ 7 d d d d d d d d d d d d d d d d d d d d V j o $ 7 d d d d d d d d v Q ",
"- u d d d d d d d d V b o @ 7 d d d d d d d d d d d d d d d d d d d d V j o $ 7 d d d d d d d d v Q ",
"- u d d d d d d d d V b o @ 7 d d d d d d d d d d d d d d d d d d d d V j o $ 7 d d d d d d d d v Q ",
"- u d d d d d d d d V b o @ 7 d d d d d d d d d d d d d d d d d d d d N j o $ 7 d d d d d d d d v Q ",
"- u d d d d d d d d V b o @ 7 d d d d d d d d d d d d d d d d d d d d N j o $ 7 d d d d d d d d v Q ",
"- u d d d d d d d d V b o @ 7 d d d d d d d d d d d d d d d d d d d d N j o $ 7 d d d d d d d d v Q ",
"- u d d d d d d d d V b o @ 7 d d d d d d d d d d d d d d d d d d d d N j o $ 7 d d d d d d d d v Q ",
"- u d d d d d d d d N b o @ 7 d d d d d d d d d d d d d d d d d d d d N j o $ 7 d d d d d d d d v Q ",
"- u d d d d d d d d N b o @ 7 d d d d d d d d d d d d d d d d d d d d N h o $ 7 d d d d d d d d v Q ",
"- u d d d d d d d d V n O @ 7 d d d d d d d d d d d d d d d d d d d d V j o $ 7 d d d d d d d d v Q ",
"3 < 8 8 8 8 8 8 8 8 d e o @ > 8 8 8 8 8 8 8 8 8 8 8 8 8 8 8 8 8 8 8 8 d e o @ > 8 8 8 8 8 8 8 8 u K ",
"o.2 $ $ $ $ $ $ $ $ $ O o O @ $ $ $ $ $ $ $ $ $ $ $ $ $ $ $ $ $ $ $ $ $ O o O @ $ $ $ $ $ $ $ $ 3 O.",
":.0   o o o o o o o o o o o o o o o o o o o o o o o o o o o o o o o o o o o o o o o o o o o o . q :.",
"%.H z z z z z z z z z z z z z z z z z z z z c 5 o o & l z z z z z z z z z z z z z z z z z z z z U ;.",
"F Z W W W W W W W W W W W W W W W W W W W W ! ) & O , S W W W W W W W W W W W W W W W W W W W W ! +.",
"- u d d d d d d d d d d d d d d d d d d d d f D - O - i d d d d d d d d d d d d d d d d d d d d v Q ",
"- u d d d d d d d d d d d d d d d d d d d d f D * O - p d d d d d d d d d d d d d d d d d d d d v Q ",
"- u d d d d d d d d d d d d d d d d d d d d f D * O - p d d d d d d d d d d d d d d d d d d d d v Q ",
"- u d d d d d d d d d d d d d d d d d d d d f D * O - p d d d d d d d d d d d d d d d d d d d d v Q ",
"- u d d d d d d d d d d d d d d d d d d d d f D * O - p d d d d d d d d d d d d d d d d d d d d v Q ",
"- u d d d d d d d d d d d d d d d d d d d d f D * O - p d d d d d d d d d d d d d d d d d d d d v Q ",
"- u d d d d d d d d d d d d d d d d d d d d f D * O - p d d d d d d d d d d d d d d d d d d d d v Q ",
"- u d d d d d d d d d d d d d d d d d d d d f D * O - p d d d d d d d d d d d d d d d d d d d d v Q ",
"- u d d d d d d d d d d d d d d d d d d d d f D * O - p d d d d d d d d d d d d d d d d d d d d v Q ",
"- u d d d d d d d d d d d d d d d d d d d d f D * O - p d d d d d d d d d d d d d d d d d d d d v Q ",
"- u d d d d d d d d d d d d d d d d d d d d f D * O - p d d d d d d d d d d d d d d d d d d d d v Q ",
"- u d d d d d d d d d d d d d d d d d d d d f D * X - p d d d d d d d d d d d d d d d d d d d d v Q ",
"; 7 u u u u u u u u u u u u u u u u u u u u i C y 9 ; e u u u u u u u u u u u u u u u u u u u u s R ",
"^ - = = = = = = = = = = = = = = = = = = = = - T *.*.Y = = = = = = = = = = = = = = = = = = = = = : / "
};
