/* XPM */
static char *_b0eb9aed20b438ced3a2a3e719d32adTDIfwtSvgjlC7OhN[] = {
/* columns rows colors chars-per-pixel */
"30 30 235 2 ",
"   c black",
".  c #060606",
"X  c #010101",
"o  c #040404",
"O  c #020203",
"+  c black",
"@  c black",
"#  c black",
"$  c black",
"%  c black",
"&  c gray2",
"*  c gray18",
"=  c black",
"-  c black",
";  c black",
":  c #010102",
">  c #ADAEB0",
",  c #ADAEB1",
"<  c #020205",
"1  c #060606",
"2  c gray1",
"3  c gray23",
"4  c #30240C",
"5  c black",
"6  c black",
"7  c #060606",
"8  c gray1",
"9  c gray51",
"0  c #6B4F1C",
"q  c black",
"w  c black",
"e  c #040404",
"r  c black",
"t  c black",
"y  c black",
"u  c #484848",
"i  c #3D2D10",
"p  c black",
"a  c None",
"s  c black",
"d  c black",
"f  c #3E2F11",
"g  c #030405",
"h  c #060606",
"j  c #7B6B10",
"k  c #6E521F",
"l  c #030405",
"z  c #373007",
"x  c #31250E",
"c  c #030405",
"v  c #000001",
"b  c #926B26",
"n  c #926C26",
"m  c #010100",
"M  c #040301",
"N  c #271D0A",
"B  c black",
"V  c #323232",
"C  c #F3F4F7",
"Z  c #F0F0F3",
"A  c gray29",
"S  c #494949",
"D  c #4D4D4C",
"F  c #CAC4A0",
"G  c #FFF8C4",
"H  c #FEF5C2",
"J  c #FFF8C5",
"K  c #CAC18D",
"L  c #4B420D",
"P  c #43370C",
"I  c #3E2E10",
"U  c #FDFDFD",
"Y  c #FAFAFC",
"T  c #FAFAF9",
"R  c #F9E366",
"E  c #F8D822",
"W  c #F8D823",
"Q  c #F8D926",
"!  c #F7D724",
"~  c #F3D41F",
"^  c #E6BE28",
"/  c #D69F38",
"(  c gray51",
")  c white",
"_  c #FEF6CC",
"`  c #FDF0A6",
"'  c #F9E83F",
"]  c #F8E417",
"[  c #FAE765",
"{  c #FBE87A",
"}  c #F8E519",
"|  c #F8E116",
" . c #F9DA1F",
".. c #ECC229",
"X. c #DBA239",
"o. c #6C501C",
"O. c #7E7F80",
"+. c #FBE87B",
"@. c #F8D81C",
"#. c #F8EF06",
"$. c #F8F90C",
"%. c #FEFED0",
"&. c #FEFFD0",
"*. c #FCFC0F",
"=. c #FAF108",
"-. c #F9D91F",
";. c #EBC22A",
":. c #DBA139",
">. c #6A4E1C",
",. c #7F7F80",
"<. c #BEB68A",
"1. c #FDED92",
"2. c #F9EA43",
"3. c #F8E810",
"4. c #FBF660",
"5. c #FCFC81",
"6. c #FBFC7F",
"7. c #FCFA82",
"8. c #FDEF91",
"9. c #E3D675",
"0. c #828109",
"q. c #9F9B04",
"w. c #F6E60F",
"e. c #F2D71B",
"r. c #EABD2C",
"t. c #AA8624",
"y. c #6A4F1C",
"u. c #646464",
"i. c #FDEE92",
"p. c #F8D71A",
"a. c #F8EC0B",
"s. c #F8F905",
"d. c #FDFDB9",
"f. c #FFFFF7",
"g. c #F9FA2F",
"h. c #F8F400",
"j. c #FBDE19",
"k. c #C7AC18",
"l. c #080602",
"z. c #444400",
"x. c #F3F400",
"c. c #F9EC0C",
"v. c #EABE2C",
"b. c #553F16",
"n. c #FCEC92",
"m. c #F8D71D",
"M. c #F8EC0C",
"N. c #FDFDB7",
"B. c #FFFFF3",
"V. c #F9FA32",
"C. c #F8F401",
"Z. c #FBDF1D",
"A. c #C8AE1A",
"S. c #0B0902",
"D. c #464600",
"F. c #F3F300",
"G. c #F8D920",
"H. c #E8BC2C",
"J. c #D8A038",
"K. c #543E16",
"L. c #F9FA31",
"P. c #F8F500",
"I. c #FBDF1C",
"U. c #FFFEF4",
"Y. c #F9F23A",
"T. c #F8EC09",
"R. c #FBDD1E",
"E. c #FFFDF6",
"W. c #F9E14D",
"Q. c #F8D81D",
"!. c #FBDB20",
"~. c #F9E04D",
"^. c #FDEE94",
"/. c #FFFDFA",
"(. c #FCE24E",
"). c #FBDB1E",
"_. c #FFDE21",
"`. c #CAB01A",
"'. c #7F7F82",
"]. c #BCAC51",
"[. c #FAD91F",
"{. c #F8F902",
"}. c #FBFB5B",
"|. c #F4F37B",
" X c #958827",
".X c #7A6A0F",
"XX c #7C6C10",
"oX c #7C6F0D",
"OX c #7A7901",
"+X c #A09B05",
"@X c #AC8726",
"#X c #6D521F",
"$X c #7A6A0E",
"%X c #FCDB21",
"&X c #F8F900",
"*X c #F9F900",
"=X c #E8E800",
"-X c #2D2E00",
";X c #2E2E00",
":X c #ECEC00",
">X c #FCF209",
",X c #DAA139",
"<X c #6D511F",
"1X c #000205",
"2X c #F8E018",
"3X c #F8E513",
"4X c #F8E514",
"5X c #F2DF13",
"6X c #AA9713",
"7X c #968313",
"8X c #F3D81B",
"9X c #E5B72E",
"0X c #E0AD32",
"qX c #6F531F",
"wX c #030405",
"eX c #F6D620",
"rX c #F3D320",
"tX c #F6D521",
"yX c #F8D721",
"uX c #FBDA21",
"iX c #EDC527",
"pX c #D49D37",
"aX c #D39C37",
"sX c #D69F37",
"dX c #473E09",
"fX c #4A400A",
"gX c #B59026",
"hX c #E5B332",
"jX c #E2B131",
"kX c #B38B28",
"lX c #413111",
"zX c #3D2E10",
"xX c #CD9736",
"cX c #CA9535",
"vX c #2A1F0B",
/* pixels */
"                    + @ B B B B B B @ +                     ",
"              # $ % & * V V V V V V * & % $ #               ",
"        . . X = - ; : > C Z Z Z Z C , < ; - =               ",
"        . 1 2 3 A S D F G H H H H J K L P I 4 5 6           ",
"        . 7 8 9 U Y T R E W E E W Q ! ~ ^ / 0 q w           ",
"        o e B ( ) _ ` ' ] [ { { [ } |  ...X.o.B r           ",
"          w B O.) +.@.#.$.%.) ) &.*.=.-.;.:.>.B w           ",
"      t y u ,.<.1.2.3.4.5.6.7.8.9.0.q.w.e.r.t.y.i y t       ",
"      p a u.) i.p.a.s.d.f.g.h.j.k.l.z.x.c.-.v.X.b.a p       ",
"      s d u.) n.m.M.s.N.B.V.C.Z.A.S.D.F.M.G.H.J.K.d s       ",
"      s d u.) n.m.M.s.N.B.V.C.Z.A.S.D.F.M.G.H.J.K.d s       ",
"      s d u.) n.m.M.s.N.B.V.C.Z.A.S.D.F.M.G.H.J.K.d s       ",
"      s d u.) n.m.M.s.N.B.V.C.Z.A.S.D.F.M.G.H.J.K.d s       ",
"      s d u.) n.m.M.s.N.B.V.C.Z.A.S.D.F.M.G.H.J.K.d s       ",
"      s d u.) n.m.M.s.N.B.V.C.Z.A.S.D.F.M.G.H.J.K.d s       ",
"      s d u.) n.m.M.s.N.B.V.C.Z.A.S.D.F.M.G.H.J.K.d s       ",
"      s d u.) n.m.M.s.N.B.V.C.Z.A.S.D.F.M.G.H.J.K.d s       ",
"      s d u.) n.m.M.s.N.B.L.P.I.A.S.D.F.M.G.H.J.K.d s       ",
"      s d u.) n.m.M.s.N.U.Y.T.R.A.S.D.F.M.G.H.J.K.d s       ",
"      s d u.) n.m.M.s.N.E.W.Q.!.A.S.D.F.M.G.H.J.K.d s       ",
"      s d u.) n.m.M.s.N.E.~.m.!.A.S.D.F.M.G.H.J.K.d s       ",
"      p a u.) ^.m.M.s.d./.(.)._.`.l.z.x.c.-.v.X.b.a p       ",
"      t y u '.].[.M.{.}.|. X.XXXoXOX+Xw.e.r.@X#Xf y t       ",
"          w B $X%XM.&X*X=X-XB B ;X:X>X-.;.,X<X1Xg O         ",
"          r B XX%X2X3X4X5X6X7X7X6X5X8X9X0XX.qXwXh .         ",
"          w q j eXrXrXtXyXuX%X%XuXyXiXpXaXsXk l 7 .         ",
"          6 5 z dXdXfXgXhXjXjXjXjXhXkXlXzXI x c 1 .         ",
"              = - ; v b xXcXcXcXcXxXn m ; - = O . .         ",
"              # $ % M N vXvXvXvXvXvXN M % $ #               ",
"                    + @ B B B B B B @ +                     "
};
