/* XPM */
static char *dce5681501a6492986ae44fe1f7b4a0eXrntIQACc0rKRjRR[] = {
/* columns rows colors chars-per-pixel */
"50 50 145 2 ",
"   c None",
".  c #010101",
"X  c #060808",
"o  c #0B0A0A",
"O  c #1A1818",
"+  c #3F3A3B",
"@  c #531611",
"#  c #5B1D19",
"$  c #464142",
"%  c #564F50",
"&  c #5E5758",
"*  c #5D5657",
"=  c #775245",
"-  c #785447",
";  c #77564A",
":  c #795548",
">  c #6A6163",
",  c #736A6B",
"<  c #7C7274",
"1  c #EB463E",
"2  c #F44336",
"3  c #F84233",
"4  c #F34539",
"5  c #F4493C",
"6  c #92504C",
"7  c #A44F42",
"8  c #A55043",
"9  c #BB5A69",
"0  c #B05E73",
"q  c #906F65",
"w  c #96766C",
"e  c #84797B",
"r  c #9C7D74",
"t  c #A96079",
"y  c #B6697D",
"u  c #DC4C4B",
"i  c #CE5258",
"p  c #E94740",
"a  c #E34A46",
"s  c #F55145",
"d  c #F85042",
"f  c #F5584D",
"g  c #F87E77",
"h  c #FFED36",
"j  c #FFEC3A",
"k  c #A3837B",
"l  c #BAD174",
"z  c #EAE34D",
"x  c #CAD767",
"c  c #CBD866",
"v  c #4879A7",
"b  c #6F77AD",
"n  c #6D78AF",
"m  c #627CB9",
"M  c #697CB3",
"N  c #996788",
"B  c #9F6482",
"V  c #826F9B",
"C  c #82709C",
"Z  c #A06380",
"A  c #8D7AA3",
"S  c #7EBAA7",
"D  c #78B7AC",
"F  c #6AB2B7",
"G  c #66B1B9",
"H  c #3A84C3",
"J  c #2E8CD9",
"K  c #3E8BDA",
"L  c #3FA2DB",
"P  c #1E96F5",
"I  c #1D98F7",
"U  c #1B99F9",
"Y  c #1B96F8",
"T  c #368EE1",
"R  c #2C9AEB",
"E  c #2795EB",
"W  c #369EE2",
"Q  c #2196F3",
"!  c #2298F3",
"~  c #2899F3",
"^  c #339DF3",
"/  c #4986CF",
"(  c #5483C6",
")  c #5084C9",
"_  c #418AD7",
"`  c #729CD5",
"'  c #52A9CA",
"]  c #40A2DA",
"[  c #4CA6F2",
"{  c #67B1F1",
"}  c #74B7F2",
"|  c #79B8F1",
" . c #8D8284",
".. c #A78881",
"X. c #A88982",
"o. c #AE918A",
"O. c #A99C9E",
"+. c #A29597",
"@. c #B79B95",
"#. c #92AA94",
"$. c #A5BC85",
"%. c #AB9EA0",
"&. c #D38C89",
"*. c #DF918B",
"=. c #F9938E",
"-. c #FA9994",
";. c #C2A6A2",
":. c #C4A9A5",
">. c #CAB0AD",
",. c #C1B2B4",
"<. c #CCB7B7",
"1. c #D2B9B6",
"2. c #D3BBB9",
"3. c #FBA6A2",
"4. c #FBA8A4",
"5. c #FBB1AE",
"6. c #FCB6B4",
"7. c #FCB8B7",
"8. c #FCBEBD",
"9. c #99C48F",
"0. c #99C590",
"q. c #AACA82",
"w. c #A49FC2",
"e. c #94C2F0",
"r. c #ACCBF0",
"t. c #A7CBF2",
"y. c #D7C6C9",
"u. c #E3CBCB",
"i. c #FECECE",
"p. c #FCC1C0",
"a. c #FDCFD0",
"s. c #ECD6D6",
"d. c #E8D6D8",
"f. c #FED9DA",
"g. c #F2D4DA",
"h. c #C5D5EF",
"j. c #CBD7EF",
"k. c #DADDEF",
"l. c #EAD7E0",
"z. c #E3E0EF",
"x. c #F6E2E5",
"c. c #FBE7E9",
"v. c #FFEBEE",
"b. c #FFEEF1",
"n. c #FFF1F4",
/* pixels */
"                        2 2 2 2 2 2 2 2 2 2 2 2 2 2 2 2 2 2 2 2 2 2 2                               ",
"                        2 2 2 2 2 2 2 2 2 2 2 2 2 2 2 2 2 2 2 2 2 2 2                               ",
"                        2 2 2 2 2 2 2 2 2 2 2 2 2 2 2 2 2 2 2 2 2 2 2                               ",
"                2 2 2 2 2 2 2 2 2 2 2 2 2 2 2 2 2 2 2 2 2 2 2 2 2 2 2 2 2 2 2 2 2 2 2 2 2 2         ",
"                2 2 2 2 2 2 2 2 2 2 2 2 2 2 2 2 2 2 2 2 2 2 2 2 2 2 2 2 2 2 2 2 2 2 2 2 2 2         ",
"                2 2 2 2 2 2 2 2 2 2 2 2 2 2 2 2 2 2 2 2 2 2 2 2 2 2 2 2 2 2 2 2 2 2 2 2 2 2         ",
"                7 7 7 7 7 7 7 7 7 7 8 *.6.5.5.5.5.5.5.5.5.6.&.# @ @ 6 5.5.5.=.                      ",
"                : : : : : : : : : : : 2.n.b.b.b.b.b.b.b.b.n.,.X . . & b.b.b.                        ",
"                - - - - : : : - - - : 2.b.v.v.v.v.v.v.v.v.b.,.o . . & v.v.v.                        ",
"        : : = w ;.:.:.k : : - k :.;.:.s.v.v.v.v.v.v.v.v.v.b.,.o . . & v.v.v.v.v.v.v.v.v.v.v.        ",
"        : : = r v.b.n.>.- : = ;.n.b.b.v.v.v.v.v.v.v.v.v.v.b.,.o . . & v.v.v.v.v.v.v.v.v.v.v.        ",
"        : : = r c.v.b.>.- : = ;.n.b.b.v.v.v.v.v.v.v.v.v.v.b.,.X . . * b.b.b.b.v.v.v.v.v.v.v.        ",
"        : : = r c.v.b.>.- : - k :.:.:.s.v.v.v.v.v.v.v.v.v.b.y., , , <  . . .<.b.v.v.v.v.v.v.v.      ",
"        : : = r c.v.b.>.- : : - - - : 2.b.v.v.v.v.v.v.v.v.v.v.b.b.n.+.. . . e b.v.v.v.v.v.v.v.v.v.v.",
"        : : = r v.b.n.>.= = = = = = - 2.b.v.v.v.v.v.v.v.v.v.v.b.b.n.+.. . . e n.b.b.b.b.b.b.v.v.v.v.",
"        : : - q 1.1.1.;.............X.u.b.v.v.v.v.v.v.v.v.v.d.%.O.%.> . . . % O.O.O.O.O.O.O.d.b.v.v.",
"        : : : : : : - o.v.v.v.v.v.v.v.v.v.v.v.v.v.v.v.v.v.b.,.o . . . . . . . . . . . . . .         ",
"        : : : : : : = o.v.v.v.v.v.v.v.v.v.v.v.v.v.v.v.v.v.b.,.X . . . . . . . . . . . . . .         ",
"        : : : : : : = @.v.v.v.v.v.v.v.v.v.v.v.v.v.v.v.v.v.b.y.$ + + + + + + + + + + O . . .         ",
"                        v.v.v.v.v.v.v.v.v.v.v.v.v.v.v.v.v.v.v.x.x.x.x.x.x.x.x.x.x.x.                ",
"                        b.b.b.v.v.v.v.v.b.b.b.b.b.b.b.b.b.b.b.b.b.b.b.v.v.v.v.v.v.v.                ",
"                        a.a.i.l.k.k.k.g.i.a.a.a.a.a.a.a.a.a.a.a.a.i.f.v.v.v.v.v.v.v.                ",
"                2 2 2 5 s s d A ^ ^ ^ y d s s s s s s s s s s s s s f                               ",
"                2 2 2 2 2 2 3 V I Q Q 0 3 2 2 2 2 2 2 2 2 2 2 2 2 2 2                               ",
"                2 2 2 2 2 2 2 C I Q Q 0 3 2 2 2 2 2 4 a u u a 2 2 2 2                               ",
"        2 2 2 2 2 2 2 2 2 2 2 C I Q Q 0 3 2 2 2 2 2 u ( K K n 1 2 2 2 2 2 2 2 2 2 2                 ",
"        2 2 2 2 2 2 2 2 2 2 2 C I Q Q 0 3 2 2 2 2 2 u T I I ( 1 2 2 2 2 2 2 2 2 2 2                 ",
"        2 2 2 2 2 2 2 2 2 2 2 C I Q Q t 1 1 1 1 1 1 i T Q I ( 1 2 2 2 2 2 2 2 2 2 2                 ",
"2 2 2 2 2 2 2 2 2 2 2 2 2 2 2 C I Q Q _ ) ) ) ) ) ) / E Q I ( 1 2 2 2 2 2 2 2 2 2 2 2 2 2 2         ",
"2 2 2 2 2 2 2 2 2 2 2 2 2 2 2 C I Q Q I I I I I I I I Q Q I ( 1 2 2 2 2 2 2 2 2 2 2 2 2 2 2         ",
"4 4 4 4 4 4 4 4 2 2 2 2 4 4 2 C ! ! ! Q Q Q Q Q Q Q Q ! ! ! ( p 4 4 4 2 2 2 2 4 4 4 4 4 4 4         ",
"6.6.6.6.6.6.7.-.4 2 2 9 m m m #.l l l ' I Q Q Q Q Q W q.l l $.M m m N 2 2 2 g 7.6.6.6.6.6.6.        ",
"b.b.b.b.b.b.n.p.5 2 3 B I I Y 0.h j j F I Q Q Q Q I ] z h h c ~ I U n 2 2 2 -.n.b.b.b.b.b.b.        ",
"v.v.v.v.v.v.b.8.4 2 3 Z Q Q I 9.h j j F I Q Q Q Q I L z j h x R Q I b 2 2 3 -.b.v.v.v.v.v.v.        ",
"v.v.v.v.v.v.v.f.4.3.3.w.Q Q Q ' S S S L I Q Q Q Q Q R D S S G ! Q I ` 3.3.3.i.v.v.v.v.v.v.v.        ",
"v.v.v.v.v.v.v.v.b.b.b.t.Q Q Q I I I I Q Q Q Q Q Q Q Q I I I I Q Q P } b.b.b.b.v.v.v.v.v.v.v.        ",
"v.v.v.v.v.v.v.v.v.v.v.r.Q Q Q Q Q Q Q Q Q Q Q Q Q Q Q Q Q Q Q Q Q P } v.v.v.v.v.v.v.v.v.v.v.        ",
"v.v.v.v.v.v.v.z.e.e.e.{ Q Q Q Q Q Q Q Q Q Q Q Q Q Q Q Q Q Q Q Q Q P [ e.e.e.j.v.v.v.v.v.v.v.        ",
"v.v.v.v.v.v.v.h.! P P P Q Q Q Q Q Q Q Q Q Q Q Q Q Q Q Q Q Q Q Q Q Q Q P P P e.v.v.v.v.v.v.v.        ",
"v.v.v.v.v.v.v.h.~ Q Q Q Q Q Q Q Q Q Q Q Q Q Q Q Q Q Q Q Q Q Q Q Q Q Q Q Q P e.v.v.v.v.v.v.v.        ",
"v.v.v.v.v.v.v.r.! Q Q Q Q Q Q Q Q Q Q Q Q Q Q Q Q Q Q Q Q Q Q Q Q Q Q Q Q P | v.v.v.v.v.v.v.        ",
"                Q Q Q Q Q Q Q Q Q Q Q                 Q Q Q Q Q Q Q Q Q Q Q                         ",
"                Q Q Q Q Q Q Q Q Q Q Q                 Q Q Q Q Q Q Q Q Q Q Q                         ",
"                H H H H H H H J Q Q Q                 Q Q Q E H H H H H H H v                       ",
"        : : : : ; ; ; ; ; ; ;                                 ; ; ; ; ; ; ; : : : :                 ",
"        : : : : : : : : : : :                                 : : : : : : : : : : :                 ",
"        : : : : : : : : : : :                                 : : : : : : : : : : :                 ",
": : : : : : : : : : : : : : :                                 : : : : : : : : : : : : : : :         ",
": : : : : : : : : : : : : : :                                 : : : : : : : : : : : : : : :         ",
": : : : : : : : : : : : : : :                                 : : : : : : : : : : : : : : :         "
};
