/* XPM */
static char *result[] = {
/* columns rows colors chars-per-pixel */
"50 50 242 2 ",
"   c #CC0004",
".  c #C6040B",
"X  c #D10003",
"o  c #D10005",
"O  c #D00107",
"+  c #D40506",
"@  c #DA0401",
"#  c #D00108",
"$  c #D80D0D",
"%  c #D80E0D",
"&  c #DA140F",
"*  c #DD190F",
"=  c #D91210",
"-  c #DE1C10",
";  c #E7160E",
":  c #E61908",
">  c #EA1B10",
",  c #E2200D",
"<  c #FF260D",
"1  c #F82A08",
"2  c #EF320E",
"3  c #F0330E",
"4  c #F0330F",
"5  c #F3350C",
"6  c #F2340F",
"7  c #F4340E",
"8  c #F7350E",
"9  c #F9360D",
"0  c #F8350E",
"q  c #FF350E",
"w  c #FF380F",
"e  c #E42313",
"r  c #EB2010",
"t  c #ED2716",
"y  c #E42813",
"u  c #E62A12",
"i  c #E82B10",
"p  c #E92C11",
"a  c #E92D11",
"s  c #E92D13",
"d  c #EE2916",
"f  c #FF2E11",
"g  c #F73111",
"h  c #FF3713",
"j  c #FF3811",
"k  c #FF3813",
"l  c #FF3913",
"z  c #FF3B12",
"x  c #FF3E12",
"c  c #FF3814",
"v  c #FF3914",
"b  c #FF3B16",
"n  c #F13219",
"m  c #F0371D",
"M  c #F73C1C",
"N  c #F53F1D",
"B  c #FF3B18",
"V  c #FF3F1A",
"C  c #FF400D",
"Z  c #FF4516",
"A  c #FF4D12",
"S  c #FF401A",
"D  c #FF411A",
"F  c #FF441B",
"G  c #FA401C",
"H  c #FF421F",
"J  c #FF451D",
"K  c #FF451E",
"L  c #FF441F",
"P  c #FF461E",
"I  c #FF491F",
"U  c #FF4F1D",
"Y  c #FF591C",
"T  c #FF5F1F",
"R  c #FF6E0D",
"E  c #FF6D13",
"W  c #FF7315",
"Q  c #FF7719",
"!  c #FF701C",
"~  c #FF791F",
"^  c #FF4A21",
"/  c #FF4B23",
"(  c #FF4C20",
")  c #FF4E20",
"_  c #FF5021",
"`  c #FF5122",
"'  c #FF5222",
"]  c #FF5323",
"[  c #FF5622",
"{  c #FF5722",
"}  c #FF5723",
"|  c #FF5724",
" . c #FF5923",
".. c #FF5E23",
"X. c #FF5D25",
"o. c #FF5E25",
"O. c #FF5F26",
"+. c #FF6723",
"@. c #FF6225",
"#. c #FF6026",
"$. c #FF6425",
"%. c #FF6923",
"&. c #FF6A23",
"*. c #FF6528",
"=. c #FF642A",
"-. c #FF682A",
";. c #FF6E28",
":. c #FF6B2C",
">. c #FF6B2D",
",. c #FF6D2E",
"<. c #FF6E2E",
"1. c #FF7021",
"2. c #FF7824",
"3. c #FF7B24",
"4. c #FF732B",
"5. c #FF742B",
"6. c #FF722D",
"7. c #FF752D",
"8. c #FF762F",
"9. c #FF7D28",
"0. c #FF782D",
"q. c #FF7E2F",
"w. c #FF6D30",
"e. c #FF6E30",
"r. c #FF7230",
"t. c #FF7330",
"y. c #FF7232",
"u. c #FF7332",
"i. c #FF7333",
"p. c #FF7531",
"a. c #FF7630",
"s. c #FF7631",
"d. c #FF7533",
"f. c #FF7632",
"g. c #FF7A31",
"h. c #FF7A32",
"j. c #FF7A33",
"k. c #FF7E30",
"l. c #FF7C33",
"z. c #B77B4F",
"x. c #AC7E54",
"c. c #FF861F",
"v. c #FF8029",
"b. c #FF802B",
"n. c #FF812C",
"m. c #FF832D",
"M. c #FF842D",
"N. c #FF852E",
"B. c #FF842F",
"V. c #FF852F",
"C. c #FF862F",
"Z. c #FF872F",
"A. c #FF8E2B",
"S. c #FF8030",
"D. c #FF8031",
"F. c #FF8630",
"G. c #FF8730",
"H. c #FF8731",
"J. c #FF8633",
"K. c #FF8835",
"L. c #FF8E36",
"P. c #FF953C",
"I. c #FFA833",
"U. c #FFA53C",
"Y. c #FFAC38",
"T. c #B5885D",
"R. c #B1A06B",
"E. c #B9A168",
"W. c #DF8B4D",
"Q. c #DF8F4D",
"!. c #E38F4C",
"~. c #E2904C",
"^. c #FF9644",
"/. c #FF9940",
"(. c #FF9847",
"). c #FF9947",
"_. c #FF9749",
"`. c #FF954A",
"'. c #F69E4B",
"]. c #F79A4E",
"[. c #EE9C52",
"{. c #E99A55",
"}. c #E89E57",
"|. c #E09D5A",
" X c #EA9F58",
".X c #F59F54",
"XX c #FC9F53",
"oX c #FF9759",
"OX c #FFAE42",
"+X c #FFA14B",
"@X c #FFA74B",
"#X c #FFA24C",
"$X c #FDA14E",
"%X c #FFA94C",
"&X c #FFAB4E",
"*X c #FFAB4F",
"=X c #FFB048",
"-X c #FFB84A",
";X c #EFA057",
":X c #EEA257",
">X c #ECA85A",
",X c #F3A055",
"<X c #F3A157",
"1X c #F4A155",
"2X c #F7A555",
"3X c #F5A754",
"4X c #FDA151",
"5X c #FFA252",
"6X c #FFA352",
"7X c #FFA752",
"8X c #F3A358",
"9X c #FFB051",
"0X c #FFB556",
"qX c #FFB850",
"wX c #FFBD52",
"eX c #FFB45C",
"rX c #C19263",
"tX c #C9A865",
"yX c #C0A56A",
"uX c #D4AB63",
"iX c #D0AC67",
"pX c #FFAC61",
"aX c #FFB460",
"sX c #FFBB6E",
"dX c #FFC14A",
"fX c #FFC261",
"gX c #FFCB62",
"hX c #FFD56F",
"jX c #FFDA77",
"kX c #FFDD8B",
"lX c #FFD490",
"zX c #FFE794",
"xX c #FFEC90",
"cX c #FFEB97",
"vX c #FFE099",
"bX c #FFEAA6",
"nX c #FFF1AE",
"mX c #FFF8B6",
"MX c #FFFFBD",
"NX c #FFFFC0",
"BX c #FFFFC3",
"VX c None",
/* pixels */
"VXVXVXVXVXVXVXVXVXVXVXVXVXVXVXVXVXVXVXVXVXVXVXVXVXVXVXVXVXVXVXVXVXVXVXVXVXVXVXVXVXVXVXVXVXVXVXVXVXVX",
"VXVXVXVXVXVXVXVXVXVXVXVXVXVXVXVXVXVXVXVXVXVXVXVXVXVXVXVXVXVXVXVXVXVXVXVXVXVXVXVXVXVXVXVXVXVXVXVXVXVX",
"VXVXVXVXVXVXVXVXVXVXVXVXVXVXVXVXVXVXVXVXVXVXVXVXVXVXVXVXVXVXVXVXVXVXVXVXVXVXVXVXVXVXVXVXVXVXVXVXVXVX",
"VXVXVXVXVXVXVXVXVXVXVXVXVXVXVXVXVXVXVXVXVXVXVXVXVXVXVXVXVXVXVXVXVXVXVXVXVXVXVXVXVXVXVXVXVXVXVXVXVXVX",
"VXVXVXVXVXVXVXVXVXVXVXVXVXVXVXVXVXVXVXVXVXVXVXVXVXVXVXVXVXVXVXVXVXVXVXVXVXVXVXVXVXVXVXVXVXVXVXVXVXVX",
"VXVXVXVXVXVXVXVXVXVXVXVXVXVXVXVXVXVXVXVXVXVXVXVXVXVXVXVXVXVXVXVXVXVXVXVXVXVXVXVXVXVXVXVXVXVXVXVXVXVX",
"VXVXVXVXVXVXVXVXVXVXVXVXVXVXVXVXVXVXVXVXVXVXVXVXVXVXVXVXVXVXVXVXVXVXVXVXVXVXVXVXVXVXVXVXVXVXVXVXVXVX",
"VXVXVXVXVXVXVXVXVXVXVXVXVXVXVXVXVXVXVXVXVXVXVXVXVXVXVXVXVXVXVXVXVXVXVXVXVXVXVXVXVXVXVXVXVXVXVXVXVXVX",
"VXVXVXVXVXVXVXVXVXVXVXVXVXVXVXVXVXVXVXVXVXVXVXVXVXVXVXVXVXVXVXVXVXVXVXVXVXVXVXVXVXVXVXVXVXVXVXVXVXVX",
"VXVXVXVXVXVXVXVXVXVXVXVXVXVXVXVXVXVXVXVXVXVXVXVXVXVXVXVXVXVXVXVXVXVXVXVXVXVXVXVXVXVXVXVXVXVXVXVXVXVX",
"VXVXVXVXVXVXVXVXVXVXVXVXVXVXVXVXVXVXVXVXVXVXVXVXVXVXVXVXVXVXVXVXVXVXVXVXVXVXVXVXVXVXVXVXVXVXVXVXVXVX",
"VXVXVXVXVXVXVXVXVXVXVXVXVXVXVXVXVXVXVXVXVXVXVXVXVXVXVXVXVXVXVXVXVXVXVXVXVXVXVXVXVXVXVXVXVXVXVXVXVXVX",
"VXVXVXVXVXVXVXVXVXVXVXVXVXVXVXVXVXVXVXVXVXVXVXVXVXVXVXVXVXVXVXVXVXVXVXVXVXVXVXVXVXVXVXVXVXVXVXVXVXVX",
"VXVXVXVXVXVXVXVXVXVXVXVXVXVXVXVXVXVXVXVXVXVXVXVXVXVXVXVXVXVXVXVXVXVXVXVXVXVXVXVXVXVXVXVXVXVXVXVXVXVX",
"VXVXVXVXVXVXVXVXVXVXVXVXVXVXVXVXVXVXVXVXVXVXVXVXVXVXVXVXVXVXVXVXVXVXVXVXVXVXVXVXVXVXVXVXVXVXVXVXVXVX",
"VXVXVXVXVXVXVXVXVXVXVXVXVXVXVXVXVXVXVXVXVXVXVXVXVXVXVXVXVXVXVXVXVXVXVXVXVXVXVXVXVXVXVXVXVXVXVXVXVXVX",
"VXVXVXVXVXVXVXVXVXVXVXVXVXVXVXVXVXVXVXVXVXVXVXVXVXVXVXVXVXVXVXVXVXVXVXVXVXVXVXVXVXVXVXVXVXVXVXVXVXVX",
"VXVXVXVXVXVXVXVXVXVXVXVXVXVXVXVXVXVXVXVXVXVXVXVXVXVXVXVXVXVXVXVXVXVXVXVXVXVXVXVXVXVXVXVXVXVXVXVXVXVX",
"VXVXVXVXVXVXVXVXVXVXVXVXVXVXVXVXVXVXVXVXVXVXVXVXVXVXVXVXVXVXVXVXVXVXVXVXVXVXVXVXVXVXVXVXVXVXVXVXVXVX",
"VXVXVXVXVXVXVXVXVXVXVXVXVXVXVXVXVXVXVXVXVXVXVXVXVXVXVXVXVXVXVXVXVXVXVXVXVXVXVXVXVXVXVXVXVXVXVXVXVXVX",
"VXVXVXVXVXVXVXVXVXVXVXVXVXVXVXVXVXVXVXVXVXVXVXVXVXVXVXVXVXVXVXVXVXVXVXVXVXVXVXVXVXVXVXVXVXVXVXVXVXVX",
"VXVXVXVXVXVXVXVXVXVXVXVXVXVXVXVXVXVXVXVXVXVXVXVXVXVXVXVXVXVXVXVXVXVXVXVXVXVXVXVXVXVXVXVXVXVXVXVXVXVX",
"VXVXVXVXVXVXVXVXVXVXVXVXVXVXVXVXVXVXVXVXVXVXVXVXVXVXVXVXVXVXVXVXVXVXVXVXVXVXVXVXVXVXVXVXVXVXVXVXVXVX",
"VXVXVXVXVXVXVXVXVXVXVXVXVXVXVXVXVXVXVXVXVXVXVXVXVXVXVXVXVXVXVXVXVXVXVXVXVXVXVXVXVXVXVXVXVXVXVXVXVXVX",
"VXVXVXVXVXVXVXVXVXVXVXVXVXVXVXVXVXVXVXVXVXVXVXVXVXVXVXVXVXVXVXVXVXVXVXVXVXVXVXVXVXVXVXVXVXVXVXVXVXVX",
"VXVXVXVXVXVXVXVXVXVXVXVXVXVXVXVXVXVXVXVXVXVXVX!.'.8X3X{.VXVXVXVXVXVXVXVXVXVXVXVXVXVXVXVXVXVXVXVXVXVX",
"VXVXVXVXVXVXVXVXVXVXVXVXVXVXVXVXVXVXVXVXx.P.OXcXeXc.=XwX-X*XT.VXVXVXVXVXVXVXVXVXVXVXVXVXVXVXVXVXVXVX",
"VXVXVXVXVXVXVXVXVXVXVXVXVXVXVXVXVXVXVX~.hXkX`.lXpXE L.9X0XqXdX>XVXVXVXVXVXVXVXVXVXVXVXVXVXVXVXVXVXVX",
"VXVXVXVXVXVXVXVXVXVXVXVXVXVXVXVXVXVXQ.jXBXbXK.W v.F.b.H./.@X&XY.[.VXVXVXVXVXVXVXVXVXVXVXVXVXVXVXVXVX",
"VXVXVXVXVXVXVXVXVXVXVXVXVXVXVXVXVXz.gXNXvXb.~ m.M.F.V.n.9.B.F.2.I.rXVXVXVXVXVXVXVXVXVXVXVXVXVXVXVXVX",
"VXVXVXVXVXVXVXVXVXVXVXVXVXVXVXVXVX#XzXMX_.R H.V.V.V.V.V.C.N.M.m.A.%XVXVXVXVXVXVXVXVXVXVXVXVXVXVXVXVX",
"VXVXVXVXVXVXVXVXVXVXVXVXVXVXVXVXVXfXmXsXQ N.C.C.C.C.C.Z.V.B.B.D.5.U.VXVXVXVXVXVXVXVXVXVXVXVXVXVXVXVX",
"VXVXVXVXVXVXVXVXVXVXVXVXVXVXVXVXW.xXnX7.1.D.q.k.k.S.D.k.g.h.a.,.=.J.}.VXVXVXVXVXVXVXVXVXVXVXVXVXVXVX",
"VXVXVXVXVXVXVXVXVXVXVXVXVXVXVXVX].aXoX$.i.p.t.r.f.l.j.d.y.e.>.o.{ ;.6XVXVXVXVXVXVXVXVXVXVXVXVXVXVXVX",
"VXVXVXVXVXVXVXVXVXVXVXVXVXVXVXVX X! A <.e.w.u.d.r.m / s.:.#...| F Y .XVXVXVXVXVXVXVXVXVXVXVXVXVXVXVX",
"VXVXVXVXVXVXVXVXVXVXVXVXVXVXVXVX,X&.U O.X.*.-.6.' . e @...} ` ] f g XXVXVXVXVXVXVXVXVXVXVXVXVXVXVXVX",
"VXVXVXVXVXVXVXVXVXVXVXVXVXVXVXVX|.+.B ) ) [ [  .( H ^ _ ) ^ D x : N ;XVXVXVXVXVXVXVXVXVXVXVXVXVXVXVX",
"VXVXVXVXVXVXVXVXVXVXVXVXVXVXVXVXVXG.< S S K P L I _ ) J V b q 5 + 8.VXVXVXVXVXVXVXVXVXVXVXVXVXVXVXVX",
"VXVXVXVXVXVXVXVXVXVXVXVXVXVXVXVXVX+XC 1 z z k c l k c v j w 6 , r (.VXVXVXVXVXVXVXVXVXVXVXVXVXVXVXVX",
"VXVXVXVXVXVXVXVXVXVXVXVXVXVXVXVXVXyX3.@ 4 2 8 0 8 8 8 9 7 3 s   +.iXVXVXVXVXVXVXVXVXVXVXVXVXVXVXVXVX",
"VXVXVXVXVXVXVXVXVXVXVXVXVXVXVXVXVXVX<XZ X * u a i i i p y - o h 5XVXVXVXVXVXVXVXVXVXVXVXVXVXVXVXVXVX",
"VXVXVXVXVXVXVXVXVXVXVXVXVXVXVXVXVXVXVX2X%.> O $ & = & % # ; T 7XVXVXVXVXVXVXVXVXVXVXVXVXVXVXVXVXVXVX",
"VXVXVXVXVXVXVXVXVXVXVXVXVXVXVXVXVXVXVXVXtX).0.G t n d M 4.^.uXVXVXVXVXVXVXVXVXVXVXVXVXVXVXVXVXVXVXVX",
"VXVXVXVXVXVXVXVXVXVXVXVXVXVXVXVXVXVXVXVXVXVXR.:X$X4X$X1XE.VXVXVXVXVXVXVXVXVXVXVXVXVXVXVXVXVXVXVXVXVX",
"VXVXVXVXVXVXVXVXVXVXVXVXVXVXVXVXVXVXVXVXVXVXVXVXVXVXVXVXVXVXVXVXVXVXVXVXVXVXVXVXVXVXVXVXVXVXVXVXVXVX",
"VXVXVXVXVXVXVXVXVXVXVXVXVXVXVXVXVXVXVXVXVXVXVXVXVXVXVXVXVXVXVXVXVXVXVXVXVXVXVXVXVXVXVXVXVXVXVXVXVXVX",
"VXVXVXVXVXVXVXVXVXVXVXVXVXVXVXVXVXVXVXVXVXVXVXVXVXVXVXVXVXVXVXVXVXVXVXVXVXVXVXVXVXVXVXVXVXVXVXVXVXVX",
"VXVXVXVXVXVXVXVXVXVXVXVXVXVXVXVXVXVXVXVXVXVXVXVXVXVXVXVXVXVXVXVXVXVXVXVXVXVXVXVXVXVXVXVXVXVXVXVXVXVX",
"VXVXVXVXVXVXVXVXVXVXVXVXVXVXVXVXVXVXVXVXVXVXVXVXVXVXVXVXVXVXVXVXVXVXVXVXVXVXVXVXVXVXVXVXVXVXVXVXVXVX",
"VXVXVXVXVXVXVXVXVXVXVXVXVXVXVXVXVXVXVXVXVXVXVXVXVXVXVXVXVXVXVXVXVXVXVXVXVXVXVXVXVXVXVXVXVXVXVXVXVXVX"
};
