/* XPM */
static char *result[] = {
/* columns rows colors chars-per-pixel */
"50 50 220 2 ",
"   c #020000",
".  c #0C0000",
"X  c #130000",
"o  c #1D0000",
"O  c #230101",
"+  c #2A0000",
"@  c #2E090C",
"#  c #340101",
"$  c #3C0202",
"%  c #3A0C0B",
"&  c #2D1618",
"*  c #352526",
"=  c #323234",
"-  c #450103",
";  c #4D0109",
":  c #480307",
">  c #550203",
",  c #5B0004",
"<  c #53030A",
"1  c #530A0A",
"2  c #4A0917",
"3  c #4C1417",
"4  c #57141A",
"5  c #6A0203",
"6  c #680104",
"7  c #730000",
"8  c #730E0E",
"9  c #640614",
"0  c #631114",
"q  c #76131A",
"w  c #431A20",
"e  c #581A22",
"r  c #7A1D27",
"t  c #7E1B3A",
"y  c #4B2A29",
"u  c #572529",
"i  c #47373A",
"p  c #503B3B",
"a  c #652729",
"s  c #78262C",
"d  c #692B33",
"f  c #782935",
"g  c #65363A",
"h  c #743735",
"j  c #543F43",
"k  c #623F42",
"l  c #783F48",
"z  c #474142",
"x  c #544848",
"c  c #6A474C",
"v  c #7A5659",
"b  c #635354",
"n  c #576061",
"m  c #6E6162",
"M  c #7D6B68",
"N  c gray50",
"B  c #820404",
"V  c #8D0000",
"C  c #861213",
"Z  c #931A1A",
"A  c #8A1924",
"S  c #86212D",
"D  c #8E2429",
"F  c #882828",
"G  c #94282A",
"H  c #962828",
"J  c #882734",
"K  c #9C2938",
"L  c #89363B",
"P  c #9C3434",
"I  c #9A343D",
"U  c #AD282A",
"Y  c #A0322F",
"T  c #A13335",
"R  c #A83637",
"E  c #B6393D",
"W  c #BD2A2B",
"Q  c #C53838",
"!  c #8A3C4A",
"~  c #933B4C",
"^  c #993346",
"/  c #AE3E50",
"(  c #B93D55",
")  c #AC374E",
"_  c #C03D59",
"`  c #8E4342",
"'  c #9D514F",
"]  c #884E55",
"[  c #994953",
"{  c #8C535E",
"}  c #805454",
"|  c #955B5B",
" . c #96424C",
".. c #B24D4A",
"X. c #AF504F",
"o. c #AB435B",
"O. c #BB5D5B",
"+. c #B65655",
"@. c #B44652",
"#. c #9B5160",
"$. c #8B5F6A",
"%. c #B9556B",
"&. c #BF5E71",
"*. c #AB546C",
"=. c #886B6C",
"-. c #977477",
";. c #897276",
":. c #A3666F",
">. c #BF6967",
",. c #BC6766",
"<. c #A4716F",
"1. c #B66878",
"2. c #BA7B7E",
"3. c #A47A7A",
"4. c #C04F4F",
"5. c #D15F5E",
"6. c #FF515F",
"7. c #C64E69",
"8. c #C5556D",
"9. c #CA5E78",
"0. c #D15974",
"q. c #E15C7C",
"w. c #C36D6B",
"e. c #C4716F",
"r. c #C9667A",
"t. c #D3637C",
"y. c #C67471",
"u. c #CC7674",
"i. c #CB7C7A",
"p. c #C97977",
"a. c #D87D7A",
"s. c #E1607E",
"d. c #CE817E",
"f. c #C1807C",
"g. c #917A82",
"h. c #CF7085",
"j. c #C17E8C",
"k. c #D8758D",
"l. c #CA6D84",
"z. c #ED728E",
"x. c #9D8890",
"c. c #9E9492",
"v. c #928787",
"b. c #A7868A",
"n. c #BF838F",
"m. c #A18C90",
"M. c #BA8A95",
"N. c #A5919B",
"B. c #B19BA3",
"V. c #93BDBD",
"C. c #9BA0A5",
"Z. c #B2A0A2",
"A. c #B2ABAE",
"S. c #CD8381",
"D. c #CC8B87",
"F. c #D28583",
"G. c #D28987",
"H. c #D28B89",
"J. c #D5908E",
"K. c #C48B9A",
"L. c #C8969E",
"P. c #DE9C9A",
"I. c #D99593",
"U. c #D7889C",
"Y. c #E19795",
"T. c #F19592",
"R. c #E0A09E",
"E. c #C99BA9",
"W. c #D59EAA",
"Q. c #EA8AA4",
"!. c #FC8EAB",
"~. c #ED9BB1",
"^. c #EE94AB",
"/. c #D5A7AB",
"(. c #D9AAB6",
"). c #CDB5B6",
"_. c #DBB8BC",
"`. c #C4A5A5",
"'. c #E3A3A2",
"]. c #E4B1AE",
"[. c #ECA2B7",
"{. c #E8A4B7",
"}. c #EEBDBC",
"|. c #E7B4B5",
" X c #D3B8C3",
".X c #FCACC0",
"XX c #EBB9C9",
"oX c #FBB7C7",
"OX c #F7BED3",
"+X c #D8C3C3",
"@X c #D5DADC",
"#X c #E9C2C2",
"$X c #F3C8C7",
"%X c #F3CAC9",
"&X c #F6C6CA",
"*X c #FFC1D6",
"=X c #FAC6DB",
"-X c #E9D3DB",
";X c #F2D1D3",
":X c #FBD5D4",
">X c #FCD3DE",
",X c #FFDBDB",
"<X c #FBD8D7",
"1X c #EBCBDB",
"2X c #D8DBE8",
"3X c #EDD3E1",
"4X c #FED8E6",
"5X c #FFDEF3",
"6X c #FFE6E6",
"7X c #FFE8E7",
"8X c #FFEDEC",
"9X c #F8E9EB",
"0X c #F4E6F2",
"qX c #FFEEFB",
"wX c #FEE5F4",
"eX c #FEF4F4",
"rX c #FDF5FE",
"tX c #FFFEFE",
"yX c #F4F8FD",
"uX c None",
/* pixels */
"uXuXuXuXuXuXuXuXuXuXuXuXuXuXuXuXuXuXuXuXuXuXuXuXuXuXuXuXuXuXuXuXuXuXuXuXuXuXuXuXuXuXuXuXuXuXuXuXuXuX",
"uXuXuXuXuXuXuXuXuXuXuXuXuXuXuXuXuXuXuXuXuXuXuXuXuXuXuXuXuXuXuXuXuXuXuXuXuXuXuXuXuXuXuXuXuXuXuXuXuXuX",
"uXuXuXuXuXuXuXuXuXuXuXuXuXuXuXuXuXuXuXuXuXuXuXuXuXuXuXuXuXuXuXuXuXuXuXuXuXuXuXuXuXuXuXuXuXuXuXuXuXuX",
"uXuXuXuXuXuXuXuXuXuXuXuXuXuXuXuXuXuXuXuXuXuXuXuXuXuXuXuXuXuXuXuXuXuXuXuXuXuXuXuXuXuXuXuXuXuXuXuXuXuX",
"uXuXuXuXuXuXuXuXuXuXuXuXuXuXuXuXuXuXuXuXuXuXuXuXuXuXuXuXuXuXuXuXuXuXuXuXuXuXuXuXuXuXuXuXuXuXuXuXuXuX",
"uXuXuXuXuXuXuXuXuXuXuXuXuXuXuXuXuXuXuXuXuXuXuXuXuXuXuXuXuXuXuXuXuXuXuXuXuXuXuXuXuXuXuXuXuXuXuXuXuXuX",
"uXuXuXuXuXuXuXuXuXuXuXuXuXuXuXuXuXuXp.<XtX,X,XeXuXuXuXuXuXuXuXuXuXuXuXuXuXuXuXuXuXuXuXuXuXuXuXuXuXuX",
"uXuXuXuXuXuXuXuXuXuXuXuXuXuXuX,XuXuXuXuXuX,.].8X:X6XuXuXuXuXuXuXuXuXuXuXuXuXuXuXuXuXuXuXuXuXuXuXuXuX",
"uXuXuXuXuXuXuXuXuXuXuXuXuXuX,Xp.uXuXuXuXuXuXuXuXe.:XeXuXuXuXuXuXuXuXuXuXuXuXuXuXuXuXuXuXuXuXuXuXuXuX",
"uXuXuXuXuXuXuXuXuXuXuXuXuXuXuXuXuXuXuXuXuXuXuXuXuXuXuXuXuX6X7XuXuXuXuXuXuXuXuXuXuXuXuXuXuXuXuXuXuXuX",
"uXuXuXuXuXuXuXuXuXuXuXuXuXuXuXuXuXuXuXuXuXuXuXuXuXuXuXuXuXuX7X7X7XuXuXuXuXuXuXuXuXuXuXuXuXuXuXuXuXuX",
"uXuXuXuXuXuXuXuXuXuXuXeXuXuXuXuXuXuXuXuXuXuXuXuXuXuXuXuXuXuXuX7X7X7XuXuXuXuXuXuXuXuXuXuXuXuXuXuXuXuX",
"uXuXuXuXuXuXuXuXuXuX,X,XuXuXuXuXuXuXuXuXuXuXuXuXuXuXuXuXuXuXuX7X7X7X7XuXuXuXuXuXuXuXuXuXuXuXuXuXuXuX",
"uXuXuXuXuXuXuXuXuXuX;XuXuXuXuXuXuXuXuXuXuXuXuXuXuXuXuXuXuXuXuXuXuX7X7XuXuXuXuXuXuXuXuXuXuXuXuXuXuXuX",
"uXuXuXuXuXuXuXuXuX6X|.uXuXuXuXuXuXuXuXuXuXuXuXuXuXuXuXuXuXuXuXuXuXuX7X7XuXuXuXuXuXuXuXuXuXuXuXuXuXuX",
"uXuXuXuXuXuXuXuXuX,XuXuXuXuXuXuXuXuXuXuXuXuXuXuXuXuXuXuXuXuXuXuXuXuXuXuX7X7XuXuXuXuXuXuXuXuXuXuXuXuX",
"uXuXuXuXuXuXuXuXuXeXuXuXuXuXuXuXuXuXuXuXuXuXuXuXuXuXuXuXuXuXuXuXuXuXuXuXuX6X7XuXuXuXuXuXuXuXuXuXuXuX",
"uXuXuXuXuXuXuXuXi.6XuXuXuXuXuXuXuXuXuXuXuXuXuXuXuXuXuXuXuXuXuXuXuXuXuXuXuXuXuXuXuXuXuXuXuXuXuXuXuXuX",
"uXuXuXuXuXuXuXuXI.8XuXuXuXuXuXuXuXuXuXuXuXuXuXuXuX      X + X uXuXuXuXuXuXuXuXuXuXuXuXuXuXuXuXuXuXuX",
"uXuXuXuXuXuXuXuX8X7XuXuXuXuXuXuXuXuXuXuXuXuXo   + g b c &   e d i uXuXuXuXuXuXuXuXuXuXuXuXuXuXuXuXuX",
"uXuXuXuXuXuXuXuXrX:Xu.uXuXuXuXuXuXuXuXuXuX. o l  X=XXXwX@Xe r Q.[.2 uXuXuXuXuXuXuXuXuXuXuXuXuXuXuXuX",
"uXuXuXuXuXuXuXuXeX,XS.uXuXuXuXuXuXuXuXuXu + 1.5XoXt._ 9.[.=X= ~ z.@.#.B.* uXuXuXuXuXuXuXuXuXuXuXuXuX",
"uXuXuXuXuXuXuXuXeX,Xd.uXuXuXuXuXuXuXuX[ o.c 5Xh.( 8.%.h.~.wXA.f  XQ.oXtX XO uXuXuXuXuXuXuXuXuXuXuXuX",
"uXuXuXuXuXuXuXuX'.:XH.uXuXuXuXuXuXuX! / # 3.OX7.8.S h.rXyXn.[ w E.qX1X0X=XE.O uXuXuXuXuXuXuXuXuXuXuX",
"uXuXuXuXuXuXuXuXF.,XG.i.uXuXuXuXuXo r r p XXk.8.^ (.rX@X{.8.M.3 %.qX0XyX~.W.@ uXuXuXuXuXuXuXuXuXuXuX",
"uXuXuXuXuXuXuXuXuX9Xp.d.uXuXuXuXuX{ l.M.n tXOX5 ).tXN.o t =X$.o U.tXtX3Xz.8.+ uXuXuXuXuXuXuXuXuXuXuX",
"uXuXuXuXuXuXuXuXuX}.P.i.F.uXuXuXuXc.*X&XN m.*Xj.j.M   2 o..X|.$ J L.(.k.h.~ uXuXuXuXuXuXuXuXuXuXuXuX",
"uXuXuXuXuXuXuXuXuX].;Xe.G.uXuXuXuX$.!.{.-X$ :.rXM.a ;.K.z.! v j ] > A q.~ X uXuXuXuXuXuXuXuXuXuXuXuX",
"uXuXuXuXuXuXuXuXuXuXeXR.e.D.uXuXuXa ^ 0.w.e @ OXtXtXtX>X) J   C.9X, 1.rXj uXuXuXuXuXuXuXuXuXuXuXuXuX",
"uXuXuXuXuXuXuXuXuXuX%X%Xe.i.I.uXuXD.! %., :.m.9 1XrX1X&.r J : @X4Xr.0XtXc uXuXuXuXuXuXuXuXuXuXuXuXuX",
"uXuXuXuXuXuXuXuXuXuXuX$X|.R ,.e.C uXY.XX! [ tXg.X s s S %.I . N.h.^.tX;.uXuXuXuXuXuXuXuXuXuXuXuXuXuX",
"uXuXuXuXuXuXuXuXuXuXuXuX<Xe.P P e.P +.R.W.^ r.tXx # S J *.f g < 5 !.1X* uXuXuXuXuXuXuXuXuXuXuXuXuXuX",
"uXuXuXuXuXuXuXuXuXuXuXuXeX%Xi.H R X.7 >.Y.}.| [ i 2 t.I 6.5 V.(./ r.- X uXuXuXuXuXuXuXuXuXuXuXuXuXuX",
"uXuXuXuXuXuXuXuXuXuXuXuXuXtX$Xd.H 8 S.f.+.F.4Xg 6 U ^ C V L 2XwX[.2 8 G O uXuXuXuXuXuXuXuXuXuXuXuXuX",
"uXuXuXuXuXuXuXuXuXuXuXuXuXuXtX%Xd.R +./.] D a.M 7 W , X p yX&X{.= # R R D + uXuXuXuXuXuXuXuXuXuXuXuX",
"uXuXuXuXuXuXuXuXuXuXuXuXuXuXuXtX<Xp.C P }.D.7 ..c O #   h ,XrX+XO q D H T $ uXuXuXuXuXuXuXuXuXuXuXuX",
"uXuXuXuXuXuXuXuXuXuXuXuXuXuXuXuXyX;Xd.H +.%XS.Z X.p X =.:Xa.f.u S D ; < q # uXuXuXuXuXuXuXuXuXuXuXuX",
"uXuXuXuXuXuXuXuXuXuXuXuXuXuXuXuXy 9XtX}...,.tX}.V Y ].tXtX:X% 5 E P 0 # < $ + uXuXuXuXuXuXuXuXuXuXuX",
"uXuXuXuXuXuXuXuXuXuXuXuXuXuXuXO   c L.9X6XO.i.tX#XY ..8X6X7Xx + q E q 9 T ; # O uXuXuXuXuXuXuXuXuXuX",
"uXuXuXuXuXuXuXuXuXuXuXuXuXuXuXX , $ . ] W.8XY.p.:X,Xi.+.#X&Xu uXo 0 - ; 4 O O . uXuXuXuXuXuXuXuXuXuX",
"uXuXuXuXuXuXuXuXuXuX+ uXuXuXy b.: > <     =.uX'.O./.#X,.u.<.uXuXuXuXX + o e %X-.uXuX+ uXuXuXuXuXuXuX",
"uXuXuXuXuXuXuXuXuXuXb.`.  X f.tXL.+ # uXuXuXuXtX6XJ.o m Y.G uXuXuXuXuXo - ;XtXZ.  F 1 uXuXuXuXuXuXuX",
"uXuXuXuXuXuXuXuXuXuXv tX-.` T.}.b.  uXuXuXuXuXuXuX8X|.uXuXB F.uXuXuXuXuXo +XtXZ.h 5.- uXuXuXuXuXuXuX",
"uXuXuXuXuXuXuXuXuXuXuXv.tX6X|   uXuXuXuXuXuXuXuXuXuXuXuXuXuXuXJ.uXuXuXuXuXo ).7XO.U 1 uXuXuXuXuXuXuX",
"uXuXuXuXuXuXuXuXuXuXuXy eX).X uXuXuXuXuXuXuXuXuXuXuXuXuXuXuXuXuXuXuXuXuXuXuX. ' 4.8 + uXuXuXuXuXuXuX",
"uXuXuXuXuXuXuXuXuXuXuX  z * uXuXuXuXuXuXuXuXuXuXuXuXuXuXuXuXuXuXuXuXuXuXuXuXuX# Q 3 uXuXuXuXuXuXuXuX",
"uXuXuXuXuXuXuXuXuXuXuXuXuXuXuXuXuXuXuXuXuXuXuXuXuXuXuXuXuXuXuXuXuXuXuXuXuXuXuXuXuXuXuXuXuXuXuXuXuXuX",
"uXuXuXuXuXuXuXuXuXuXuXuXuXuXuXuXuXuXuXuXuXuXuXuXuXuXuXuXuXuXuXuXuXuXuXuXuXuXuXuXuXuXuXuXuXuXuXuXuXuX",
"uXuXuXuXuXuXuXuXuXuXuXuXuXuXuXuXuXuXuXuXuXuXuXuXuXuXuXuXuXuXuXuXuXuXuXuXuXuXuXuXuXuXuXuXuXuXuXuXuXuX",
"uXuXuXuXuXuXuXuXuXuXuXuXuXuXuXuXuXuXuXuXuXuXuXuXuXuXuXuXuXuXuXuXuXuXuXuXuXuXuXuXuXuXuXuXuXuXuXuXuXuX"
};
