/* XPM */
static char *result[] = {
/* columns rows colors chars-per-pixel */
"50 50 214 2 ",
"   c #010000",
".  c #0D0000",
"X  c #120000",
"o  c #1D0000",
"O  c #170B08",
"+  c #1D1111",
"@  c #190910",
"#  c #230000",
"$  c #2B0000",
"%  c #22050F",
"&  c #340101",
"*  c #3D0002",
"=  c #3A030A",
"-  c #3E0C11",
";  c #291617",
":  c #371313",
">  c #3D3136",
",  c #440105",
"<  c #4D0101",
"1  c #4D040B",
"2  c #4E0A0A",
"3  c #5C020E",
"4  c #570509",
"5  c #5C0310",
"6  c #5F0D12",
"7  c #431519",
"8  c #46181A",
"9  c #5A1113",
"0  c #53141A",
"q  c #470D15",
"w  c #6E0101",
"e  c #640409",
"r  c #780408",
"t  c #640613",
"y  c #670B16",
"u  c #750B16",
"i  c #651316",
"p  c #74131C",
"a  c #7D131F",
"s  c #5A1B24",
"d  c #661523",
"f  c #6A1E2A",
"g  c #7E1B21",
"h  c #791420",
"j  c #43282E",
"k  c #453131",
"l  c #59343A",
"z  c #69252A",
"x  c #6C2D34",
"c  c #483E40",
"v  c #7F3340",
"b  c #574442",
"n  c #6B4C4D",
"m  c #7B4F50",
"M  c #6D5256",
"N  c #7F5455",
"B  c #784544",
"V  c #745C62",
"C  c #82080D",
"Z  c #820C11",
"A  c #820718",
"S  c #871114",
"D  c #9F1A1E",
"F  c #970C0D",
"G  c #A60C09",
"H  c #B20C03",
"J  c #841D25",
"K  c #881C26",
"L  c #801424",
"P  c #872126",
"I  c #8D252A",
"U  c #8A262C",
"Y  c #93272C",
"T  c #95292D",
"R  c #99292F",
"E  c #8B2437",
"W  c #922A30",
"Q  c #903136",
"!  c #873039",
"~  c #A22736",
"^  c #A63235",
"/  c #A93537",
"(  c #AB353A",
")  c #B0373B",
"_  c #BA393F",
"`  c #AD2B2D",
"'  c #E70501",
"]  c #D82011",
"[  c #E32219",
"{  c #EF2923",
"}  c #F7312C",
"|  c #BE403E",
" . c #9C2E42",
".. c #863846",
"X. c #993947",
"o. c #A7364A",
"O. c #99474B",
"+. c #955A55",
"@. c #A34151",
"#. c #AC4B5C",
"$. c #BF405B",
"%. c #A85054",
"&. c #B55959",
"*. c #A44245",
"=. c #BB5E70",
"-. c #B55565",
";. c #85646A",
":. c #9E7373",
">. c #956768",
",. c #A8676A",
"<. c #BE6563",
"1. c #AA6C75",
"2. c #B06672",
"3. c #A87779",
"4. c #B37472",
"5. c #C14F4D",
"6. c #D3505E",
"7. c #C34A63",
"8. c #C0596C",
"9. c #CB5F7D",
"0. c #D95564",
"q. c #C16A66",
"w. c #C4716D",
"e. c #D5617D",
"r. c #C77472",
"t. c #CC7C7B",
"y. c #D27D7C",
"u. c #CD807D",
"i. c #AE7481",
"p. c #B57883",
"a. c #D16B84",
"s. c #DA738B",
"d. c #D3788D",
"f. c #D97894",
"g. c #CB7B91",
"h. c #E86A88",
"j. c #E07991",
"k. c #998B8F",
"l. c #A58387",
"z. c #BB848A",
"x. c #B78387",
"c. c #BA8996",
"v. c #B19394",
"b. c #CE8686",
"n. c #CE898C",
"m. c #D08D8F",
"M. c #D7908E",
"N. c #C18392",
"B. c #DC879D",
"V. c #D08193",
"C. c #DA9392",
"Z. c #DE9C9D",
"A. c #E38F8F",
"S. c #EC849B",
"D. c #C598A4",
"F. c #DB91A4",
"G. c #D999A8",
"H. c #EB99AC",
"J. c #E39DB1",
"K. c #EC94AB",
"L. c #C8A5AC",
"P. c #D6A4A4",
"I. c #DDA2B3",
"U. c #DCB1B1",
"Y. c #E5ACAB",
"T. c #E6A6A4",
"R. c #E5A4B2",
"E. c #E4ACBC",
"W. c #EAABB8",
"Q. c #EAB3B3",
"!. c #EBB8B6",
"~. c #F1BBBB",
"^. c #F1B9B8",
"/. c #DBB8C6",
"(. c #EBAFC1",
"). c #FFAFC7",
"_. c #E4B3C4",
"`. c #E9BAC9",
"'. c #F1B3C6",
"]. c #F6B4C8",
"[. c #FFBBD3",
"{. c #D9C0C0",
"}. c #CECBCD",
"|. c #F4C4C3",
" X c #FACCCC",
".X c #F8C8C8",
"XX c #EAC3D2",
"oX c #EAC9D7",
"OX c #F5C4D4",
"+X c #F4CBDB",
"@X c #FCC8DD",
"#X c #FDC6DA",
"$X c #E1D4D6",
"%X c #FDD4D4",
"&X c #FAD9D9",
"*X c #ECC4C4",
"=X c #FFE0DF",
"-X c #FFCCE2",
";X c #EAD7E3",
":X c #F1DDE6",
">X c #F4DDEB",
",X c #FFDAEE",
"<X c #FAD1E3",
"1X c #FFE6E6",
"2X c #FFEAEA",
"3X c #F8EAE9",
"4X c #FDEAF4",
"5X c #FBEDFA",
"6X c #F9E5F3",
"7X c #FFF3F3",
"8X c #FFF8F7",
"9X c #FDF5FD",
"0X c #FFFEFE",
"qX c None",
/* pixels */
"qXqXqXqXqXqXqXqXqXqXqXqXqXqXqXqXqXqXqXqXqXqXqXqXqXqXqXqXqXqXqXqXqXqXqXqXqXqXqXqXqXqXqXqXqXqXqXqXqXqX",
"qXqXqXqXqXqXqXqXqXqXqXqXqXqXqXqXqXqXqXqXqXqXqXqXqXqXqXqXqXqXqXqXqXqXqXqXqXqXqXqXqXqXqXqXqXqXqXqXqXqX",
"qXqXqXqXqXqXqXqXqXqXqXqXqXqXqXqXqXqXqXqXqXqXqXqXqXqXqXqXqXqXqXqXqXqXqXqXqXqXqXqXqXqXqXqXqXqXqXqXqXqX",
"qXqXqXqXqXqXqXqXqXqXqXqXqXqXqXqXqXqXqXqXqXqXqXqXqXqXqXqXqXqXqXqXqXqXqXqXqXqXqXqXqXqXqXqXqXqXqXqXqXqX",
"qXqXqXqXqXqXqXqXqXqXqXqXqXqXqXqXqXqXqXqXqXqXqXqXqXqXqXqXqXqXqXqXqXqXqXqXqXqXqXqXqXqXqXqXqXqXqXqXqXqX",
"qXqXqXqXqXqXqXqXqXqXqXqXqXqXqXqXqXqXqXqXqXqXqXqXqXqXqXqXqXqXqXqXqXqXqXqXqXqXqXqXqXqXqXqXqXqXqXqXqXqX",
"qXqXqXqXqXqXqXqXqXqXqXqXqXqXqXqXqXqXqXqXqXqXqXqXqXqXqXqXqXqXqXqXqXqXqXqXqXqXqXqXqXqXqXqXqXqXqXqXqXqX",
"qXqXqXqXqXqXqXqXqXqXqXqXqXqXqXqXqXqXqXqXqXqXqXqXqXqXqXqXqXqXqXqXqXqXqXqXqXqXqXqXqXqXqXqXqXqXqXqXqXqX",
"qXqXqXqXqXqXqXqXqXqXqXqXqXqXqXqXqXqXqXqXqXqXqXqXqXqXqXqXqXqXqXqXqXqXqXqXqXqXqXqXqXqXqXqXqXqXqXqXqXqX",
"qXqXqXqXqXqXqXqXqXqXqXqXqXqXqXqXqXqXqXqXqXqXqXqXqXqXqXM M n - qXqXqXqXqXqXqXqXqXqXqXqXqXqXqXqXqXqXqX",
"qXqXqXqXqXqXqXqXqXqXqXqXqXqXqXqXqXqXqXqXqXqXqXqXqXc l.#X#X0X$Xc # qXqXqXqXqXqXqXqXqXqXqXqXqXqXqXqXqX",
"qXqXqXqXqXqXqXqXqXqXqXqXqXqX1XqXqXqXqXqXqXqXqXqX7 6X-X$.7.a.#X9Xs qXqXqXqXqXqXqXqXqXqXqXqXqXqXqXqXqX",
"qXqXqXqXqXqXqXqXqXqXqXqXqX1X1XqXqXqXqXqXqXqXqXqXi.).~ 7.E._.OX0X;X; qXqXqXqXqXqXqXqXqXqXqXqXqXqXqXqX",
"qXqXqXqXqXqXqXqXqXqXqXqX2X7XqX0XqXqXqXqXqXqXqX0 j.o.X.OX9X0X;XN.@X0 qXqXqXqXqXqXqXqXqXqXqXqXqXqXqXqX",
"qXqXqXqXqXqXqXqXqXqXqXqX%X~.0X=Xr.qXqXqXqXqXqXf 7.1.0X}.;.I.F.x.X.# qXqXqXl :.o qXqXqXqXqXqXqXqXqXqX",
"qXqXqXqXqXqXqXqXqXqXqX1XQ.&X*X<.qXqXqXqXqXqXqXs #./.}.o # 9.G.,.z.j ; qX+ Y.0X{.B qXqXqXqXqXqXqXqXqX",
"qXqXqXqXqXqXqXqXqXqX1X1X7X.X&.b.qXb.qXqXqXqXqXqXi.E.> l f.S.1.X.(.`.:XV O A.Y.8XP.  qXqXqXqXqXqXqXqX",
"qXqXqXqXqXqXqXqXqXqX2X8X~.<.C.0Xm.Z qXqXqXqXqXqX= J.0X;XX.u D.5XI.<X].f.d 3.5..X3X: qXqXqXqXqXqXqXqX",
"qXqXqXqXqXqXqXqXqX1X2X2Xu.u.0XG.4 p J qXqXqXqXqX  , ,.p.x.L.,Xa.d.5X:Xf.W.k.b P.0XO.qXqXqXqXqXqXqXqX",
"qXqXqXqXqXqXqXqXqX2X7XT.q.Q.0X*.C h $ qXqXqXqXn V.c.L.XX0X0X5Xf.+X0X0Xx.oX:Xj +.T.^.n qXqXqXqXqXqXqX",
"qXqXqXqXqXqXqXqXqX1X0XM.r.0Xn.r Y t * qXqXqX: W.,X9X9X6X>X0XI.X.g.'.,X-.u H.2.z.2X0X;.qXqXqXqXqXqXqX",
"qXqXqXqXqXqXqXqX1X7X%Xu.~.8X&.C J * J 1 qXqX, 9.<X9X:X>X5XG.E t J.F.d q 9 [.d._.0X5Xx qXqXqXqXqXqXqX",
"qXqXqXqXqXqXqXqX1X0XT.<.0X^.S K 3 , 5 K 9 qX; K.s.XX9X0XD.u Q o.1.F.z   qXj E -X0Xc.X qXqXqXqXqXqXqX",
"qXqXqXqXqXqXqXqX1X8XQ.w.8XY.C J * u P g ^ < x +XG.J.`.L.O.A f.B. .7...qXqXqXqX8 8 $ qXqXqXqXqXqXqXqX",
"qXqXqXqXqXqXqXqX1X0XQ.w.7XQ.Z R * i / I U D } Y.`.G.@.! =.s.E.H.h.x   qXqXqXqXqXqXqXqXqXqXqXqXqXqXqX",
"qXqXqXqXqXqXqXqX1X9XY.q.8XQ.Z h qX2 ^ Y U E ' ] G.g.D.B.(.oXE.K.E 9 # qXqXqXqXqXqXqXqXqXqXqXqXqXqXqX",
"qXqXqXqXqXqXqXqX2X8X!.r.8XY.C 5 qXi ) I W I ` G r S.[.`./.6X-X..f #.# qXqXqXqXqXqXqXqXqXqXqXqXqXqXqX",
"qXqXqXqXqXqXqXqXqX2X2XZ.1X^.S t qX, T T Y Y U Q 3 G 6.6.H.;Xs.y =.-.o qXqXqXqXqXqXqXqXqXqXqXqXqXqXqX",
"qXqXqXqXqXqXqXqXqX2X2XC..X7X<., qXqXp ) T T R ^ p $ e H } h.% @ z , qXqXqXqXqXqXqXqXqXqXqXqXqXqXqXqX",
"qXqXqXqXqXqXqXqXqXqX2X X&X0Xt.w qXqX& I R I Y K 5 = & 1 F { G qXqXqXqXqXqXqXqXqXqXqXqXqXqXqXqXqXqXqX",
"qXqXqXqXqXqXqXqXqXqX1X7X8X8X~./ qXqXqX# 1 3 5 3 , $ & , = & [ qXqXqXqXqXqXqXqXqXqXqXqXqXqXqXqXqXqXqX",
"qXqXqXqXqXqXqXqXqXqX1X1X X2X0X%.< qXqXX $ $ # # # , p 5 ,   qXqXqXqXqXqXqXqXqXqXqXqXqXqXqXqXqXqXqXqX",
"qXqXqXqXqXqXqXqXqXqXqX&XC.1X0Xy.w qXqX6 , , i 9 p J p , # qXqXqXqXqXqXqXqXqXqXqXqXqXqXqXqXqXqXqXqXqX",
"qXqXqXqXqXqXqXqXqXqXqX0XT.Y.0X2XqXu t t K R ) _ | 9 o # qXqXqXqXqXqXqXqXqXqXqXqXqXqXqXqXqXqXqXqXqXqX",
"qXqXqXqXqXqXqXqXqXqXqX X1XqX%X0XqXqX< p ^ / J a 4 X qXqXqXqXqXqXqXqXqXqXqXqXqXqXqXqXqXqXqXqXqXqXqXqX",
"qXqXqXqXqXqXqXqXqXqXqXqX%XqX^.8X0XqXX & 6 L *   qXqXqXqXqXqXqXqXqXqXqXqXqXqXqXqXqXqXqXqXqXqXqXqXqXqX",
"qXqXqXqXqXqXqXqXqXqXqXqX2X.XqX2X0X1XqX  * $ v l.qXqXqXqXqXqXqXqXqXqXqXqXqXqXqXqXqXqXqXqXqXqXqXqXqXqX",
"qXqXqXqXqXqXqXqXqXqXqXqXqXqXqXqX2X0XqX. & o ..&XqXqXqXqXqXqXqXqXqXqXqXqXqXqXqXqXqXqXqXqXqXqXqXqXqXqX",
"qXqXqXqXqXqXqXqXqXqXqXqXqXqXqXqXqX|.7XqX  x *Xb.& qXqXqXqXqXqXqXqXqXqXqXqXqXqXqXqXqXqXqXqXqXqXqXqXqX",
"qXqXqXqXqXqXqXqXqXqXqXqXqXqXqXqXqXqXqX0XqXb 4.| Y.k qXqXqXqXqXqXqXqXqXqXqXqXqXqXqXqXqXqXqXqXqXqXqXqX",
"qXqXqXqXqXqXqXqXqXqXqXqXqXqXqXqXqXqXqXqX1XqX  &.0XN qXqXqXqXqXqXqXqXqXqXqXqXqXqXqXqXqXqXqXqXqXqXqXqX",
"qXqXqXqXqXqXqXqXqXqXqXqXqXqXqXqXqXqXqXqXqXqXv.8 $Xm qXqXqXqXqXqXqXqXqXqXqXqXqXqXqXqXqXqXqXqXqXqXqXqX",
"qXqXqXqXqXqXqXqXqXqXqXqXqXqXqXqXqXqXqXqXqXqXqXqX>.3.qXqXqXqXqXqXqXqXqXqXqXqXqXqXqXqXqXqXqXqXqXqXqXqX",
"qXqXqXqXqXqXqXqXqXqXqXqXqXqXqXqXqXqXqXqXqXqXqXqX: 7 qXqXqXqXqXqXqXqXqXqXqXqXqXqXqXqXqXqXqXqXqXqXqXqX",
"qXqXqXqXqXqXqXqXqXqXqXqXqXqXqXqXqXqXqXqXqXqXqXqXqXqXqXqXqXqXqXqXqXqXqXqXqXqXqXqXqXqXqXqXqXqXqXqXqXqX",
"qXqXqXqXqXqXqXqXqXqXqXqXqXqXqXqXqXqXqXqXqXqXqXqXqXqXqXqXqXqXqXqXqXqXqXqXqXqXqXqXqXqXqXqXqXqXqXqXqXqX",
"qXqXqXqXqXqXqXqXqXqXqXqXqXqXqXqXqXqXqXqXqXqXqXqXqXqXqXqXqXqXqXqXqXqXqXqXqXqXqXqXqXqXqXqXqXqXqXqXqXqX",
"qXqXqXqXqXqXqXqXqXqXqXqXqXqXqXqXqXqXqXqXqXqXqXqXqXqXqXqXqXqXqXqXqXqXqXqXqXqXqXqXqXqXqXqXqXqXqXqXqXqX",
"qXqXqXqXqXqXqXqXqXqXqXqXqXqXqXqXqXqXqXqXqXqXqXqXqXqXqXqXqXqXqXqXqXqXqXqXqXqXqXqXqXqXqXqXqXqXqXqXqXqX",
"qXqXqXqXqXqXqXqXqXqXqXqXqXqXqXqXqXqXqXqXqXqXqXqXqXqXqXqXqXqXqXqXqXqXqXqXqXqXqXqXqXqXqXqXqXqXqXqXqXqX"
};
