/* XPM */
static char *result[] = {
/* columns rows colors chars-per-pixel */
"50 50 179 2 ",
"   c #040000",
".  c #0F0000",
"X  c #140000",
"o  c #1A0202",
"O  c #1F1416",
"+  c #220001",
"@  c #2A0000",
"#  c #200909",
"$  c #340101",
"%  c #3A0304",
"&  c #39070D",
"*  c #4A0003",
"=  c #450307",
"-  c #54040C",
";  c #5D020C",
":  c #550D0F",
">  c #550211",
",  c #540D14",
"<  c #471217",
"1  c #6B020A",
"2  c #730303",
"3  c #650C15",
"4  c #670817",
"5  c #611013",
"6  c #791B1F",
"7  c #7B1E27",
"8  c #7D1F2D",
"9  c #791420",
"0  c #4B2221",
"q  c #5E2B2B",
"w  c #4F3031",
"e  c #503031",
"r  c #5C3737",
"t  c #632423",
"y  c #682933",
"u  c #762332",
"i  c #6B3131",
"p  c #7D3144",
"a  c #6E494E",
"s  c #784859",
"d  c #755556",
"f  c #787374",
"g  c #961218",
"h  c #831C24",
"j  c #891E28",
"k  c #A11F38",
"l  c #8F232A",
"z  c #93242C",
"x  c #96292C",
"c  c #812C3B",
"v  c #972C36",
"b  c #9D3032",
"n  c #A82D33",
"m  c #A33234",
"M  c #B23539",
"N  c #D00E02",
"B  c #FD1F15",
"V  c #CF2824",
"C  c #D52624",
"Z  c #8E3343",
"A  c #8D3848",
"S  c #903D4D",
"D  c #A4364D",
"F  c #C33C5A",
"G  c #894B49",
"H  c #88555B",
"J  c #905458",
"K  c #B85E59",
"L  c #BB615F",
"P  c #865C65",
"I  c #BB4663",
"U  c #A45D6A",
"Y  c #A95F68",
"T  c #B8566A",
"R  c #886061",
"E  c #856E6C",
"W  c #9B616C",
"Q  c #8B7273",
"!  c #9A7C7E",
"~  c #96757C",
"^  c #A97477",
"/  c #C44C51",
"(  c #C74666",
")  c #C6556C",
"_  c #C85770",
"`  c #C75A71",
"'  c #D55976",
"]  c #C26C69",
"[  c #C4726E",
"{  c #D0647E",
"}  c #C67572",
"|  c #CB7D7A",
" . c #CA7775",
".. c #FE6460",
"X. c #8B7D80",
"o. c #9F7D85",
"O. c #B97B83",
"+. c #D86985",
"@. c #D8758C",
"#. c #D27B90",
"$. c #E2728C",
"%. c #E07F97",
"&. c #9B9695",
"*. c #AE8989",
"=. c #AA8893",
"-. c #B48692",
";. c #CE8482",
":. c #C4898F",
">. c #D38C8A",
",. c #D5868A",
"<. c #DE928C",
"1. c #D5889C",
"2. c #D99897",
"3. c #DE9C9A",
"4. c #D2919E",
"5. c #E18B9F",
"6. c #E2A09F",
"7. c #DD8FA1",
"8. c #C995A4",
"9. c #D797A9",
"0. c #E78DA4",
"q. c #DDABA9",
"w. c #DFA5A2",
"e. c #DAADB6",
"r. c #D9A7B5",
"t. c #C6B1BD",
"y. c #E3A3A2",
"u. c #E3A8A5",
"i. c #E7ADAB",
"p. c #E9B1AF",
"a. c #E3B0AE",
"s. c #E2ADBD",
"d. c #E6A3B5",
"f. c #E6B4B3",
"g. c #EBB4B3",
"h. c #EFBBBA",
"j. c #E4B4B9",
"k. c #F3C0BF",
"l. c #DBB1C9",
"z. c #EDADC0",
"x. c #E6B3C4",
"c. c #ECB0C3",
"v. c #ECBDCD",
"b. c #E3B9C8",
"n. c #F8B1C6",
"m. c #F2BFD1",
"M. c #C8CFCB",
"N. c #D7C9CB",
"B. c #DBCBD6",
"V. c #D8C5D0",
"C. c #E5C4C2",
"Z. c #F5C8C7",
"A. c #F4CACA",
"S. c #F9CCCB",
"D. c #F8C6C3",
"F. c #FFD1CA",
"G. c #E2C9D6",
"H. c #F5C8D2",
"J. c #E5DDDD",
"K. c #F6D4D3",
"L. c #FDD4D3",
"P. c #FED8D7",
"I. c #FDDCDC",
"U. c #E0E1DF",
"Y. c #FFC9E2",
"T. c #E6D8E0",
"R. c #F1D8E6",
"E. c #FCDBEA",
"W. c #F4DBE5",
"Q. c #FFE6E6",
"!. c #FFEBEC",
"~. c #F5E6F1",
"^. c #FEE5F3",
"/. c #FEECF3",
"(. c #FAEFF9",
"). c #FFF3F3",
"_. c #FFF3FF",
"`. c #FFFDFD",
"'. c None",
/* pixels */
"'.'.'.'.'.'.'.'.'.'.'.'.'.'.'.'.'.'.'.'.'.'.'.'.'.'.'.'.'.'.'.'.'.'.'.'.'.'.'.'.'.'.'.'.'.'.'.'.'.'.",
"'.'.'.'.'.'.'.'.'.'.'.'.'.'.'.'.'.'.'.'.'.'.'.'.'.'.'.'.'.'.'.'.'.'.'.'.'.'.'.'.'.'.'.'.'.'.'.'.'.'.",
"'.'.'.'.'.'.'.'.'.'.'.'.'.'.'.'.'.'.'.'.'.'.'.'.'.'.'.'.'.'.'.'.'.'.'.'.'.'.'.'.'.'.'.'.'.'.'.'.'.'.",
"'.'.'.'.'.'.'.'.'.'.'.'.'.'.'.'.'.'.'.'.'.'.'.'.'.'.'.'.'.'.'.'.'.'.'.'.'.'.'.'.'.'.'.'.'.'.'.'.'.'.",
"'.'.'.'.'.'.'.'.'.'.'.'.'.'.'.'.'.'.'.'.'.'.'.'.'.'.'.'.'.'.'.'.'.'.'.'.'.'.'.'.'.'.'.'.'.'.'.'.'.'.",
"'.'.'.'.'.'.'.'.'.'.'.'.'.'.'.'.'.'.'.'.'.'.'.'.'.'.'.'.'.'.'.'.'.'.'.'.'.'.'.'.'.'.'.'.'.'.'.'.'.'.",
"'.'.'.'.'.'.'.'.'.'.'.'.'.'.'.'.'.'.'.'.'.'.'.'.'.'.'.'.'.'.'.'.'.'.'.'.'.'.'.'.'.'.'.'.'.'.'.'.'.'.",
"'.'.'.'.'.'.'.'.'.'.'.'.'.'.'.'.'.'.'.'.'.'.'.'.'.'.'.'.'.'.'.'.'.'.'.'.'.'.'.'.'.'.'.'.'.'.'.'.'.'.",
"'.'.'.'.'.'.'.'.'.'.'.'.'.'.'.'.'.'.'.'.'.'.'.'.'.'.'.'.'.'.'.'.'.'.'.'.'.'.'.'.'.'.'.'.'.'.'.'.'.'.",
"'.'.'.'.'.'.'.'.'.'.'.'.'.'.'.'.'.'.'.'.'.'.'.'.'.'.'.'.'.'.'.'.'.'.'.'.'.'.'.'.'.'.'.'.'.'.'.'.'.'.",
"'.'.'.'.'.'.'.'.'.'.'.'.'.'.'.'.'.'.'.'.'.'.'.'.'.'.'.'.'.'.'.'.'.'.'.'.'.'.'.'.'.'.'.'.'.'.'.'.'.'.",
"'.'.'.'.'.'.'.'.'.'.'.'.'.Q.Q.Q.'.'.'.'.'.'.'.'.'.'.'.'.'.'.'.'.'.'.'.'.'.'.'.'.'.'.'.'.'.'.'.'.'.'.",
"'.'.'.'.'.'.'.'.'.'.'.'.Q.Q.'.'.'.'.'.'.'.'.'.'.'.'.'.'.'.'.'.'.'.'.'.'.'.'.'.'.'.'.'.'.'.'.'.'.'.'.",
"'.'.'.'.'.'.'.'.'.'.'.'.'.'.'.'.'.'.'.'.'.'.'.'.'.'.'.'.'.'.'.'.'.'.'.'.'.'.'.'.'.'.'.'.'.'.'.'.'.'.",
"'.'.'.'.'.'.'.'.'.'.'.'.'.'.'.'.'.'.'.'.'.'.'.'.'.'.'.'.'.'.'.'.'.'.'.'.'.'.'.'.'.'.'.'.'.'.'.'.'.'.",
"'.'.'.'.'.'.'.'.'.'.'.'.'.'.'.'.'.Q.Q.f.f.K.P.w.'.} '.'.'.'.'.'.'.'.'.'.w e < '.'.'.'.'.'.'.'.'.'.'.",
"'.'.'.'.'.'.'.'.'.'.'.'.'.'.'.'.'.'.'.I.S.y.Q.`.K.2.] '.Z.`.'.'.'.'.O ~ c.m.~.H X '.'.'.'.'.'.'.'.'.",
"'.'.'.'.'.'.'.'.'.'.'.'.'.'.'.'.'.'.'.'.'.'.'.Q.`.).A.>.'.,.H.`.'.'.-.Y.F { c.`.P '.'.'.'.'.'.'.'.'.",
"'.'.'.'.'.'.'.'.'.'.'.'.'.'.'.'.'.'.'.'.'.'.'.'.'.'.'.'.Z.'.I c.V.W @.k 0.`.R.(.G.@ '.'.'.'.'.'.'.'.",
"'.'.'.'.'.!.L.h.I./.'.'.'.'.'.'.'.'.'.'.'.'.'.'.'.'.'.'.'.'.'.'.A 8 ) e.J.t.v.r.U o '.'.'.'.'.'.'.'.",
"'.'.'.'.'.).u.L k.`.Q.I.Q.D.w.g.Z.L.'.'.'.'.'.'.'.Q.'.'.'.'.'.'.u 4 9.M.& > 0.O.W # '.'.'.'.'.'.'.'.",
"'.'.'.'.'.'.'.I.Q.).P.;.>.| L L '.'.'.'.Q.Q.!.Q.'.'.'.'.'.'.'.'.'.o r.Q d +.7.^ 9.T + '.'.'.'.'.'.'.",
"'.'.'.'.'.'.'.'.'.'.'.'.'.'.'.'.'.!.Q.Q.'.'.'.'.'.'.'.'.'.'.'.'.'.'.y E.B.A % W %.n.d.8.H.x.R.'.'.'.",
"'.'.'.'.'.'.'.!.'.'.'.'.'.'.'.'.`.Q.Q.!.'.'.'.'.!.!.!.`.'.'.'.'.'.$.* & o.o.8.I ) R.E.c.e.s.'.'.'.'.",
"'.'.'.'.'.'.'.'.Q.Q.'.'.'.'.'.'.!.`.`.!.L.L.Q.p.>.2.2.2.| ] '.'.( ' c &.(.`.E.T _ #.0.U '.'.'.'.'.'.",
"'.'.'.'.'.'.'.'.'.Q.Q.Q.'.'.'.'.'.p.j.3.} | | |  .'.'.'.'.'.'.'.'.'.a `.(.`.9.v ` ' D Z '.'.'.'.'.'.",
"'.'.'.'.'.'.'.'.'.'.'.'.'.'.'.'.'.'.'.'.'.'.'.'.'.'.'.'.'.'.'.'.`.C.R `.T.x.1.b.^.^.B.B.).~.'.'.'.'.",
"'.'.'.'.'.'.'.'.'.'.'.'.'.Q.).'.'.'.'.'.'.'.'.'.'.'.'.).).!.Q.).'.'.o 7.{ +._.`.r.9.l.'.'.'.'.'.'.'.",
"'.'.'.'.'.'.'.'.'.'.'.'.!.6.h.).Q.L.Z.S.S.!.).'.'.'.'.).S.S.'.'.'.'.Q T ( S s s p * '.'.'.'.'.'.'.'.",
"'.'.'.'.'.'.'.'.'.'.'.'.'.S.S.'.'.'.'.'.'.'.'.'.'.L.P.a.'.'.'.'.I.).'.'.=.o.J / n N '.'.'.'.'.'.'.'.",
"'.'.'.'.'.'.'.'.'.'.'.'.'.'.'.'.'.'.'.'.'.'.'.).K.y.'.'.'.`.I.a.i.'.'.D.F.j.C B 2 g 2 '.'.'.'.'.'.'.",
"'.'.'.'.'.'.'.'.'.'.'.'.'.'.'.'.'.'.'.'.'.`.P.f.'.'.'.`.I.g.} '.'.U.f % V ..1 ; h 8 < '.'.'.'.'.'.'.",
"'.'.'.'.'.'.'.'.'.'.L.I.Q.Q.Q.Q.Q.'.'.'.} u.'.'.).!.a.6.[ '.'.'.&., * * ; g > 7 m m l @ '.'.'.'.'.'.",
"'.'.'.'.'.'.'.'.'.'.i.Z.L.>.Q.'.'.'.'.'.'.'.'.).`.S.] '.'.'.'.'.. 1 n x 9 - $ x b b z @ '.'.'.'.'.'.",
"'.'.'.'.'.'.'.'.'.'.'.'.'.'.'.'.'.'.'.`.`.).Q.Q.'.'.'.'.'.'.'.  - l M M 3 X X 5 x h h $ '.'.'.'.'.'.",
"'.'.'.'.'.'.'.'.'.'.'.'.'.'.'.'.'.'.Q.g.L.).Q.'.'.'.'.'.'.'.'.5 - - 7 5 '.'.'.X h x 4 ; $ '.'.'.'.'.",
"'.'.'.'.'.'.'.'.'.'.'.'.'.'.'.'.'.'.k.} S.'.'.'.'.'.'.'.'.'.'.% @ @ @ '.'.'.'.'.$ = 6 : @ & '.'.'.'.",
"'.'.'.'.'.'.'.'.'.'.'.'.'.'.'.'.'.'.'.Q.'.'.'.'.'.'.'.'.'.'.'.'.@ , , '.'.'.'.'.'.'.@ $ + :.0 '.'.'.",
"'.'.'.'.'.'.'.'.'.'.'.'.'.'.'.'.'.'.'.'.'.'.'.'.'.'.'.'.'.'.'.'.y C.H '.'.'.'.'.'.'.'.= Y Q.G '.'.'.",
"'.'.'.'.'.'.'.'.'.'.'.'.'.'.'.'.'.'.'.'.'.'.'.'.'.'.'.'.'.'.'.'.t <.$ '.'.'.'.'.'.'.'.'.E q.G '.'.'.",
"'.'.'.'.'.'.'.'.'.'.'.'.'.'.'.'.'.'.'.'.'.'.'.'.'.'.'.'.'.'.'.'.i J '.'.'.'.'.'.'.'.'.'.'.;.^ '.'.'.",
"'.'.'.'.'.'.'.'.'.'.'.'.'.'.'.'.'.'.'.'.'.'.'.'.'.'.'.'.'.'.'.d U.R '.'.'.'.'.'.'.'.'.'.r `.*.'.'.'.",
"'.'.'.'.'.'.'.'.'.'.'.'.'.'.'.'.'.'.'.'.'.'.'.'.'.'.'.'.'.'.'.'.'.'.'.'.'.'.'.'.'.'.'.'.'.'.'.'.'.'.",
"'.'.'.'.'.'.'.'.'.'.'.'.'.'.'.'.'.'.'.'.'.'.'.'.'.'.'.'.'.'.'.'.'.'.'.'.'.'.'.'.'.'.'.'.'.'.'.'.'.'.",
"'.'.'.'.'.'.'.'.'.'.'.'.'.'.'.'.'.'.'.'.'.'.'.'.'.'.'.'.'.'.'.'.'.'.'.'.'.'.'.'.'.'.'.'.'.'.'.'.'.'.",
"'.'.'.'.'.'.'.'.'.'.'.'.'.'.'.'.'.'.'.'.'.'.'.'.'.'.'.'.'.'.'.'.'.'.'.'.'.'.'.'.'.'.'.'.'.'.'.'.'.'.",
"'.'.'.'.'.'.'.'.'.'.'.'.'.'.'.'.'.'.'.'.'.'.'.'.'.'.'.'.'.'.'.'.'.'.'.'.'.'.'.'.'.'.'.'.'.'.'.'.'.'.",
"'.'.'.'.'.'.'.'.'.'.'.'.'.'.'.'.'.'.'.'.'.'.'.'.'.'.'.'.'.'.'.'.'.'.'.'.'.'.'.'.'.'.'.'.'.'.'.'.'.'.",
"'.'.'.'.'.'.'.'.'.'.'.'.'.'.'.'.'.'.'.'.'.'.'.'.'.'.'.'.'.'.'.'.'.'.'.'.'.'.'.'.'.'.'.'.'.'.'.'.'.'.",
"'.'.'.'.'.'.'.'.'.'.'.'.'.'.'.'.'.'.'.'.'.'.'.'.'.'.'.'.'.'.'.'.'.'.'.'.'.'.'.'.'.'.'.'.'.'.'.'.'.'."
};
