/* XPM */
static char *_e2f227d21f249f3dec3829bcc076ef8WiJJ8qe39SfqvfY3[] = {
/* columns rows colors chars-per-pixel */
"50 46 222 2 ",
"   c None",
".  c #010101",
"X  c #050709",
"o  c #040B0B",
"O  c #0B0B0B",
"+  c #03110E",
"@  c #0B110F",
"#  c #0D0E11",
"$  c #031312",
"%  c #0C1717",
"&  c #121313",
"*  c #161B1A",
"=  c #1A1B1B",
"-  c #121719",
";  c #100F0D",
":  c #1D201F",
">  c #1C1E22",
",  c #151C26",
"<  c #0C172A",
"1  c #1C2224",
"2  c #1E252B",
"3  c #1A2736",
"4  c #1D3033",
"5  c #242424",
"6  c #252A2B",
"7  c #2A2B2B",
"8  c #25272C",
"9  c #252B36",
"0  c #2B3435",
"q  c #323434",
"w  c #3C3D3D",
"e  c #33393A",
"r  c #1E2C43",
"t  c #2D3E49",
"y  c #263A57",
"u  c #343D58",
"i  c #323842",
"p  c #172F68",
"a  c #253B64",
"s  c #3B4343",
"d  c #394449",
"f  c #2C4358",
"g  c #3A4959",
"h  c #1C497E",
"j  c #2A4568",
"k  c #3F5469",
"l  c #3A567A",
"z  c #2B4D74",
"x  c #4B4C4C",
"c  c #44474B",
"v  c #4B4D53",
"b  c #495555",
"n  c #535353",
"m  c #5B5C5C",
"M  c #575759",
"N  c #54615E",
"B  c #425C7A",
"V  c #495878",
"C  c #485763",
"Z  c #4F6167",
"A  c #536563",
"S  c #55686C",
"D  c #4D637C",
"F  c #596B74",
"G  c #5B7373",
"H  c #5E7972",
"J  c #5E787C",
"K  c #5C776F",
"L  c #636464",
"P  c #69696B",
"I  c #6D716F",
"U  c #656B75",
"Y  c #686E79",
"T  c #647D7A",
"R  c #6C7A7A",
"E  c #667573",
"W  c #737474",
"Q  c #747A7B",
"!  c #7A7A7A",
"~  c #73777B",
"^  c #67837B",
"/  c #0D2C86",
"(  c #203A8A",
")  c #145398",
"_  c #1F4698",
"`  c #244282",
"'  c #3C5D84",
"]  c #314A93",
"[  c #386F9F",
"{  c #0A49AB",
"}  c #2356A4",
"|  c #4B6688",
" . c #536B8A",
".. c #5A6C86",
"X. c #5F748E",
"o. c #466B98",
"O. c #5D7492",
"+. c #58769F",
"@. c #4D729F",
"#. c #636E82",
"$. c #797A83",
"%. c #747781",
"&. c #657C99",
"*. c #4D7AA2",
"=. c #0B63D2",
"-. c #2370C4",
";. c #0378F2",
":. c #678981",
">. c #6A8886",
",. c #7D8283",
"<. c #748989",
"1. c #6F9088",
"2. c #73948D",
"3. c #79918D",
"4. c #778B96",
"5. c #7C9C95",
"6. c #6A8498",
"7. c #6985AC",
"8. c #7489A8",
"9. c #7894B8",
"0. c #0C80F5",
"q. c #2683E7",
"w. c #4089DB",
"e. c #6D98C6",
"r. c #7FA1D0",
"t. c #838484",
"y. c #848B8B",
"u. c #8B8C8B",
"i. c #878887",
"p. c #838999",
"a. c #849495",
"s. c #8A999A",
"d. c #949494",
"f. c #94949C",
"g. c #9B9C9C",
"h. c #929897",
"j. c #81918F",
"k. c #86A39E",
"l. c #8996A5",
"z. c #9E9EAA",
"x. c #989BA5",
"c. c #869BB4",
"v. c #A09EA7",
"b. c #8CA7A8",
"n. c #93A4AC",
"m. c #97A8A8",
"M. c #95B2AE",
"N. c #8AA2BE",
"B. c #8EA6B4",
"V. c #9DAEB2",
"C. c #97AEB4",
"Z. c #9BB3B1",
"A. c #9EB8B7",
"S. c #A2A4A4",
"D. c #A6AAAA",
"F. c #A9ACAC",
"G. c #A5A4AE",
"H. c #A5ABB7",
"J. c #ADB2B2",
"K. c #A6BBBB",
"L. c #ACBDBD",
"P. c #A1B4B9",
"I. c #B3B4B4",
"U. c #B4BABA",
"Y. c #BABBBC",
"T. c #B5B6B9",
"R. c #ADC1BF",
"E. c #B6C0BD",
"W. c #8BA4CB",
"Q. c #8DA8D1",
"!. c #BEBEC1",
"~. c #ACBFC2",
"^. c #ADC3C3",
"/. c #B2C5C5",
"(. c #BEC2C1",
"). c #B5CACB",
"_. c #B9CECE",
"`. c #B8C7CA",
"'. c #BACDD3",
"]. c #BDD5D5",
"[. c #BFD6D8",
"{. c #BFD8D8",
"}. c #B8CBE3",
"|. c #C3C3C5",
" X c #C5C6C9",
".X c #C4CCCB",
"XX c #CACCCD",
"oX c #C7C8C9",
"OX c #C5D1CF",
"+X c #CCD0CD",
"@X c #C4D3D2",
"#X c #CED3D2",
"$X c #C1D9D9",
"%X c #CCDBDB",
"&X c #D3D5D4",
"*X c #D6DBD9",
"=X c #DADDDC",
"-X c #D6D9D7",
";X c #DBE1DE",
":X c #D6DEE2",
">X c #CFE1E1",
",X c #D5E4E3",
"<X c #DDE4E3",
"1X c #E2E6E5",
"2X c #E4E8E7",
"3X c #E4E8E6",
"4X c #E6EAE9",
"5X c #E5EBE9",
"6X c #EAEEED",
"7X c #EAEDEC",
"8X c #ECF0EF",
"9X c #E6F0ED",
"0X c #EEF2F1",
"qX c #EEF4F1",
"wX c #F3F7F6",
"eX c #F2F7F5",
"rX c #F3F7F6",
"tX c #F4F8F7",
"yX c #F4F8F6",
"uX c #F6FAF9",
"iX c #F7FBFA",
"pX c #F8FCFB",
/* pixels */
"                                                                                                    ",
"                                                                                                    ",
"                                        $ $ + o o o o o o o +                                       ",
"                                  Z 4 % $ o . . . . . . . . . . o $                                 ",
"                              8.g % $ $ o . . . . . . . . . . . . . X o $                           ",
"                          N.6.t 1 6 e s x n m L L L L L m M x w q 5 & O X o +                       ",
"                      U.`.'.U.Y.XX-X<X1X4X7X6X6X6X6X6X6X7X7X4X1X=X.XV.b.y.R A N                     ",
"                    &X1X4X4X7X4X4X4X4X2X2X1X1X1X1X1X1X1X1X1X1X1X1X;X).).).).).^.L.                  ",
"                  -X1X2X2X2X4X4X4X6X6X8X0X8X8X0X0X0X0X0X0X0X0X0X8X5X].).).).)././.R.                ",
"                *X7X0XeXeXeX0X4XeX=X=XXXS.-XtXuXT.L L L W 1XuXeXtXeX%X[.[.[.[.[.].].).              ",
"              Y.6X4Xg.W S.7X! ! 6Xx ! m X T.uXpXd.. 5 w x =XuXeXeXeX>X[.[.[.[.[.[.[.[.R.            ",
"              5 i.W 7 n 7 g.q i.=X5 u.w & XXuXpXd.. 5 c L <XtXeXeXwX,X[.[.[.[.[.[.[.[._.^.          ",
"            7 5 ! M 5 n W I.= I.Y.= S.5 5 XX<X7Xg.. w L W <XtXeXeXyX,X[.[.[.[.[.[.[.[.[._.          ",
"            & w T.T.I.m = t.O D.! 5 T.- X 7 5 t.g.. 7 n m #XuXeXeXyX<X[.[.[.[.[.[.[.[.]._.m.        ",
"          X P &XL 5 W w w D.= = - ! T.& O # & u.J.7 7 7 q (.uXeXeXtX<X].[.[.[.[.[.[.[.[.[.A.        ",
"          5 &XpXT.m n W XXeXY.t.S.7X<XT.(.oX#X4X8X1X1X1X2X0XeXeXeXtX<X].[.].[.[.[.[.[.[.[.Z.T       ",
"        I.T.8XqX8X6X=X<X+X<XuXpXuXtXtXuXuXuXuXuXeXtXtXtXuXeXeXeXeXtX<X[.[.[.[.[.[.[.[.[.].M.T       ",
"        7XeXJ.F.S.d.! ,.I J.uXeXeXeXeXeXwXwXeXeXeXeXeXeXeXeXeXeXeXtX,X].[.[.[.[.[.[.[.[.[.M.>.      ",
"        6X;Xg.F.m.i.I ,.h.oX0XeXwXeXeXeXeXwXeXeXeXeXeXeXeXeXeXeXeXeX,X[.[.[.[.[.[.[.[.[.[.b.:.H     ",
"        eX8XI. XJ.oX&XoX4X<X8XeXeXeXeXeXeXeXeXeXeXeXeXeXeXeXeXeXeXeX%X[.[.[.[.[.[.[.[.[.].k.:.H     ",
"        eXtXtXuX6X&X|.!.#X6XwXeXeXeXeXeXeXeXeXeXeXeXeXeXeXeXeXeXeXqX$X[.[.[.[.[.[.[.[.[._.5.1.^     ",
"        eXeXyX4XT.f.Y v v S.7XeXeXeXeXeXwXwXeXeXeXeXeXeXeXeXeXeXeX5X[.[.[.[.[.[.[.[.[.[.^.2.^ H     ",
"        eXtXeX Xf.$.c # . q XXeXeXeXeXeXwXeXeXeXeXeXeXeXeXeXeXeXyX<X[.[.[.[.[.[.[.[.[.{.A.2.>.T     ",
"        <X6X4XI.x.Y 8 . . O D.tXuXuXuXuXpXpXuXuXuXuXpXpXuXuXuXuXyX>X[.[.].].]._.)./.^.K.3.K S N     ",
"        d s m G.z.U > . . X t.t.t.t.i.u.u.u.u.u.u.u.u.t.t.t.! ~ I N b b x s w q 7 6 : * # X X       ",
"        $ o 5 v.z.Y 8 . . X P # . . . . . . . . X . . . . . . . . X 2 & . . . . . . - # . . .       ",
"        b * 1 x.G.%.e . . . P = . . . . . . 7 ..a 9 X . . . . . . C 8.u # . . . . 1 V 3 . X e       ",
"          A - f.z.%.c X . . M e . . . . . O x.}.( p 9 . . . . . X *.w.` 1 . . . . y ] < . 2 l       ",
"          #.* ,.f.c d & . . q m . . . . . 5 e.q.=./ u . . . . . X [ ;.} > . . . X ) { < . t `       ",
"          F 1 m H.p.i 5 . . > $.X . . . . ; *.0.;._ 9 . . . . . . f -.j X . . . X h p . X d         ",
"            @ 7 x.p.v 7 X . 8 ~ q . . . . . > h ) r X . . . . . . X , # . . . . . # X . .           ",
"              X U l.$.5 = . d d P X . . . . . . . . . . . . . . . . . . . . . . . . . X             ",
"              u.Y n.x.L P M #.a.D.q . . . . . . . . . . . . . X X O & * 1 0 i s d b A b             ",
"      -X<X1X2X1X.XL.Y.XXXX XV.Z.L.T.S.g.d.d.u.u.,.R R Q ,.<.3.a.s.m.Z.K.^._.^.5.2.1.:.              ",
"    P.c.l.V.n.`..XT.XXXX X*XK.Z.U.&X8X6X1X;X9X,X$X$X$X$X$X$X{.{.$X$X[.[.$X~.a.m.M.b.5.1.            ",
"    N.o.a     J.T.|. X|.Y.*X).V.T.|.=X%X_.s.^.[.[.[.[.[.[.[.[.[.[.[.[.[.^.S Y n.P.).).^.b.2.>.      ",
"    N.@.j   D.Y. X X XT.XX@XK.J. X;X,X$X^.F C.[.[.[.[.[.[.[.[.[.[.[.[._.4.k l  .+.&.4.n.A.Z.2.^     ",
"      @.B l.Y. XXX XY.#X%XA./.(.#X%X].K.S f <.$X[.[.[.[.[.[.[.[.[.].).E > V D &.7.| | X.X.D k       ",
"      4.x.Y.|. X!.Y.#X%X^.    E.P.B.6.0 9 r s _.[.[.[.[.[.[.[.[._.L.<.g g .. .B | '  .O.W.9.l       ",
"    XX|.|.oX X!.(.#XOXL.        l.9.' r k 3 3 a.[.[.[.[.].]._.^.K.j.        &.O.&.&.O.&.Q.r.'       ",
"    `.OX@XOXOX.X_./.              Q.o.y y , b G 4.M.^.K.n.a.T R                         c.7.j       ",
"                                  W.l         >.J <.k.k.<.J G G                         P.9.G       ",
"                                  c.B                                                   ^.K.<.      ",
"                                =X:X)./.                                                            ",
"                                                                                                    ",
"                                                                                                    "
};
