/* XPM */
static char *_842e5e57ecc4b699456ac8643c8051biJWWDdD1Eq9cIRVc[] = {
/* columns rows colors chars-per-pixel */
"50 50 144 2 ",
"   c #558E1D",
".  c #598F1D",
"X  c #57901F",
"o  c #5D931F",
"O  c #578F24",
"+  c #579121",
"@  c #5D9424",
"#  c #5F9827",
"$  c #57962D",
"%  c #5D952A",
"&  c #5D992A",
"*  c #5D9730",
"=  c #619725",
"-  c #639926",
";  c #619629",
":  c #659C2B",
">  c #699E2C",
",  c #639E33",
"<  c #6A9F31",
"1  c #6CA226",
"2  c #67A02E",
"3  c #6DA22E",
"4  c #6EA92D",
"5  c #71A52E",
"6  c #72A92D",
"7  c #66A232",
"8  c #6EA530",
"9  c #6FA430",
"0  c #6FA631",
"q  c #6CA532",
"w  c #6EA432",
"e  c #6FA432",
"r  c #6FA533",
"t  c #6DA633",
"y  c #6EA732",
"u  c #6CA530",
"i  c #6BA334",
"p  c #6BA336",
"a  c #6DA135",
"s  c #6EA234",
"d  c #6FA334",
"f  c #6DA236",
"g  c #6EA337",
"h  c #6BA534",
"j  c #6BA535",
"k  c #6CA534",
"l  c #6CA435",
"z  c #6EA434",
"x  c #6FA535",
"c  c #6DA635",
"v  c #6EA734",
"b  c #6FA536",
"n  c #6EA736",
"m  c #6EA637",
"M  c #6DA432",
"N  c #6EA931",
"B  c #6FA833",
"V  c #6FA835",
"C  c #6FA837",
"Z  c #6FA836",
"A  c #6DA538",
"S  c #6CA638",
"D  c #6DA739",
"F  c #6FA738",
"G  c #6DA739",
"H  c #6EA83A",
"J  c #6FA938",
"K  c #71A330",
"L  c #70A231",
"P  c #70A032",
"I  c #70A531",
"U  c #72A431",
"Y  c #71A630",
"T  c #70A730",
"R  c #73A630",
"E  c #72A731",
"W  c #70A533",
"Q  c #73A532",
"!  c #71A632",
"~  c #70A732",
"^  c #72A733",
"/  c #75A631",
"(  c #74A633",
")  c #76A732",
"_  c #70A435",
"`  c #73A534",
"'  c #70A634",
"]  c #71A634",
"[  c #71A735",
"{  c #72A735",
"}  c #70A436",
"|  c #70A636",
" . c #70A637",
".. c #71A737",
"X. c #74A436",
"o. c #71A633",
"O. c #71A830",
"+. c #71A831",
"@. c #73A931",
"#. c #71A833",
"$. c #73A832",
"%. c #72A932",
"&. c #73AA33",
"*. c #74AA30",
"=. c #75A832",
"-. c #74A933",
";. c #76A933",
":. c #74AA32",
">. c #73A834",
",. c #72A934",
"<. c #73AA35",
"1. c #70A936",
"2. c #72A836",
"3. c #73A836",
"4. c #73A937",
"5. c #71AA37",
"6. c #74A935",
"7. c #75AA34",
"8. c #74A937",
"9. c #75AA36",
"0. c #74AB36",
"q. c #75AC35",
"w. c #73A934",
"e. c #78A934",
"r. c #78A933",
"t. c #71A539",
"y. c #71A738",
"u. c #73A738",
"i. c #72A63A",
"p. c #72A739",
"a. c #72A838",
"s. c #73A939",
"d. c #71AA39",
"f. c #72AB38",
"g. c #72AB3A",
"h. c #74A839",
"j. c #74AA38",
"k. c #75AA38",
"l. c #75AB39",
"z. c #74A83A",
"x. c #76AC3A",
"c. c #77AD3B",
"v. c #73AA39",
"b. c #78AD3A",
/* pixels */
"E 3 M g.7 . M E [ w w y.d d 9.3 E ( 5 [ d [ : @ -.4 3 E E E ,.4 w q   7 w 3 -.5 E d y.M 5 3 w d   > ",
"3 o M c c c M M : 3 w [ 7 > E 3 E w E ,.: > 7 7 E E E > : 3 [ [ ,.7 q c g.w 3 E > > 3 3 ,.w [ w 7 c ",
",.3 x.q > > M k.@ M @.4 = = M ,.,.3 3 ,.: > [ C [ 9.E > > d M : = M g.c > . M k.; > 6 5 > ; > @.[ [ ",
"> ,.w M > = ,.3 d ,.4 4 @.k.g.M E 3 w [ M 3 E 4 M E M > w k.E > E 9.3 M g.> k.3 c 4 5 4 w > M @.w 3 ",
"w ,.= > [ 3 x.@ ; M 5 4 w M > = 3 ,.,.M [ E 4 E 5 E E 5 3 3 E E 5 3 ,.w E E 3 3 @.M d M @.5 ,.y.E E ",
"C c > > E E k.> d E 3 4 [ [ M = 3 ,.3 = w E 4 E w 3 4 @.4 3 E 5 @.4 E q N ,.E E 3 M y.M 5 1 3 < > E ",
"@ : ,.E E 3 3 [ 3 E E w : : w 4 5 E > : c [ E 3 2 @ 2 ,.M w ,.4 7 c j > :   3 3 w w [ 3 9.E M : : M ",
"j q [ 3 E > > w E 4 w [ > > [ 4 5 3 ,.c C M [ E H , c F # : M > F @ : @ F p c E @ > -.3 M d [ 4 c [ ",
"w 3 > k.M : = z.M E ,.E w E w E 4 5 3 3 E E 4 4 E w 3 [ M M : : E 3 w E E E 3 E 3 w ,.[ 3 c @ # ( L ",
"g.> = M ,.9.3 w E > - > E E E 3 E 3 3 E w > > ,.4 E 5 3 w w w ,.3 E E E E E E 3 E 3 o > ,.k.,.> 4 4 ",
"[ c k.[ 3 E 3 @.[ 3 = 3 ,.[ ,.w ,.[ E ,.3 = : c 3 -.9.3 q.E 4 3 w ,.w [ [ w ,.w E 9.> E w > [ w 3 L ",
"L E E E w E @.4 3 [ 3 ,.[ > [ w = 7 [ w w w c ,.E E > = 4 4 4 E [ M = M M = M w E w w ,.E w E E ( -.",
"5 5 > 5 E > [ : = ,.[ [ > = w w @ 3 w 3 w k.c 2 [ [ - : M M : M [ M = M M = M w E 3 E E w E E w 7 : ",
"4 @.E 9.3 @ M > > ,.[ M > > [ w q [ E 4 E w > # M y.M g.[ M = > w ,.M [ [ M ,.w w ,.k.E - = E E , $ ",
"M : M M M 3 [ w E E E w 3 E E E w w 3 4 E E M 3 3 E w w w w M ,.3 E E w w E E 3 c > M 3 3 3 E E e.( ",
"p @ c > > 4 3 5 E w E E E E 3 w w E 5 3 5 5 E [ 5 5 E 3 E E E 3 ,.3 w E E E w 9.c X c M [ k.3 [ 3 4 ",
"5 -.w : & g.@.E 5 w 7 = E 3 k.7 4 3 @ p F @ 2 N E 5 E E ,.: : g.5 E 7 > j @ = ( M ,.3 g.w @ c c E E ",
"j w 4 6 5 E : , 5 w 2 : E 3 M @ 3 w > d c > c 3 ( 3 w 3 [ : : [ E 3 : : C c 3 3 5 @.3 M > - 3 w w E ",
"c w 3 5 ( w # : 5 ,.c M E L M > c [ [ ,.w E 9.3 E E b.3 3 9.,.3 w ,.,.3 E [ g.g.5 5 ( E 5 5 4 4 E E ",
"6 4 : & j g.3 6 ( @.7 w E ( E g.M : 3 E 4 4 E 5 [ = w E E 5 5 E + : E 5 -.E > + 3 3 3 E E E E 3 E E ",
"5 E 7 : j c > 5 ( 3 @ 3 w ( > 7 M = 3 E 4 5 E ( w = M E E 5 5 5 q c @.3 E E [ 7 [ [ : w c 2 g.c 3 w ",
", 7 ,.6 r.> = 7 E 3 > w E E - : ,.3 E E 3 3 w E w M ,.w w E b.3 7 C ,.3 w 3 w w M q @ 7 7 @ > : > 3 ",
"# : w 3 ( 5 q H 5 @.g.w 3 E > 7 5 E E M > > > 3 C > > [ [ = M w [ ,.2 @ 7 [ E E [ 9.M k.,.7 M 7 3 3 ",
"-.E c @ : c -.5 5 E c = - ( [ c 5 @.M [ d > 7 ,.c > : c c + 7 c . M H > c w 5 5 5 E L L w w E E E E ",
"w [ M 3 < y.p O 3 E 3 3 3 M g.q : 3 @.E c y.M @.( 5 5 4 4 9.3 3 < _ ( 3 E 3 5 5 ,.@ = ,.w 3 9.E w w ",
"w 3 E 9.x.3 7 7 [ ,.E E E [ ,.7 @ ,.- > c ; : 5 E E w 9.E [ M ,.E 3 E [ 9.[ [ E w w w w M 3 E w E E ",
"E 3 E 3 o = f.w w 3 3 E E 3 = : g.w = 3 9.M E 3 [ d M k.7 : ; = 6 4 @.w > [ g.: : w w M w > = 3 E w ",
"w M > @.4 3 3 w [ w 9.w w [ 3 M [ 3 E E 3 3 E 9.[ 7 @ : : > c p 5 4 E 4 @ M [ : > [ [ M [ M > 9.E E ",
"y.= : [ [ [ k.= = w [ @ @ [ E E 3 E E 3 ,.,.> [ w ,.3 ,.[ c c 2 g.> > ,.> 3 E @.> w w = = w w w w @.",
"M c c   7 = [ > > [ [ 3 M [ w ,.3 ,.M [ E > E < - 5 3 4 4 E E ,.y.> : [ @.E 4 @.,.E ,.3 3 ,.M M : 3 ",
",.M k.7 c @ M [ E w 3 c x.M > 5 -.> @ M w 4 k.@ - E ,.,.E 3 @ : M w M M [ M > M E > w w [ M @ > : > ",
"4 @.3 3 g.,.w E w ,.= @ M w E 5 4 3 p M w 4 3 y.E ,.w M [ [ : k.4 E E M y.= ; z.E E 9.3 w c : [ w [ ",
"[ w E 3 w q q : 5 6 3 3 [ c 7 7 2 [ w [ [ w w w [ : 4 4 3 9.w [ @.3 . 3 w E 3 ( c   q [ 3 E ( 5 5 E ",
"M w 3 = 3 ,.c + M [ E w 3 ,.[ = = k.E 3 w = @ [ 7 = 3 @.@.@.> 3 w w > w ,.w E 5 c 7 ,.3 - w 5 3 j , ",
"@ : M 3 4 3 [ ,.F : 2 w 3 3 ( 5 k.w 3 [ k.M M [ [ w ,.w 3 4 = = 3 ,.[ w M 3 E 3 M ,.w 3 = 4 w @.7 & ",
"7 C k.M E w E > H : > @.E w E 9.w = = E M 3 [ M c w @.3 4 ,.[ ,.3 9.M M = 3 w E E E 3 ,.w w ,.[ 9.E ",
"c c q 3 ,.E E E 3 3 w w @.,.> : E w > w k.[ [ [ M [ ,.@.@.E M w 5 E 4 [ : [ E E E > > [ ,.> w = 3 5 ",
"> 7 ,.,.E o = ,.5 5 -.3 E c : : k.E M w M 3 M - = 3 w > > [ [ > 4 3 @.[ M [ E M E - > 3 w 3 [ @ M w ",
"+ < [ > w w w w [ 3 ,.w 3 @.M k.[ 3 k.c.= = 9.> 3 ,.,.> = M w @ 5 3 ,.w > M w 3 [ E w w [ ,.9.3 [ w ",
"[ g.w > E w w [ # & C > o E ( 5 w > > w 3 M k.E ,.3 4 k.[ w ,.w E 5 E M o M M ,.M ,.w w w w 3 ,.5 5 ",
"3 ,.M : < [ E 4 d M M E 3 4 @.4 7 @ c [ 3 5 @.4 4 3 E > 3 w 3 w w = = ,.E k.: > ( E 4 ,.M M g.> > 3 ",
"5 E [ [ [ [ E E 3 4 4 4 w d 7 # 4 [ c 3 9.3 w k.E ,.M = : E @.E w > 3 ,.3 w : > 5 > 3 E = : g.: > w ",
"[ > > [ [ M M [ 4 @.@.3 E y.M : 3 E 4 w E 3 [ , - [ ,.[ [ E E 3 g.M c E 3 E w w E 9.,.E 3 M [ w 3 w ",
"_ : - 4 4 w M < : c d - > E E E 4 4 [ w @.w [ : > w 3 [ ,.3 E E c > 3 3 E E ,.E 3 ,.M 3 [ 4 3 E w w ",
"[ M w 4 4 ,.[ : : d [ : > E 4 @.w g.c @ w @.3 [ N 3 @ > E 3 E E 3 : 3 w k.3 w 5 [ > 3 ,.,.w 3 3 E w ",
"M [ ,.> : M [ M 4 4 @.3 [ z.> : [ M d = > @.3 w 4 w 3 M ,.[ E 3 E 3 [ [ [ - 3 E w : > M w 3 = > E E ",
"3 E M : : > E E w - 3 M E [ : : -.3 k.[ 3 E k.: 4 E 9.[ M M M ,.E E 3 M > = 3 E E E w M ,.w > [ M w ",
"5 E c c g.y.3 4 p # < E M E 3 @.3 @.E w ,.M 7 % 4 > E [ M : = w 5 E w [ [ M 9.3 E 3 ,.w : 3 M [ 3 w ",
"7 % 2 [ 3 -.d q E 5 @.c E 3 f.p 7 6 E , 2 5 5 @.4 E [ E 4 5 M d , 5 4 5 k., -.5 E w E 3 = 7 c O 5 5 ",
"c , 4 9.> 5 : # [ 5 E c E 3 N : & 5 E * : 5 L 4 4 E [ E 4 5 M d $ 3 E 5 M $ 5 E E 3 E E 3 [ g.> 5 5 "
};
