/* XPM */
static char *result[] = {
/* columns rows colors chars-per-pixel */
"50 50 212 2 ",
"   c #000000",
".  c #0B0201",
"X  c #02050A",
"o  c #0B0B0B",
"O  c #0B060C",
"+  c #100304",
"@  c #1A0300",
"#  c #130A06",
"$  c #180A05",
"%  c #020B12",
"&  c #050817",
"*  c #02181D",
"=  c #131313",
"-  c #1A191A",
";  c #1F160F",
":  c #260703",
">  c #3F0200",
",  c #320105",
"<  c #26140A",
"1  c #2E1416",
"2  c #00201D",
"3  c #37251B",
"4  c #2D2413",
"5  c #011B25",
"6  c #0C0C2C",
"7  c #152429",
"8  c #032C35",
"9  c #2C2B2B",
"0  c #232324",
"q  c #392922",
"w  c #393939",
"e  c #35393F",
"r  c #213035",
"t  c #470701",
"y  c #550100",
"u  c #5C0300",
"i  c #5F0C00",
"p  c #49180D",
"a  c #610B01",
"s  c #67000E",
"d  c #661804",
"f  c #7E1100",
"g  c #760900",
"h  c #4C2C1A",
"j  c #51270D",
"k  c #60291C",
"l  c #611A2B",
"z  c #482A22",
"x  c #443E3B",
"c  c #553727",
"v  c #7C3725",
"b  c #79472B",
"n  c #795537",
"m  c #624532",
"M  c #5E6A26",
"N  c #000647",
"B  c #0F2E50",
"V  c #373157",
"C  c #002066",
"Z  c #203163",
"A  c #5B2E52",
"S  c #762A4D",
"D  c #413869",
"F  c #722D64",
"G  c #284249",
"H  c #365148",
"J  c #444444",
"K  c #4A4B4B",
"L  c #5A5757",
"P  c #6D5852",
"I  c #5B5172",
"U  c #56646A",
"Y  c #486975",
"T  c #646465",
"R  c #6A6A6A",
"E  c #747474",
"W  c gray49",
"Q  c #861A00",
"!  c #961505",
"~  c #8C150E",
"^  c #AF0007",
"/  c #AA1C00",
"(  c #A31B00",
")  c #B01F00",
"_  c #8F290F",
"`  c #A42400",
"'  c #A42800",
"]  c #B42300",
"[  c #BB2300",
"{  c #B23207",
"}  c #B31127",
"|  c #9B3D31",
" . c #BE212F",
".. c #A93726",
"X. c #E11C00",
"o. c #CC2400",
"O. c #C62800",
"+. c #C92800",
"@. c #CC2B0F",
"#. c #D52C00",
"$. c #DD2C01",
"%. c #C73701",
"&. c #DA3200",
"*. c #D33603",
"=. c #E33400",
"-. c #EC3A00",
";. c #E83502",
":. c #FE3D00",
">. c #E82B00",
",. c #E03C2D",
"<. c #874C1E",
"1. c #895435",
"2. c #9E5F3D",
"3. c #9D4F32",
"4. c #AC472D",
"5. c #9F613E",
"6. c #B66D3B",
"7. c #CF4700",
"8. c #C54217",
"9. c #EA4008",
"0. c #F64001",
"q. c #FE4302",
"w. c #FF4B03",
"e. c #FF4F0B",
"r. c #F2450E",
"t. c #FF5400",
"y. c #FF540E",
"u. c #FF5909",
"i. c #FF5511",
"p. c #FF5B12",
"a. c #FF5F18",
"s. c #CA6000",
"d. c #FF6307",
"f. c #FF6817",
"g. c #FF701C",
"h. c #C65D3C",
"j. c #F04E26",
"k. c #D76C3C",
"l. c #FF672A",
"z. c #BD2764",
"x. c #96525B",
"c. c #B45157",
"v. c #9E664D",
"b. c #A77755",
"n. c #B6724F",
"m. c #B05162",
"M. c #827C7B",
"N. c #DE5F41",
"B. c #C05D53",
"V. c #DB734B",
"C. c #C57956",
"Z. c #CA6C4E",
"A. c #E37D53",
"S. c #B3815F",
"D. c #CF855A",
"F. c #D48556",
"G. c #EA8959",
"H. c #FF9F56",
"J. c #F58957",
"K. c #DC9B77",
"L. c #C29175",
"P. c #FD9563",
"I. c #FF9F66",
"U. c #E79A76",
"Y. c #FFAA71",
"T. c #F9AD7D",
"R. c #FFB67C",
"E. c #FFBA7D",
"W. c #FFA169",
"Q. c #FFD849",
"!. c #001E85",
"~. c #391F8B",
"^. c #002787",
"/. c #00299A",
"(. c #313988",
"). c #0037A0",
"_. c #004797",
"`. c #2F4F8C",
"'. c #3B6487",
"]. c #0048A3",
"[. c #0C4EAB",
"{. c #625181",
"}. c #516995",
"|. c #787888",
" X c #68708B",
".X c #005BCC",
"XX c #9F7A90",
"oX c #768492",
"OX c #4789B0",
"+X c #808080",
"@X c #8A8C8A",
"#X c #9E9E9E",
"$X c #988E8D",
"%X c #A8A6A6",
"&X c #B0A3A0",
"*X c #B5B5B5",
"=X c #B9B9B9",
"-X c #E4A583",
";X c #F6AD83",
":X c #FCB489",
">X c #EFB792",
",X c #FFBB91",
"<X c #E3BBB0",
"1X c #FFCD93",
"2X c #FFCDA1",
"3X c #FFD3A4",
"4X c #FFDCAD",
"5X c #FFDDBC",
"6X c #FFE7B3",
"7X c #C5C5C5",
"8X c white",
"9X c None",
/* pixels */
"9X9X9X9X9X9X9X9X9X9X9X9X9X9X9X9X9X9X9X9X9X9X9X9X9X9X9X9X9X9X9X9X9X9X9X9X9X9X9X9X9X9X9X9X9X9X9X9X9X9X",
"9X9X9X9X9X9X9X9X9X9X9X9X9X9X9X9X9X9X9X9X9X9X9X9X9X9X9X9X9X9X9X9X9X9X9X9X9X9X9X9X9X9X9X9X9X9X9X9X9X9X",
"9X9X9X9X9X9X9X9X9X9X9X9X9X9X9X9X9X9X9X9X9X9X9X9X9X9X9X9X9X9X9X9X9X9X9X9X9X9X9X9X9X9X9X9X9X9X9X9X9X9X",
"9X9X9X9X9X9X9X9X9X9X9X9X9X9X9X9X9X9X9X9X9X9X9X9X9X9X9X9X9X9X9X9X9X9X9X9X9X9X9X9X9X9X9X9X9X9X9X9X9X9X",
"9X9X9X9X9X9X9X9X9X9X9X9X9X9X9X9X9X9X9X9X9X9X9X9X9X9X9X9X9X9X9X9X9X9X9X9X9X9X9X9X9X9X9X9X9X9X9X9X9X9X",
"9X9X9X9X9X9X9X9X9X9X9X9X9X9X0 9X9X9X9X9X9X9X9X9X9X9X9X9X9X9X9X9X9X9X9X9X9X9X9X9X9X9X9X9X9X9X9X9X9X9X",
"9X9X9X9X9X9X9X9X9X9X9X9X9X7X9 9X9X9X9X*X=X*X+X9X9X9X9X9X9X9X9X9X9X9X9X9X9X9X9X9X9X9X9X9X9X9X9X9X9X9X",
"9X9X9X9X9X9X9X9X9X9X+X9X9Xw X 9X9X#XR         L %XE 9X9X9X9X9X9X9X9X9X9X9X9X9X9X9X9X9X9X9X9X9X9X9X9X",
"9X9X9X9X9X9X9X9X9X7XL 9X=X9   9X@X                  W @XE 9X9X9X9X9X9X9X9X9X9X9X9X9X9X9X9X9X9X9X9X9X",
"9X9X9X9X9X9X9X9X*XT 7 9XJ     K                         9X9X9X9X9X9X9X9X9X9X9X9X9X9X9X9X9X9X9X9X9X9X",
"9X9X9X9X9X9X9X9X%XR 9 9X0                       9X9X9X9X9X9X9X9X9X9X9X9X9X9X9X9X9X9X9X9X9X9X9X9X9X9X",
"9X9X9X9X9X9X9X9X9XL 9 R                       = 9X9X9X9X9X9X9X9X9X9X9X9X9X9X9X9X9X9X9X9X9X9X9X9X9X9X",
"9X9X9X9X9X9X9X9X9X9XJ -                       X = X 9X9X9X9X9X9X9X9X9X9X9X9X9X9X9X9X9X9X9X9X9X9X9X9X",
"9X9X9X9X9X9X9X9X9X9XJ                               O 9X9X9X9X9X9X9X9X9X9X9X9X9X9X9X9X9X9X9X9X9X9X9X",
"9X9X9X9X9X9X9X9X9X9X9X-                               = 9X9X9X9X9X= 9X9X9X9X9X9X9X9X9X9X9X9X9X9X9X9X",
"9X9X9X9X9X9X9X9X9X9X9XK                               X 9X9       9X9X9X9X9X9X9X9X9X9X9X9X9X9X9X9X9X",
"9X9X9X9X9X9X9X9X9X9XT                                         o 9X9X9X9X9X9X9X9X9X9X9X9X9X9X9X9X9X9X",
"9X9X9X9X9X9X9X9X9X9XJ           < 3       < .                 w 9X9X9 9X9X9X9X9X9X9X9X9X9X9X9X9X9X9X",
"9X9X9X9X9X9X9X9X9X9XK         c T.2Xm h   5.D..                       9X9X9X9X9X9X9X9X9X9X9X9X9X9X9X",
"9X9X9X9X9X9X9X9X9X9X9X  o   . T.4X3X6Xb   < Y.h                   9X9X9X9X9X9X9X9X9X9X9X9X9X9X9X9X9X",
"9X9X9X9X9X9X9X9X9X9X9X9X9X    h ,X4Xm oXP . k D.  h .       $ 1.1.K &   9X9X9X9X9X9X9X9X9X9X9X9X9X9X",
"9X9X9X9X9X9X9X9X9X9X9X9X9X9X9X  -Xn A 8X2X3.n.R.3.P.X X . v n.R.P.d v n 4   e 9X9X9X9X9X9X9X9X9X9X9X",
"9X9X9X9X9X9X9X9X9X9X9X9X9X9X9X  K.X W 8X<XG.Y.G.k 4 f _ Z H.Y.G.V.H.W.W.N V 1.= L 9X9X9X9X9X9X9X9X9X",
"9X9X9X9X9X9X9X9X9X9X9X9X9X9X7 b.2X-X>X5X>XI.1.$ a Q q.i.x.XX6.: < 3 F.{./.(.k.n.h T 9X9X9X9X9X9X9X9X",
"9X9X9X9X9X9X9X9X9X9X9X9X9X9X9Xz D.3X2X2X1X<.N l o.$.i.y.p....   9X9X$ ^.(.n.4.P.j U 9X9X9X9X9X9X9X9X",
"9X9X9X9X9X9X9X9X9X9X9X9X9X9X9X9X; ;X2X4Xb.6 S $.+.q.i.i.u.w.t % 9X9X9XO C.N.F.V.: |.9X9X9X9X9X9X9X9X",
"9X9X9X9X9X9X9X9X9X9X9X9X9X9X9X9X9Xq >XS.t >.i.y.y.i.i.w.&.d.! * 9X9X9X. F.5.  . x 9X9X9X9X9X9X9X9X9X",
"9X9X9X9X9X9X9X9X9X9X9X9X9X9X9X9X9X9X  z e.o.q.p.i.i.y.y.q.0.|   9X9X9X9X    9 9X9X9X9X9X9X9X9X9X9X9X",
"9X9X9X9X9X9X9X9X9X9X9X9X9X9X9X9X9X9X5 ].I p.u.y.i.u.y.t.j.A .XC 7 9X9X9X9X9X9X9X9X9X9X9X9X9X9X9X9X9X",
"9X9X9X9X9X9X9X9X9X9X9X9X9X9X9X9X9Xo }.!.).x.t.y.p.p.t.B.[./.A XX& 9X9X9X9X9X9X9X9X9X9X9X9X9X9X9X9X9X",
"9X9X9X9X9X9X9X9X9X9X9X9X9X9X9X9X9X$ G.@X_.F d.p.:.-.B.)._.B.X.:.7.% 9X9X9X9X9X9X9X9X9X9X9X9X9X9X9X9X",
"9X9X9X9X9X9X9X9X9X9X9X9X9X9X9X9X9X# ,X1XV.,.-.y.-.q._.[.k.t.w.#.u.[ 3 9X9X9X9X9X9X9X9X9X9X9X9X9X9X9X",
"9X9X9X9X9X9X9X9X9X9X9X9X9X9X9X9X  ; 4XR.A.Q g t.g.{ _.r t.i.p.q.q.f.. 9X9X9X9X9X9X9X9X9X9X9X9X9X9X9X",
"9X9X9X9X9X9X9X9X9X9X9X9X9X9X= b .   Z.R.L.  . d d   5 #.i.i.y.p.p.a.` 3 9X9X9X9X9X9X9X9X9X9X9X9X9X9X",
"9X9X9X9X9X9X9X9X9X9X9X9X9X9X  C.D v.T.K.1 9X9X      ! :.p.y.y.y.i.;.o.  9X9X9X9X9X9X9X9X9X9X9X9X9X9X",
"9X9X9X9X9X9X9X9X9X9X9X9X9X9X  6.}.U.6XL.9X9X  i 0.r.t / =.p.y.y.i.e.e.` X # 9X9X9X9X9X9X9X9X9X9X9X9X",
"9X9X9X9X9X9X9X9X9X9X9X9X9X9X9Xq v. Xn.; 9Xt :.i.p.p.r.@ t ;.i.p.y.i.p.#.) Q O 3 9X9X9X9X9X9X9X9X9X9X",
"9X9X9X9X9X9X9X9X9X9X9X9X9X9X9X9X; o J oX@ q.a.i.y.y.! &...O _ p.p.y.i.O.+./ @.' 7 9X9X9X9X9X9X9X9X9X",
"9X9X9X9X9X9X9X9X9X9X9X9X9X9X9X9X9X9X9X8 u f.i.e.#.( ! j.~.B.s.a y.u.p.&.[ / :.*.  L 9X9X9X9X9X9X9X9X",
"9X9X9X9X9X9X9X9X9X9X9X9X9X9X9X9X9X9X9X9Xp w.q./ O.! :.q.^ %.7.s y O.w.p.=.#.q.w.t Y 9X9X9X9X9X9X9X9X",
"9X9X9X9X9X9X9X9X9X9X9X9X9X9X9X9X9X9X9X9X$Xt X.;.#.=.[ y * 5 7 ~ > 5 d [ f.p.t.:.'.& L 9X9X9X9X9X9X9X",
"9X9X9X9X9X9X9X9X9X9X9X9X9X9X9X9X9X9X9X9X9XU n.8.u y 5 G 9X9X9XT r &XH * ` w.l.m.`.H n 9X9X9X9X9X9X9X",
"9X9X9X9X9X9X9X9X9X9X9X9X9X9X9X9X9X9X9X9X9X9X9XY 5 G 9X9X9X9X9X9X9X9X9X9Xo u 3 Z z.Q.M - 9X9X9X9X9X9X",
"9X9X9X9X9X9X9X9X9X9X9X9X9X9X9X9X9X9X9X9X9X9X9X9X9X9X9X9X9X9X9X9X9X9X9X9X9XB H 8 1 >.oXC %X9X9X9X9X9X",
"9X9X9X9X9X9X9X9X9X9X9X9X9X9X9X9X9X9X9X9X9X9X9X9X9X9X9X9X9X9X9X9X9X9X9X9X9X9X9X9XA , } }.OX9X9X9X9X9X",
"9X9X9X9X9X9X9X9X9X9X9X9X9X9X9X9X9X9X9X9X9X9X9X9X9X9X9X9X9X9X9X9X9X9X9X9X9X9X9X9X9X9X@  .`.9X9X9X9X9X",
"9X9X9X9X9X9X9X9X9X9X9X9X9X9X9X9X9X9X9X9X9X9X9X9X9X9X9X9X9X9X9X9X9X9X9X9X9X9X9X9X9X9X9X> # 9X9X9X9X9X",
"9X9X9X9X9X9X9X9X9X9X9X9X9X9X9X9X9X9X9X9X9X9X9X9X9X9X9X9X9X9X9X9X9X9X9X9X9X9X9X9X9X9X9X9X9X9X9X9X9X9X",
"9X9X9X9X9X9X9X9X9X9X9X9X9X9X9X9X9X9X9X9X9X9X9X9X9X9X9X9X9X9X9X9X9X9X9X9X9X9X9X9X9X9X9X9X9X9X9X9X9X9X",
"9X9X9X9X9X9X9X9X9X9X9X9X9X9X9X9X9X9X9X9X9X9X9X9X9X9X9X9X9X9X9X9X9X9X9X9X9X9X9X9X9X9X9X9X9X9X9X9X9X9X"
};
