/* XPM */
static char *result[] = {
/* columns rows colors chars-per-pixel */
"50 50 211 2 ",
"   c #000000",
".  c #0B0201",
"X  c #02050A",
"o  c #0B0B0B",
"O  c #0B060C",
"+  c #100304",
"@  c #1A0300",
"#  c #130A06",
"$  c #180A05",
"%  c #020B12",
"&  c #050817",
"*  c #02181D",
"=  c #131313",
"-  c #1A191A",
";  c #1F160F",
":  c #260703",
">  c #3F0200",
",  c #320105",
"<  c #26140A",
"1  c #2E1416",
"2  c #00201D",
"3  c #37251B",
"4  c #2D2413",
"5  c #011B25",
"6  c #0C0C2C",
"7  c #152429",
"8  c #032C35",
"9  c #2C2B2B",
"0  c #232324",
"q  c #392922",
"w  c #393939",
"e  c #35393F",
"r  c #213035",
"t  c #470701",
"y  c #550100",
"u  c #5C0300",
"i  c #5F0C00",
"p  c #49180D",
"a  c #610B01",
"s  c #67000E",
"d  c #661804",
"f  c #7E1100",
"g  c #760900",
"h  c #4C2C1A",
"j  c #51270D",
"k  c #60291C",
"l  c #611A2B",
"z  c #482A22",
"x  c #443E3B",
"c  c #553727",
"v  c #7C3725",
"b  c #79472B",
"n  c #7B5537",
"m  c #624532",
"M  c #5E6A26",
"N  c #000647",
"B  c #0F2E50",
"V  c #373157",
"C  c #002066",
"Z  c #203163",
"A  c #5B2E52",
"S  c #762A4D",
"D  c #413869",
"F  c #722D64",
"G  c #284249",
"H  c #365148",
"J  c #434344",
"K  c #4D4D4B",
"L  c #5A5757",
"P  c #6E5951",
"I  c #5B5172",
"U  c #56646A",
"Y  c #486975",
"T  c #646465",
"R  c #6A6A6A",
"E  c #747474",
"W  c #7A7B7B",
"Q  c #861A00",
"!  c #961505",
"~  c #8C150E",
"^  c #AF0007",
"/  c #AA1C00",
"(  c #A31B00",
")  c #B01F00",
"_  c #8F290F",
"`  c #A42400",
"'  c #A42800",
"]  c #B42300",
"[  c #BB2300",
"{  c #B23207",
"}  c #B31127",
"|  c #9B3D31",
" . c #BE212F",
".. c #A93726",
"X. c #E11C00",
"o. c #CC2400",
"O. c #C62800",
"+. c #C92800",
"@. c #CC2B0F",
"#. c #D52C00",
"$. c #DD2C01",
"%. c #C73701",
"&. c #DA3200",
"*. c #D33603",
"=. c #E33400",
"-. c #EC3A00",
";. c #E83502",
":. c #FE3D00",
">. c #E82B00",
",. c #E03C2D",
"<. c #874C1E",
"1. c #895435",
"2. c #9E5F3D",
"3. c #9D4F32",
"4. c #AC472D",
"5. c #9F613E",
"6. c #B66D3B",
"7. c #CF4700",
"8. c #C54217",
"9. c #EA4008",
"0. c #F64001",
"q. c #FE4302",
"w. c #FF4B03",
"e. c #FF4F0B",
"r. c #F2450E",
"t. c #FF5400",
"y. c #FF540E",
"u. c #FF5909",
"i. c #FF5511",
"p. c #FF5B12",
"a. c #FF5F18",
"s. c #CA6000",
"d. c #FF6307",
"f. c #FF6817",
"g. c #FF701C",
"h. c #C65D3C",
"j. c #F04E26",
"k. c #D76C3C",
"l. c #FF672A",
"z. c #BD2764",
"x. c #96525B",
"c. c #B45157",
"v. c #9E664D",
"b. c #A77755",
"n. c #B6724F",
"m. c #B05162",
"M. c #DE5F41",
"N. c #C05D53",
"B. c #DB734B",
"V. c #C57956",
"C. c #CA6C4E",
"Z. c #E37D53",
"A. c #B3815F",
"S. c #CF855A",
"D. c #D48556",
"F. c #EA8959",
"G. c #FF9F56",
"H. c #F58957",
"J. c #DC9B77",
"K. c #C29175",
"L. c #FD9563",
"P. c #FF9F66",
"I. c #E79A76",
"U. c #FFAA71",
"Y. c #F9AD7D",
"T. c #FFB67C",
"R. c #FFBA7D",
"E. c #FFA169",
"W. c #FFD849",
"Q. c #001E85",
"!. c #391F8B",
"~. c #002787",
"^. c #00299A",
"/. c #313988",
"(. c #0037A0",
"). c #004797",
"_. c #2F4F8C",
"`. c #3B6487",
"'. c #0048A3",
"]. c #0C4EAB",
"[. c #625181",
"{. c #516995",
"}. c #787888",
"|. c #68708B",
" X c #005BCC",
".X c #9F7A90",
"XX c #768492",
"oX c #4789B0",
"OX c #808080",
"+X c #8A8C8A",
"@X c #9E9E9E",
"#X c #988E8D",
"$X c #A8A6A6",
"%X c #B0A3A0",
"&X c #B5B5B5",
"*X c #B9B9B9",
"=X c #E3A583",
"-X c #F6AD83",
";X c #FBB489",
":X c #F9B893",
">X c #EFBB91",
",X c #E6BCB1",
"<X c #FFCD93",
"1X c #FFCDA1",
"2X c #FFD3A4",
"3X c #FFDCAC",
"4X c #FFDFBE",
"5X c #FFE7B3",
"6X c #C5C5C5",
"7X c white",
"8X c None",
/* pixels */
"8X8X8X8X8X8X8X8X8X8X8X8X8X8X8X8X8X8X8X8X8X8X8X8X8X8X8X8X8X8X8X8X8X8X8X8X8X8X8X8X8X8X8X8X8X8X8X8X8X8X",
"8X8X8X8X8X8X8X8X8X8X8X8X8X8X8X8X8X8X8X8X8X8X8X8X8X8X8X8X8X8X8X8X8X8X8X8X8X8X8X8X8X8X8X8X8X8X8X8X8X8X",
"8X8X8X8X8X8X8X8X8X8X8X8X8X8X8X8X8X8X8X8X8X8X8X8X8X8X8X8X8X8X8X8X8X8X8X8X8X8X8X8X8X8X8X8X8X8X8X8X8X8X",
"8X8X8X8X8X8X8X8X8X8X8X8X8X8X8X8X8X8X8X8X8X8X8X8X8X8X8X8X8X8X8X8X8X8X8X8X8X8X8X8X8X8X8X8X8X8X8X8X8X8X",
"8X8X8X8X8X8X8X8X8X8X8X8X8X8X8X8X8X8X8X8X8X8X8X8X8X8X8X8X8X8X8X8X8X8X8X8X8X8X8X8X8X8X8X8X8X8X8X8X8X8X",
"8X8X8X8X8X8X8X8X8X8X8X8X8X8X8X8X8X8X8X8X8X8X8X8X8X8X8X8X8X8X8X8X8X8X8X8X8X8X0 8X8X8X8X8X8X8X8X8X8X8X",
"8X8X8X8X8X8X8X8X8X8X8X8X8X8X8X8X8X8X8X8X8X8X8X8X8X8X8X8X8X8XOX*X*X&X8X8X8X8X9 6X8X8X8X8X8X8X8X8X8X8X",
"8X8X8X8X8X8X8X8X8X8X8X8X8X8X8X8X8X8X8X8X8X8X8X8X8X8X8XE $XL         R @X8X8X  w 8X8XOX8X8X8X8X8X8X8X",
"8X8X8X8X8X8X8X8X8X8X8X8X8X8X8X8X8X8X8X8X8X8X8X8XW +XW                   +X8X  9 *X8XL 6X8X8X8X8X8X8X",
"8X8X8X8X8X8X8X8X8X8X8X8X8X8X8X8X8X8X8X8X8X8X8X8X8X                        K     K 8X- R *X8X8X8X8X8X",
"8X8X8X8X8X8X8X8X8X8X8X8X8X8X8X8X8X8X8X8X8X8X8X8X8X8X8X8X8X                      0 8X9 R @X8X8X8X8X8X",
"8X8X8X8X8X8X8X8X8X8X8X8X8X8X8X8X8X8X8X8X8X8X8X8X8X8X8X8X8X=                       R 9 L 8X8X8X8X8X8X",
"8X8X8X8X8X8X8X8X8X8X8X8X8X8X8X8X8X8X8X8X8X8X8X8X8X8X8XX = X                       - H 8X8X8X8X8X8X8X",
"8X8X8X8X8X8X8X8X8X8X8X8X8X8X8X8X8X8X8X8X8X8X8X8X8X8Xo                               J 8X8X8X8X8X8X8X",
"8X8X8X8X8X8X8X8X8X8X8X8X8X8X8X8X8X8X8X= 8X8X8X8X8X=                               - 8X8X8X8X8X8X8X8X",
"8X8X8X8X8X8X8X8X8X8X8X8X8X8X8X8X8X8X8X8X      9 8XX                               K 8X8X8X8X8X8X8X8X",
"8X8X8X8X8X8X8X8X8X8X8X8X8X8X8X8X8X8X8X8X8Xo                                         T 8X8X8X8X8X8X8X",
"8X8X8X8X8X8X8X8X8X8X8X8X8X8X8X8X8X8X9 8X8Xw                   <       q <           J 8X8X8X8X8X8X8X",
"8X8X8X8X8X8X8X8X8X8X8X8X8X8X8X8X8X8X                      . D.5.  h m 1XY.c         K 8X8X8X8X8X8X8X",
"8X8X8X8X8X8X8X8X8X8X8X8X8X8X8X8X8X8X8X8X                  h U.<   b 5X2X3XY.    o X 8X8X8X8X8X8X8X8X",
"8X8X8X8X8X8X8X8X8X8X8X8X8X8X8X8X8XX & K 1.1.#         h   S.c   P .Xm 3X:Xh   X 8X8X8X8X8X8X8X8X8X8X",
"8X8X8X8X8X8X8X8X8X8X8X8X8X8Xe   4 b v d L.R.n.v .   X L.3.T.n.4.,X7XH n I.  8X8X8X8X8X8X8X8X8X8X8X8X",
"8X8X8X8X8X8X8X8X8X8X8X8XL = <.D N E.E.G.B.Z.U.G.Z _ Q 4 k F.U.F.,X7XW X J.  8X8X8X8X8X8X8X8X8X8X8X8X",
"8X8X8X8X8X8X8X8X8X8X8XT h n.k./.^.[.D.3 < : 6..Xm.a.q.Q i : 1.P.:X4X>X=X1Xb.7 8X8X8X8X8X8X8X8X8X8X8X",
"8X8X8X8X8X8X8X8X8X8X8XU j G.4.C./.~.$ 8X8X  . ..i.y.i.#.o.l N <.<X2X1X2XS.z 8X8X8X8X8X8X8X8X8X8X8X8X",
"8X8X8X8X8X8X8X8X8X8X8X}., B.D.C.V.X 8X8X8X% t w.y.i.i.w.+.$.S 6 b.3X1X-X; 8X8X8X8X8X8X8X8X8X8X8X8X8X",
"8X8X8X8X8X8X8X8X8X8X8X8Xw . . 5.D.  8X8X8X* ( d.&.w.i.i.y.y.i.>.t b.>X3 8X8X8X8X8X8X8X8X8X8X8X8X8X8X",
"8X8X8X8X8X8X8X8X8X8X8X8X8X8X0     8X8X8X8X  | 0.q.y.i.y.y.p.q.o.i.z   8X8X8X8X8X8X8X8X8X8X8X8X8X8X8X",
"8X8X8X8X8X8X8X8X8X8X8X8X8X8X8X8X8X8X8X8X7 C  XA j.u.y.y.i.y.y.p.I '.5 8X8X8X8X8X8X8X8X8X8X8X8X8X8X8X",
"8X8X8X8X8X8X8X8X8X8X8X8X8X8X8X8X8X8X8X8X& .XA ^.'.N.t.p.i.i.t.x.(.~.{.. 8X8X8X8X8X8X8X8X8X8X8X8X8X8X",
"8X8X8X8X8X8X8X8X8X8X8X8X8X8X8X8X8X8X8X% 7.:.X.h.'.(.N.;.0.p.d.F ).+XF.$ 8X8X8X8X8X8X8X8X8X8X8X8X8X8X",
"8X8X8X8X8X8X8X8X8X8X8X8X8X8X8X8X8X8Xj { p.#.y.t.M.].).q.0.y.-.,.B.<X;X$ 8X8X8X8X8X8X8X8X8X8X8X8X8X8X",
"8X8X8X8X8X8X8X8X8X8X8X8X8X8X8X8X8X8X+ f.q.w.p.i.t.r ).{ f.t.g f F.;X2X< X 8X8X8X8X8X8X8X8X8X8X8X8X8X",
"8X8X8X8X8X8X8X8X8X8X8X8X8X8X8X8X8X3 ` p.i.p.y.y.i.#.5   d d .   K.T.C.  . b = 8X8X8X8X8X8X8X8X8X8X8X",
"8X8X8X8X8X8X8X8X8X8X8X8X8X8X8X8X8X  +.-.p.i.i.i.i.q.!       8X8X< J.Y.v.D V.  8X8X8X8X8X8X8X8X8X8X8X",
"8X8X8X8X8X8X8X8X8X8X8X8X8X8X8X#   ` e.w.i.i.i.i.;.) t r.9.i   8X8XK.3XI.{.6.  8X8X8X8X8X8X8X8X8X8X8X",
"8X8X8X8X8X8X8X8X8X8X8X8X8Xq . Q ] #.i.i.i.i.i.-.t @ 9.a.p.i.:.t 8X; n.|.b.q 8X8X8X8X8X8X8X8X8X8X8X8X",
"8X8X8X8X8X8X8X8X8X8X8X8X7 ' @./ +.+.y.i.p.a.Q O ..#.! e.i.p.f.q.@ XXx o ; 8X8X8X8X8X8X8X8X8X8X8X8X8X",
"8X8X8X8X8X8X8X8X8X8X8XL   *.q./ [ &.p.p.y.a s.n.!.j.( / #.e.e.f.u 8 8X8X8X8X8X8X8X8X8X8X8X8X8X8X8X8X",
"8X8X8X8X8X8X8X8X8X8X8XY t w.q.#.&.p.w.+.y s 7.O.^ q.q.! O.( :.w.p 8X8X8X8X8X8X8X8X8X8X8X8X8X8X8X8X8X",
"8X8X8X8X8X8X8X8X8X8XL & `.q.u.a.f.[ i 5 > ~ 7 5 * y [ =.#.>.X.t #X8X8X8X8X8X8X8X8X8X8X8X8X8X8X8X8X8X",
"8X8X8X8X8X8X8X8X8X8Xn H _.m.l.w.' * H %Xr T 8X8X8XG 5 y u 8.n.U 8X8X8X8X8X8X8X8X8X8X8X8X8X8X8X8X8X8X",
"8X8X8X8X8X8X8X8X8X- M W.z.B 1 a = 8X8X8X8X8X8X8X8X8X8XG 8 Y 8X8X8X8X8X8X8X8X8X8X8X8X8X8X8X8X8X8X8X8X",
"8X8X8X8X8X8X8X8X$XC XX:.1 B G r 8X8X8X8X8X8X8X8X8X8X8X8X8X8X8X8X8X8X8X8X8X8X8X8X8X8X8X8X8X8X8X8X8X8X",
"8X8X8X8X8X8X8X8XoX{.} , x 8X8X8X8X8X8X8X8X8X8X8X8X8X8X8X8X8X8X8X8X8X8X8X8X8X8X8X8X8X8X8X8X8X8X8X8X8X",
"8X8X8X8X8X8X8X8X_. .: 8X8X8X8X8X8X8X8X8X8X8X8X8X8X8X8X8X8X8X8X8X8X8X8X8X8X8X8X8X8X8X8X8X8X8X8X8X8X8X",
"8X8X8X8X8X8X8X8XX , 8X8X8X8X8X8X8X8X8X8X8X8X8X8X8X8X8X8X8X8X8X8X8X8X8X8X8X8X8X8X8X8X8X8X8X8X8X8X8X8X",
"8X8X8X8X8X8X8X8X8X8X8X8X8X8X8X8X8X8X8X8X8X8X8X8X8X8X8X8X8X8X8X8X8X8X8X8X8X8X8X8X8X8X8X8X8X8X8X8X8X8X",
"8X8X8X8X8X8X8X8X8X8X8X8X8X8X8X8X8X8X8X8X8X8X8X8X8X8X8X8X8X8X8X8X8X8X8X8X8X8X8X8X8X8X8X8X8X8X8X8X8X8X",
"8X8X8X8X8X8X8X8X8X8X8X8X8X8X8X8X8X8X8X8X8X8X8X8X8X8X8X8X8X8X8X8X8X8X8X8X8X8X8X8X8X8X8X8X8X8X8X8X8X8X"
};
