/* XPM */
static char *result[] = {
/* columns rows colors chars-per-pixel */
"50 50 219 2 ",
"   c #000000",
".  c #0B0302",
"X  c #01050A",
"o  c #00090D",
"O  c #0B0B0B",
"+  c #120200",
"@  c #190100",
"#  c #1A0A03",
"$  c #000212",
"%  c #000815",
"&  c #071313",
"*  c #121213",
"=  c #1B1A1A",
"-  c #1B1211",
";  c #180E13",
":  c #2B0200",
">  c #260C04",
",  c #350300",
"<  c #3A0805",
"1  c #27140B",
"2  c #30190C",
"3  c #261A14",
"4  c #240D15",
"5  c #2F2217",
"6  c #000426",
"7  c #0E1C27",
"8  c #03073C",
"9  c #0C1A2D",
"0  c #0D2431",
"q  c #232121",
"w  c #2B2B2B",
"e  c #2D2622",
"r  c #3D3B3B",
"t  c #333637",
"y  c #293135",
"u  c #480B00",
"i  c #5B0502",
"p  c #5C0B0A",
"a  c #571201",
"s  c #6E0000",
"d  c #690C00",
"f  c #750400",
"g  c #661C05",
"h  c #791400",
"j  c #422A1B",
"k  c #4B2915",
"l  c #552C11",
"z  c #753518",
"x  c #6D2A0E",
"c  c #5E3A23",
"v  c #4B3631",
"b  c #693A22",
"n  c #6B302C",
"m  c #76421D",
"M  c #51402E",
"N  c #66422B",
"B  c #704B33",
"V  c #000A45",
"C  c #001957",
"Z  c #10304E",
"A  c #00274D",
"S  c #282A5E",
"D  c #001C64",
"F  c #003976",
"G  c #2F3171",
"H  c #303174",
"J  c #4A3759",
"K  c #6A2A47",
"L  c #4C3F66",
"P  c #314651",
"I  c #004573",
"U  c #3A566D",
"Y  c #4C4B4B",
"T  c #42464D",
"R  c #545454",
"E  c gray36",
"W  c #4E5351",
"Q  c #745F4C",
"!  c #664E4C",
"~  c #7A6154",
"^  c #4B4A63",
"/  c #5A6565",
"(  c #4E6B73",
")  c #656565",
"_  c gray42",
"`  c #727272",
"'  c #6A6E6F",
"]  c #850300",
"[  c #890D03",
"{  c #831A01",
"}  c #951400",
"|  c #9B1C05",
" . c #940E00",
".. c #AB1B01",
"X. c #A31607",
"o. c #B41C00",
"O. c #8C2909",
"+. c #9B2904",
"@. c #A82700",
"#. c #BE2300",
"$. c #B4310A",
"%. c #861338",
"&. c #853E2A",
"*. c #8A2E26",
"=. c #CA0E07",
"-. c #C32400",
";. c #C92800",
":. c #D42900",
">. c #DC3401",
",. c #D93804",
"<. c #EA3500",
"1. c #E63901",
"2. c #FD3C00",
"3. c #F03500",
"4. c #F52200",
"5. c #D43D37",
"6. c #9D4F30",
"7. c #995837",
"8. c #8A5434",
"9. c #BF4121",
"0. c #A75737",
"q. c #846437",
"w. c #AD613F",
"e. c #ED4000",
"r. c #FE4401",
"t. c #FF4C03",
"y. c #FF4E0A",
"u. c #F9460E",
"i. c #FF5403",
"p. c #FF5A00",
"a. c #FF540D",
"s. c #FF5C0C",
"d. c #FF4D15",
"f. c #FF5511",
"g. c #FF5C13",
"h. c #FC571A",
"j. c #FF6201",
"k. c #FF650A",
"l. c #FF6116",
"z. c #FF6B1A",
"x. c #FF6718",
"c. c #FF7619",
"v. c #CD473C",
"b. c #C95438",
"n. c #DF5039",
"m. c #FF5728",
"M. c #E54428",
"N. c #D86C3C",
"B. c #B1214A",
"V. c #D12949",
"C. c #8C5F45",
"Z. c #A2594C",
"A. c #B25753",
"S. c #92684B",
"D. c #AB6A43",
"F. c #AC785B",
"G. c #B67553",
"H. c #974969",
"J. c #956365",
"K. c #D6784C",
"L. c #CB744A",
"P. c #E06140",
"I. c #EB784C",
"U. c #C66A6B",
"Y. c #FF9B0E",
"T. c #BA8567",
"R. c #A78369",
"E. c #D2865C",
"W. c #EC8758",
"Q. c #E8915E",
"!. c #FF9C59",
"~. c #FB8F5F",
"^. c #CF936E",
"/. c #EB9A6A",
"(. c #F19B72",
"). c #FBA56A",
"_. c #EBA47B",
"`. c #FAA976",
"'. c #FFB075",
"]. c #001F97",
"[. c #032A8D",
"{. c #002A99",
"}. c #003993",
"|. c #313F8A",
" X c #0038A0",
".X c #124F90",
"XX c #3A488C",
"oX c #0059B6",
"OX c #004AB2",
"+X c #5A7986",
"@X c #4F7085",
"#X c #A42B96",
"$X c #5A8382",
"%X c #70868B",
"&X c #848484",
"*X c #8B8B8B",
"=X c #999999",
"-X c #A58383",
";X c #A99CA9",
":X c #B1A7A9",
">X c #E9AC85",
",X c #FEAD85",
"<X c #FFB889",
"1X c #FDBB92",
"2X c #E5AF92",
"3X c #DFC19A",
"4X c #FEC898",
"5X c #FFCCA4",
"6X c #FFDCA7",
"7X c #FFD3A8",
"8X c #FFDAAB",
"9X c #FFD5A7",
"0X c #EFCBBE",
"qX c #FFE3AA",
"wX c #FFE4B3",
"eX c #D3D6D6",
"rX c #F6CDC6",
"tX c #FAFDFE",
"yX c None",
/* pixels */
"yXyXyXyXyXyXyXyXyXyXyXyXyXyXyXyXyXyXyXyXyXyXyXyXyXyXyXyXyXyXyXyXyXyXyXyXyXyXyXyXyXyXyXyXyXyXyXyXyXyX",
"yXyXyXyXyXyXyXyXyXyXyXyXyXyXyXyXyXyXyXyXyXyXyXyXyXyXyXyXyXyXyXyXyXyXyXyXyXyXyXyXyXyXyXyXyXyXyXyXyXyX",
"yXyXyXyXyXyXyXyXyXyXyXyXyXyXyXyXyXyXyXyXyXyXyXyXyXyXyXyXyXyXyXyXyXyXyXyXyXyXyXyXyXyXyXyXyXyXyXyXyXyX",
"yXyXyXyXyXyXyXyXyXyXyXyXyXyXyXyXyXyXyXyXyXyXyXyXyXyXyXyXyXyXyXyXyXyXyXyXyXyXyXyXyXyXyXyXyXyXyXyXyXyX",
"yXyXyXyXyXyXyXyXyXyXyXyXyXyXyXyXyXyXyXyXyXyXyXyXyXyXyXyXyXyXyXyXyXyXyXyXyXyXyXyXyXyXyXyXyXyXyXyXyXyX",
"yXyXyXyXyXyXyXyXyXyXyXyXyXyXyXyXyXyXyXyXyXyXyXyXyXyXyXyXyXyXyXyXyXyXyXyXyXyXyXyXyXyXyXyXyXyXyXyXyXyX",
"yXyXyXyXyXyXyXyXyXyXyXyXyXyXyXyXyXyXyXyXyXyXyXyXyXyXyXyXyXyXyXyXyXyXyXyXyXyXyXyXyXv yXyXyXyXyXyXyXyX",
"yXyXyXyXyXyXyXyXyXyXyXyXyXyXyXyXyXyXyXyXyXyXyXyXyXyXyXyXyXyXyXyXyX_ =X=X&XyXyXyXyXt yXyXyXyXyXyXyXyX",
"yXyXyXyXyXyXyXyXyXyXyXyXyXyXyXyXyXyXyXyXyXyXyXyXyXyXyXyXyXyXw ` q         _ %XyXyX  _ yXyXyXyXyXyXyX",
"yXyXyXyXyXyXyXyXyXyXyXyXyXyXyXyXyXyXyXyXyXyXyXyXyXyXyXY ` r                 O =XyX  w yXyX) yXyXyXyX",
"yXyXyXyXyXyXyXyXyXyXyXyXyXyXyXyXyXyXyXyXyXyXyXyXyXyXyX                        q r     _ yXw &XyXyXyX",
"yXyXyXyXyXyXyXyXyXyXyXyXyXyXyXyXyXyXyXyXyXyXyXyXyXyXyXyXyXyXyXX                       = yXq &XyXyXyX",
"yXyXyXyXyXyXyXyXyXyXyXyXyXyXyXyXyXyXyXyXyXyXyXyXyXyXyXyXyXyXyXyX                        yX* *XyXyXyX",
"yXyXyXyXyXyXyXyXyXyXyXyXyXyXyXyXyXyXyXyXyXyXyXyXyXyXyXyXyXyX                            E = _ yXyXyX",
"yXyXyXyXyXyXyXyXyXyXyXyXyXyXyXyXyXyXyXyXyXyXyXyXyXyXyXyXyX                                R yXyXyXyX",
"yXyXyXyXyXyXyXyXyXyXyXyXyXyXyXyXyXyXyXyXyXyX  = yXyXyXyX                                  yXyXyXyXyX",
"yXyXyXyXyXyXyXyXyXyXyXyXyXyXyXyXyXyXyXyXyXyXyX      yXyX                                yXyXyXyXyXyX",
"yXyXyXyXyXyXyXyXyXyXyXyXyXyXyXyXyXyXyXyXyXyXyXyXO                                     * yXyXyXyXyXyX",
"yXyXyXyXyXyXyXyXyXyXyXyXyXyXyXyXyXyXyXyXyXX yXyXyX                j +     < l 2         E yXyXyXyXyX",
"yXyXyXyXyXyXyXyXyXyXyXyXyXyXyXyXyXyXyXyXyX                      1 '.j   b (.4X/.>       W yXyXyXyXyX",
"yXyXyXyXyXyXyXyXyXyXyXyXyXyXyXyXyXyXyXyXyXyXyX:X-       2 c   + W.S.  . 4X8X5X6XD.      R yXyXyXyXyX",
"yXyXyXyXyXyXyXyXyXyXyXyXyXyXyXyXyXyXyXyXyXyXO &XO       c ~.  b ).z _ =XQ 9X7X_..     O yXyXyXyXyXyX",
"yXyXyXyXyXyXyXyXyXyXyXyXyXyXyXyXyXyXyXyXyX              j '.0.D.).b.rXtX0 N wXT.  = yXyXyXyXyXyXyXyX",
"yXyXyXyXyXyXyXyXyXyXyXyXyXyXyXyXyXyXyX    b _.>XU D     X B I.P.Q.W.0XtXP e wXT.  yXyXyXyXyXyXyXyXyX",
"yXyXyXyXyXyXyXyXyXyXyXyXyXyXyXyXyXyXk `.2X(.b 3 * % ^ r.d   x I.Q.<X5X5X1X1X1Xg 7 yXyXyXyXyXyXyXyXyX",
"yXyXyXyXyXyXyXyXyXyXyXyXyXyXyXyXyXj wX;XZ + &.K.Q.O > i.*.@XN.L.Q.4X4X4X5X8XF.- yXyXyXyXyXyXyXyXyXyX",
"yXyXyXyXyXyXyXyXyXyXyXyXyXyXyXyXyXc :XC x 4XwX(.1X^.: i.b.+X~.L.6._.8X8X7XF.e yXyXyXyXyXyXyXyXyXyXyX",
"yXyXyXyXyXyXyXyXyXyXyXyXyXyXyXyXyXyX9 % 8.6X>X&.0.3X> i.v..X/.!.z c R.^.F.q yXyXyXyXyXyXyXyXyXyXyXyX",
"yXyXyXyXyXyXyXyXyXyXyXyXyXyXyXyXyXyXyX  ~ E.#     Q O.j.5.{.+XD.-Xv :   O yXyXyXyXyXyXyXyXyXyXyXyXyX",
"yXyXyXyXyXyXyXyXyXyXyXyXyXyXyXyXyXyXyXyXo       0 [ t.r.n.}.{.oXI ,.k.> yXyXyXyXyXyXyXyXyXyXyXyXyXyX",
"yXyXyXyXyXyXyXyXyXyXyXyXyXyXX       . f @.$.{ i OXU.=.4.P.oXS n 1.j.@.8 7 yXyXyXyXyXyXyXyXyXyXyXyXyX",
"yXyXyXyXyXyXyXyXyXyXyXyX- O.d < < h >.s.z.t.:.2.v.}.G Z.i.A.m.2.t.+.8 [.X yXyXyXyXyXyXyXyXyXyXyXyXyX",
"yXyXyXyXyXyXyXyXyXyXyXr +.X...-.u.i.l.f.f.t.r.f.p.M.K OXA.s.p.| + V {.[.X yXyXyXyXyXyXyXyXyXyXyXyXyX",
"yXyXyXyXyXyXyXyXR     +.k.f.y.t.g.f.f.f.f.f.g.f.f.<.-.$.U.P   N 7.G.XX6   yXyXyXyXyXyXyXyXyXyXyXyXyX",
"yXyXyXyXyXyXY   A N.7..Xm.i.a.a.f.f.f.g.y.f.h.>.;.-.#.<.g.m.i v `.K.4   X       3 yXyXyXyXyXyXyXyXyX",
"yXyXyXyXyXE 9 XXG.c.V.V.m.<.;.>.a.a.d.:.X.<     p ..<.d.a.s.t., 8.).L 6 <XL.5 6XC.o yXyXyXyXyXyXyXyX",
"yXyXyXyX=XX J =.e.q.F I 9.o.} } | ] u X yXyXyXyX  . u.l.a.a.g.2.O.D.S [.G._.`.<X7.X yXyXyXyXyXyXyXyX",
"yXyXyXyXeX= X & o         X X o % o = yXyXyXX a ;   . ,.a.g.f.l.{ X 3 V   1 ,X,XS.y yXyXyXyXyXyXyXyX",
"yXyXyXyXyXyXyXyXyXyXyXyXyXyXyXyXyXyXyXyX( $ L E.|.V a @ { d.l.g.t.: %XR & # W.O.P yXyXyXyXyXyXyXyXyX",
"yXyXyXyXyXyXyXyXyXyXyXyXyXyXyXyXyXyXJ.f %.#XY.A.].H.s...X X.r.y.x.u yXyXyXv m N R yXyXyXyXyXyXyXyXyX",
"yXyXyXyXyXyXyXyXyXyXyXyXyXyXyXyXyXr + f s s g d B.s.i.-.X.}  .1.z.u yXyXyXyX% / yXyXyXyXyXyXyXyXyXyX",
"yXyXyXyXyXyXyXyXyXyXyXyXyXyXyXyXyXyX` $X$X( U P i 2.a...>.t.r.g.i., yXyXyXyXyXyXyXyXyXyXyXyXyXyXyXyX",
"yXyXyXyXyXyXyXyXyXyXyXyXyXyXyXyXyXyXyXyXyXyXyXyX( : 1.i.a.l.z.$.  ! yXyXyXyXyXyXyXyXyXyXyXyXyXyXyXyX",
"yXyXyXyXyXyXyXyXyXyXyXyXyXyXyXyXyXyXyXyXyXyXyXyXyX' @ < < , > n W yXyXyXyXyXyXyXyXyXyXyXyXyXyXyXyXyX",
"yXyXyXyXyXyXyXyXyXyXyXyXyXyXyXyXyXyXyXyXyXyXyXyXyXyXyXyXyXyXyXyXyXyXyXyXyXyXyXyXyXyXyXyXyXyXyXyXyXyX",
"yXyXyXyXyXyXyXyXyXyXyXyXyXyXyXyXyXyXyXyXyXyXyXyXyXyXyXyXyXyXyXyXyXyXyXyXyXyXyXyXyXyXyXyXyXyXyXyXyXyX",
"yXyXyXyXyXyXyXyXyXyXyXyXyXyXyXyXyXyXyXyXyXyXyXyXyXyXyXyXyXyXyXyXyXyXyXyXyXyXyXyXyXyXyXyXyXyXyXyXyXyX",
"yXyXyXyXyXyXyXyXyXyXyXyXyXyXyXyXyXyXyXyXyXyXyXyXyXyXyXyXyXyXyXyXyXyXyXyXyXyXyXyXyXyXyXyXyXyXyXyXyXyX",
"yXyXyXyXyXyXyXyXyXyXyXyXyXyXyXyXyXyXyXyXyXyXyXyXyXyXyXyXyXyXyXyXyXyXyXyXyXyXyXyXyXyXyXyXyXyXyXyXyXyX",
"yXyXyXyXyXyXyXyXyXyXyXyXyXyXyXyXyXyXyXyXyXyXyXyXyXyXyXyXyXyXyXyXyXyXyXyXyXyXyXyXyXyXyXyXyXyXyXyXyXyX"
};
