/* XPM */
static char *result[] = {
/* columns rows colors chars-per-pixel */
"50 50 203 2 ",
"   c #000000",
".  c #0D0402",
"X  c #00020B",
"o  c #0B0C0C",
"O  c #040D07",
"+  c #140503",
"@  c #1D0301",
"#  c #180D09",
"$  c #1E120D",
"%  c #030815",
"&  c #0F1113",
"*  c #1B1B1B",
"=  c #181716",
"-  c #290802",
";  c #3F0303",
":  c #2A1409",
">  c #391707",
",  c #2B1D13",
"<  c #3B1A13",
"1  c #2D211B",
"2  c #3C2314",
"3  c #000024",
"4  c #050A2E",
"5  c #01193B",
"6  c #0D1E25",
"7  c #0B2529",
"8  c #172E34",
"9  c #033039",
"0  c #262524",
"q  c #2B2B2B",
"w  c #2F2721",
"e  c #392B29",
"r  c #3F342C",
"t  c #3A3939",
"y  c #490103",
"u  c #530301",
"i  c #491F1A",
"p  c #6F0401",
"a  c #600C00",
"s  c #770A00",
"d  c #760C16",
"f  c #41240E",
"g  c #48291A",
"h  c #4F301D",
"j  c #53321D",
"k  c #5C320F",
"l  c #7F2204",
"z  c #75391D",
"x  c #473528",
"c  c #54302C",
"v  c #6D5701",
"b  c #445A29",
"n  c #7A4428",
"m  c #001A42",
"M  c #002759",
"N  c #262659",
"B  c #002B7B",
"V  c #00397B",
"C  c #003569",
"Z  c #223968",
"A  c #571277",
"S  c #3C4241",
"D  c #3E415C",
"F  c #2E464D",
"G  c #184B78",
"H  c #395767",
"J  c #3F4D73",
"K  c #294574",
"L  c #454343",
"P  c #494748",
"I  c #555555",
"U  c #66604C",
"Y  c #4F5D60",
"T  c #555364",
"R  c #4D6A70",
"E  c #6C6C6C",
"W  c #676A76",
"Q  c #757677",
"!  c #850802",
"~  c #841E00",
"^  c #9E1C00",
"/  c #931707",
"(  c #AD1D01",
")  c #A81400",
"_  c #B91A00",
"`  c #8F2200",
"'  c #972108",
"]  c #832E1F",
"[  c #A42901",
"{  c #B22300",
"}  c #BC2100",
"|  c #B42900",
" . c #A1310E",
".. c #951C34",
"X. c #B90B3D",
"o. c #873826",
"O. c #8A302B",
"+. c #AF3C3C",
"@. c #A03C27",
"#. c #D71F00",
"$. c #C32600",
"%. c #CD2700",
"&. c #CB2B00",
"*. c #DB3100",
"=. c #D63703",
"-. c #C53802",
";. c #F02C00",
":. c #E63600",
">. c #FA3E00",
",. c #804A2F",
"<. c #92462D",
"1. c #8F5030",
"2. c #904838",
"3. c #A44628",
"4. c #97633E",
"5. c #D8461B",
"6. c #FF4401",
"7. c #FF4C01",
"8. c #FF4D0A",
"9. c #FF5601",
"0. c #FF5C00",
"q. c #FF530C",
"w. c #FF590D",
"e. c #FF4F11",
"r. c #FF5611",
"t. c #FF5B12",
"y. c #FF541A",
"u. c #FF5D1B",
"i. c #EE4711",
"p. c #FF6302",
"a. c #FF6214",
"s. c #D04F32",
"d. c #F1502A",
"f. c #EE5932",
"g. c #C2613D",
"h. c #D1603F",
"j. c #FF6625",
"k. c #B2234E",
"l. c #AD3353",
"z. c #A54E4F",
"x. c #976D56",
"c. c #896E52",
"v. c #B9744A",
"b. c #A4795A",
"n. c #A46A50",
"m. c #9F5B66",
"M. c #967573",
"N. c #AB7A70",
"B. c #CE5A49",
"V. c #DA5840",
"C. c #C96644",
"Z. c #C76643",
"A. c #DC6743",
"S. c #D7784A",
"D. c #C57B57",
"F. c #D67C53",
"G. c #C2774D",
"H. c #EA7A51",
"J. c #FF9B00",
"K. c #FFA11B",
"L. c #BF8C70",
"P. c #B7896F",
"I. c #C7815B",
"U. c #EA8759",
"Y. c #FD8D5E",
"T. c #C98B67",
"R. c #CA9579",
"E. c #DB986B",
"W. c #EA9663",
"Q. c #F49764",
"!. c #FFAE74",
"~. c #F1A573",
"^. c #FFB17A",
"/. c #E5A37D",
"(. c #00398E",
"). c #002B85",
"_. c #003BA1",
"`. c #004D8A",
"'. c #004581",
"]. c #00538C",
"[. c #21658A",
"{. c #005DA5",
"}. c #0047A4",
"|. c #584682",
" X c #C97E92",
".X c #908D8F",
"XX c #8F919A",
"oX c #A8A1A3",
"OX c #E18A91",
"+X c #FFB587",
"@X c #FCB68A",
"#X c #ECB499",
"$X c #FFCB9E",
"%X c #FFC49B",
"&X c #FFD599",
"*X c #FFD5A5",
"=X c #FFDBA8",
"-X c #FFE8AD",
";X c #FFE8B3",
":X c #CDCDCD",
">X c #FFFFCA",
",X c white",
"<X c None",
/* pixels */
"<X<X<X<X<X<X<X<X<X<X<X<X<X<X<X<X<X<X<X<X<X<X<X<X<X<X<X<X<X<X<X<X<X<X<X<X<X<X<X<X<X<X<X<X<X<X<X<X<X<X",
"<X<X<X<X<X<X<X<X<X<X<X<X<X<X<X<X<X<X<X<X<X<X<X<X<X<X<X<X<X<X<X<X<X<X<X<X<X<X<X<X<X<X<X<X<X<X<X<X<X<X",
"<X<X<X<X<X<X<X<X<X<X<X<X<X<X<X<X<X<X<X<X<X<X<X<X<X<X<X<X<X<X<X<X<X<X<X<X<X<X<X<X<X<X<X<X<X<X<X<X<X<X",
"<X<X<X<X<X<X<X<X<X<X<X<X<X<X<X<X<X<X<X<X<X<X<X<X<X<X<X:X:X<X<X<X<X<X<X<X<X<X<X<X<X<X<X<X<X<X<X<X<X<X",
"<X<X<X<X<X<X<X<X<X<X<X<X<X<X<X<X<X<X<X<X<X<X<X<X<XoXt     <X<X<X<X<X<X<X<X<X<X<X<X<X<X<X<X<X<X<X<X<X",
"<X<X<X<X<X<X<X<X<X<X<X<X<X<X<X<X<X<X<X<X<X<X<X<X0       <X<X<X<X<X<X<X<X<X<X<X<X<X<X<X<X<X<X<X<X<X<X",
"<X<X<X<X<X<X<X<X<X<X<X<X<X<X<X<X<X<X<X<X<X<X<X<X        <X<X<X<X<X<X<X<X<X<X<X<X<X<X<X<X<X<X<X<X<X<X",
"<X<X<X<X<X<X<X<X<X<X<X<X<X<X<X<X<X<X<X<X<X<X<X*       <X<X<XL E Q Q <X<X<X<X<X<X<X<X<X<X<X<X<X<X<X<X",
"<X<X<X<X<X<X<X<X<X<X<X<X<X<X<X<X<X<X<X<X<X<X<X        <XL L         , E <X<X<X<X<X<X<X<X<X<X<X<X<X<X",
"<X<X<X<X<X<X<X<X<X<X<X<X<X<X<X<X<X<X<X<X<X<X<X        q             X   q <X<X<X<X<X<X<X<X<X<X<X<X<X",
"<X<X<X<X<X<X<X<X<X<X<X<X<X<X<X<X<X<X<X<X<X<X<X                        O <X<X<X<X<X<X<X<X<X<X<X<X<X<X",
"<X<X<X<X<X<X<X<X<X<X<X<X<X<X<X<X<X<X<X<X<XO                         <X<X<X<X<X<X<X<X<X<X<X<X<X<X<X<X",
"<X<X<X<X<X<X<X<X<X<X<X<X<X<X<X<X<X<X<X<Xo                         <X<X<X<X<X<X<X<X<X<X<X<X<X<X<X<X<X",
"<X<X<X<X<X<X<X<X<X<X<X<X<Xt & <X<X<X<X                              O P <X<X<X<X<X<X<X<X<X<X<X<X<X<X",
"<X<X<X<X<X<X<X<X<X<X<X<X<X<XP     <X<XO                                 I <X<X<X<X<X<X<X<X<X<X<X<X<X",
"<X<X<X<X<X<X<X<X<X<X<X<X<X<X<X<Xo                                         <X<X<X<X<X<X<X<X<X<X<X<X<X",
"<X<X<X<X<X<X<X<X<X<X<X<X<X0 <X<Xq           + :     : X             <X<X<X<X<X<X<X<X<X<X<X<X<X<X<X<X",
"<X<X<X<X<X<X<X<X<X<X<X<X<X                  j ^.2   D.b.    g       <X<X<X<X<X<X<X<X<X<X<X<X<X<X<X<X",
"<X<X<X<X<X<X<X<X<X<X<X<X<X<X<X<Xo       h   . 4.g X T.>Xx.  W.      t <X<X<X<X<X<X<X<X<X<X<X<X<X<X<X",
"<X<X<X<X<X<X<X<X<X<X<X<X<XX 7 <Xo       U.>   e .Xb n.*X;Xb.j   O <Xo <X<X<X<X<X<X<X<X<X<X<X<X<X<X<X",
"<X<X<X<X<X<X<X<X<X<X<X<Xx 4.o.@   <X    Q.U.<.#X,XoXO OX*X+X  <X<X<X<X<X<X<X<X<X<X<X<X<X<X<X<X<X<X<X",
"<X<X<X<X<X<X<X<X<X<X<X<X  H.Y.,.<X<X<X<X2 g A.~.#X%XL.@X$XB.  <X<X<X<X<X<X<X<X<X<X<X<X<X<X<X<X<X<X<X",
"<X<X<X<X<X<X<X<X<X<X<Xe v.F.H.k   <X<Xo   / S.g.@X-X*X$X$X< <X<X<X<X<X<X<X<X<X<X<X<X<X<X<X<X<X<X<X<X",
"<X<X<X<X<X<X<X<X<X<X<X  A.S.F.h.j <X. m [ u.W.Z.g.@X%X$Xx   .   <X<X<X<X<X<X<X<X<X<X<X<X<X<X<X<X<X<X",
"<X<X<X<X<X<X<X<X<X<X<X# @.C.M.4 : <X= M *.j.E.S.s.z , : . 5.G m # <X<X<X<X<X<X<X<X<X<X<X<X<X<X<X<X<X",
"<X<X<X<X<X<X<X<X<X<X<X<X% M (.5   . G.D e.d.[.F.@.x.T.y.7.J '.J   <X<X<X<X<X<X<X<X<X<X<X<X<X<X<X<X<X",
"<X<X<X<X<X<X<X<X<X<X<X<X<XX M R.n 1.!.- >.y.Z `.`.`.f.9.y.K XXv.  <X<X<X<X<X<X<X<X<X<X<X<X<X<X<X<X<X",
"<X<X<X<X<X<X<X<X<X<X<X<X<X<Xf S.h.Y.v.+ } 7.y.C V 5.0.8.6.T *X3.r <X<X<X<X<X<X<X<X<X<X<X<X<X<X<X<X<X",
"<X<X<X<X<X<X<X<X<X<X<X<X<X<X<Xi @.1.1   p %.7.f.B.0.7.7.p X b.*XT.: c.U r <X<X<X<X<X<X<X<X<X<X<X<X<X",
"<X<X<X<X<X<X<X<X<X<X<X<X<X<X<X<X<X  <X<XX 2.;.9.0.9./ ' g *   ;XN.  R.&Xg <X<X<X<X<X<X<X<X<X<X<X<X<X",
"<X<X<X<X<X<X<X<X<X<X<X<X<X<X<X<X<X<X<XS ] B O.N.z.d (.3 <X<Xw n x.c.1.^.> 6 <X<X<X<X<X<X<X<X<X<X<X<X",
"<X<X<X<X<X<X<X<X<X<X<X<X<X<X<X<X<X<X* u 9.l.}.)._.N V. .  <X<X  2 &X-Xn.1 <X<X<X<X<X<X<X<X<X<X<X<X<X",
"<X<X<X<X<X<X<X<X<X<X<X<X<X<X<X<X<X: u 6.w.w.O.) V.5.#.7.=.- <X<X, < x b <X<X<X<X<X<X<X<X<X<X<X<X<X<X",
"<X<X<X<X<X<X<X<X<X<X<X<X<X<X<X<X<X  =.t.r.8.$.>.p.7.8.:.7.+ <X<X<X<X<X<X<X<X<X<X<X<X<X<X<X<X<X<X<X<X",
"<X<X<X<X<X<X<X<X<X<X<X<X<X<X<X<X& [ r.r.q.&.( *.r.r.r.8.q.i.+ <X<X<X<X<X<X<X<X<X<X<X<X<X<X<X<X<X<X<X",
"<X<X<X<X<X<X<X<X<X<X<X<X<X<X<X# ` a.q.q.*.^   + l q.r.r.r.r.^ . <X<X<X<X<X<X<X<X<X<X<X<X<X<X<X<X<X<X",
"<X<X<X<X<X<X<X<X<X<X<X<X<X<X<X* { r.*.{ } y o <XF ; 6.t.r.7.%.u X <X<X<X<X<X<X<X<X<X<X<X<X<X<X<X<X<X",
"<X<X<X<X<X<X<X<X<X<X<X<X<X<X& ` 6.( { ! u # <X<X<X9 s t.r.&.%.[ ; <X<X<X<X<X<X<X<X<X<X<X<X<X<X<X<X<X",
"<X<X<X<X<X<X<X<X<X<X<X<X<X<X7 ` 9.%.! :.X <X<X<X<X<X  $.t.} { 7.=.  <X<X<X<X<X<X<X<X<X<X<X<X<X<X<X<X",
"<X<X<X<X<X<X<X<X<X<X<X<X<X<X8 s h.i.7.| g <X<X<X<X<XY - 7.7.>.p.-.X <X<X<X<X<X<X<X<X<X<X<X<X<X<X<X<X",
"<X<X<X<X<X<X<X<X<X<X<X<X<X<X<X! A x  .1 <X<X<X<X<X<X<XR a ) j.B._   <X<X<X<X<X<X<X<X<X<X<X<X<X<X<X<X",
"<X<X<X<X<X<X<X<X<X<X<X<X<X<X4 n K.O X <X<X<X<X<X<X<X<X<XH 8 c |.X.5 <X<X<X<X<X<X<X<X<X<X<X<X<X<X<X<X",
"<X<X<X<X<X<X<X<X<X<X<X<X<X<X; m.v k <X<X<X<X<X<X<X<X<X<X<X<XX W J.b   <X<X<X<X<X<X<X<X<X<X<X<X<X<X<X",
"<X<X<X<X<X<X<X<X<X<X<X<X<X% ..k.3 <X<X<X<X<X<X<X<X<X<X<X<X<XL 9 D.) O <X<X<X<X<X<X<X<X<X<X<X<X<X<X<X",
"<X<X<X<X<X<X<X<X<X<X<X<X<XW <X X<X<X<X<X<X<X<X<X<X<X<X<X<X<X<XX {.l.p <X<X<X<X<X<X<X<X<X<X<X<X<X<X<X",
"<X<X<X<X<X<X<X<X<X<X<X<X<X<X<X<X<X<X<X<X<X<X<X<X<X<X<X<X<X<X<XQ <X<XOX<X<X<X<X<X<X<X<X<X<X<X<X<X<X<X",
"<X<X<X<X<X<X<X<X<X<X<X<X<X<X<X<X<X<X<X<X<X<X<X<X<X<X<X<X<X<X<X<X<X<X<X<X<X<X<X<X<X<X<X<X<X<X<X<X<X<X",
"<X<X<X<X<X<X<X<X<X<X<X<X<X<X<X<X<X<X<X<X<X<X<X<X<X<X<X<X<X<X<X<X<X<X<X<X<X<X<X<X<X<X<X<X<X<X<X<X<X<X",
"<X<X<X<X<X<X<X<X<X<X<X<X<X<X<X<X<X<X<X<X<X<X<X<X<X<X<X<X<X<X<X<X<X<X<X<X<X<X<X<X<X<X<X<X<X<X<X<X<X<X",
"<X<X<X<X<X<X<X<X<X<X<X<X<X<X<X<X<X<X<X<X<X<X<X<X<X<X<X<X<X<X<X<X<X<X<X<X<X<X<X<X<X<X<X<X<X<X<X<X<X<X"
};
