/* XPM */
static char *result[] = {
/* columns rows colors chars-per-pixel */
"50 50 219 2 ",
"   c #000000",
".  c #0B0302",
"X  c #01050A",
"o  c #00090D",
"O  c #0B0B0B",
"+  c #120200",
"@  c #190100",
"#  c #1A0A03",
"$  c #000212",
"%  c #000815",
"&  c #071313",
"*  c #121213",
"=  c #1B1A1A",
"-  c #1B1211",
";  c #180E13",
":  c #2B0200",
">  c #260C04",
",  c #350300",
"<  c #3A0805",
"1  c #27140B",
"2  c #30190C",
"3  c #261A14",
"4  c #240D15",
"5  c #2F2217",
"6  c #000426",
"7  c #0E1C27",
"8  c #03073C",
"9  c #0C1A2D",
"0  c #0D2431",
"q  c #232121",
"w  c #2B2B2B",
"e  c #2D2622",
"r  c #3D3B3B",
"t  c #333637",
"y  c #293135",
"u  c #480B00",
"i  c #5B0502",
"p  c #5C0B0A",
"a  c #571201",
"s  c #6E0000",
"d  c #690C00",
"f  c #750400",
"g  c #661C05",
"h  c #791400",
"j  c #422A1B",
"k  c #4B2915",
"l  c #552C11",
"z  c #753518",
"x  c #6D2A0E",
"c  c #5E3A23",
"v  c #4B3631",
"b  c #693A22",
"n  c #6B302C",
"m  c #76421D",
"M  c #51402E",
"N  c #66422B",
"B  c #704B33",
"V  c #000A45",
"C  c #001957",
"Z  c #10304E",
"A  c #00274D",
"S  c #282A5E",
"D  c #001C64",
"F  c #003976",
"G  c #2F3171",
"H  c #303174",
"J  c #4A3759",
"K  c #6A2A47",
"L  c #4C3F66",
"P  c #314651",
"I  c #004573",
"U  c #3A566D",
"Y  c #4C4B4B",
"T  c #42464D",
"R  c #545454",
"E  c gray36",
"W  c #4E5351",
"Q  c #745F4C",
"!  c #664E4C",
"~  c #7A6154",
"^  c #4B4A63",
"/  c #5A6565",
"(  c #4E6B73",
")  c #656565",
"_  c gray42",
"`  c #727272",
"'  c #6A6E6F",
"]  c #850300",
"[  c #890D03",
"{  c #831A01",
"}  c #951400",
"|  c #9B1C05",
" . c #940E00",
".. c #AB1B01",
"X. c #A31607",
"o. c #B41C00",
"O. c #8C2909",
"+. c #9B2904",
"@. c #A82700",
"#. c #BE2300",
"$. c #B4310A",
"%. c #861338",
"&. c #853E2A",
"*. c #8A2E26",
"=. c #CA0E07",
"-. c #C32400",
";. c #C92800",
":. c #D42900",
">. c #DC3401",
",. c #D93804",
"<. c #EA3500",
"1. c #E63901",
"2. c #FD3C00",
"3. c #F03500",
"4. c #F52200",
"5. c #D43D37",
"6. c #9D4F30",
"7. c #995837",
"8. c #8A5434",
"9. c #BF4121",
"0. c #A75737",
"q. c #846437",
"w. c #AD613F",
"e. c #ED4000",
"r. c #FE4401",
"t. c #FF4C03",
"y. c #FF4E0A",
"u. c #F9460E",
"i. c #FF5403",
"p. c #FF5A00",
"a. c #FF540D",
"s. c #FF5C0C",
"d. c #FF4D15",
"f. c #FF5511",
"g. c #FF5C13",
"h. c #FC571A",
"j. c #FF6201",
"k. c #FF650A",
"l. c #FF6116",
"z. c #FF6B1A",
"x. c #FF6718",
"c. c #FF7619",
"v. c #CD473C",
"b. c #C95438",
"n. c #DF5039",
"m. c #FF5728",
"M. c #E54428",
"N. c #D86C3C",
"B. c #B1214A",
"V. c #D12949",
"C. c #8C5F45",
"Z. c #A2594C",
"A. c #B25753",
"S. c #92684B",
"D. c #AB6A43",
"F. c #AC785B",
"G. c #B67553",
"H. c #974969",
"J. c #956365",
"K. c #D6784C",
"L. c #CB744A",
"P. c #E06140",
"I. c #EB784C",
"U. c #C66A6B",
"Y. c #FF9B0E",
"T. c #BA8567",
"R. c #A78369",
"E. c #D2865C",
"W. c #EC8758",
"Q. c #E8915E",
"!. c #FF9C59",
"~. c #FB8F5F",
"^. c #CF936E",
"/. c #EB9A6A",
"(. c #F19B72",
"). c #FBA56A",
"_. c #EBA47B",
"`. c #FAA976",
"'. c #FFB075",
"]. c #001F97",
"[. c #032A8D",
"{. c #002A99",
"}. c #003993",
"|. c #313F8A",
" X c #0038A0",
".X c #124F90",
"XX c #3A488C",
"oX c #0059B6",
"OX c #004AB2",
"+X c #5A7986",
"@X c #4F7085",
"#X c #A42B96",
"$X c #5A8382",
"%X c #70868B",
"&X c #848484",
"*X c #8B8B8B",
"=X c #999999",
"-X c #A58383",
";X c #A99CA9",
":X c #BCA8AD",
">X c #E9AC85",
",X c #FEAD85",
"<X c #FFB889",
"1X c #FDBB92",
"2X c #E5AF92",
"3X c #DFC19A",
"4X c #FEC898",
"5X c #FFCCA4",
"6X c #FFDCA7",
"7X c #FFD3A8",
"8X c #FFDAAB",
"9X c #FFD5A7",
"0X c #EFCBBE",
"qX c #FFE3AA",
"wX c #FFE4B3",
"eX c #D3D6D6",
"rX c #F6CDC6",
"tX c #FAFDFE",
"yX c None",
/* pixels */
"yXyXyXyXyXyXyXyXyXyXyXyXyXyXyXyXyXyXyXyXyXyXyXyXyXyXyXyXyXyXyXyXyXyXyXyXyXyXyXyXyXyXyXyXyXyXyXyXyXyX",
"yXyXyXyXyXyXyXyXyXyXyXyXyXyXyXyXyXyXyXyXyXyXyXyXyXyXyXyXyXyXyXyXyXyXyXyXyXyXyXyXyXyXyXyXyXyXyXyXyXyX",
"yXyXyXyXyXyXyXyXyXyXyXyXyXyXyXyXyXyXyXyXyXyXyXyXyXyXyXyXyXyXyXyXyXyXyXyXyXyXyXyXyXyXyXyXyXyXyXyXyXyX",
"yXyXyXyXyXyXyXyXyXyXyXyXyXyXyXyXyXyXyXyXyXyXyXyXyXyXyXyXyXyXyXyXyXyXyXyXyXyXyXyXyXyXyXyXyXyXyXyXyXyX",
"yXyXyXyXyXyXyXyXyXyXyXyXyXyXyXyXyXyXyXyXyXyXyXyXyXyXyXyXyXyXyXyXyXyXyXyXyXyXyXyXyXyXyXyXyXyXyXyXyXyX",
"yXyXyXyXyXyXyXyXyXyXyXyXyXyXyXyXyXyXyXyXyXyXyXyXyXyXyXyXyXyXyXyXyXyXyXyXyXyXyXyXyXyXyXyXyXyXyXyXyXyX",
"yXyXyXyXyXyXyXyXyXv yXyXyXyXyXyXyXyXyXyXyXyXyXyXyXyXyXyXyXyXyXyXyXyXyXyXyXyXyXyXyXyXyXyXyXyXyXyXyXyX",
"yXyXyXyXyXyXyXyXyXy yXyXyXyX&X=X=X_ yXyXyXyXyXyXyXyXyXyXyXyXyXyXyXyXyXyXyXyXyXyXyXyXyXyXyXyXyXyXyXyX",
"yXyXyXyXyXyXyXyX)   yXyX&X)         q ` y yXyXyXyXyXyXyXyXyXyXyXyXyXyXyXyXyXyXyXyXyXyXyXyXyXyXyXyXyX",
"yXyXyXyXyX) yXyXw   yX=XO                 r ` Y yXyXyXyXyXyXyXyXyXyXyXyXyXyXyXyXyXyXyXyXyXyXyXyXyXyX",
"yXyXyXyX&Xw yX_     r q                         yXyXyXyXyXyXyXyXyXyXyXyXyXyXyXyXyXyXyXyXyXyXyXyXyXyX",
"yXyXyXyX&Xq yX=                       . yXyXyXyXyXyXyXyXyXyXyXyXyXyXyXyXyXyXyXyXyXyXyXyXyXyXyXyXyXyX",
"yXyXyXyX*X* yX                        yXyXyXyXyXyXyXyXyXyXyXyXyXyXyXyXyXyXyXyXyXyXyXyXyXyXyXyXyXyXyX",
"yXyXyXyX_ = )                             yXyXyXyXyXyXyXyXyXyXyXyXyXyXyXyXyXyXyXyXyXyXyXyXyXyXyXyXyX",
"yXyXyXyXyXR                                 yXyXyXyXyXyXyXyXyXyXyXyXyXyXyXyXyXyXyXyXyXyXyXyXyXyXyXyX",
"yXyXyXyXyXyX                                  yXyXyXyX=   yXyXyXyXyXyXyXyXyXyXyXyXyXyXyXyXyXyXyXyXyX",
"yXyXyXyXyXyXyX.                               yXyX      yXyXyXyXyXyXyXyXyXyXyXyXyXyXyXyXyXyXyXyXyXyX",
"yXyXyXyXyXyXyX*                                     O yXyXyXyXyXyXyXyXyXyXyXyXyXyXyXyXyXyXyXyXyXyXyX",
"yXyXyXyXyXyXE         2 l <     @ 5                 yXyXyX. yXyXyXyXyXyXyXyXyXyXyXyXyXyXyXyXyXyXyXyX",
"yXyXyXyXyXyXW       > /.4X(.b   k '.1                       yXyXyXyXyXyXyXyXyXyXyXyXyXyXyXyXyXyXyXyX",
"yXyXyXyXyXyXR       D.qX5X8X4XX   S.W.@   c 2         yXyXyXyXyXyXyXyXyXyXyXyXyXyXyXyXyXyXyXyXyXyXyX",
"yXyXyXyXyXyXyXO     . _.7X8XQ =X_ z ).b   ~.c         O X yXyXyXyXyXyXyXyXyXyXyXyXyXyXyXyXyXyXyXyXyX",
"yXyXyXyXyXyXyXyXyX=   T.wXN 7 tXrXb.).w.0.'.j               yXyXyXyXyXyXyXyXyXyXyXyXyXyXyXyXyXyXyXyX",
"yXyXyXyXyXyXyXyXyXyX  T.wXe T tX0XI.Q.L.I.8.      D U >X_.m     yXyXyXyXyXyXyXyXyXyXyXyXyXyXyXyXyXyX",
"yXyXyXyXyXyXyXyXyXyX7 g 1X4X1X5X5X<XW.K.x   d r.^ 6 ; 2 b /.2X`.k yXyXyXyXyXyXyXyXyXyXyXyXyXyXyXyXyX",
"yXyXyXyXyXyXyXyXyXyXyX- F.8X5X4X4X1XW.L.L.@X*.i.> + E.K.&.+ Z ;XwXj yXyXyXyXyXyXyXyXyXyXyXyXyXyXyXyX",
"yXyXyXyXyXyXyXyXyXyXyXyXq F.8X8X8X>X6.K.!.+Xb.i.: ^.<X/.wX4Xx C :Xk yXyXyXyXyXyXyXyXyXyXyXyXyXyXyXyX",
"yXyXyXyXyXyXyXyXyXyXyXyXyXq F.^.R.b z !.Q..Xv.i.2 3X0.8.>X6X8.6 9 yXyXyXyXyXyXyXyXyXyXyXyXyXyXyXyXyX",
"yXyXyXyXyXyXyXyXyXyXyXyXyXyX.   : v R.Z.+X{.v.j.O.Q     # L.~ X yXyXyXyXyXyXyXyXyXyXyXyXyXyXyXyXyXyX",
"yXyXyXyXyXyXyXyXyXyXyXyXyXyXyX> k.,..XoX{.}.n.r.t.[ 0       o yXyXyXyXyXyXyXyXyXyXyXyXyXyXyXyXyXyXyX",
"yXyXyXyXyXyXyXyXyXyXyXyXyXyX7 9 +.j.,.n S oXP.4.-.U.OXi h $.@.h .       O yXyXyXyXyXyXyXyXyXyXyXyXyX",
"yXyXyXyXyXyXyXyXyXyXyXyXyXyXX [.8 | r.2.h.A.t.Z.H  Xv.r.:.t.x.s.1.h < < p O.- yXyXyXyXyXyXyXyXyXyXyX",
"yXyXyXyXyXyXyXyXyXyXyXyXyXyX  [.[.8 @ | i.p.A.OXK M.s.f.r.t.f.f.g.a.u.-...X.+.t yXyXyXyXyXyXyXyXyXyX",
"yXyXyXyXyXyXyXyXyXyXyXyXyXyX. 6 |.G.7.b   P U.$.-.3.a.f.h.f.f.f.f.f.g.i.t.d.s.@.    R yXyXyXyXyXyXyX",
"yXyXyXyXyXyXyXyXyXyX3     . .   4 I.`.v i m.h.<.#.-.;.>.f.y.y.g.f.f.f.f.a.i.m..X7.L.A   Y yXyXyXyXyX",
"yXyXyXyXyXyXyXyXyXo C.8X5 G.<X6 XX).8., t.g.a.f.<.@.i   X < | :.y.y.a.>.;.<.m.V.V.c.G.XX7 / yXyXyXyX",
"yXyXyXyXyXyXyXyXyXo 7.<X`._.G.[.S D.O.r.g.f.f.l.u..   yXyXyXyXX < ] | } } o.9.I F q.1.=.J o =XyXyXyX",
"yXyXyXyXyXyXyXyXyXy S.'.,X1   V 3   { x.f.g.i.,..   ; l $ yXyXyX3 o % % X X   . .   % & O = eXyXyXyX",
"yXyXyXyXyXyXyXyXyXyXP x I.# * R %X: t.h.g.d.{ @ a V |.L.L $ ( yXyXyXyXyXyXyXyXyXyXyXyXyXyXyXyXyXyXyX",
"yXyXyXyXyXyXyXyXyXyXR B m v yXyXyXu x.y.t.X.X ..s.H.].A.Y.#X%.f J.yXyXyXyXyXyXyXyXyXyXyXyXyXyXyXyXyX",
"yXyXyXyXyXyXyXyXyXyXyX/ % yXyXyXyXu z.<. .} ..#.i.k.B.d g s s ] @ r yXyXyXyXyXyXyXyXyXyXyXyXyXyXyXyX",
"yXyXyXyXyXyXyXyXyXyXyXyXyXyXyXyXyX< i.g.r.t.>...a.2.a P ^ ( $X$X' yXyXyXyXyXyXyXyXyXyXyXyXyXyXyXyXyX",
"yXyXyXyXyXyXyXyXyXyXyXyXyXyXyXyXyX! . $.z.l.a.i.<.: ( yXyXyXyXyXyXyXyXyXyXyXyXyXyXyXyXyXyXyXyXyXyXyX",
"yXyXyXyXyXyXyXyXyXyXyXyXyXyXyXyXyXyXW v : : < < + ' yXyXyXyXyXyXyXyXyXyXyXyXyXyXyXyXyXyXyXyXyXyXyXyX",
"yXyXyXyXyXyXyXyXyXyXyXyXyXyXyXyXyXyXyXyXyXyXyXyXyXyXyXyXyXyXyXyXyXyXyXyXyXyXyXyXyXyXyXyXyXyXyXyXyXyX",
"yXyXyXyXyXyXyXyXyXyXyXyXyXyXyXyXyXyXyXyXyXyXyXyXyXyXyXyXyXyXyXyXyXyXyXyXyXyXyXyXyXyXyXyXyXyXyXyXyXyX",
"yXyXyXyXyXyXyXyXyXyXyXyXyXyXyXyXyXyXyXyXyXyXyXyXyXyXyXyXyXyXyXyXyXyXyXyXyXyXyXyXyXyXyXyXyXyXyXyXyXyX",
"yXyXyXyXyXyXyXyXyXyXyXyXyXyXyXyXyXyXyXyXyXyXyXyXyXyXyXyXyXyXyXyXyXyXyXyXyXyXyXyXyXyXyXyXyXyXyXyXyXyX",
"yXyXyXyXyXyXyXyXyXyXyXyXyXyXyXyXyXyXyXyXyXyXyXyXyXyXyXyXyXyXyXyXyXyXyXyXyXyXyXyXyXyXyXyXyXyXyXyXyXyX",
"yXyXyXyXyXyXyXyXyXyXyXyXyXyXyXyXyXyXyXyXyXyXyXyXyXyXyXyXyXyXyXyXyXyXyXyXyXyXyXyXyXyXyXyXyXyXyXyXyXyX"
};
