/* XPM */
static char *result[] = {
/* columns rows colors chars-per-pixel */
"50 50 204 2 ",
"   c #000000",
".  c #0D0402",
"X  c #00020B",
"o  c #0B0C0C",
"O  c #040D07",
"+  c #140503",
"@  c #1D0301",
"#  c #180D09",
"$  c #1E120D",
"%  c #030815",
"&  c #0F1113",
"*  c #1B1B1B",
"=  c #181716",
"-  c #290802",
";  c #3F0303",
":  c #2A1409",
">  c #391707",
",  c #2B1D13",
"<  c #3B1A13",
"1  c #2D211B",
"2  c #3D2315",
"3  c #000024",
"4  c #050A2E",
"5  c #01193B",
"6  c #0D1E25",
"7  c #0B2529",
"8  c #172E34",
"9  c #033039",
"0  c #262524",
"q  c #2B2B2B",
"w  c #2F2721",
"e  c #392B29",
"r  c #3F342C",
"t  c #3A3939",
"y  c #490103",
"u  c #530301",
"i  c #491F1A",
"p  c #6F0401",
"a  c #600C00",
"s  c #770A00",
"d  c #760C16",
"f  c #41240E",
"g  c #47291B",
"h  c #4F301D",
"j  c #53321D",
"k  c #5C320F",
"l  c #7F2204",
"z  c #75391D",
"x  c #473528",
"c  c #54302C",
"v  c #6D5701",
"b  c #445A29",
"n  c #7A4428",
"m  c #001A42",
"M  c #002759",
"N  c #262659",
"B  c #002B7B",
"V  c #00397B",
"C  c #003569",
"Z  c #223968",
"A  c #571277",
"S  c #3C4241",
"D  c #3E415C",
"F  c #2E464D",
"G  c #184B78",
"H  c #395767",
"J  c #3F4D73",
"K  c #294574",
"L  c #444444",
"P  c #494748",
"I  c #555555",
"U  c #66604C",
"Y  c #4F5D60",
"T  c #555364",
"R  c #4D6A70",
"E  c #6C6C6C",
"W  c #676A76",
"Q  c #757677",
"!  c #850802",
"~  c #841E00",
"^  c #9E1C00",
"/  c #931707",
"(  c #AD1D01",
")  c #A81400",
"_  c #B91A00",
"`  c #8F2200",
"'  c #972108",
"]  c #832E1F",
"[  c #A42901",
"{  c #B22300",
"}  c #BC2100",
"|  c #B42900",
" . c #A1310E",
".. c #951C34",
"X. c #B90B3D",
"o. c #873826",
"O. c #8A302B",
"+. c #AF3C3C",
"@. c #A03C27",
"#. c #D71F00",
"$. c #C32600",
"%. c #CD2700",
"&. c #CB2B00",
"*. c #DB3100",
"=. c #D63703",
"-. c #C53802",
";. c #F02C00",
":. c #E63600",
">. c #FA3E00",
",. c #804A2F",
"<. c #92462D",
"1. c #8F5030",
"2. c #904838",
"3. c #A44628",
"4. c #97633E",
"5. c #D8461B",
"6. c #FF4401",
"7. c #FF4C01",
"8. c #FF4D0A",
"9. c #FF5601",
"0. c #FF5C00",
"q. c #FF530C",
"w. c #FF590D",
"e. c #FF4F11",
"r. c #FF5611",
"t. c #FF5B12",
"y. c #FF541A",
"u. c #FF5D1B",
"i. c #EE4711",
"p. c #FF6302",
"a. c #FF6214",
"s. c #D04F32",
"d. c #F1502A",
"f. c #EE5932",
"g. c #C2613D",
"h. c #D1603F",
"j. c #FF6625",
"k. c #B2234E",
"l. c #AD3353",
"z. c #A54E4F",
"x. c #976D56",
"c. c #896E52",
"v. c #B9744A",
"b. c #A4795A",
"n. c #A46A50",
"m. c #9F5B66",
"M. c #967573",
"N. c #AC7D62",
"B. c #AA777D",
"V. c #CE5A49",
"C. c #DA5840",
"Z. c #C96644",
"A. c #C76643",
"S. c #DC6743",
"D. c #D7784A",
"F. c #C57B57",
"G. c #D67C53",
"H. c #C2774D",
"J. c #EA7A51",
"K. c #FF9B00",
"L. c #FFA11B",
"P. c #BF8C70",
"I. c #B7896F",
"U. c #C7815B",
"Y. c #EA8759",
"T. c #FD8D5E",
"R. c #C98B67",
"E. c #CA9579",
"W. c #DB986B",
"Q. c #EA9663",
"!. c #F49764",
"~. c #FFAE74",
"^. c #F1A573",
"/. c #FFB17A",
"(. c #E5A37D",
"). c #00398E",
"_. c #002B85",
"`. c #003BA1",
"'. c #004D8A",
"]. c #004581",
"[. c #00538C",
"{. c #21658A",
"}. c #005DA5",
"|. c #0047A4",
" X c #584682",
".X c #C97E92",
"XX c #908D8F",
"oX c #8F919A",
"OX c #E18A91",
"+X c #E3AF8F",
"@X c #FFB587",
"#X c #FCB68A",
"$X c #EFB298",
"%X c #FFCB9E",
"&X c #FFC49B",
"*X c #FFD599",
"=X c #FFD5A5",
"-X c #FFDBA8",
";X c #FFE8AD",
":X c #FFE8B3",
">X c #CDCDCD",
",X c #FFFFCA",
"<X c white",
"1X c None",
/* pixels */
"1X1X1X1X1X1X1X1X1X1X1X1X1X1X1X1X1X1X1X1X1X1X1X1X1X1X1X1X1X1X1X1X1X1X1X1X1X1X1X1X1X1X1X1X1X1X1X1X1X1X",
"1X1X1X1X1X1X1X1X1X1X1X1X1X1X1X1X1X1X1X1X1X1X1X1X1X1X1X1X1X1X1X1X1X1X1X1X1X1X1X1X1X1X1X1X1X1X1X1X1X1X",
"1X1X1X1X1X1X1X1X1X1X1X1X1X1X1X1X1X1X1X1X1X1X1X1X1X1X1X1X1X1X1X1X1X1X1X1X1X1X1X1X1X1X1X1X1X1X1X1X1X1X",
"1X1X1X1X1X1X1X1X1X1X1X1X1X1X1X1X1X1X1X1X>X>X1X1X1X1X1X1X1X1X1X1X1X1X1X1X1X1X1X1X1X1X1X1X1X1X1X1X1X1X",
"1X1X1X1X1X1X1X1X1X1X1X1X1X1X1X1X1X1X1X1X    t oX1X1X1X1X1X1X1X1X1X1X1X1X1X1X1X1X1X1X1X1X1X1X1X1X1X1X",
"1X1X1X1X1X1X1X1X1X1X1X1X1X1X1X1X1X1X1X1X1X      q 1X1X1X1X1X1X1X1X1X1X1X1X1X1X1X1X1X1X1X1X1X1X1X1X1X",
"1X1X1X1X1X1X1X1X1X1X1X1X1X1X1X1X1X1X1X1X1X        1X1X1X1X1X1X1X1X1X1X1X1X1X1X1X1X1X1X1X1X1X1X1X1X1X",
"1X1X1X1X1X1X1X1X1X1X1X1X1X1X1XQ Q E L 1X1X1X      * 1X1X1X1X1X1X1X1X1X1X1X1X1X1X1X1X1X1X1X1X1X1X1X1X",
"1X1X1X1X1X1X1X1X1X1X1X1X1XE *         L P 1X        1X1X1X1X1X1X1X1X1X1X1X1X1X1X1X1X1X1X1X1X1X1X1X1X",
"1X1X1X1X1X1X1X1X1X1X1X1Xq                 q         1X1X1X1X1X1X1X1X1X1X1X1X1X1X1X1X1X1X1X1X1X1X1X1X",
"1X1X1X1X1X1X1X1X1X1X1X1X1XO                         1X1X1X1X1X1X1X1X1X1X1X1X1X1X1X1X1X1X1X1X1X1X1X1X",
"1X1X1X1X1X1X1X1X1X1X1X1X1X1X1X                      O . 1X1X1X1X1X1X1X1X1X1X1X1X1X1X1X1X1X1X1X1X1X1X",
"1X1X1X1X1X1X1X1X1X1X1X1X1X1X1X1X                        o 1X1X1X1X1X1X1X1X1X1X1X1X1X1X1X1X1X1X1X1X1X",
"1X1X1X1X1X1X1X1X1X1X1X1X1XP . O                           O 1X1X1X1Xo t 1X1X1X1X1X1X1X1X1X1X1X1X1X1X",
"1X1X1X1X1X1X1X1X1X1X1X1XI                                 O 1X1X    P 1X1X1X1X1X1X1X1X1X1X1X1X1X1X1X",
"1X1X1X1X1X1X1X1X1X1X1X1X                                        o 1X1X1X1X1X1X1X1X1X1X1X1X1X1X1X1X1X",
"1X1X1X1X1X1X1X1X1X1X1X1X1X1X1X              :     $ #           q 1X1X0 1X1X1X1X1X1X1X1X1X1X1X1X1X1X",
"1X1X1X1X1X1X1X1X1X1X1X1X1X1X1X      g     b.U.  2 ~.j                 . 1X1X1X1X1X1X1X1X1X1X1X1X1X1X",
"1X1X1X1X1X1X1X1X1X1X1X1X1X1Xt       Q.  x.,XP.  g 4..   j       o 1X1X1X1X1X1X1X1X1X1X1X1X1X1X1X1X1X",
"1X1X1X1X1X1X1X1X1X1X1X1X1X1X& 1X    j N.-X=Xn.. XXe   > Y.      o 1X7   1X1X1X1X1X1X1X1X1X1X1X1X1X1X",
"1X1X1X1X1X1X1X1X1X1X1X1X1X1X1X1X1X1X  @X=X(.% 1X<X$X<.J.!.    1X  @ o.4.x 1X1X1X1X1X1X1X1X1X1X1X1X1X",
"1X1X1X1X1X1X1X1X1X1X1X1X1X1X1X1X1X1X  A.%X#XP.+X$X^.S.h g 1X1X1X1X,.T.J.  1X1X1X1X1X1X1X1X1X1X1X1X1X",
"1X1X1X1X1X1X1X1X1X1X1X1X1X1X1X1X1X1X1X< %X%X=X-X@Xg.G.~   o 1X1X  k Y.U.v.e 1X1X1X1X1X1X1X1X1X1X1X1X",
"1X1X1X1X1X1X1X1X1X1X1X1X1X1X1X1X1X  .   x %X&X#XA.A.Q.u.[ m O 1Xj h.D.D.V.. 1X1X1X1X1X1X1X1X1X1X1X1X",
"1X1X1X1X1X1X1X1X1X1X1X1X1X1X1X1X# m ].5.+ : , z s.D.W.u.=.M : 1X: 4 M.Z.3.# 1X1X1X1X1X1X1X1X1X1X1X1X",
"1X1X1X1X1X1X1X1X1X1X1X1X1X1X1X1X  J ].J 7.y.R.x.<.G.{.d.e.Z H..   5 V M o 1X1X1X1X1X1X1X1X1X1X1X1X1X",
"1X1X1X1X1X1X1X1X1X1X1X1X1X1X1X1X  U.oXZ r.9.f.[.'.'.Z y.6.: ~.1.o.E.M X 1X1X1X1X1X1X1X1X1X1X1X1X1X1X",
"1X1X1X1X1X1X1X1X1X1X1X1X1X1X1X1Xr 3.%XT 6.8.0.5.V C y.7.} . v.T.h.D.f 1X1X1X1X1X1X1X1X1X1X1X1X1X1X1X",
"1X1X1X1X1X1X1X1X1X1X1X1Xr U E $ R.=Xb.  p 6.7.0.V.f.8.%.s   1 1.o.g 1X1X1X1X1X1X1X1X1X1X1X1X1X1X1X1X",
"1X1X1X1X1X1X1X1X1X1X1X1Xg *XW.  I.:X  * c ' / 9.0.9.;.O.X 1X1X  1X1X1X1X1X1X1X1X1X1X1X1X1X1X1X1X1X1X",
"1X1X1X1X1X1X1X1X1X1X1X6 > ~.1.x.x.n w 1X1X3 ).d z.B.O.B ] S 1X1X1X1X1X1X1X1X1X1X1X1X1X1X1X1X1X1X1X1X",
"1X1X1X1X1X1X1X1X1X1X1X1X1 b.;X*X2   1X1X   .C.N `._.|.+.9.u * 1X1X1X1X1X1X1X1X1X1X1X1X1X1X1X1X1X1X1X",
"1X1X1X1X1X1X1X1X1X1X1X1X1XP x f , 1X1X- =.7.#.5.h.( O.r.w.6.u : 1X1X1X1X1X1X1X1X1X1X1X1X1X1X1X1X1X1X",
"1X1X1X1X1X1X1X1X1X1X1X1X1X1X1X1X1X1X1X+ q.:.8.7.0.>._ 7.r.t.=.  1X1X1X1X1X1X1X1X1X1X1X1X1X1X1X1X1X1X",
"1X1X1X1X1X1X1X1X1X1X1X1X1X1X1X1X1X1X+ i.q.8.t.t.r.*.( %.q.r.u.[ $ 1X1X1X1X1X1X1X1X1X1X1X1X1X1X1X1X1X",
"1X1X1X1X1X1X1X1X1X1X1X1X1X1X1X1X1X. ^ w.r.r.q.q.l #   ) *.8.r.a.~ # 1X1X1X1X1X1X1X1X1X1X1X1X1X1X1X1X",
"1X1X1X1X1X1X1X1X1X1X1X1X1X1X1X1X  u %.8.r.a.7.y F 1Xo y } { *.t.| * 1X1X1X1X1X1X1X1X1X1X1X1X1X1X1X1X",
"1X1X1X1X1X1X1X1X1X1X1X1X1X1X1X1X- { $.&.r.a.s 9 1X1X1X$ y ! { ( 6.` & 1X1X1X1X1X1X1X1X1X1X1X1X1X1X1X",
"1X1X1X1X1X1X1X1X1X1X1X1X1X1X1X  =.7.( $.t.$.  1X1X1X1X1X  :.! %.0./ 7 1X1X1X1X1X1X1X1X1X1X1X1X1X1X1X",
"1X1X1X1X1X1X1X1X1X1X1X1X1X1X1X  -.p.>.7.6.- Y 1X1X1X1X1Xg | 7.i.s.s 8 1X1X1X1X1X1X1X1X1X1X1X1X1X1X1X",
"1X1X1X1X1X1X1X1X1X1X1X1X1X1X1X  _ V.j.) u R 1X1X1X1X1X1X1Xw ' x A ! 1X1X1X1X1X1X1X1X1X1X1X1X1X1X1X1X",
"1X1X1X1X1X1X1X1X1X1X1X1X1X1X1X5 X. Xc 8 H 1X1X1X1X1X1X1X1X1XX O L.n 4 1X1X1X1X1X1X1X1X1X1X1X1X1X1X1X",
"1X1X1X1X1X1X1X1X1X1X1X1X1X1X  b K.W X 1X1X1X1X1X1X1X1X1X1X1X1Xk v m.; 1X1X1X1X1X1X1X1X1X1X1X1X1X1X1X",
"1X1X1X1X1X1X1X1X1X1X1X1X1X1XX ) F.9 P 1X1X1X1X1X1X1X1X1X1X1X1X1X3 k...% 1X1X1X1X1X1X1X1X1X1X1X1X1X1X",
"1X1X1X1X1X1X1X1X1X1X1X1X1X1Xp l.}.X 1X1X1X1X1X1X1X1X1X1X1X1X1X1X1X.X1XW 1X1X1X1X1X1X1X1X1X1X1X1X1X1X",
"1X1X1X1X1X1X1X1X1X1X1X1X1X1XOX1X1XQ 1X1X1X1X1X1X1X1X1X1X1X1X1X1X1X1X1X1X1X1X1X1X1X1X1X1X1X1X1X1X1X1X",
"1X1X1X1X1X1X1X1X1X1X1X1X1X1X1X1X1X1X1X1X1X1X1X1X1X1X1X1X1X1X1X1X1X1X1X1X1X1X1X1X1X1X1X1X1X1X1X1X1X1X",
"1X1X1X1X1X1X1X1X1X1X1X1X1X1X1X1X1X1X1X1X1X1X1X1X1X1X1X1X1X1X1X1X1X1X1X1X1X1X1X1X1X1X1X1X1X1X1X1X1X1X",
"1X1X1X1X1X1X1X1X1X1X1X1X1X1X1X1X1X1X1X1X1X1X1X1X1X1X1X1X1X1X1X1X1X1X1X1X1X1X1X1X1X1X1X1X1X1X1X1X1X1X",
"1X1X1X1X1X1X1X1X1X1X1X1X1X1X1X1X1X1X1X1X1X1X1X1X1X1X1X1X1X1X1X1X1X1X1X1X1X1X1X1X1X1X1X1X1X1X1X1X1X1X"
};
