/* XPM */
static char *result[] = {
/* columns rows colors chars-per-pixel */
"50 50 194 2 ",
"   c #000000",
".  c #00040C",
"X  c #04090C",
"o  c #080807",
"O  c #140201",
"+  c #1D0100",
"@  c #160D0A",
"#  c #1E120C",
"$  c #00021D",
"%  c #09151B",
"&  c #1C1C1C",
"*  c #151415",
"=  c #180717",
"-  c #230200",
";  c #280307",
":  c #310200",
">  c #3B0400",
",  c #330B02",
"<  c #28150A",
"1  c #200016",
"2  c #211C1A",
"3  c #3C2313",
"4  c #3D2A1D",
"5  c #34231A",
"6  c #312805",
"7  c #000C2C",
"8  c #001A24",
"9  c #001C34",
"0  c #2A0D20",
"q  c #271726",
"w  c #0C222B",
"e  c #1B2224",
"r  c #1B272C",
"t  c #00213B",
"y  c #0D3B35",
"u  c #202020",
"i  c #2B2A2A",
"p  c #282928",
"a  c #3A2B27",
"s  c #2E332F",
"d  c #293436",
"f  c #363334",
"g  c #3B2934",
"h  c #4A0100",
"j  c #460600",
"k  c #530300",
"l  c #5D0200",
"z  c #491502",
"x  c #531101",
"c  c #4E1B16",
"v  c #650700",
"b  c #7E0501",
"n  c #631200",
"m  c #6B1702",
"M  c #771600",
"N  c #592816",
"B  c #502E1A",
"V  c #7B3900",
"C  c #693304",
"Z  c #583524",
"A  c #45342A",
"S  c #722D23",
"D  c #633725",
"F  c #7C3E23",
"G  c #632634",
"H  c #5C4737",
"J  c #674534",
"K  c #734D34",
"L  c #000B4E",
"P  c #001B4B",
"I  c #1F384C",
"U  c #00286A",
"Y  c #00227F",
"T  c #00367B",
"R  c #38396F",
"E  c #71285E",
"W  c #653546",
"Q  c #044357",
"!  c #2E4342",
"~  c #36464F",
"^  c #004B7B",
"/  c #4A4C4C",
"(  c #454444",
")  c #58585B",
"_  c #5A4C4C",
"`  c #704D40",
"'  c #745240",
"]  c #735E58",
"[  c #695C57",
"{  c #72655F",
"}  c #566B72",
"|  c #8C0C00",
" . c #960700",
".. c #891700",
"X. c #9A1800",
"o. c #9D0E16",
"O. c #A61903",
"+. c #9B2503",
"@. c #812811",
"#. c #982E15",
"$. c #BB2900",
"%. c #A9310A",
"&. c #B21B34",
"*. c #952235",
"=. c #A83E22",
"-. c #B12A3B",
";. c #C01F00",
":. c #C42700",
">. c #DB2600",
",. c #CD3302",
"<. c #D73102",
"1. c #D13D0A",
"2. c #DB3404",
"3. c #EE3900",
"4. c #EB3200",
"5. c #F43C00",
"6. c #FC3500",
"7. c #8A432B",
"8. c #8F592E",
"9. c #8E553A",
"0. c #A95538",
"q. c #8B623F",
"w. c #AB6239",
"e. c #A1603D",
"r. c #B0633D",
"t. c #D54303",
"y. c #EC430A",
"u. c #FF4402",
"i. c #FF4C01",
"p. c #FF5502",
"a. c #FF560E",
"s. c #FF5A0D",
"d. c #FF5F05",
"f. c #E8511D",
"g. c #FF5C14",
"h. c #FF5610",
"j. c #FF6314",
"k. c #FF7018",
"l. c #C55936",
"z. c #EB6026",
"x. c #FF6327",
"c. c #E6763F",
"v. c #8A3E57",
"b. c #88604B",
"n. c #8A6C51",
"m. c #986C53",
"M. c #AC684B",
"N. c #BF744C",
"B. c #A5785A",
"V. c #845665",
"C. c #A64167",
"Z. c #8C7D65",
"A. c #AC7D60",
"S. c #DA7446",
"D. c #C17A50",
"F. c #EC7F50",
"G. c #D54768",
"H. c #BE815F",
"J. c #B5866B",
"K. c #B9A27D",
"L. c #E48053",
"P. c #F68456",
"I. c #C99170",
"U. c #DD936A",
"Y. c #E98F63",
"T. c #FC9263",
"R. c #E79666",
"E. c #FFA36D",
"W. c #FDAA77",
"Q. c #FDA17A",
"!. c #EBA37A",
"~. c #FFC27B",
"^. c #003E84",
"/. c #00478D",
"(. c #455A86",
"). c #C65A81",
"_. c #6E848D",
"`. c #9F8380",
"'. c #8E9292",
"]. c #B08383",
"[. c #B19D8E",
"{. c #B2B7A8",
"}. c #D9A886",
"|. c #FFB082",
" X c #C2AEB0",
".X c #EBBBB1",
"XX c #EDC19A",
"oX c #FFD19A",
"OX c #FFE09E",
"+X c #D8C6AF",
"@X c #FFE4B7",
"#X c #FFF1BA",
"$X c #FFFFFC",
"%X c None",
/* pixels */
"%X%X%X%X%X%X%X%X%X%X%X%X%X%X%X%X%X%X%X%X%X%X%X%X%X%X%X%X%X%X%X%X%X%X%X%X%X%X%X%X%X%X%X%X%X%X%X%X%X%X",
"%X%X%X%X%X%X%X%X%X%X%X%X%X%X%X%X%X%X%X%X%X%X%X%X%X%X%X%X%X%X%X%X%X%X%X%X%X%X%X%X%X%X%X%X%X%X%X%X%X%X",
"%X%X%X%X%X%X%X%X%X%X%X%X%X%X%X%X%X%X%X%X%X%X%X%X%X%X%X%X%X%X%X%X%X%X%X%X%X%X%X%X%X%X%X%X%X%X%X%X%X%X",
"%X%X%X%X%X%X%X%X%X%X%X%X%X%X%X%X%X%X%X%X%X%X%X%X%X%X%X%X%X%X%X%X%X%X%X%X%X%X%X%X%X%X%X%X%X%X%X%X%X%X",
"%X%X%X%X%X%X%X%X%X%X%X%X%X%X%X%X%X%X%X%X%X%X%X%X%X%X%X%X%X%X%X%X%X%X%X%X%X%X%X%X%X%X%X%X%X%X%X%X%X%X",
"%X%X%X%X%X%X%X%X%X%X%X%X%X%X%X%X%X%X%X%X%X%X%X%X%X%X%X%X%X%X%X%X%X%X%X%X%X%X%X%X%X%X%X%X%X%X%X%X%X%X",
"%X%X%X%X%X%X%X%X%X%X%X%X%X%X%X%X%X%X%X%X%X%X%X%X%X%X%X%X%X%X%X%X%X%X%X%X%X%X%X%X%X%X%X%X%X%X%X%X%X%X",
"%X%X%X%X%X%X%X%X%X%X%X%X%X%X%X%X%X%X%X%X%X%X%X%X%X%X%X%X%X%X%X%X%X%X%X%X%X%X%X%X%X%X%X%X%X%X%X%X%X%X",
"%X%X%X%X%X%X%X%X%X%X%X%X%X%X%X%X%X%X%X%X%X%X%X%X%X%X%X%X%X%X%X%X%X%X%X%X%X%X%X%X%X%X%X%X%X%X%X%X%X%X",
"%X%X%X%X%X%X%X%X%X%X%X%X%X%X%X%X%X%X%X%X%X%X%X%X%X%X%X%X%X%X%X%X%X%X%X%X%X%X%X%X%X%X%X%X%X%X%X%X%X%X",
"%X%X%X%X%X%X%X%X%X%X%X%X%X%X%X%X%X%X%X%X%X%X%X%X%X%X%X%X%X%X%X%X%X%X%X%X%X%X%X%X%X%X%X%X%X%X%X%X%X%X",
"%X%X%X%X%X%X%X%X%X%X%X%X%X%X%X%X%X%X%X%X%X%X%X%X%X%X%X%X%X%X%X%X%X%X%X%X%X%X%X%X%X%X%X%X%X%X%X%X%X%X",
"%X%X%X%X%X%X%X%X%X%X%X%X%X%X%X%X%X%X%X%X%X%X%X%X%X%X%X%X%X%X%X%X%X%X%X%X%X%X%X%X%X%X%X%X%X%X%X%X%X%X",
"%X%X%X%X%X%X%X%X%X%X%X%X%X%X%X%X%X%X%X%X%X%X%X%X%X%X%X%X%X%X%X%X%X%X%X%X%X%X%X%X%X%X%X%X%X%X%X%X%X%X",
"%X%X%X%X%X%X%X%X%X%X%X%X%X%X%X%X%X%X%X%X%X%X%X%X%X%X%X%X%X%X%X    u %X%X%X%X%X%X%X%X%X%X%X%X%X%X%X%X",
"%X%X%X%X%X%X%X%X%X%X%X%X%X%X%X%X%X%X%X%X%X%X%X%X%X%X%X%X%X        %X%X%X%X%X%X%X%X%X%X%X%X%X%X%X%X%X",
"%X%X%X%X%X%X%X%X%X%X%X%X%X%X%X%X%X%X%X%X%X%X%X%X%X%X%X%X%X      %X%X%X%X%X%X%X%X%X%X%X%X%X%X%X%X%X%X",
"%X%X%X%X%X%X%X%X%X%X%X%X%X%X%X%X%X%X%X%X%X%X%X%X%X%X%X%X        %X%Xu o o o i %X%X%X%X%X%X%X%X%X%X%X",
"%X%X%X%X%X%X%X%X%X%X%X%X%X%X%X%X%X%X%X%X%X%X%X%X%X%X%X%X        /             o ) %X%X%X%X%X%X%X%X%X",
"%X%X%X%X%X%X%X%X%X%X%X%X%X%X%X%X%X%X%X%X%X%X%X%X%X%X%X%X                        o %X%X%X%X%X%X%X%X%X",
"%X%X%X%X%X%X%X%X%X%X%X%X%X%X%X%X%X%X%X%X%X%X%X%X%X%X@                       u %X%X%X%X%X%X%X%X%X%X%X",
"%X%X%X%X%X%X%X%X%X%X%X%X%X%X%X%X%X%X%X%X%X%X%XX x :                       i %X%X%X%X%X%X%X%X%X%X%X%X",
"%X%X%X%X%X%X%X%X%X%X%X%X%X%X%X%X%X%X%X%X  %XN t.+.-                       * u ) %X%X%X%X%X%X%X%X%X%X",
"%X%X%X%X%X%X%X%X%X%X%X%X%X%X%X%X%X%X%X%XX   ,.3.x                               ) %X%X%X%X%X%X%X%X%X",
"%X%X%X%X%X%X%X%X%X%X%X%X%X%X%X%X%X%X%X%XN n O                                     %X%X%X%X%X%X%X%X%X",
"%X%X%X%X%X%X%X%X%X%X%X%X%X%X%X%X%X%X%X. M 1.      c                         f %X%X%X%X%X%X%X%X%X%X%X",
"%X%X%X%X%X%X%X%X%X%X%X%X%X%X%X%X%X%X! +           D.7.O B   Z               %X%X%X%X%X%X%X%X%X%X%X%X",
"%X%X%X%X%X%X%X%X%X%X%X%X%X%X%X%X%X%XD 4.2.1.      7.P.0.E.< J.!.  c D       & %X%X%X%X%X%X%X%X%X%X%X",
"%X%X%X%X%X%X%X%X%X%X%X%X%X%X%X%X%X%Xn i.u.g.f.%.+ o < T.N.# B.#XJ.K w.  %X%X%X( %X%X%X%X%X%X%X%X%X%X",
"%X%X%X%X%X%X%X%X%X%X%X%X%X%X%X%X%X%Xj j.5.; ^ V.z.m o 9.c..X_.9.XX|.> . %X%X%X%X%X%X%X%X%X%X%X%X%X%X",
"%X%X%X%X%X%X%X%X%X%X%X%X%X%X%X%X%X/ ..j.h.  T ^./.S  .j 8.}.$X[.A.b.. - _ %X%X%X%X%X%X%X%X%X%X%X%X%X",
"%X%X%X%X%X%X%X%X%X%X%X%X%X%X%X%X%XO 5.g.h.+.I J.(.$ $.>.+ , q.n.D L P | - %X%X%X%X%X%X%X%X%X%X%X%X%X",
"%X%X%X%X%X%X%X%X%X%X%X%X%X%X%X%Xd   3.g.h.i.; ~.@Xq : x o.|   H J./ @ $.| i %X%X%X%X%X%X%X%X%X%X%X%X",
"%X%X%X%X%X%X%X%X%X%X%X%X%X%X%X%X  l :.u.g.h.$.J @XR.o 8 O X.j M.XXJ.k 4.G . %X%X%X%X%X%X%X%X%X%X%X%X",
"%X%X%X%X%X%X%X%X%X%X%X%X%X%X%Xa ,.O.O.4.g.j.$.O T.oX5 %X%X* - W.U.- >.W E A 9 %X%X%X%X%X%X%X%X%X%X%X",
"%X%X%X%X%X%X%X%X%X%X%X%X%X%Xd v p.<.| X.u.y.@ # W.oX< %X%X%X` +XJ.i v 0 [ S.1 y %X%X%X%X%X%X%X%X%X%X",
"%X%X%X%X%X%X%X%X%X%X%X%X%X%X} h a.a.<.2.d.+ %X%Xf  X  %X%X%XU Y % %X%Xs V R &.c %X%X%X%X%X%X%X%X%X%X",
"%X%X%X%X%X%X%X%X%X%X%X%X%X%XQ *.6.p.k.y.m D %X* P /.' < %Xa {.].    X %X~ $ q > ! %X%X%X%X%X%X%X%X%X",
"%X%X%X%X%X%X%X%X%X%X%X%X%X_ 7 G.v.) z c %X%X4 K.]   !.  A Q.L.P.M.K.Z r %X%X%X%X%X%X%X%X%X%X%X%X%X%X",
"%X%X%X%X%X%X%X%X%X%X%X%X%X} C x.R 9 %X%X%X%Xo K F.=.Y.@ 3 T.#.#.S.H { %X%X%X%X%X%X%X%X%X%X%X%X%X%X%X",
"%X%X%X%X%X%X%X%X%X%X%X%X%Xt C.p.6 %X%X%X%X%X/ K l.@.r.I.4 N J 2 w.z % %X%X%X%X%X%X%X%X%X%X%X%X%X%X%X",
"%X%X%X%X%X%X%X%X%X%X%X%X%X= ).; %X%X%X%X%X%Xo w.Z i % O m.p %X%Xe u i %X%X%X%X%X%X%X%X%X%X%X%X%X%X%X",
"%X%X%X%X%X%X%X%X%X%X%X%X%X| -.9 %X%X%X%X%X%Xf w %X%X%Xd ( %X%X%X%X%X%X%X%X%X%X%X%X%X%X%X%X%X%X%X%X%X",
"%X%X%X%X%X%X%X%X%X%X%X%X'.O h %X%X%X%X%X%X%X%X%X%X%X%X%X%X%X%X%X%X%X%X%X%X%X%X%X%X%X%X%X%X%X%X%X%X%X",
"%X%X%X%X%X%X%X%X%X%X%X%X%X%X%X%X%X%X%X%X%X%X%X%X%X%X%X%X%X%X%X%X%X%X%X%X%X%X%X%X%X%X%X%X%X%X%X%X%X%X",
"%X%X%X%X%X%X%X%X%X%X%X%X%X%X%X%X%X%X%X%X%X%X%X%X%X%X%X%X%X%X%X%X%X%X%X%X%X%X%X%X%X%X%X%X%X%X%X%X%X%X",
"%X%X%X%X%X%X%X%X%X%X%X%X%X%X%X%X%X%X%X%X%X%X%X%X%X%X%X%X%X%X%X%X%X%X%X%X%X%X%X%X%X%X%X%X%X%X%X%X%X%X",
"%X%X%X%X%X%X%X%X%X%X%X%X%X%X%X%X%X%X%X%X%X%X%X%X%X%X%X%X%X%X%X%X%X%X%X%X%X%X%X%X%X%X%X%X%X%X%X%X%X%X",
"%X%X%X%X%X%X%X%X%X%X%X%X%X%X%X%X%X%X%X%X%X%X%X%X%X%X%X%X%X%X%X%X%X%X%X%X%X%X%X%X%X%X%X%X%X%X%X%X%X%X",
"%X%X%X%X%X%X%X%X%X%X%X%X%X%X%X%X%X%X%X%X%X%X%X%X%X%X%X%X%X%X%X%X%X%X%X%X%X%X%X%X%X%X%X%X%X%X%X%X%X%X"
};
