/* XPM */
static char *result[] = {
/* columns rows colors chars-per-pixel */
"50 50 203 2 ",
"   c #000000",
".  c #000309",
"X  c #0D0706",
"o  c #120301",
"O  c #120D09",
"+  c #160903",
"@  c #020E14",
"#  c #08191B",
"$  c #131313",
"%  c #191618",
"&  c #1C110B",
"*  c #2B0201",
"=  c #240703",
"-  c #390101",
";  c #350901",
":  c #26150C",
">  c #251814",
",  c #321C11",
"<  c #331110",
"1  c #33180E",
"2  c #3B2519",
"3  c #2B221A",
"4  c #001C2B",
"5  c #001E20",
"6  c #081332",
"7  c #002B34",
"8  c #003131",
"9  c #10212A",
"0  c #222323",
"q  c #2B2B2B",
"w  c #292825",
"e  c #313131",
"r  c #3F3F3F",
"t  c #2A2E30",
"y  c #4A0200",
"u  c #470D01",
"i  c #540300",
"p  c #591401",
"a  c #511B0A",
"s  c #491D0D",
"d  c #6A0E00",
"f  c #7B0500",
"g  c #7B0B01",
"h  c #681200",
"j  c #7C1100",
"k  c #472B19",
"l  c #552010",
"z  c #57311B",
"x  c #722201",
"c  c #7C3300",
"v  c #6F301D",
"b  c #7D3616",
"n  c #572928",
"m  c #433126",
"M  c #453629",
"N  c #5B3A27",
"B  c #4E243F",
"V  c #48222A",
"C  c #633C25",
"Z  c #7C2133",
"A  c #70342E",
"S  c #504A3D",
"D  c #7F4529",
"F  c #6E4532",
"G  c #764B32",
"H  c #774C34",
"J  c #68553D",
"K  c #001C46",
"L  c #002857",
"P  c #313C4F",
"I  c #003168",
"U  c #003B70",
"Y  c #082C6A",
"T  c #532143",
"R  c #4B3343",
"E  c #5C3566",
"W  c #3B4B56",
"Q  c #00467F",
"!  c #535453",
"~  c #4B4B4B",
"^  c #7C5944",
"/  c #744456",
"(  c #675440",
")  c #5C5272",
"_  c #454565",
"`  c #605C7A",
"'  c #765E73",
"]  c DimGray",
"[  c #706460",
"{  c #697178",
"}  c #930000",
"|  c #811B00",
" . c #921700",
".. c #991700",
"X. c #A61011",
"o. c #A61600",
"O. c #8E2100",
"+. c #942200",
"@. c #852916",
"#. c #AC2900",
"$. c #B42403",
"%. c #91282F",
"&. c #8A2D2F",
"*. c #AA3D34",
"=. c #D41E00",
"-. c #C21214",
";. c #C82500",
":. c #DC2400",
">. c #C83201",
",. c #DA3300",
"<. c #EC3B01",
"1. c #E63803",
"2. c #F43C00",
"3. c #FE3D00",
"4. c #975205",
"5. c #B7400F",
"6. c #88452A",
"7. c #914020",
"8. c #875233",
"9. c #925233",
"0. c #AF5E3B",
"q. c #AF4B36",
"w. c #C34C06",
"e. c #EF4108",
"r. c #FE4401",
"t. c #FF4B06",
"y. c #FC480D",
"u. c #FF5502",
"i. c #FF5901",
"p. c #FF560E",
"a. c #FF5D0D",
"s. c #FF4118",
"d. c #FF5612",
"f. c #FF5C13",
"g. c #FE6804",
"h. c #FF6314",
"j. c #FF631A",
"k. c #DB4A2C",
"l. c #DA5B37",
"z. c #FF5524",
"x. c #C1743D",
"c. c #D26439",
"v. c #FF672E",
"b. c #C33B58",
"n. c #865A45",
"m. c #954A47",
"M. c #AA5A40",
"N. c #8A6147",
"B. c #8B6851",
"V. c #A36E4E",
"C. c #B5605F",
"Z. c #A57A58",
"A. c #8A7A68",
"S. c #977A69",
"D. c #AF7A61",
"F. c #B27960",
"G. c #DD4C58",
"H. c #C46745",
"J. c #D47E5A",
"K. c #FF7F55",
"L. c #C44F77",
"P. c #C36B6A",
"I. c #F18B37",
"U. c #9E8477",
"Y. c #BB8464",
"T. c #B78868",
"R. c #DC885A",
"E. c #F8894D",
"W. c #E48559",
"Q. c #C88965",
"!. c #D88C69",
"~. c #EA9360",
"^. c #FD9A6F",
"/. c #DBA07D",
"(. c #FFAA72",
"). c #FFB17A",
"_. c #003C8B",
"`. c #00358B",
"'. c #004288",
"]. c #00569D",
"[. c #115C86",
"{. c #0051A5",
"}. c #A5A6A7",
"|. c #A2A2BD",
" X c #B3B3B5",
".X c #D49E83",
"XX c #E9AC83",
"oX c #FEB485",
"OX c #F8B892",
"+X c #F3AF89",
"@X c #C1B0B3",
"#X c #FFC38A",
"$X c #FFC99A",
"%X c #FFC798",
"&X c #FFCCA2",
"*X c #F8C2AB",
"=X c #FFD7A8",
"-X c #FFE2AF",
";X c #FFEFBA",
":X c #FFF4BB",
">X c #CECECE",
",X c #E5D2C9",
"<X c None",
/* pixels */
"<X<X<X<X<X<X<X<X<X<X<X<X<X<X<X<X<X<X<X<X<X<X<X<X<X<X<X<X<X<X<X<X<X<X<X<X<X<X<X<X<X<X<X<X<X<X<X<X<X<X",
"<X<X<X<X<X<X<X<X<X<X<X<X<X<X<X<X<X<X<X<X<X<X<X<X<X<X<X<X<X<X<X<X<X<X<X<X<X<X<X<X<X<X<X<X<X<X<X<X<X<X",
"<X<X<X<X<X<X<X<X<X<X<X<X<X<X<X<X<X<X<X<X<X<X<X<X<X<X<X<X<X<X<X<X<X<X<X<X<X<X<X<X<X<X<X<X<X<X<X<X<X<X",
"<X<X<X<X<X<X<X<X<X<X<X<X<X<X<X<X<X<X<X<X<X<X<X<X<X<X<X<X<X<X<X<X<X<X<X<X<X<X<X<X<X<X<X<X<X<X<X<X<X<X",
"<X<X<X<X<X<X<X<X<X<X<X<X<X<X<X<X<X<X<X<X<X}.>X<X<X<X<X<X<X<X<X<X<X<X<X<X<X<X<X<X<X<X<X<X<X<X<X<X<X<X",
"<X<X<X<X<X<X<X<X<X<X<X<X<X<X<X<X<X<X<X<X<X    % }.<X<X<X<X<X<X<X<X<X<X<X<X<X<X<X<X<X<X<X<X<X<X<X<X<X",
"<X<X<X<X<X<X<X<X<X<X<X<X<X<X<X<X<X<X<X<X<X<X      q <X<X<X<X<X<X<X<X<X<X<X<X<X<X<X<X<X<X<X<X<X<X<X<X",
"<X<X<X<X<X<X<X<X<X<X<X<X<X<X<X<X<X<X<X<X<X<X<X      <X<X<X<X<X<X<X<X<X<X<X<X<X<X<X<X<X<X<X<X<X<X<X<X",
"<X<X<X<X<X<X<X<X<X<X<X<X<X<X<X<X~ 0 0 0 ] <X<X      X <X<X<X<X<X<X<X<X<X<X<X<X<X<X<X<X<X<X<X<X<X<X<X",
"<X<X<X<X<X<X<X<X<X<X<X<X<X<X] X           $ !         <X<X<X<X<X<X<X<X<X<X<X<X<X<X<X<X<X<X<X<X<X<X<X",
"<X<X<X<X<X<X<X<X<X<X<X<X<X<X                          <X<X<X<X<X<X<X<X<X<X<X<X<X<X<X<X<X<X<X<X<X<X<X",
"<X<X<X<X<X<X<X<X<X<X<X<X<X<X<X<X<X                    q <X<X<X<X<X<X<X<X<X<X<X<X<X<X<X<X<X<X<X<X<X<X",
"<X<X<X<X<X<X<X<X<X<X<X<X<X<X<X<X<X<X                      <X<X<X<X<X<X<X<X<X<X<X<X<X<X<X<X<X<X<X<X<X",
"<X<X<X<X<X<X<X<X<X<X<X<X<X<X<Xq $ O                         <X<X<X<X0 <X<X<X<X<X<X<X<X<X<X<X<X<X<X<X",
"<X<X<X<X<X<X<X<X<X<X<X<X<X<X!                               q <X    <X<X<X<X<X<X<X<X<X<X<X<X<X<X<X<X",
"<X<X<X<X<X<X<X<X<X<X<X<X<X<X                                      <X<X<X<X<X<X<X<X<X<X<X<X<X<X<X<X<X",
"<X<X<X<X<X<X<X<X<X<X<X<X<X<X<X<X<X          o z     N           . S q e <X<X<X<X<X<X<X<X<X<X<X<X<X<X",
"<X<X<X<X<X<X<X<X<X<X<X<X<X<X<X<Xq     C k   XX!.  8.~.                <X<X<X<X<X<X<X<X<X<X<X<X<X<X<X",
"<X<X<X<X<X<X<X<X<X<X<X<X<X<X<X<X%     8.G T.-XH . 2 : X D C     X <X<X<X<X<X<X<X<X<X<X<X<X<X<X<X<X<X",
"<X<X<X<X<X<X<X<X<X<X<X<X<X<X<X<X<X<X<X  Z.;XXX>  X{ A l (.N         <X<X<X<X<X<X<X<X<X<X<X<X<X<X<X<X",
"<X<X<X<X<X<X<X<X<X<X<X<X<X<X<X<X<X<X<X  D $X$X+X,XS.R.0.N.N <X<X<X<X<X<X<X<X<X<X<X<X<X<X<X<X<X<X<X<X",
"<X<X<X<X<X<X<X<X<X<X<X<X<X<X<X<X<X<X4 n - OX=X&X=X).c.>.y + <X<X<X<X<X<X<X<X<X<X<X<X<X<X<X<X<X<X<X<X",
"<X<X<X<X<X<X<X<X<X<X<X<X<X<X<X<X<X# Y P.=.k OX$XoXH.c.z._ L 9 <X<X<X<X<X<X<X<X<X<X<X<X<X<X<X<X<X<X<X",
"<X<X<X<X<X<X<X<X<X<X<X<X<X<X<X<Xm 6._.C.i.0.k k 6.E.E.k._.@XW.> m <X. & <X<X<X<X<X<X<X<X<X<X<X<X<X<X",
"<X<X<X<X<X<X<X<X<X<X<X<X<X<X<X@ b !.[.A u.) S.Z.Z.U.f.k.Y .X:X$XW.6.+ Y.0 [ > }.<X<X<X<X<X<X<X<X<X<X",
"<X<X<X<X<X<X<X<X<X<X<X<X<X<Xe , H.:XoX  i M.'.Q ].` p.v.V s Z.^.#X*X> T.O T.2 W <X<X<X<X<X<X<X<X<X<X",
"<X<X<X<X<X<X<X<X<X<X<X<X<X<Xt V.;X^ 2   ~ $.*.].' u.r.u...  <X; H.|.6 Q.R.H m Z.<X<X<X<X<X<X<X<X<X<X",
"<X<X<X<X<X<X<X<X<X<X<X<X<X<X<Xq V.1 ^   /.S p 6 >.3.,.1.+ <X<X<X<X% . W.l.J.B.( <X<X<X<X<X<X<X<X<X<X",
"<X<X<X<X<X<X<X<X<X<X<X<X<X<X<X<X> O n.n.9.G Y.J @.2.Y X <X<X<X<X<Xo Y.0.q.v ! <X<X<X<X<X<X<X<X<X<X<X",
"<X<X<X<X<X<X<X<X<X<X<X<X<X<X<X<X<X<Xo K.&.J 7 K {._.B o <X<X<X<X<XN.N .   > <X<X<X<X<X<X<X<X<X<X<X<X",
"<X<X<X<X<X<X<X<X<X<X<X<X<X<X<X<X<X: B.F * d / Z %./ j.$.  <X<X<X<X    <X<X<X<X<X<X<X<X<X<X<X<X<X<X<X",
"<X<X<X<X<X<X<X<X<X<X<X<X<X<X<X<X<X# H O.<.f.=.3.g.3.2.d.p <X<X<X<X<X<X<X<X<X<X<X<X<X<X<X<X<X<X<X<X<X",
"<X<X<X<X<X<X<X<X<X<X<X<X<X<X<X<X% j ,.h.f.d.>.<.d.d.t.h.#.. <X<X<X<X<X<X<X<X<X<X<X<X<X<X<X<X<X<X<X<X",
"<X<X<X<X<X<X<X<X<X<X<X<X<X<X<X<X= r.h.d.f.p.1...r.j.d.d.f.u <X<X<X<X<X<X<X<X<X<X<X<X<X<X<X<X<X<X<X<X",
"<X<X<X<X<X<X<X<X<X<X<X<X<X<X<X@ ,.j.f.u.y.h      .u.d.p.h. .  <X<X<X<X<X<X<X<X<X<X<X<X<X<X<X<X<X<X<X",
"<X<X<X<X<X<X<X<X<X<X<X<X<X<X<X@ $.f.e.$.f j O <X< :.r.p.f.2.y <X<X<X<X<X<X<X<X<X<X<X<X<X<X<X<X<X<X<X",
"<X<X<X<X<X<X<X<X<X<X<X<X<X<X<X<X* t.;.g 2.#.  <X<Xa 3.d.d.t.r.  <X<X<X<X<X<X<X<X<X<X<X<X<X<X<X<X<X<X",
"<X<X<X<X<X<X<X<X<X<X<X<X<X<X<X<X<X* h i.s.R 4.  <X<Xu <.d.f.a.g 5 <X<X<X<X<X<X<X<X<X<X<X<X<X<X<X<X<X",
"<X<X<X<X<X<X<X<X<X<X<X<X<X<X<X<X<X<X  + w.I.P . <X<X. f ,.3.f.e.O <X<X<X<X<X<X<X<X<X<X<X<X<X<X<X<X<X",
"<X<X<X<X<X<X<X<X<X<X<X<X<X<X<X<X<X<X<X<XX.E I <X<X<X<X1  .o.t.h.;.4 <X<X<X<X<X<X<X<X<X<X<X<X<X<X<X<X",
"<X<X<X<X<X<X<X<X<X<X<X<X<X<X<X<X<X<X<X<X-.E U <X<X<X<X<X- t.u.v.n # <X<X<X<X<X<X<X<X<X<X<X<X<X<X<X<X",
"<X<X<X<X<X<X<X<X<X<X<X<X<X<X<X<X<X<X<X<X; T <X<X<X<X<X<Xa x m.G.L 3 <X<X<X<X<X<X<X<X<X<X<X<X<X<X<X<X",
"<X<X<X<X<X<X<X<X<X<X<X<X<X<X<X<X<X<X<X<X<X<X<X<X<X<X<X<X<X@ L b.A.O.<X<X<X<X<X<X<X<X<X<X<X<X<X<X<X<X",
"<X<X<X<X<X<X<X<X<X<X<X<X<X<X<X<X<X<X<X<X<X<X<X<X<X<X<X<X<X<Xw g.W.7 <X<X<X<X<X<X<X<X<X<X<X<X<X<X<X<X",
"<X<X<X<X<X<X<X<X<X<X<X<X<X<X<X<X<X<X<X<X<X<X<X<X<X<X<X<X<X<X<X= L.6 <X<X<X<X<X<X<X<X<X<X<X<X<X<X<X<X",
"<X<X<X<X<X<X<X<X<X<X<X<X<X<X<X<X<X<X<X<X<X<X<X<X<X<X<X<X<X<X<X7 &.} 8 <X<X<X<X<X<X<X<X<X<X<X<X<X<X<X",
"<X<X<X<X<X<X<X<X<X<X<X<X<X<X<X<X<X<X<X<X<X<X<X<X<X<X<X<X<X<X<X<XV A <X<X<X<X<X<X<X<X<X<X<X<X<X<X<X<X",
"<X<X<X<X<X<X<X<X<X<X<X<X<X<X<X<X<X<X<X<X<X<X<X<X<X<X<X<X<X<X<X<X<X<X<X<X<X<X<X<X<X<X<X<X<X<X<X<X<X<X",
"<X<X<X<X<X<X<X<X<X<X<X<X<X<X<X<X<X<X<X<X<X<X<X<X<X<X<X<X<X<X<X<X<X<X<X<X<X<X<X<X<X<X<X<X<X<X<X<X<X<X",
"<X<X<X<X<X<X<X<X<X<X<X<X<X<X<X<X<X<X<X<X<X<X<X<X<X<X<X<X<X<X<X<X<X<X<X<X<X<X<X<X<X<X<X<X<X<X<X<X<X<X"
};
