/* XPM */
static char *result[] = {
/* columns rows colors chars-per-pixel */
"50 50 205 2 ",
"   c #000000",
".  c #0C0302",
"X  c #000A06",
"o  c #00040B",
"O  c #020B0C",
"+  c #0A0B0A",
"@  c #140201",
"#  c #190B05",
"$  c #030815",
"%  c #011113",
"&  c #001019",
"*  c gray8",
"=  c #1C1C1B",
"-  c #141915",
";  c #1B140E",
":  c #290C05",
">  c #260402",
",  c #350500",
"<  c #3F0400",
"1  c #271308",
"2  c #301414",
"3  c #382216",
"4  c #2C2115",
"5  c #000424",
"6  c #000A28",
"7  c #001820",
"8  c #12192C",
"9  c #000A35",
"0  c #301729",
"q  c #00313E",
"w  c #132D34",
"e  c #232323",
"r  c #2D2D2D",
"t  c #372924",
"y  c #383838",
"u  c #333629",
"i  c #440500",
"p  c #4C0300",
"a  c #460902",
"s  c #5C0402",
"d  c #610100",
"f  c #7E1900",
"g  c #701C0F",
"h  c #691700",
"j  c #4A2814",
"k  c #55321E",
"l  c #74361C",
"z  c #4A143B",
"x  c #5A3824",
"c  c #433327",
"v  c #653923",
"b  c #544038",
"n  c #695E2F",
"m  c #764938",
"M  c #775139",
"N  c #71472F",
"B  c #706932",
"V  c #000145",
"C  c #00174A",
"Z  c #00135A",
"A  c #002341",
"S  c #000E60",
"D  c #002074",
"F  c #003272",
"G  c #002669",
"H  c #3B3B6D",
"J  c #502A51",
"K  c #394448",
"L  c #3A4D53",
"P  c #3E5177",
"I  c #4D4F4F",
"U  c #444444",
"Y  c #5B4C43",
"T  c #5F5B59",
"R  c #4F4E6D",
"E  c #485C60",
"W  c #654768",
"Q  c #755675",
"!  c #6B6C6B",
"~  c #616262",
"^  c #787777",
"/  c #7D6870",
"(  c #8C1009",
")  c #991B00",
"_  c #83061A",
"`  c #A50D00",
"'  c #A81800",
"]  c #B21F00",
"[  c #8E3E1E",
"{  c #A82802",
"}  c #B72300",
"|  c #BD2400",
" . c #BC3504",
".. c #A92012",
"X. c #AE3810",
"o. c #B6330D",
"O. c #851C3F",
"+. c #AE002B",
"@. c #C62A00",
"#. c #CB2900",
"$. c #C92500",
"%. c #D62B00",
"&. c #C53808",
"*. c #D83400",
"=. c #C83717",
"-. c #EA3300",
";. c #E53D07",
":. c #F53B00",
">. c #FE3D00",
",. c #DC0C2F",
"<. c #D2233B",
"1. c #8C641A",
"2. c #9B452B",
"3. c #8F562E",
"4. c #814B35",
"5. c #9F5930",
"6. c #87593F",
"7. c #A04E26",
"8. c #B95636",
"9. c #BC472D",
"0. c #FE4401",
"q. c #FF4C04",
"w. c #FF4C09",
"e. c #FF5201",
"r. c #FF540D",
"t. c #FF5A0B",
"y. c #FF5E03",
"u. c #FF4913",
"i. c #FF5511",
"p. c #FF5B13",
"a. c #FF5A1B",
"s. c #FF640A",
"d. c #FF6214",
"f. c #FF611B",
"g. c #E56500",
"h. c #D85228",
"j. c #FD592D",
"k. c #D1653F",
"l. c #FF6124",
"z. c #A45B5B",
"x. c #976E4F",
"c. c #AD714E",
"v. c #B7734F",
"b. c #8F4F70",
"n. c #816A65",
"m. c #C85B45",
"M. c #D85D47",
"N. c #CC7F53",
"B. c #DD784C",
"V. c #FC7B57",
"C. c #FE8A0F",
"Z. c #B3896D",
"A. c #DB8558",
"S. c #E48C5C",
"D. c #F78B58",
"F. c #FC8F51",
"G. c #C78B6C",
"H. c #D18F69",
"J. c #CF9C7B",
"K. c #D39879",
"L. c #F79B6E",
"P. c #E09E7A",
"I. c #E79568",
"U. c #C8A57D",
"Y. c #FCA06C",
"T. c #F8A874",
"R. c #FFBB7D",
"E. c #EDA975",
"W. c #003E85",
"Q. c #004885",
"!. c #004596",
"~. c #085899",
"^. c #0E5186",
"/. c #405682",
"(. c #707D8E",
"). c #0067D1",
"_. c #5E8091",
"`. c #7294B1",
"'. c #808080",
"]. c #929394",
"[. c #948EA5",
"{. c #98ABBF",
"}. c #A7A8A9",
"|. c #BBBBBB",
" X c #E9A583",
".X c #FEB58E",
"XX c #DBB3BA",
"oX c #FFC699",
"OX c #FFDD9E",
"+X c #FFC788",
"@X c #D0C6AF",
"#X c #FFCDA3",
"$X c #FFDAAA",
"%X c #FFD5A6",
"&X c #FFEFB9",
"*X c #FFE8B6",
"=X c #FFEDAF",
"-X c #93ABC0",
";X c #D3BAC1",
":X c #FFBDC7",
">X c #D9D9D9",
",X c #C6C6C6",
"<X c #FFFFCA",
"1X c #F8F1EE",
"2X c None",
/* pixels */
"2X2X2X2X2X2X2X2X2X2X2X2X2X2X2X2X2X2X2X2X2X2X2X2X2X2X2X2X2X2X2X2X2X2X2X2X2X2X2X2X2X2X2X2X2X2X2X2X2X2X",
"2X2X2X2X2X2X2X2X2X2X2X2X2X2X2X2X2X2X2X2X2X2X2X2X2X2X2X2X2X2X2X2X2X2X2X2X2X2X2X2X2X2X2X2X2X2X2X2X2X2X",
"2X2X2X2X2X2X2X2X2X2X2X2X2X2X2X2X2X2X2X2X2X2X2X2X2X2X2X2X2X2X|.>X2X2X2X2X2X2X2X2X2X2X2X2X2X2X2X2X2X2X",
"2X2X2X2X2X2X2X2X2X2X2X2X2X2X2X2X2X2X2X2X2X2X2X2X2X2X2X2X}.y     2X2X2X2X2X2X2X2X2X2X2X2X2X2X2X2X2X2X",
"2X2X2X2X2X2X2X2X2X2X2X2X2X2X2X2X2X2X2X2X2X2X2X2X2X2X2Xe       2X2X2X2X2X2X2X2X2X2X2X2X2X2X2X2X2X2X2X",
"2X2X2X2X2X2X2X2X2X2X2X2X2X2X2X2X2X2X2X2X2X2X2X2X2X2X2X        2X2X2X2X2X2X2X2X2X2X2X2X2X2X2X2X2X2X2X",
"2X2X2X2X2X2X2X2X2X2X2X2X2X2X2X2X2X2X2X2X2X2X2X2X2X2X*       2X2X2XU ^ ^ '.|.2X2X2X2X2X2X2X2X2X2X2X2X",
"2X2X2X2X2X2X2X2X2X2X2X2X2X2X2X2X2X2X2X2X2X2X2X2X2X2X        2XI y         e ! ,X2X2X2X2X2X2X2X2X2X2X",
"2X2X2X2X2X2X2X2X2X2X2X2X2X2X2X2X2X2X2X2X2X2X2X2X2X2X        e                 r 2X2X2X2X2X2X2X2X2X2X",
"2X2X2X2X2X2X2X2X2X2X2X2X2X2X2X2X2X2X2X2X2X2X2X2X2X2X                        = 2X2X2X2X2X2X2X2X2X2X2X",
"2X2X2X2X2X2X2X2X2X2X2X2X2X2X2X2X2X2X2X2X2X2X2X2XX                         2X2X2X2X2X2X2X2X2X2X2X2X2X",
"2X2X2X2X2X2X2X2X2X2X2X2X2X2X2X2X2X2X2X2X2X2X2X.                       X 2X2X2X2X2X2X2X2X2X2X2X2X2X2X",
"2X2X2X2X2X2X2X2X2X2X2X2X2X2X2X2X2X- 2X2X2X2XX                               ~ 2X2X2X2X2X2X2X2X2X2X2X",
"2X2X2X2X2X2X2X2X2X2X2X2X2X2X2X2X2X2X    = 2X*                                 ! 2X2X2X2X2X2X2X2X2X2X",
"2X2X2X2X2X2X2X2X2X2X2X2X2X2X2X2X2X2X2Xe                                         2X2X2X2X2X2X2X2X2X2X",
"2X2X2X2X2X2X2X2X2X2X2X2X2X2X2X2Xr r ~ r           1 j     j             + 2X2X2X2X2X2X2X2X2X2X2X2X2X",
"2X2X2X2X2X2X2X2X2X2X2X2X2X2X2X2X                  k .Xx   H.U.    N     X 2X2X2X2X2X2X2X2X2X2X2X2X2X",
"2X2X2X2X2X2X2X2X2X2X2X2X2X2X2X2X2X2X2X*       M     x :   c.&XG.# A.      I 2X2X2X2X2X2X2X2X2X2X2X2X",
"2X2X2X2X2X2X2X2X2X2X2X2X2X2X2X2X2X2X+ X       A.l @ m >X].@ K.&XK.1 o 2X2X+ ^ 2X2X2X2X2X2X2X2X2X2X2X",
"2X2X2X2X2X2X2X2X2X2X2X2X2X2X2X2X2X2X2X2X      A.B.8. X1X}.o K.$XI.  2X2X2X2X2X2X2X2X2X2X2X2X2X2X2X2X",
"2X2X2X2X2X2X2X2X2X2X2X2X2X2X2X2X2X2X2X2X2X2X2X. 1 8.S..X%X.XoX#X2.. 2X2X2X2X2X2X2X2X2X2X2X2X2X2X2X2X",
"2X2X2X2X2X2X2X2X2X2X2X2X2X2X2X2X2X2X2X2X2X2X2X2X2X1 M.L.%X$X$X X4 2X2X2X2X2X2X2X2X2X2X2X2X2X2X2X2X2X",
"2X2X2X2X2X2X2X2X2X2X2X2X2X2X2X2X2X2X2X2X2X2X2X2X2X- S.8.L.J.Z.  2X2X2X2X2X2X2X2X2X2X2X2X2X2X2X2X2X2X",
"2X2X2X2X2X2X2X2X2X2X2X2X2X2X2X2X2X2X2X2X2X2X( h i [ E.B.9.a 1 f , 2X2X2X2X2X2X2X2X2X2X2X2X2X2X2X2X2X",
"2X2X2X2X2X2X2X2X2X2X2X2X2X2X2X2X2X2X2X2X8 9 v.s.>.r.D.E.F.h.F.V.:.i 6 2X2X2X2X2X2X2X2X2X2X2X2X2X2X2X",
"2X2X2X2X2X2X2X2X2X2X2X2X2X2X2X2X2X2X2X4 9 W.F z.i.-.-.x.(.Q / Q.p.=.C # 2X2X2X2X2X2X2X2X2X2X2X2X2X2X",
"2X2X2X2X2X2X2X2X2X2X2X2X2X2X2X2X2X2X2XK Y XXQ.W.a.i.>.;.P !.F F u.o.C # 2X2X2X2X2X2X2X2X2X2X2X2X2X2X",
"2X2X2X2X2X2X2X2X2X2X2X2X2X2X2X2X2X2XI 1 B.OX X2 r.q.:.y.t.R ~.M.w.> & 2X2X2X2X2X2X2X2X2X2X2X2X2X2X2X",
"2X2X2X2X2X2X2X2X2X2X2X2X2X2X2X2X2X2Xw v $XT.k   *.w.| %.0.a.j.e.@.  + 2X2X2X2X2X2X2X2X2X2X2X2X2X2X2X",
"2X2X2X2X2X2X2X2X2X2X2X2X2X2X2X2X2X2XU 6.<Xx 2X2X@ 8 W ` u.l.f.} > c.; 2X2X2X2X2X2X2X2X2X2X2X2X2X2X2X",
"2X2X2X2X2X2X2X2X2X2X2X2X2X2X2X2X2X2XM +XE.c 2X2X2X2X$ J W.~.~.G # A.4.+ 2X2X2X2X2X2X2X2X2X2X2X2X2X2X",
"2X2X2X2X2X2X2X2X2X2X2X2X2X2X2X2X2X2Xb @X2 2X2X2X2X2X..M.H z 0 Q @.o V $ 2X2X2X2X2X2X2X2X2X2X2X2X2X2X",
"2X2X2X2X2X2X2X2X2X2X2X2X2X2X2X2X2X2X9 ).6   2X2X2X, q.' e.0.] q.q.  b.0 % 2X2X2X2X2X2X2X2X2X2X2X2X2X",
"2X2X2X2X2X2X2X2X2X2X2X2X2X2X2X2X2X2Xy -Xn.M   2X, X.q.0.f.:.#.i.w.p 2.3.t 2X2X2X2X2X2X2X2X2X2X2X2X2X",
"2X2X2X2X2X2X2X2X2X2X2X2X2X2X2X2X2X2XM &X&XL.N.O   d.i.p.d.{ < *.p.*.  x 5.& 2X2X2X2X2X2X2X2X2X2X2X2X",
"2X2X2X2X2X2X2X2X2X2X2X2X2X2X2X2X2XX N $XoXm.M .  .r.i.p.e.> , } d.0.X Y.l & 2X2X2X2X2X2X2X2X2X2X2X2X",
"2X2X2X2X2X2X2X2X2X2X2X2X2X2X2X2X2X2XT j H.$X    p.r.i.d.0.. s #.-.r.X.v Y 2X2X2X2X2X2X2X2X2X2X2X2X2X",
"2X2X2X2X2X2X2X2X2X2X2X2X2X2X2X2X2X2X2X2Xy u   ) r.i.p.0.i { ..' @.d.*.  2X2X2X2X2X2X2X2X2X2X2X2X2X2X",
"2X2X2X2X2X2X2X2X2X2X2X2X2X2X2X2X2X2X2X2X2X2X. 0.p.w.d.{   =.0.( ] :.#.q 2X2X2X2X2X2X2X2X2X2X2X2X2X2X",
"2X2X2X2X2X2X2X2X2X2X2X2X2X2X2X2X2X2X2X2X2X- ) r.w.$.%.p E w *.:.@.:.$.7 2X2X2X2X2X2X2X2X2X2X2X2X2X2X",
"2X2X2X2X2X2X2X2X2X2X2X2X2X2X2X2X2X2X2X2X2XX >.t.] #.d % 2XO s 0.s.q.p K 2X2X2X2X2X2X2X2X2X2X2X2X2X2X",
"2X2X2X2X2X2X2X2X2X2X2X2X2X2X2X2X2X2X2X2X2Xo 2.e.0.%.@ K 2X=   g u.{ ! 2X2X2X2X2X2X2X2X2X2X2X2X2X2X2X",
"2X2X2X2X2X2X2X2X2X2X2X2X2X2X2X2X2X2X2X2X2X. J k. .( ~ 2X2X2X- S +.O 2X2X2X2X2X2X2X2X2X2X2X2X2X2X2X2X",
"2X2X2X2X2X2X2X2X2X2X2X2X2X2X2X2X2X2X2X2X2XA ,.P   K 2X2X2X2X. 1.g.  2X2X2X2X2X2X2X2X2X2X2X2X2X2X2X2X",
"2X2X2X2X2X2X2X2X2X2X2X2X2X2X2X2X2X2X2X2X  B C.t L 2X2X2X2X2X. n B ( o 2X2X2X2X2X2X2X2X2X2X2X2X2X2X2X",
"2X2X2X2X2X2X2X2X2X2X2X2X2X2X2X2X2X2X2X2X% | x.X 2X2X2X2X2X2X  Z D O._ 5 2X2X2X2X2X2X2X2X2X2X2X2X2X2X",
"2X2X2X2X2X2X2X2X2X2X2X2X2X2X2X2X2X2X2X0 q <.W O 2X2X2X2X2X2X2X(.`.-X:X[.2X2X2X2X2X2X2X2X2X2X2X2X2X2X",
"2X2X2X2X2X2X2X2X2X2X2X2X2X2X2X2X2X2X2X2X2X@XXX2X2X2X2X2X2X2X2X2X2X2X2X2X2X2X2X2X2X2X2X2X2X2X2X2X2X2X",
"2X2X2X2X2X2X2X2X2X2X2X2X2X2X2X2X2X2X2X2X2X2X2X2X2X2X2X2X2X2X2X2X2X2X2X2X2X2X2X2X2X2X2X2X2X2X2X2X2X2X",
"2X2X2X2X2X2X2X2X2X2X2X2X2X2X2X2X2X2X2X2X2X2X2X2X2X2X2X2X2X2X2X2X2X2X2X2X2X2X2X2X2X2X2X2X2X2X2X2X2X2X"
};
