/* XPM */
static char *result[] = {
/* columns rows colors chars-per-pixel */
"50 50 226 2 ",
"   c #220004",
".  c #26001A",
"X  c #3B0017",
"o  c #36000E",
"O  c #3A002A",
"+  c #2B0236",
"@  c #4A0008",
"#  c #4A0014",
"$  c #4D001D",
"%  c #42001B",
"&  c #52001C",
"*  c #580019",
"=  c #560B14",
"-  c #680C17",
";  c #7A051A",
":  c #68240D",
">  c #4C0123",
",  c #4B0027",
"<  c #550022",
"1  c #5B0024",
"2  c #5C002A",
"3  c #53012A",
"4  c #4B063A",
"5  c #4B1135",
"6  c #650025",
"7  c #690223",
"8  c #6F012C",
"9  c #72012A",
"0  c #7C0627",
"q  c #790235",
"w  c #6E1833",
"e  c #712634",
"r  c #7C4428",
"t  c #001156",
"y  c #361B4E",
"u  c #19355C",
"i  c #30265A",
"p  c #000E6F",
"a  c #371F62",
"s  c #002D7F",
"d  c #322974",
"f  c #541551",
"g  c #671344",
"h  c #790148",
"j  c #5B3455",
"k  c #6C2243",
"l  c #7B2D4B",
"z  c #7A1965",
"x  c #6A1C6F",
"c  c #4D327B",
"v  c #09416C",
"b  c #54576C",
"n  c #765275",
"m  c #96071B",
"M  c #8D0B11",
"N  c #AA111C",
"B  c #B11113",
"V  c #9F210D",
"C  c #A92A0B",
"Z  c #88022B",
"A  c #95012C",
"S  c #9D0129",
"D  c #870336",
"F  c #96033A",
"G  c #811C3B",
"H  c #8D172D",
"J  c #A40329",
"K  c #AF0B2E",
"L  c #8A2C2E",
"P  c #AC2E27",
"I  c #CC110B",
"U  c #EB1C01",
"Y  c #D7280D",
"T  c #CD2915",
"R  c #DA2714",
"E  c #D93812",
"W  c #D33D13",
"Q  c #E73A05",
"!  c #E42C00",
"~  c #C40B3F",
"^  c #9B530A",
"/  c #B94506",
"(  c #BA5E00",
")  c #964031",
"_  c #B44E38",
"`  c #DC5B00",
"'  c #D84400",
"]  c #F54A00",
"[  c #DF6700",
"{  c #C87200",
"}  c #FF6100",
"|  c #FF6B00",
" . c #F06300",
".. c #FF7B00",
"X. c #FD7403",
"o. c #FD6918",
"O. c #CC5A32",
"+. c #990043",
"@. c #A20043",
"#. c #A70348",
"$. c #B4004B",
"%. c #BD0051",
"&. c #AE1D48",
"*. c #9A3448",
"=. c #8E2851",
"-. c #AA3148",
";. c #D70749",
":. c #C71446",
">. c #D91B48",
",. c #C40057",
"<. c #D3005B",
"1. c #E70048",
"2. c #FB014B",
"3. c #E60556",
"4. c #FB0556",
"5. c #FF1757",
"6. c #EF1E5B",
"7. c #D4275A",
"8. c #FF255B",
"9. c #E32D5B",
"0. c #DC0C63",
"q. c #E51468",
"w. c #FF1868",
"e. c #FF1471",
"r. c #F30266",
"t. c #DA3A65",
"y. c #DA2E69",
"u. c #FF2D65",
"i. c #FF2A6C",
"p. c #FB3664",
"a. c #ED2673",
"s. c #FF2574",
"d. c #FF3D74",
"f. c #E93061",
"g. c #924559",
"h. c #A54E5C",
"j. c #B75A59",
"k. c #B04A43",
"l. c #B26957",
"z. c #814F70",
"x. c #B05472",
"c. c #907174",
"v. c #AE686C",
"b. c #CF504D",
"n. c #CF694F",
"m. c #E7704B",
"M. c #DB4B6D",
"N. c #FF4A78",
"B. c #FF597B",
"V. c #F54970",
"C. c #D77F6E",
"Z. c #E0776E",
"A. c #D48500",
"S. c #FF8100",
"D. c #FD8903",
"F. c #FF9400",
"G. c #FF9B00",
"H. c #FEA100",
"J. c #FFAB00",
"K. c #FFB400",
"L. c #CF9332",
"P. c #FFC800",
"I. c #BA8F66",
"U. c #FF945B",
"Y. c #F38450",
"T. c #F8AC4E",
"R. c #FC966C",
"E. c #FFB06F",
"W. c #FFC277",
"Q. c #001688",
"!. c #00348A",
"~. c #003985",
"^. c #0A349D",
"/. c #2A3383",
"(. c #211EA0",
"). c #004189",
"_. c #11538F",
"`. c #224583",
"'. c #384B97",
"]. c #2B5CA5",
"[. c #556196",
"{. c #7A7A99",
"}. c #4D52A3",
"|. c #5D74D5",
" X c #DC3E85",
".X c #816D99",
"XX c #B07691",
"oX c #D54F83",
"OX c #FF5687",
"+X c #FF678E",
"@X c #FF739B",
"#X c #FF7A9B",
"$X c #FF7793",
"%X c #FF6490",
"&X c #CE64AB",
"*X c #FF6BA1",
"=X c #638BD8",
"-X c #668DE1",
";X c #BFB69B",
":X c #C88995",
">X c #D99696",
",X c #F88399",
"<X c #ED968C",
"1X c #FDA787",
"2X c #FFBF99",
"3X c #FE86AB",
"4X c #FF89A9",
"5X c #FF95B3",
"6X c #FF9ABB",
"7X c #FF92A7",
"8X c #CBB5B5",
"9X c #FFBDA9",
"0X c #F3AFB1",
"qX c #FFCA8B",
"wX c #FACABA",
"eX c #F1D2B4",
"rX c #8E8FDB",
"tX c #A6A9CE",
"yX c #C7AAC1",
"uX c #FBCFCF",
"iX c #FFE7CA",
"pX c #FFF8C8",
"aX c #FFF2D2",
"sX c #FFFDF7",
"dX c #EFF4FD",
"fX c None",
/* pixels */
"fXfXfXfXfXfXfXfXfXfXfXfXfXfXfXfXfXfXfXfXfXfXfXfXfXfXfXfXfXfXfXfXfXfXfXfXfXfXfXfXfXfXfXfXfXfXfXfXfXfX",
"fXfXfXfXfXfXfXfXfXfXfXfXfXfXfXfXfXfXfXfXfXfXfXfXfXfXfXfXfXfXfXfXfXfXfXfXfXfXfXfXfXfXfXfXfXfXfXfXfXfX",
"fXfXfXfXfXfXfXfXfXfXfXfXfXfXfXfXfXfXfXfXfXfXfXfXfXfXfXfXfXfXfXfXfXfXfXfXfXfXfXfXfXfXfXfXfXfXfXfXfXfX",
"fXfXfXfXfXfXfXfXfXfXfXfXfXfXfXfXfXfXfXfXfXfXfXfXfXfXfXfXfXfXfXfXfXfXfXfXfXfXfXfXfXfXfXfXfXfXfXfXfXfX",
"fXfXfXfXfXfXfXfXfXfXfXfXfXfXfXfXfXfXfXfXfXfXfXfXfXfXfX* -.&.< fXfXfXfXfXfXfXfXfXfXfXfXfXfXfXfXfXfXfX",
"fXfXfXfXfXfXfXfXfXfXfXfXfXfXfXfXfXfXfXfXfXfXfXfXfXfX@ f.6X9.fXfXfXfXfXfXfXfXfXfXfXfXfXfXfXfXfXfXfXfX",
"fXfXfXfXfXfXfXfXfXfXfXfXfXfXfXfXfXfXfXfXfXfXfXfXfX@ f.5Xs.& fX# > # fXfXfXfXfXfXfXfXfXfXfXfXfXfXfXfX",
"fXfXfXfXfXfXfXfXfXfXfXfXfXfXfXfXfXfXfXfXfXfXfXfXX M.6XN.J fXK #X0XB.q $ fXfXfXfXfXfXfXfXfXfXfXfXfXfX",
"fXfXfXfXfXfXfXfXfXfXfXfXfXfXfXfXfXfXfXfXfXfXfXfX; 5X3X5.1   9.3X4X5X@X5.6 fXfXfXfXfXfXfXfXfXfXfXfXfX",
"fXfXfXfXfXfXfXfXfXfXfXfXfXfXfXfXfXfXfXfXfXfXfXfXM.6Xp.4.$.M.6.A Z u.u.>.D % fXfXfXfXfXfXfXfXfXfXfXfX",
"fXfXfXfXfXfXfXfXfXfXfXfXfXfXfXfXfXfXfXfXfXfXfXfX:XuX4.4.@X4Xu.;.u.w.Z fXfXfXfXfXfXfXfXfXfXfXfXfXfXfX",
"fXfXfXfXfXfXfXfXfXfXfXfXfXfXfX& D Z fXfXfXfX0 g ,X3Xr.%X$X5.F %.w.3 fXfXfXfXfXfXfXfXfXfXfXfXfXfXfXfX",
"fXfXfXfXfXfXfXfXfXfXfXfXfXfXfXfX:.d.x.e fX> #X3Xi.4.a.OX4.,.+.r.2 fXfXfXfXfXfXfXfXfXfXfXfXfXfXfXfXfX",
"fXfXfXfXfXfXfXfXfXfXfXfXfXfXfXfXfX&.3X#Xh.M.OX4.4.1.q.,Xa.F q %.;.>.F fXfXfXfXfXfXfXfXfXfXfXfXfXfXfX",
"fXfXfXfXfXfXfXfXfXfXfXfXfXfX< 6 < > 1.e.*Xd.1.8.V.4.q.+X*X0.V.M.3.e.d.:.fXfXfXfXfXfXfXfXfXfXfXfXfXfX",
"fXfXfXfXfXfXfXfXfXfXfXfXfXfXfXF 8.u.i.5.2.$.#.u.$X7X3.2.B.%Xw.#X X3.u.u.Z fXfXfXfXfXfXfXfXfXfXfXfXfX",
"fXfXfXfXfXfXfXfXfXfXfXfXfXfXfXfX8 :.8.w.e.#.F 5.5XqXY.3.4.N.t.5.#Xw % 7 6 < fXfXfXfXfXfXfXfXfXfXfXfX",
"fXfXfXfXfXfXfXfXfXfXfXfXfXfXfXfXfXfX$ @.D +.%.@.V.9.M n.s.N.;X# 5.D fXfXfXfXfXfXfXfXfXfXfXfXfXfXfXfX",
"fXfXfXfXfXfXfXfXfXfXfXfXfXfXfXfX1 $.%.,.8 r #.y.N D yX:XM.$X<X. 7 9 fXfXfXfXfXfXfXfXfXfXfXfXfXfXfXfX",
"fXfXfXfXfXfXfXfXfXfXfXfXfXfXfXfXfX1 F <.q T.n.P Y.l.sXdX:X<Xw fXfX$ fXfXfXfXfXfXfXfXfXfXfXfXfXfXfXfX",
"fXfXfXfXfXfXfXfXfXfXfXfXfXfXfXfXfXfXfX> < k.k.l.U.U.wXsXsXeX# fXfXfXfXfXfXfXfXfXfXfXfXfXfXfXfXfXfXfX",
"fXfXfXfXfXfXfXfXfXfXfXfXfXfXfXfXfXfXfXfXfXfXfXG m.Y.U.iXaXv.fXfXfXfXfXfXfXfXfXfXfXfXfXfXfXfXfXfXfXfX",
"fXfXfXfXfXfXfXfXfXfXfXfXfXfXfXfXfXfXfXfXfXfX$ G O.n.9XuXj.fXfXfXfXfXfXfXfXfXfXfXfXfXfXfXfXfXfXfXfXfX",
"fXfXfXfXfXfXfXfXfXfXfXfXfXfXfXfXfXfX2 f f ] ..E.1Xj.L h.O.C 0 4 fXfXfXfXfXfXfXfXfXfXfXfXfXfXfXfXfXfX",
"fXfXfXfXfXfXfXfXfXfXfXfXfXfXfXfXfXfX4 ~.).l.| o.uXpX1XZ.eXT.L.d fXfXfXfXfXfXfXfXfXfXfXfXfXfXfXfXfXfX",
"fXfXfXfXfXfXfXfXfXfXfXfXfXfXfXfXfXfX5 ).t v H.} v.=XtX.X}.{.L.c fXfXfXfXfXfXfXfXfXfXfXfXfXfXfXfXfXfX",
"fXfXfXfXfXfXfXfXfXfXfXfXfXfXfXfXfXfX- 9XuXe D.F.[ u p p t _.8X, fXfXfXfXfXfXfXfXfXfXfXfXfXfXfXfXfXfX",
"fXfXfXfXfXfXfXfXfXfXfXfXfXfXfXfXfX3 b.W.uXL ! S.S.| b Q.p b c.@ fXfXfXfXfXfXfXfXfXfXfXfXfXfXfXfXfXfX",
"fXfXfXfXfXfXfXfXfXfXfXfXfXfXfXfXfXk aXR.# # N / ] ] H.I.I.A.L h.fXfXfXfXfXfXfXfXfXfXfXfXfXfXfXfXfXfX",
"fXfXfXfXfXfXfXfXfXfXfXfXfXfXfXfXfXn.uXk fXfXfX. d n  .| } V <X8X. fXfXfXfXfXfXfXfXfXfXfXfXfXfXfXfXfX",
"fXfXfXfXfXfXfXfXfXfXfXfXfXfXfXfX> |.].  fXfXfXfXi !.y y i 5 n '.f fXfXfXfXfXfXfXfXfXfXfXfXfXfXfXfXfX",
"fXfXfXfXfXfXfXfXfXfXfXfXfXfXfXfXk =XrXe fXfXfX^ | W ).!.[.C 5 n 0X*.fXfXfXfXfXfXfXfXfXfXfXfXfXfXfXfX",
"fXfXfXfXfXfXfXfXfXfXfXfXfXfXfXfXI.pX2X>Xw fX, ` ..F.`.!.=.o.C m.eX=.fXfXfXfXfXfXfXfXfXfXfXfXfXfXfXfX",
"fXfXfXfXfXfXfXfXfXfXfXfXfXfXfXfX>XpXm.h.g X ` H.F.J.`.!.=.F.{ g.aXk fXfXfXfXfXfXfXfXfXfXfXfXfXfXfXfX",
"fXfXfXfXfXfXfXfXfXfXfXfXfXfXfXfX1 =.wXl.fXM G.J.K.D./.~.z S.G.P g fXfXfXfXfXfXfXfXfXfXfXfXfXfXfXfXfX",
"fXfXfXfXfXfXfXfXfXfXfXfXfXfXfXfXfXfX1 fXO ' J.J.D.o._.^.x ..P.( fXfXfXfXfXfXfXfXfXfXfXfXfXfXfXfXfXfX",
"fXfXfXfXfXfXfXfXfXfXfXfXfXfXfXfXfXfXfX- m W K.F.X._ d f X.S.P.[ O fXfXfXfXfXfXfXfXfXfXfXfXfXfXfXfXfX",
"fXfXfXfXfXfXfXfXfXfXfXfXfXfXfXfXfXfX; T J Q | ] C fXfXM T [ } T N - fXfXfXfXfXfXfXfXfXfXfXfXfXfXfXfX",
"fXfXfXfXfXfXfXfXfXfXfXfXfXfXfXfXfXfXN Q q Y B J 7 fXfXq J J q S Q ; fXfXfXfXfXfXfXfXfXfXfXfXfXfXfXfX",
"fXfXfXfXfXfXfXfXfXfXfXfXfXfXfXfXfXfX; U m q A R M fXfX2 I I B R K 3 fXfXfXfXfXfXfXfXfXfXfXfXfXfXfXfX",
"fXfXfXfXfXfXfXfXfXfXfXfXfXfXfXfXfXfX& l _ I T N 3 fXfXfX6 *.E M , fXfXfXfXfXfXfXfXfXfXfXfXfXfXfXfXfX",
"fXfXfXfXfXfXfXfXfXfXfXfXfXfXfXfXfXfXfX_.XXl.w > fXfXfXfX, (.h % fXfXfXfXfXfXfXfXfXfXfXfXfXfXfXfXfXfX",
"fXfXfXfXfXfXfXfXfXfXfXfXfXfXfXfXfXfXfXa &X[.. fXfXfXfXfX3 j < fXfXfXfXfXfXfXfXfXfXfXfXfXfXfXfXfXfXfX",
"fXfXfXfXfXfXfXfXfXfXfXfXfXfXfXfXfXfX= F.c.y fXfXfXfXfXfX3 ) Z fXfXfXfXfXfXfXfXfXfXfXfXfXfXfXfXfXfXfX",
"fXfXfXfXfXfXfXfXfXfXfXfXfXfXfXfXfXfXH H.: fXfXfXfXfXfXfX1 ^.x m 8 fXfXfXfXfXfXfXfXfXfXfXfXfXfXfXfXfX",
"fXfXfXfXfXfXfXfXfXfXfXfXfXfXfXfXfX; f.c fXfXfXfXfXfXfXfXfXfXfXfXfXfXfXfXfXfXfXfXfXfXfXfXfXfXfXfXfXfX",
"fXfXfXfXfXfXfXfXfXfXfXfXfXfXfXfXfXfXfXfXfXfXfXfXfXfXfXfXfXfXfXfXfXfXfXfXfXfXfXfXfXfXfXfXfXfXfXfXfXfX",
"fXfXfXfXfXfXfXfXfXfXfXfXfXfXfXfXfXfXfXfXfXfXfXfXfXfXfXfXfXfXfXfXfXfXfXfXfXfXfXfXfXfXfXfXfXfXfXfXfXfX",
"fXfXfXfXfXfXfXfXfXfXfXfXfXfXfXfXfXfXfXfXfXfXfXfXfXfXfXfXfXfXfXfXfXfXfXfXfXfXfXfXfXfXfXfXfXfXfXfXfXfX",
"fXfXfXfXfXfXfXfXfXfXfXfXfXfXfXfXfXfXfXfXfXfXfXfXfXfXfXfXfXfXfXfXfXfXfXfXfXfXfXfXfXfXfXfXfXfXfXfXfXfX"
};
