/* XPM */
static char *result[] = {
/* columns rows colors chars-per-pixel */
"50 50 239 2 ",
"   c #060003",
".  c #1E0002",
"X  c #27000B",
"o  c #340007",
"O  c #270011",
"+  c #360015",
"@  c #38001C",
"#  c #070028",
"$  c #0D023B",
"%  c #33012F",
"&  c #45000E",
"*  c #570406",
"=  c #45001D",
"-  c #4C001D",
";  c #480015",
":  c #54011D",
">  c #5A0016",
",  c #63011C",
"<  c #6A021A",
"1  c #770217",
"2  c #78171A",
"3  c #77221A",
"4  c #4C0025",
"5  c #5B0023",
"6  c #560125",
"7  c #4A0638",
"8  c #551631",
"9  c #630023",
"0  c #6B0325",
"q  c #6A002A",
"w  c #790428",
"e  c #640733",
"r  c #760037",
"t  c #7D1D3C",
"y  c #69142F",
"u  c #7C3034",
"i  c #533F2E",
"p  c #584526",
"a  c #674924",
"s  c #0E0F54",
"d  c #350C4D",
"f  c #362C54",
"g  c #053377",
"h  c #1E2161",
"j  c #372E7B",
"k  c #4F1156",
"l  c #7E0042",
"z  c #4E2046",
"x  c #77254A",
"c  c #7B385D",
"v  c #6B3E5C",
"b  c #5E247B",
"n  c #3F616A",
"m  c #63575C",
"M  c #605561",
"N  c #88051A",
"B  c #8E070F",
"V  c #B00E0B",
"C  c #982908",
"Z  c #8C3100",
"A  c #BE2A08",
"S  c #BA2A10",
"D  c #AA2E0D",
"F  c #8C0026",
"G  c #990129",
"H  c #94003D",
"J  c #980433",
"K  c #890E34",
"L  c #A60027",
"P  c #B30827",
"I  c #A30B3A",
"U  c #A80939",
"Y  c #B9053A",
"T  c #B81421",
"R  c #953033",
"E  c #B63F3D",
"W  c #C81B15",
"Q  c #C81202",
"!  c #F11B01",
"~  c #DE2502",
"^  c #D53305",
"/  c #CD2B0C",
"(  c #EA3204",
")  c #CD003B",
"_  c #F90328",
"`  c #BA4800",
"'  c #BF5C00",
"]  c #DC4702",
"[  c #D55400",
"{  c #CA541B",
"}  c #F84902",
"|  c #F95900",
" . c #E05000",
".. c #DB7E00",
"X. c #E86903",
"o. c #FF6700",
"O. c #FF7300",
"+. c #FA7900",
"@. c #F27236",
"#. c #E67722",
"$. c #E5502D",
"%. c #950046",
"&. c #8C0B41",
"*. c #A20144",
"=. c #B90246",
"-. c #B10F48",
";. c #973844",
":. c #953B54",
">. c #8C2B51",
",. c #AB395F",
"<. c #873569",
"1. c #C70249",
"2. c #D30849",
"3. c #C81547",
"4. c #C70452",
"5. c #D4005B",
"6. c #D90355",
"7. c #D41649",
"8. c #E60047",
"9. c #F80349",
"0. c #F8144D",
"q. c #E50054",
"w. c #FC0657",
"e. c #FC1858",
"r. c #E61A5C",
"t. c #FF235B",
"y. c #FF2559",
"u. c #F12352",
"i. c #CA0866",
"p. c #ED1D6D",
"a. c #FF1968",
"s. c #EC0463",
"d. c #FF2963",
"f. c #FF2568",
"g. c #FF3D6B",
"h. c #FC3567",
"j. c #FF3C75",
"k. c #FE3E7B",
"l. c #E52469",
"z. c #D13469",
"x. c #954659",
"c. c #B85247",
"v. c #B24F53",
"b. c #965B63",
"n. c #B25675",
"m. c #9D6175",
"M. c #B46B75",
"N. c #DD5F47",
"B. c #CF6855",
"V. c #D27353",
"C. c #E3795B",
"Z. c #CB5A68",
"A. c #FF4371",
"S. c #FF4D78",
"D. c #FF406D",
"F. c #DD6462",
"G. c #479471",
"H. c #FF8A00",
"J. c #FF9300",
"K. c #FF9C00",
"L. c #F19900",
"P. c #E88A16",
"I. c #FFA400",
"U. c #FFAB00",
"Y. c #FFB400",
"T. c #FFBA00",
"R. c #F49829",
"E. c #FFCB00",
"W. c #F68C56",
"Q. c #FFA55E",
"!. c #FF9967",
"~. c #F79974",
"^. c #FCA572",
"/. c #FFC871",
"(. c #001282",
"). c #003393",
"_. c #2D318D",
"`. c #002CA7",
"'. c #2D20A1",
"]. c #104D93",
"[. c #3E448D",
"{. c #2D4F90",
"}. c #006EAB",
"|. c #2352A6",
" X c #4F558B",
".X c #604B81",
"XX c #666C86",
"oX c #7C7FA1",
"OX c #4B708B",
"+X c #002CCD",
"@X c #005AC4",
"#X c #0070FF",
"$X c #FF3F84",
"%X c #A85F8B",
"&X c #D8588E",
"*X c #FF5B85",
"=X c #FF5E92",
"-X c #E84A8A",
";X c #D36D86",
":X c #FC6289",
">X c #FF6A93",
",X c #FF7798",
"<X c #E76D90",
"1X c #FF7BA5",
"2X c #FF64A2",
"3X c #7D8481",
"4X c #648ABA",
"5X c #02A0DF",
"6X c #7291E5",
"7X c #E8958D",
"8X c #FF8680",
"9X c #FFBA9C",
"0X c #F9AC93",
"qX c #FF89A7",
"wX c #FF96AB",
"eX c #FF96B4",
"rX c #EF98AB",
"tX c #FFA1BD",
"yX c #DD9397",
"uX c #FFC9AC",
"iX c #FFD7AB",
"pX c #FDC9B7",
"aX c #FFD5B2",
"sX c #FFE3BA",
"dX c #91B0D0",
"fX c #FCADC6",
"gX c #C2B7CD",
"hX c #AACCF0",
"jX c #FFC4DA",
"kX c #FAD6C3",
"lX c #FFF5CB",
"zX c #F9F6DB",
"xX c #C3E3FB",
"cX c #DFEFFA",
"vX c #FFFFEA",
"bX c #FDFCF6",
"nX c #EDFFFF",
"mX c #D3D4C9",
"MX c None",
/* pixels */
"MXMXMXMXMXMXMXMXMXMXMXMXMXMXMXMXMXMXMXMXMXMXMXMXMXMXMXMXMXMXMXMXMXMXMXMXMXMXMXMXMXMXMXMXMXMXMXMXMXMX",
"MXMXMXMXMXMXMXMXMXMXMXMXMXMXMXMXMXMXMXMXMXMXMXMXMXMXMXMXMXMXMXMXMXMXMXMXMXMXMXMXMXMXMXMXMXMXMXMXMXMX",
"MXMXMXMXMXMXMXMXMXMXMXMXMXMXMXMXMXMXMXMXMXMXMXMXMXMXMXMXMXMXMXMXMXMXMXMXMXMXMXMXMXMXMXMXMXMXMXMXMXMX",
"MXMXMXMXMXMXMXMXMXMXMXMXMXMXMXMXMXMXMXMXMXMXMXMXMXMXMXMXMXMXMXMXMXMXMXMXMXMXMXMXMXMXMXMXMXMXMXMXMXMX",
"MXMXMXMXMXMXMXMXMXMXMXMXMXMXMXMXMXMXMXMXMXMXMXMXMXMXMXMXMXMXMXMXMXMXMXMXMXMXMXMXMXMXMXMXMXMXMXMXMXMX",
"MXMXMXMXMXMXMXMXMXMXMXMXMXMXMXMXMXMXMXMXMXMXMXMXMXMXMXMXMXMXMXMXMXMXMXMXMXMXMXMXMXMXMXMXMXMXMXMXMXMX",
"MXMXMXMXMXMXMXMXMXMXMXMXMXMXMXMXMXMXMXMX: MXMXMXMXMXMXMXMXMXMXMX9 e e q q MXMXMXMXMXMXMXMXMXMXMXMXMX",
"MXMXMXMXMXMXMXMXMXMXMXMXMXMXMXMXMXMXMXMX9 , MXMXMXMXMXMXMXMXMX1 S.eX,Xd.U + MXMXMXMXMXMXMXMXMXMXMXMX",
"MXMXMXMXMXMXMXMXMXMXMXMXMXMXMXMXMXMXMXMX&.A.1 MXMXMXMXMXMXMXF :X1XA.g.-.MXMXMXMXMXMXMXMXMXMXMXMXMXMX",
"MXMXMXMXMXMXMXMXMXMXMXMXMXMXMXMXMXMXMXMX>.tXg.. MXMXMXMXMXF :XeXh.d.2.  MXMXMXMXMXMXMXMXMXMXMXMXMXMX",
"MXMXMXMXMXMXMXMXMXMXMXMXMXMXMXMXMXMXMXMX1 k.qXx MXMXMXMX9 >XwXe.8.w.%.>.Z.1 MXMXMXMXMXMXMXMXMXMXMXMX",
"MXMXMXMXMXMXMXMXMXMXMXMXMXMXMX= -.-.MXMXMXY ,X<X  y n.m.i.=Xa.8.-X-Xe.-Xk.r.>.* MXMXMXMXMXMXMXMXMXMX",
"MXMXMXMXMXMXMXMXMXMXMXMXMXMXMXMXU A.r.w MX1 >XfX;.,XjX1Xp.) 9.,XwX,Xe.p.&XfXfXh.& MXMXMXMXMXMXMXMXMX",
"MXMXMXMXMXMXMXMXMXMXMXMXMXMXMXMXMXI k.f.I H f.qX=X*XS.9.q.6.,XqXt.0.8.A.wX,XqX=Xe.6 MXMXMXMXMXMXMXMX",
"MXMXMXMXMXMXMXMXMXMXMXMXMXMXMXMXMXMXJ g.j.s.6.y.e.1.e.g.1.=X,Xt.e.s.d.t.w.) G U 3.w - MXMXMXMXMXMXMX",
"MXMXMXMXMXMXMXMXMXMXMXMXMXMXMXMXMXMXMXJ D.d.5.4.1.r.q.6.H rXS.8.4.&.3.%.H -   MXMXMXMXMXMXMXMXMXMXMX",
"MXMXMXMXMXMXMXMXMXMXMXMXMXMXMXMX6 5 : @ 3.f.=.%.t.g.d.5.r h.a.1X<Xr H 1.S.<XF MXMXMXMXMXMXMXMXMXMXMX",
"MXMXMXMXMXMXMXMXMXMXMXMXMXMXMXMX4 *.5.=.q =.%.=.d.*XfXz., =.5.S.,X<X&.w.A.wX>XF MXMXMXMXMXMXMXMXMXMX",
"MXMXMXMXMXMXMXMXMXMXMXMXMXMXMXMXMX9 w 4.s.%.4 Y 0.1XpXW.W.1.4.e.t.>X;X*.w.d.eXv.MXMXMXMXMXMXMXMXMXMX",
"MXMXMXMXMXMXMXMXMXMXMXMXMXMXMXMXMX4 + e i.r u B.Y 2X8X{ iX0X2.w.d.j.u.J a.w.g.*.MXMXMXMXMXMXMXMXMXMX",
"MXMXMXMXMXMXMXMXMXMXMXMXMXMXMX0 K d g s 3 * t /.c.=.l.x ;XlX~.2.a.g.0.O I j.h.L MXMXMXMXMXMXMXMXMXMX",
"MXMXMXMXMXMXMXMXMXMXMXMXMX0 y c.Q.M `.m T.[ e C.V.2 ;XbX%XZ.lX!.=.f.y.MXMXU k.-.MXMXMXMXMXMXMXMXMXMX",
"MXMXMXMXMXMXMXMXMXMXMXMX+ c./.c.c. Xh J.J.o.^ 4 v.!.@.kXnX%XpXC.o r 7.- MXMX3.U MXMXMXMXMXMXMXMXMXMX",
"MXMXMXMXMXMXMXMXMXMXMXMXMXR V.B.V.z X.[ C T.K.^ c.!.W.pXbXbXyX& MXMX= 5 MXMX= - MXMXMXMXMXMXMXMXMXMX",
"MXMXMXMXMXMXMXMXMXMXMXMXMXMXO R C.F Z n OX..U.J.} N.aXbXzX7Xo MXMXMXMXMXMXMXMXMXMXMXMXMXMXMXMXMXMXMX",
"MXMXMXMXMXMXMXMXMXMXMXMXMXMXMXMX+ - XXxXxXp J.U.J.} Z.M.M.: MXMXMXMXMXMXMXMXMXMXMXMXMXMXMXMXMXMXMXMX",
"MXMXMXMXMXMXMXMXMXMXMXMXMXMXMXMXMX: gXhX4Xa K.K.Y.I.B   MXMXMXMXMXMXMXMXMXMXMXMXMXMXMXMXMXMXMXMXMXMX",
"MXMXMXMXMXMXMXMXMXMXMXMXMXMXMXMXMX; oXcXdXp K.K.J.E.` MXMXMXMXMXMXMXMXMXMXMXMXMXMXMXMXMXMXMXMXMXMXMX",
"MXMXMXMXMXMXMXMXMXMXMXMXMXMXMXMXMXMXx dXn [ Y.K.I.U.I.C MXMXMXMXMXMXMXMXMXMXMXMXMXMXMXMXMXMXMXMXMXMX",
"MXMXMXMXMXMXMXMXMXMXMXMXMXMXMXMXMXMX& D / ( O.Y.P. X3XK ; 4 4 MXMXMXMXMXMXMXMXMXMXMXMXMXMXMXMXMXMXMX",
"MXMXMXMXMXMXMXMXMXMXMXMXMXMXMXMXMX: s m } ~ | R.).(.).s [ I.+.: MXMXMXMXMXMXMXMXMXMXMXMXMXMXMXMXMXMX",
"MXMXMXMXMXMXMXMXMXMXMXMXMXMXMXMXMX> _.).f 8 t {.g  X].d O.E.U.0 MXMXMXMXMXMXMXMXMXMXMXMXMXMXMXMXMXMX",
"MXMXMXMXMXMXMXMXMXMXMXMXMXMXMXMXMX: ^ .X@X_.# z !.^.<.` T.Y.J.4 MXMXMXMXMXMXMXMXMXMXMXMXMXMXMXMXMXMX",
"MXMXMXMXMXMXMXMXMXMXMXMXMXMXMXMX% X.o.$.|.s y ;.F.bXM.D T.J.] 0 MXMXMXMXMXMXMXMXMXMXMXMXMXMXMXMXMXMX",
"MXMXMXMXMXMXMXMXMXMXMXMXMXMXMXMX3 O.O.H.].# v.7Xn.zXx.B ( W L ^ < MXMXMXMXMXMXMXMXMXMXMXMXMXMXMXMXMX",
"MXMXMXMXMXMXMXMXMXMXMXMXMXMXMX@ [ o.J.I.|.# x.0X~.M.* L r r T } 0 MXMXMXMXMXMXMXMXMXMXMXMXMXMXMXMXMX",
"MXMXMXMXMXMXMXMXMXMXMX9 e F N 7 / K.U.L.[.X :.uX@.y B ! V Q } S 6 MXMXMXMXMXMXMXMXMXMXMXMXMXMXMXMXMX",
"MXMXMXMXMXMXMXMXMXMXMX< P ^ T G +.Y.I.I.[.O ;.lXv.X > x.$.V.R - MXMXMXMXMXMXMXMXMXMXMXMXMXMXMXMXMXMX",
"MXMXMXMXMXMXMXMXMXMX% k ~ W r / J.U.U.#.|.X >.vX7Xo * }.-X<.$ MXMXMXMXMXMXMXMXMXMXMXMXMXMXMXMXMXMXMX",
"MXMXMXMXMXMXMXMXMXMXd +Xc.~ r W J.T.O.o.k o x hX%XMXMX}.-XV MXMXMXMXMXMXMXMXMXMXMXMXMXMXMXMXMXMXMXMX",
"MXMXMXMXMXMXMXMXMX< ' m f / P V o.O.+.` MXMXk #X_.MXMXf R.D MXMXMXMXMXMXMXMXMXMXMXMXMXMXMXMXMXMXMXMX",
"MXMXMXMXMXMXMXMXMXz b.Q + 4 ^ W G P | < MXMXd 6XmXx.MXMXG.F.1 @ MXMXMXMXMXMXMXMXMXMXMXMXMXMXMXMXMXMX",
"MXMXMXMXMXMXMXMXMXd '.G > MX6 S ^ L q MXMXMXc uXQ.uXb.o }.5X0._ 9 MXMXMXMXMXMXMXMXMXMXMXMXMXMXMXMXMX",
"MXMXMXMXMXMXMXMXMXMXMXb N MXMX, N 0 MXMXMXMX:.lX!.9X9X~.<.MXMXMXMXMXMXMXMXMXMXMXMXMXMXMXMXMXMXMXMXMX",
"MXMXMXMXMXMXMXMXMXMXMXMXMXMXMXMXMXMXMXMXMXMXMXMXMXMXMXMXMXMXMXMXMXMXMXMXMXMXMXMXMXMXMXMXMXMXMXMXMXMX",
"MXMXMXMXMXMXMXMXMXMXMXMXMXMXMXMXMXMXMXMXMXMXMXMXMXMXMXMXMXMXMXMXMXMXMXMXMXMXMXMXMXMXMXMXMXMXMXMXMXMX",
"MXMXMXMXMXMXMXMXMXMXMXMXMXMXMXMXMXMXMXMXMXMXMXMXMXMXMXMXMXMXMXMXMXMXMXMXMXMXMXMXMXMXMXMXMXMXMXMXMXMX",
"MXMXMXMXMXMXMXMXMXMXMXMXMXMXMXMXMXMXMXMXMXMXMXMXMXMXMXMXMXMXMXMXMXMXMXMXMXMXMXMXMXMXMXMXMXMXMXMXMXMX",
"MXMXMXMXMXMXMXMXMXMXMXMXMXMXMXMXMXMXMXMXMXMXMXMXMXMXMXMXMXMXMXMXMXMXMXMXMXMXMXMXMXMXMXMXMXMXMXMXMXMX",
"MXMXMXMXMXMXMXMXMXMXMXMXMXMXMXMXMXMXMXMXMXMXMXMXMXMXMXMXMXMXMXMXMXMXMXMXMXMXMXMXMXMXMXMXMXMXMXMXMXMX"
};
