/* XPM */
static char *result[] = {
/* columns rows colors chars-per-pixel */
"50 50 232 2 ",
"   c #010103",
".  c #02050B",
"X  c #060506",
"o  c #1B0005",
"O  c #050612",
"+  c #120212",
"@  c #1E0314",
"#  c #1A0C16",
"$  c #180816",
"%  c #131016",
"&  c #071516",
"*  c #270009",
"=  c #350108",
"-  c #2A0316",
";  c #280618",
":  c #34031B",
">  c #3C021C",
",  c #380014",
"<  c #23111F",
"1  c #060027",
"2  c #16022C",
"3  c #0C0C2C",
"4  c #3A0628",
"5  c #2E1A2A",
"6  c #271625",
"7  c #361628",
"8  c #200433",
"9  c #37133A",
"0  c #29263C",
"q  c #46021A",
"w  c #540219",
"e  c #4F0301",
"r  c #76020C",
"t  c #680014",
"y  c #74011A",
"u  c #7E181D",
"i  c #4C0223",
"p  c #49052A",
"a  c #530123",
"s  c #570326",
"d  c #4A0934",
"f  c #481439",
"g  c #57112E",
"h  c #6C0125",
"j  c #650624",
"k  c #78052B",
"l  c #790136",
"z  c #66132B",
"x  c #502D38",
"c  c #792537",
"v  c #764C31",
"b  c #0A0E45",
"n  c #391359",
"m  c #2C094C",
"M  c #393347",
"N  c #001A79",
"B  c #0D0662",
"V  c #350E65",
"C  c #18387C",
"Z  c #182D6D",
"A  c #4F114D",
"S  c #4A2B42",
"D  c #4F2B4C",
"F  c #732543",
"G  c #6C2F4B",
"H  c #4D2263",
"J  c #642677",
"K  c #5C186E",
"L  c #514275",
"P  c #725370",
"I  c #8A0217",
"U  c #9A001A",
"Y  c #93100D",
"T  c #A40119",
"R  c #B50A18",
"E  c #B7100C",
"W  c #982D13",
"Q  c #BB2801",
"!  c #A43907",
"~  c #B12217",
"^  c #880129",
"/  c #99022B",
"(  c #840638",
")  c #8F1033",
"_  c #A2052E",
"`  c #B80723",
"'  c #A80538",
"]  c #B61135",
"[  c #8C2834",
"{  c #872E26",
"}  c #AE3635",
"|  c #CB1918",
" . c #C2011F",
".. c #E21A04",
"X. c #C43B00",
"o. c #D22A10",
"O. c #C3083D",
"+. c #E5003F",
"@. c #C03B2E",
"#. c #B74900",
"$. c #BA512F",
"%. c #DB5600",
"&. c #CA5600",
"*. c #F94800",
"=. c #ED5600",
"-. c #F55408",
";. c #FF6B00",
":. c #F86508",
">. c #FF7300",
",. c #FF7D00",
"<. c #EC6917",
"1. c #CA4B33",
"2. c #D3703C",
"3. c #E06227",
"4. c #9A0141",
"5. c #921E4B",
"6. c #B50548",
"7. c #AA0C4A",
"8. c #B23158",
"9. c #DB0548",
"0. c #D7025A",
"q. c #CC0350",
"w. c #E70449",
"e. c #FB024A",
"r. c #E4124A",
"t. c #E80358",
"y. c #FB0855",
"u. c #FF195B",
"i. c #DA2E5E",
"p. c #FF235A",
"a. c #D6186A",
"s. c #FD1663",
"d. c #F2156E",
"f. c #DB386E",
"g. c #FF246C",
"h. c #FF2868",
"j. c #FC3665",
"k. c #FF3C74",
"l. c #FF3A76",
"z. c #EC367C",
"x. c #A4465D",
"c. c #B3574C",
"v. c #B76048",
"b. c #AA5867",
"n. c #AB5270",
"m. c #B3606E",
"M. c #925B5B",
"N. c #CF6B52",
"B. c #FE6F4A",
"V. c #CC5078",
"C. c #FF4678",
"Z. c #F3466E",
"A. c #CD7572",
"S. c #D87B73",
"D. c #CF6B69",
"F. c #D15C4B",
"G. c #FF8500",
"H. c #FF8B00",
"J. c #FF9300",
"K. c #FF9B00",
"L. c #FFAD00",
"P. c #FFB300",
"I. c #FFB900",
"U. c #D68F38",
"Y. c #FFC000",
"T. c #FFEC2A",
"R. c #9F865A",
"E. c #948361",
"W. c #AF895B",
"Q. c #D78448",
"!. c #CC9545",
"~. c #FF965E",
"^. c #FA854F",
"/. c #CE8877",
"(. c #FF9B6A",
"). c #FEAC73",
"_. c #001A8B",
"`. c #032A8A",
"'. c #04388B",
"]. c #003697",
"[. c #082891",
"{. c #0030A1",
"}. c #252A8E",
"|. c #4D3394",
" X c #005595",
".X c #0042B5",
"XX c #524D8E",
"oX c #66578C",
"OX c #0073FF",
"+X c #CE3885",
"@X c #B77C8D",
"#X c #9F6BB1",
"$X c #987589",
"%X c #D15A82",
"&X c #C85A80",
"*X c #FA4689",
"=X c #FF5A86",
"-X c #FE5993",
";X c #C76F86",
":X c #FF678C",
">X c #FF6591",
",X c #FF7597",
"<X c #FF768E",
"1X c #FF6CA6",
"2X c #5485B7",
"3X c #9E98BA",
"4X c #938E88",
"5X c #D08A8E",
"6X c #F88F8C",
"7X c #EEA997",
"8X c #C69DA5",
"9X c #FF84A4",
"0X c #FF96AD",
"qX c #FF9CBA",
"wX c #FFA3BD",
"eX c #F1BAB1",
"rX c #FFCBA2",
"tX c #FDD1B4",
"yX c #FFFDB8",
"uX c #9D9AD2",
"iX c #BF99C1",
"pX c #FFA5C5",
"aX c #FFB8CE",
"sX c #FFBCD3",
"dX c #D2C5D6",
"fX c #FFD8C5",
"gX c #FED0DD",
"hX c #F9EBCD",
"jX c #FFF0D0",
"kX c #FAFCFB",
"lX c #FFF6E2",
"zX c None",
/* pixels */
"zXzXzXzXzXzXzXzXzXzXzXzXzXzXzXzXzXzXzXzXzXzXzXzXzXzXzXzXzXzXzXzXzXzXzXzXzXzXzXzXzXzXzXzXzXzXzXzXzXzX",
"zXzXzXzXzXzXzXzXzXzXzXzXzXzXzXzXzXzXzXzXzXzXzXzXzX# zXzXzXzXzXzXzXzXzXzXzXzXzXzXzXzXzXzXzXzXzXzXzXzX",
"zXzXzXzXzXzXzXzXzXzXzXzXzXzXzXzXzXzXzXzXzXzXzXzXzXzXzXzXzXzXzXzXzXzXzXzXzXzXzXzXzXzXzXzXzXzXzXzXzXzX",
"zXzXzXzXzXzXzXzXzXzXzXzXzXzXzXzXzXzXzXzXzXzXzXzXzXzXzXzXzXzXzXzXzXzXzXzXzXzXzXzXzXzXzXzXzXzXzXzXzXzX",
"zXzXzXzXzXzXzXzXzXzXzXzXzXzXzXzXzXzXzXzXzXzXzXzXzXzXzXzXzXzXzXzXzXzXzXzXzXzXzXzXzXzXzXzXzXzXzXzXzXzX",
"zXzXzXzXzXzXzXzXzXzXzXzXzXzXzXzXzXzXzXzXzXzXzXzXzXzXzX% @ % zXzXzXzXzXzX# # zXzXzXzXzXzXzXzXzXzXzXzX",
"zXzXzXzXzXzXzXzXzXzXzXzXzXzXzXzXzXzXzXzXzXzXzXzXzXzXzX* ^ : zXzXzXzXzXzXzXzXzXzXzXzXzXzXzXzXzXzXzXzX",
"zXzXzXzXzXzXzXzXzXzXzXzXzXzXzXzXzXzXzXzXzXzXzXzXzXzX  V.k., zXzXzXzXzXzXzXzXzXzXzXzXzXzXzXzXzXzXzXzX",
"zXzXzXzXzXzXzXzXzXzXzXzXzXzXzXzXzXzXzX# # zXzXzXzX* ] qXl.* % zXzXzXzXzXzXzXzXzXzXzXzXzXzXzXzXzXzXzX",
"zXzXzXzXzXzXzXzXzXzXzXzXzXzXzXzXzXzXzX# zXzXzX%   ^ pX,Xe.@ + -       O zXzXzXzXzXzXzXzXzXzXzXzXzXzX",
"zXzXzXzXzXzXzXzXzXzXzXzXzXzXzXzXzXzXzXzXzXzXzXO = Z.pXh.w.X k _ 7.;Xi.+.a ; zXzXzXzXzXzXzXzXzXzXzXzX",
"zXzXzXzXzXzXzXzXzXzXzXzXzXzXzXzX> zXzXzXzXzXzX  l pX:Xw.0.q.p.6.wXaXC.q.: @ zXzXzXzXzXzXzXzXzXzXzXzX",
"zXzXzXzXzXzXzXzXzXzXzXzXzXzXzX% h s . zXzXzX& = a.sX>X9.t.u.>Xn.,Xg._ . zXzXzXzXzXzXzXzXzXzXzXzXzXzX",
"zXzXzXzXzXzXzXzXzXzXzXzXzXzXzXO k h.w zXzXzX  * a.aX:Xw.y.Z.1X8.e.( . O zXzXzXzXzXzXzXzXzXzXzXzXzXzX",
"zXzXzXzXzXzXzXzXzXzXzXzXzXzXzXO - r.-Xx   t z.&Xa.aX<X+.j.0Xj.k s . + a ; zXzXzXzXzXzXzXzXzXzXzXzXzX",
"zXzXzXzXzXzXzXzXzXzXzXzXzXzX> @   w *X9Xp 5.gX9Xu.C.h.0.>Xk.^ ' w $ r.' O zXzXzXzXzXzXzXzXzXzXzXzXzX",
"zXzXzXzXzXzXzXzXzXzXzXzXzXzX, ' k   / C.,X,XC.t.e.e.w.z.=Xs.+Xy.u.h.h.j zXzXzXzXzXzXzXzXzXzXzXzXzXzX",
"zXzXzXzXzXzXzXzXzXzXzXzXzXzXO 6.d.q.4.0.s.g.w.s.=Xt.p.wX*Xs.0X-Xh.h.j   zXzXzXzXzXzXzXzXzXzXzXzXzXzX",
"zXzXzXzXzXzXzXzXzXzXzXzXzXzXzX. ] l.l.u.0.l 9.,X>X0.s.,X%Xf.y.>Xh.k . zXzXzXzXzXzXzXzXzXzXzXzXzXzXzX",
"zXzXzXzXzXzXzXzXzXzXzXzXzXzXzXzX  s u.j.q.s %X1Xw.F.` s.s.=Xx.t t.' ; zXzXzXzXzXzXzXzXzXzXzXzXzXzXzX",
"zXzXzXzXzXzXzXzXzXzXzXzXzXzXzX; ; s 4.( h w n.>X1.} x._ C.9Xx.  > h q @ zXzXzXzXzXzXzXzXzXzXzXzXzXzX",
"zXzXzXzXzXzXzXzXzXzXzXzXzXzXzX: s 4.0.6.[ Q._ B.2.@XkX;X/.fXc   & O $ zXzXzXzXzXzXzXzXzXzXzXzXzXzXzX",
"zXzXzXzXzXzXzXzXzXzXzXzXzXzXzXzXzX. i ( l (.v.c.^.7XkXkXhX5X  zXzXzXzX5 zXzXzXzXzXzXzXzXzXzXzXzXzXzX",
"zXzXzXzXzXzXzXzXzXzXzXzXzXzXzXzXzXzXzXX p z c N.~.^.7XlXkXD.X zXzXzXzX5 5 zXzXzXzXzXzXzXzXzXzXzXzXzX",
"zXzXzXzXzXzXzXzXzXzXzXzXzXzXzXzXzXzXzXzX6 1 O [ N.~.tXlXm.+ & zXzXzXzX5 zXzXzXzXzXzXzXzXzXzXzXzXzXzX",
"zXzXzXzXzXzXzXzXzXzXzXzXzXzX5 zXzX5 i i w Q $.D.1.c.5XS.r % 4 7 5 zXzXzXzXzXzXzXzXzXzXzXzXzXzXzXzXzX",
"zXzXzXzXzXzXzXzXzXzXzXzXzXzX5 zXzXq A }.P ,.G.).fX7X} A.).;.x.m < zXzXzXzXzXzXzXzXzXzXzXzXzXzXzXzXzX",
"zXzXzXzXzXzXzXzXzXzXzXzXzXzXzXzXzXq n '.N M.;.<.dXgXeX5XuX!.W.m , zXzXzXzXzXzXzXzXzXzXzXzXzXzXzXzXzX",
"zXzXzXzXzXzXzXzXzXzXzXzXzXzXzXzXzX; G 3XXXv Y.G.P `. X'._.4X/.8 zXzXzXzXzXzXzXzXzXzXzXzXzXzXzXzXzXzX",
"zXzXzXzXzXzXzXzXzXzXzXzXzXzXzXzX5 : 1.yXdXY >.>.>.M.B b 1 2X$Xo zXzXzXzXzXzXzXzXzXzXzXzXzXzXzXzXzXzX",
"zXzXzXzXzXzXzXzXzXzXzXzXzXzXzXzXX G rX~.F y ..>.*.,.E..XR.&.d j 6 zXzXzXzXzXzXzXzXzXzXzXzXzXzXzXzXzX",
"zXzXzXzXzXzXzXzXzXzXzXzXzXzXzXzX* N.hXc   7 a w 8.3.J.H.J.X.5XM.@ zXzXzXzXzXzXzXzXzXzXzXzXzXzXzXzXzX",
"zXzXzXzXzXzXzXzXzXzXzXzXzXzXzX< w iXP o zXzX3 8 ].C Y W e D 8XoX- < zXzXzXzXzXzXzXzXzXzXzXzXzXzXzXzX",
"zXzXzXzXzXzXzXzXzXzXzXzXzXzXzXq A OX|.= zXzX8 ! &.G `.].L I B oXm., zXzXzXzXzXzXzXzXzXzXzXzXzXzXzXzX",
"zXzXzXzXzXzXzXzXzXzXzXzXzXzXzXq A.fXeXm.7 zX4 =.,.Q.'.].F.=.[ 6X7X> zXzXzXzXzXzXzXzXzXzXzXzXzXzXzXzX",
"zXzXzXzXzXzXzXzXzXzXzXzXzXzXzXq hXyX1.m.F ; %.H.K.U.`.[.@.I.! eXtX, zXzXzXzXzXzXzXzXzXzXzXzXzXzXzXzX",
"zXzXzXzXzXzXzXzXzXzXzXzXzXzXzX7 x.6XrXc O Y J.L.L.U.`.[.} P.&.n.x.; zXzXzXzXzXzXzXzXzXzXzXzXzXzXzXzX",
"zXzXzXzXzXzXzXzXzXzXzXzXzXzXzXzX  : ;XD @ %.L.L.H.2.`.[.} P.J.e 1 zXzXzXzXzXzXzXzXzXzXzXzXzXzXzXzXzX",
"zXzXzXzXzXzXzXzXzXzXzXzXzXzXzXzXzXzX2 i ^ ;.I.J.;.v.]. X<.J.I.u m zXzXzXzXzXzXzXzXzXzXzXzXzXzXzXzXzX",
"zXzXzXzXzXzXzXzXzXzXzXzXzXzXzXzXzXzXz E ` =.H.;.Q D Z H <.H.H.` h D zXzXzXzXzXzXzXzXzXzXzXzXzXzXzXzX",
"zXzXzXzXzXzXzXzXzXzXzXzXzXzXzXzXzX9 Q | ^ *.| T d M s I ` o./  .o.p zXzXzXzXzXzXzXzXzXzXzXzXzXzXzXzX",
"zXzXzXzXzXzXzXzXzXzXzXzXzXzXzXzXzXm ~ ..^ / _ R j M f I | T _ o.T d zXzXzXzXzXzXzXzXzXzXzXzXzXzXzXzX",
"zXzXzXzXzXzXzXzXzXzXzXzXzXzXzXzXzXx h } ~ E | R p zXzXs ) c.o.T p zXzXzXzXzXzXzXzXzXzXzXzXzXzXzXzXzX",
"zXzXzXzXzXzXzXzXzXzXzXzXzXzXzXzXzXzXp  XA.$.T d zXzXzXzXd {.K r M zXzXzXzXzXzXzXzXzXzXzXzXzXzXzXzXzX",
"zXzXzXzXzXzXzXzXzXzXzXzXzXzXzXzXzXzX4 7.#XC 4 S zXzXzXzXg A H g zXzXzXzXzXzXzXzXzXzXzXzXzXzXzXzXzXzX",
"zXzXzXzXzXzXzXzXzXzXzXzXzXzXzXzXzXzXx -.P 5 D zXzXzXzXzXd c u x zXzXzXzXzXzXzXzXzXzXzXzXzXzXzXzXzXzX",
"zXzXzXzXzXzXzXzXzXzXzXzXzXzXzXzXzXb #.T.x S zXzXzXzXzXzXg H J r x zXzXzXzXzXzXzXzXzXzXzXzXzXzXzXzXzX",
"zXzXzXzXzXzXzXzXzXzXzXzXzXzXzXzXM y f.XX9 zXzXzXzXzXzXzXzXzX.XV g zXzXzXzXzXzXzXzXzXzXzXzXzXzXzXzXzX",
"zXzXzXzXzXzXzXzXzXzXzXzXzXzXzXzX0  .8.b zXzXzXzXzXzXzXzXzXzXzXzXzXzXzXzXzXzXzXzXzXzXzXzXzXzXzXzXzXzX",
"zXzXzXzXzXzXzXzXzXzXzXzXzXzXzXzXzXzXzXzXzXzXzXzXzXzXzXzXzXzXzXzXzXzXzXzXzXzXzXzXzXzXzXzXzXzXzXzXzXzX"
};
