/* XPM */
static char *result[] = {
/* columns rows colors chars-per-pixel */
"50 50 236 2 ",
"   c #050001",
".  c #1B0004",
"X  c #1E000F",
"o  c #2B000D",
"O  c #280001",
"+  c #3F0008",
"@  c #2A0017",
"#  c #330017",
"$  c #390019",
"%  c #1C002B",
"&  c #290028",
"*  c #3D0028",
"=  c #320034",
"-  c #1B2D3F",
";  c #46000C",
":  c #550005",
">  c #42001B",
",  c #4D001E",
"<  c #4B0116",
"1  c #5A001C",
"2  c #65011E",
"3  c #6B0419",
"4  c #77021A",
"5  c #73000B",
"6  c #782219",
"7  c #4C0125",
"8  c #540122",
"9  c #5C0024",
"0  c #55002A",
"q  c #5E1936",
"w  c #660227",
"e  c #77022B",
"r  c #750034",
"t  c #790337",
"y  c #6B183B",
"u  c #71112D",
"i  c #72272A",
"p  c #7B473C",
"a  c #0C104D",
"s  c #30124C",
"d  c #17225B",
"f  c #2D2653",
"g  c #000968",
"h  c #081173",
"j  c #00257E",
"k  c #003679",
"l  c #11356A",
"z  c #363E6B",
"x  c #521049",
"c  c #6C2F4C",
"v  c #523874",
"b  c #723C64",
"n  c #45265F",
"m  c #584259",
"M  c #4E5578",
"N  c #6C5473",
"B  c #775E5B",
"V  c #980608",
"C  c #870219",
"Z  c #931A15",
"A  c #8E1315",
"S  c #BB171A",
"D  c #AB0F0D",
"F  c #992E13",
"G  c #B82806",
"H  c #A52312",
"J  c #B82F0E",
"K  c #84012F",
"L  c #8A0427",
"P  c #9A032A",
"I  c #840038",
"U  c #970537",
"Y  c #951A2F",
"T  c #A80327",
"R  c #AA0439",
"E  c #B8063A",
"W  c #902E3A",
"Q  c #A52C33",
"!  c #C61A16",
"~  c #CF1408",
"^  c #D32A0A",
"/  c #CD2A13",
"(  c #CC320C",
")  c #EA3A01",
"_  c #B45112",
"`  c #9F6600",
"'  c #B17000",
"]  c #9E4032",
"[  c #BB4C3A",
"{  c #8A450E",
"}  c #D14B0B",
"|  c #E74907",
" . c #FE4C00",
".. c #F94400",
"X. c #EA5709",
"o. c #FD5700",
"O. c #CE6C02",
"+. c #ED6A00",
"@. c #FF6300",
"#. c #F76A00",
"$. c #FF7300",
"%. c #FF7B00",
"&. c #E57706",
"*. c #C44A36",
"=. c #C9563A",
"-. c #8B0041",
";. c #9F0C46",
":. c #A70048",
">. c #BA0649",
",. c #B50F4D",
"<. c #91334E",
"1. c #AA334E",
"2. c #C9054A",
"3. c #DB0045",
"4. c #DC174C",
"5. c #CD005A",
"6. c #C40152",
"7. c #DA0256",
"8. c #CF1253",
"9. c #E3074E",
"0. c #FA0149",
"q. c #F8154E",
"w. c #EA0858",
"e. c #FB0B55",
"r. c #FE1559",
"t. c #EA1551",
"y. c #CE2D5B",
"u. c #FF275A",
"i. c #FD2758",
"p. c #FD2B56",
"a. c #DD0D64",
"s. c #FB0068",
"d. c #F51866",
"f. c #FF2D63",
"g. c #FF2768",
"h. c #FF3564",
"j. c #FF3C6B",
"k. c #FF3467",
"l. c #FF2B72",
"z. c #FF3A77",
"x. c #D9236C",
"c. c #974757",
"v. c #9D4D4F",
"b. c #B24F4C",
"n. c #B96544",
"m. c #A96355",
"M. c #9B5463",
"N. c #B05165",
"B. c #B0676C",
"V. c #D4554A",
"C. c #F14E4F",
"Z. c #CE6A50",
"A. c #E46D4F",
"S. c #D5547D",
"D. c #FD4676",
"F. c #FF577D",
"G. c #E14065",
"H. c #C7736F",
"J. c #A99436",
"K. c #FF8B00",
"L. c #FF8300",
"P. c #FF9400",
"I. c #FF9B00",
"U. c #FFA400",
"Y. c #FFAB00",
"T. c #FFB300",
"R. c #FFBB00",
"E. c #E8A912",
"W. c #D98725",
"Q. c #8F897D",
"!. c #FF9256",
"~. c #F98554",
"^. c #FFAF55",
"/. c #EC8768",
"(. c #FBA86E",
"). c #FFCD73",
"_. c #001C90",
"`. c #0C2D8C",
"'. c #2D388E",
"]. c #003DA2",
"[. c #6E1A8D",
"{. c #1F479B",
"}. c #2B4699",
"|. c #005AA7",
" X c #4B4E92",
".X c #5D6693",
"XX c #5D6CA7",
"oX c #FF3D85",
"OX c #917FA5",
"+X c #AD7B84",
"@X c #FF5886",
"#X c #EB538E",
"$X c #D77591",
"%X c #FF6389",
"&X c #FF7395",
"*X c #FE789B",
"=X c #F56A8E",
"-X c #FF7FAD",
";X c #D45982",
":X c #00A08A",
">X c #00C1AF",
",X c #009AD2",
"<X c #00AEFA",
"1X c #3789CF",
"2X c #6995EB",
"3X c #AEADA0",
"4X c #D68D86",
"5X c #CF9293",
"6X c #FA9093",
"7X c #D3AE99",
"8X c #FDB697",
"9X c #F8B290",
"0X c #FF88A6",
"qX c #FF94AD",
"wX c #FE99B6",
"eX c #EB9BAB",
"rX c #E5B4A6",
"tX c #C9A5A2",
"yX c #FFDC9F",
"uX c #FFD3A6",
"iX c #FFCEB5",
"pX c #FFF7B7",
"aX c #C9CBBD",
"sX c #A2A4D0",
"dX c #DBBECF",
"fX c #FFAEC3",
"gX c #FFB2C6",
"hX c #B2DEF8",
"jX c #F4D3C8",
"kX c #FDE5D8",
"lX c #FFFAD6",
"zX c #FFF3C4",
"xX c #FFDDEA",
"cX c #FDFFFD",
"vX c #E9F2F5",
"bX c None",
/* pixels */
"bXbXbXbXbXbXbXbXbXbXbXbXbXbXbXbXbXbXbXbXbXbXbXbXbXbXbXbXbXbXbXbXbXbXbXbXbXbXbXbXbXbXbXbXbXbXbXbXbXbX",
"bXbXbXbXbXbXbXbXbXbXbXbXbXbXbXbXbXbXbXbXbXbXbXbXbXbXbXbXbXbXbXbXbXbXbXbXbXbXbXbXbXbXbXbXbXbXbXbXbXbX",
"bXbXbXbXbXbXbXbXbXbXbXbXbXbXbXbXbXbXbXbXbXbXbXbXbXbXbXbXbXbXbXbXbXbXbXbXbXbXbXbXbXbXbXbXbXbXbXbXbXbX",
"bXbXbXbXbXbXbXbXbXbXbXbXbXbXbXbXbXbXbXbXbXbXbXbXbXbXbXbXbXbXbXbXbXbXbXbXbXbXbXbXbXbXbXbXbXbXbXbXbXbX",
"bXbXbXbXbXbXbXbXbXbXbXbXbXbXbXbXbXbXbXbXbXbXbXbXbXbXbXbXbXbXbXbXbXbXbXbXbXbXbXbXbXbXbXbXbXbXbXbXbXbX",
"bXbXbXbXbXbXbXbXbXbXbXbXbXbXbXbXbXbXbXbXbXbXbXbXbXbXbXbXbXw t e 8 9 bXbXbXbXbXbXbXbXbXbXbXbXbXbXbXbX",
"bXbXbXbXbXbXbXbXbXbXbXbXbXbXbXbXbXbXbXbXbXbXbXbXbXbXbXbXP &X*XE bXbXbXbXbXbXbXbXbXbXbXbXbXbXbXbXbXbX",
"bXbXbXbXbXbXbXbXbXbXbXbXbXbXbXbXbXbXbXbXbXbXbXbXbXbXbXR *X-X4.> bXbXbXbXbXbXbXbXbXbXbXbXbXbXbXbXbXbX",
"bXbXbXbXbXbXbXbXbXbXbXbXbXbXbXbXbXbXbXbXbXbXbXbXbXbXC %XqXr.I bXbXU c U : bXbXbXbXbXbXbXbXbXbXbXbXbX",
"bXbXbXbXbXbXbXbXbXbXbXbXbXbXbXbXbXbXbXbXbXbXbXbXbX$ &XwXg.t.X bXj.gXxXwX;X;.< bXbXbXbXbXbXbXbXbXbXbX",
"bXbXbXbXbXbXbXbXbXbXbXbXbXbXbXbXbXbXbXbXbXbXbXbXbXR fX*Xg.2.  C D.$XS.*XwX@Xt.w bXbXbXbXbXbXbXbXbXbX",
"bXbXbXbXbXbXbXbXbXbXbXbXbXbXbXbXbXbXbXbXbXbXbXbXw &XwXh.r.U y.;X3.L 1 e.k.4.4.K > bXbXbXbXbXbXbXbXbX",
"bXbXbXbXbXbXbXbXbXbXbXbXbXbXbXbXbXbXbXbXbXbXbXbXw gXfXk.3.l.wX&Xu.2.h.l.7.$ bXbXbXbXbXbXbXbXbXbXbXbX",
"bXbXbXbXbXbXbXbXbXbXbXbXbXbXw , # bXbXbXbXbXbXO > gXgXw.t.qXF.r.I ;.z.>.# bXbXbXbXbXbXbXbXbXbXbXbXbX",
"bXbXbXbXbXbXbXbXbXbXbXbXbXbX$ U f.U . bXbXbXE #X4X@XD.x.qXF.e.6.-.w.>.$ bXbXbXbXbXbXbXbXbXbXbXbXbXbX",
"bXbXbXbXbXbXbXbXbXbXbXbXbXbXbXw q.%XwX<.O O $XwXoXw.0.d.F.e.7.-.-.s.t o , bXbXbXbXbXbXbXbXbXbXbXbXbX",
"bXbXbXbXbXbXbXbXbXbXbXbXbXbXbXbX. y.&X&XeXD.j.a.0.r.2.a.wX&X6.:.r :.w.u.u.e bXbXbXbXbXbXbXbXbXbXbXbX",
"bXbXbXbXbXbXbXbXbXbXbXbXbX8 9 e $ t 0.a.@XD.w.e.h.h.r.a.D.*X#X3.%X$X5.e.l.j.U bXbXbXbXbXbXbXbXbXbXbX",
"bXbXbXbXbXbXbXbXbXbXbXbXbXbXe u.u.g.l.w.7.7.t i.j.qXqXa.0.u.*X%Xr.0X#X7.u.k.f.t bXbXbXbXbXbXbXbXbXbX",
"bXbXbXbXbXbXbXbXbXbXbXbXbXbXbXw >.h.u.g.g.6.w t.z.gX(.A.7.e.j.z.9.i.0XN.; 9 e w 8 bXbXbXbXbXbXbXbXbX",
"bXbXbXbXbXbXbXbXbXbXbXbXbXbXbXbXbXo t 5.6.:.5.U 9.qX(.^./.a.0.6XQ.4 D.;.bXbXbXbXbXbXbXbXbXbXbXbXbXbX",
"bXbXbXbXbXbXbXbXbXbXbXbXbXbXbXbXbX:.I :.w u ;.5.8.9.=.! A.jX0.0X3X  E E bXbXbXbXbXbXbXbXbXbXbXbXbXbX",
"bXbXbXbXbXbXbXbXbXbXbXbXbXbXbX> K 2.5.s.w n.n.I A.Q 4 <.1.rXjX%XM.bXbX> bXbXbXbXbXbXbXbXbXbXbXbXbXbX",
"bXbXbXbXbXbXbXbXbXbXbXbXbXbXbXbX@ @ C :.= n.).i Z.!.<.cXvXQ 8X7XO bXbXbXbXbXbXbXbXbXbXbXbXbXbXbXbXbX",
"bXbXbXbXbXbXbXbXbXbXbXbXbXO bXA m g s <.G Y W W A.!.n.vXcXdXrXrX; bXbXbXbXc.4Xq bXbXbXbXbXbXbXbXbXbX",
"bXbXbXbXbXbXbXbXbXbXbXbXu 7XM.m.lXXX_.J.K.H u ] b.~.!.9XkXcXkXc.& 1 bXbXO aXlX[ O bXbXbXbXbXbXbXbXbX",
"bXbXbXbXbXbXbXbXbXbXbXO c.cXB.# 9XhX_.` o./.pXyX4Xb.~.9XlXiX<.a - ; bXbXc.5X9XuX4X8 bXbXbXbXbXbXbXbX",
"bXbXbXbXbXbXbXbXbXbXbXw B.H.=.b.N.B a ' I.+X2XsXjXA.*./.H.A.{ g c Q bXbXtXB.V.uXlXy bXbXbXbXbXbXbXbX",
"bXbXbXbXbXbXbXbXbXbXbXy lX4X=.pX3X. bXJ Y.U.d g .XOX X`.n K.' {.zX6X< o w A.9XiXc.bXbXbXbXbXbXbXbXbX",
"bXbXbXbXbXbXbXbXbXbXbX, N.B.1 <.<.bXbX7 &.P.+.f g j g |.hX^.V m cX5XW A.c v 8XH.bXbXbXbXbXbXbXbXbXbX",
"bXbXbXbXbXbXbXbXbXbXbXbX6 V.7 bXbXbXbX& O.U.@.%.M |.z W.vXsX: ; tX5X1 Q b `.y bXbXbXbXbXbXbXbXbXbXbX",
"bXbXbXbXbXbXbXbXbXbXbXbXbXu 8 bXbXbXbXbX8 ( | K.I.K.K.%.W.q bXbX7 _ P.K.F * bXbXbXbXbXbXbXbXbXbXbXbX",
"bXbXbXbXbXbXbXbXbXbXbXbXbXbXbXw w 2 2 bXbX# l v.) ..|  X+ bX7 A @.P.T.R.$.3 bXbXbXbXbXbXbXbXbXbXbXbX",
"bXbXbXbXbXbXbXbXbXbXbXbXbXbXF I.P.I.%.H 3 2 m f s d d s , A $.I.K.U.P.U.T.6 bXbXbXbXbXbXbXbXbXbXbXbX",
"bXbXbXbXbXbXbXbXbXbXbXbXbX8 o.T.U.U.I.Y.T.$.@.$.M _.}.} @.T.Y.@.K.T.Y.P.P.Z bXbXbXbXbXbXbXbXbXbXbXbX",
"bXbXbXbXbXbXbXbXbXbXbXbXbXH o.Y.Y.Y.R.I.I.R.%.%.N `.}.X.R.U.@.+.+.%.P.@...T 9 bXbXbXbXbXbXbXbXbXbXbX",
"bXbXbXbXbXbXbXbXbXbXbXbX_ T.X.K.K.%.#.( X.P.K...v `.}.X.P.%.P.+.x P ^ / / ! w bXbXbXbXbXbXbXbXbXbXbX",
"bXbXbXbXbXbXbXbXbXbXbX2 | X.! S ! K U T /  ...o.N j  X} D J } D ! P t K r ..Z bXbXbXbXbXbXbXbXbXbXbX",
"bXbXbXbXbXbXbXbXbXbXbX4 ) T r t L ! ( C C H H D v k  XZ * bX% w  . .~ ~ / J 2 bXbXbXbXbXbXbXbXbXbXbX",
"bXbXbXbXbXbXbXbXbXbXbX7 ^ ) D ~ | o.L & bX7 * * }.l }.bXbXbXbX0 L G ] *.^ 7 bXbXbXbXbXbXbXbXbXbXbXbX",
"bXbXbXbXbXbXbXbXbXbXbXbXf m.C.B V 4 0 bXbXbXbXbXbXbXbXbXbXbXbXbXbX< _.[.C bXbXbXbXbXbXbXbXbXbXbXbXbX",
"bXbXbXbXbXbXbXbXbXbXbXbXk 1Xq.z bXbXbXbXbXbXbXbXbXbXbXbXbXbXbXbXbXbXh n 5 bXbXbXbXbXbXbXbXbXbXbXbXbX",
"bXbXbXbXbXbXbXbXbXbXbXbXL ;X.X: bXbXbXbXbXbXbXbXbXbXbXbXbXbXbXbXbXA O.i bXbXbXbXbXbXbXbXbXbXbXbXbXbX",
"bXbXbXbXbXbXbXbXbXbXbX8 R.E.d bXbXbXbXbXbXbXbXbXbXbXbXbXbXbXbXbXbXm >XC.T bXbXbXbXbXbXbXbXbXbXbXbXbX",
"bXbXbXbXbXbXbXbXbXbXbXC /.:X: bXbXbXbXbXbXbXbXbXbXbXbXbXbXbXbXbXbXz <X,XG.V bXbXbXbXbXbXbXbXbXbXbXbX",
"bXbXbXbXbXbXbXbXbXbX4 p. Xs bXbXbXbXbXbXbXbXbXbXbXbXbXbXbXbXbXbXbXbXbXbXbXbXbXbXbXbXbXbXbXbXbXbXbXbX",
"bXbXbXbXbXbXbXbXbXbXbXbXbXbXbXbXbXbXbXbXbXbXbXbXbXbXbXbXbXbXbXbXbXbXbXbXbXbXbXbXbXbXbXbXbXbXbXbXbXbX",
"bXbXbXbXbXbXbXbXbXbXbXbXbXbXbXbXbXbXbXbXbXbXbXbXbXbXbXbXbXbXbXbXbXbXbXbXbXbXbXbXbXbXbXbXbXbXbXbXbXbX",
"bXbXbXbXbXbXbXbXbXbXbXbXbXbXbXbXbXbXbXbXbXbXbXbXbXbXbXbXbXbXbXbXbXbXbXbXbXbXbXbXbXbXbXbXbXbXbXbXbXbX",
"bXbXbXbXbXbXbXbXbXbXbXbXbXbXbXbXbXbXbXbXbXbXbXbXbXbXbXbXbXbXbXbXbXbXbXbXbXbXbXbXbXbXbXbXbXbXbXbXbXbX"
};
