/* XPM */
static char *result[] = {
/* columns rows colors chars-per-pixel */
"50 50 236 2 ",
"   c #0B0001",
".  c #00001D",
"X  c #330009",
"o  c #320112",
"O  c #3E0012",
"+  c #3D001A",
"@  c #24000F",
"#  c #130A32",
"$  c #280137",
"%  c #35062D",
"&  c #450006",
"*  c #4B001C",
"=  c #450219",
"-  c #54001C",
";  c #5B0017",
":  c #530E02",
">  c #690217",
",  c #75041A",
"<  c #6B1410",
"1  c #782A09",
"2  c #480026",
"3  c #590024",
"4  c #540D34",
"5  c #6D0424",
"6  c #670228",
"7  c #7B022B",
"8  c #760425",
"9  c #690435",
"0  c #790038",
"q  c #71152F",
"w  c #413D2A",
"e  c #682237",
"r  c #011746",
"t  c #0B004A",
"y  c #222758",
"u  c #000768",
"i  c #1A1B6F",
"p  c #231663",
"a  c #062865",
"s  c #343767",
"d  c #5E0247",
"f  c #45065F",
"g  c #631A4B",
"h  c #782947",
"j  c #722E52",
"k  c #4E1571",
"l  c #7F3C69",
"z  c #344974",
"x  c #5E5E4F",
"c  c #425A7F",
"v  c #664777",
"b  c #566271",
"n  c #724959",
"m  c #940719",
"M  c #900F14",
"N  c #B90C1E",
"B  c #BB161B",
"V  c #AE1509",
"C  c #8B2C12",
"Z  c #A03509",
"A  c #B5270F",
"S  c #850026",
"D  c #99012B",
"F  c #880236",
"G  c #960437",
"H  c #911E20",
"J  c #A60725",
"K  c #A80539",
"L  c #A90E31",
"P  c #902B2C",
"I  c #A92C31",
"U  c #C5191A",
"Y  c #C41F0F",
"T  c #EC0016",
"R  c #D83406",
"E  c #CE2C0F",
"W  c #E93608",
"Q  c #EF3402",
"!  c #C4063C",
"~  c #E40037",
"^  c #80472B",
"/  c #B84836",
"(  c #AD7A08",
")  c #C74B01",
"_  c #D14C0D",
"`  c #E74906",
"'  c #FF4A00",
"]  c #FA5200",
"[  c #F85900",
"{  c #E74A09",
"}  c #CE7911",
"|  c #FE6C00",
" . c #F26000",
".. c #FE7500",
"X. c #FE7D00",
"o. c #EC7608",
"O. c #D66834",
"+. c #DE5E32",
"@. c #8B0042",
"#. c #9C0545",
"$. c #8F174A",
"%. c #A80148",
"&. c #BB1243",
"*. c #B30152",
"=. c #A71F51",
"-. c #8D264D",
";. c #91334C",
":. c #AF3E41",
">. c #903362",
",. c #C7004B",
"<. c #DB004D",
"1. c #C71644",
"2. c #C50154",
"3. c #D90256",
"4. c #DC1C4F",
"5. c #E6004C",
"6. c #FE0449",
"7. c #EB0356",
"8. c #F90757",
"9. c #FB1555",
"0. c #F01B50",
"q. c #D72157",
"w. c #D12651",
"e. c #FF285D",
"r. c #E7214E",
"t. c #D90A6A",
"y. c #FF1967",
"u. c #EC0B69",
"i. c #FF2B64",
"p. c #FF2767",
"a. c #FF3566",
"s. c #FF2A73",
"d. c #FB3878",
"f. c #CB3478",
"g. c #96455A",
"h. c #8F4751",
"j. c #AB4E47",
"k. c #8C6358",
"l. c #BE6047",
"z. c #964E67",
"x. c #995664",
"c. c #AB5C61",
"v. c #AA5A71",
"b. c #8A6671",
"n. c #B96375",
"m. c #B97476",
"M. c #AF6A72",
"N. c #C75B44",
"B. c #CF5555",
"V. c #D36447",
"C. c #D57547",
"Z. c #D26B5B",
"A. c #C96652",
"S. c #EA7B51",
"D. c #DB5279",
"F. c #FF4878",
"G. c #FF5677",
"H. c #CA7374",
"J. c #F37072",
"K. c #DF8700",
"L. c #FF8C00",
"P. c #FF8500",
"I. c #FF9800",
"U. c #F4961E",
"Y. c #FFA900",
"T. c #FFB100",
"R. c #FFBA00",
"E. c #D8893B",
"W. c #F08E2F",
"Q. c #FFCE00",
"!. c #D78C5D",
"~. c #FA8D56",
"^. c #FF935D",
"/. c #FBAF48",
"(. c #F08968",
"). c #FBA676",
"_. c #FFB76F",
"`. c #FFCA6D",
"'. c #00388D",
"]. c #002993",
"[. c #003E93",
"{. c #2F3189",
"}. c #001FB7",
"|. c #0026AB",
" X c #543B88",
".X c #09478D",
"XX c #144A8F",
"oX c #646B98",
"OX c #545586",
"+X c #0055FB",
"@X c #A839A2",
"#X c #B17685",
"$X c #B679BD",
"%X c #FF5688",
"&X c #FF4E83",
"*X c #D8728D",
"=X c #FE6688",
"-X c #FC6995",
";X c #FE7799",
":X c #7788D2",
">X c #AB829A",
",X c #A685A3",
"<X c #ADAF94",
"1X c #D28E98",
"2X c #FF849A",
"3X c #EE9B8E",
"4X c #C5A59B",
"5X c #E6A995",
"6X c #FAB596",
"7X c #FF86A8",
"8X c #FF96AD",
"9X c #FF8BB7",
"0X c #FF95B5",
"qX c #D9B3B6",
"wX c #FCB4A7",
"eX c #F0ABB1",
"rX c #FFD29E",
"tX c #FFCC84",
"yX c #FFCAA9",
"uX c #FFD5A8",
"iX c #FFCBB7",
"pX c #F0D4B3",
"aX c #ADA7D4",
"sX c #8FA0E3",
"dX c #FFBCD3",
"fX c #AACFF2",
"gX c #FAC9C9",
"hX c #FFC4D9",
"jX c #FFD9C7",
"kX c #FFE8C4",
"lX c #FFFFCC",
"zX c #DDD7E4",
"xX c #FFFFFD",
"cX c #FCF6F8",
"vX c #F2E9F2",
"bX c None",
/* pixels */
"bXbXbXbXbXbXbXbXbXbXbXbXbXbXbXbXbXbXbXbXbXbXbXbXbXbXbXbXbXbXbXbXbXbXbXbXbXbXbXbXbXbXbXbXbXbXbXbXbXbX",
"bXbXbXbXbXbXbXbXbXbXbXbXbXbXbXbXbXbXbXbXbXbXbXbXbXbXbXbXbXbXbXbXbXbXbXbXbXbXbXbXbXbXbXbXbXbXbXbXbXbX",
"bXbXbXbXbXbXbXbXbXbXbXbXbXbXbXbXbXbXbXbXbXbXbXbXbXbXbXbXbXbXbXbXbXbXbXbXbXbXbXbXbXbXbXbXbXbXbXbXbXbX",
"bXbXbXbXbXbXbXbXbXbXbXbXbXbXbXbXbXbXbXbXbXbXbXbXbXbXbXbXbXbXbXbXbXbXbXbXbXbXbXbXbXbXbXbXbXbXbXbXbXbX",
"bXbXbXbXbXbXbXbXbXbXbXbXbXbXbXbXbXbXbXbXbXbXbXbXbXbXbXbXbXbXbXbXbXbXbXbXbXbXbXbXbXbXbXbXbXbXbXbXbXbX",
"bXbXbXbXbXbXbXbXbXbXbXbXbXbXbXbXbXbXbXbXbXbXbXbXbXbXbX8 -.G 2 bXbXbXbXbXbXbXbXbXbXbXbXbXbXbXbXbXbXbX",
"bXbXbXbXbXbXbXbXbXbXbXbXbXbXbXbXbXbXbXbXbXbXbXbXbXbX> =X8X&.bXbXbXbXbXbXbXbXbXbXbXbXbXbXbXbXbXbXbXbX",
"bXbXbXbXbXbXbXbXbXbXbXbXbXbXbXbXbXbXbXbXbXbXbXbXbX> %X9X0.= bXbXbXbXbXbXbXbXbXbXbXbXbXbXbXbXbXbXbXbX",
"bXbXbXbXbXbXbXbXbXbXbXbXbXbXbXbXbXbXbXbXbXbXbXbX; F.0Xi.7 bXS D.*X&.O bXbXbXbXbXbXbXbXbXbXbXbXbXbXbX",
"bXbXbXbXbXbXbXbXbXbXbXbXbXbXbXbXbXbXbXbXbXbXbXbXL hX%X6.@ & F.dXhX8X=X! bXbXbXbXbXbXbXbXbXbXbXbXbXbX",
"bXbXbXbXbXbXbXbXbXbXbXbXbXbXbXbXbXbXbXbXbXbXbX7 ;X7Xe.<.8 =.q.$.#.%X&Xe.F + bXbXbXbXbXbXbXbXbXbXbXbX",
"bXbXbXbXbXbXbXbXbXbXbXbXbXbXbXbXbXbXbXbXbXbXbX-.hX-X6.<.-X;X9.K 9.y.K = bXbXbXbXbXbXbXbXbXbXbXbXbXbX",
"bXbXbXbXbXbXbXbXbXbXbXbXbXbX3 = o bXbXbXbXbX  q vX-X~ -X2Xp.%.r.s.0 bXbXbXbXbXbXbXbXbXbXbXbXbXbXbXbX",
"bXbXbXbXbXbXbXbXbXbXbXbXbXbX+ K q.- bXbXbXG n.*X;Xt.F.2Xi.<.@.7.#.bXbXbXbXbXbXbXbXbXbXbXbXbXbXbXbXbX",
"bXbXbXbXbXbXbXbXbXbXbXbXbXbXbX7 i.;XH.4 o G.9X&X~ 6.%XF.7.@.F 3.6 - bXbXbXbXbXbXbXbXbXbXbXbXbXbXbXbX",
"bXbXbXbXbXbXbXbXbXbXbXbXbXbXbXbXo s.%X8X=Xp.7.6.6.,.%X8Xt.%.$.*.8.i.4.= bXbXbXbXbXbXbXbXbXbXbXbXbXbX",
"bXbXbXbXbXbXbXbXbXbXbXbXbX= 8 &.G <.3.u.s.5.9.F.=Xu.8.F.;Xs.G.;X2.8.&Xp.6 bXbXbXbXbXbXbXbXbXbXbXbXbX",
"bXbXbXbXbXbXbXbXbXbXbXbXbXbXF 4.a.F.i.8.2.9 9.&XgXJ.5.8.G.&X6.-X-X1.1.4.G + bXbXbXbXbXbXbXbXbXbXbXbX",
"bXbXbXbXbXbXbXbXbXbXbXbXbXbXbXbX6 K 7.y.3.#.K %XwX/.S.<.6.G.v.6.=X2 bXbXbXbXbXbXbXbXbXbXbXbXbXbXbXbX",
"bXbXbXbXbXbXbXbXbXbXbXbXbXbXbXbXbX2 @.F 8 *.*.3.G.S.S.3X7.2X<X& 9.7 bXbXbXbXbXbXbXbXbXbXbXbXbXbXbXbX",
"bXbXbXbXbXbXbXbXbXbXbXbXbXbXbX* #.2.t.F ^ :.*.B.J P I 5XeX2Xm.bX6 6 bXbXbXbXbXbXbXbXbXbXbXbXbXbXbXbX",
"bXbXbXbXbXbXbXbXbXbXbXbXbXbXbXbXbX5 1.F N._.P (.I ,XcXM.3X5X= bXbX3 bXbXbXbXbXbXbXbXbXbXbXbXbXbXbXbX",
"bXbXbXbXbXbXbXbXbXbXbXbXbXbXbXbXbXbX# # h j./ ^.+.pXxXvXeX5XbXbXbXbXbXbXbXbXbXbXbXbXbXbXbXbXbXbXbXbX",
"bXbXbXbXbXbXbXbXbXbXbXbXbXbXO X 5 V.n a % V / l.~.).jXcXcXz.o * - bXbXbXbXbXbXbXbXbXbXbXbXbXbXbXbXbX",
"bXbXbXbXbXbXbXbXbXbXbXbXbX-.3XN.j.C.N.t V _ 5XZ.j.^.yXgXC.R _ o.; bXbXbXbXbXbXbXbXbXbXbXbXbXbXbXbXbX",
"bXbXbXbXbXbXbXbXbXbXbXbXbXq uXlXaX|.3 6XZ.. 4X6XH Z.H.x._ P.E.OXOXg bXbXbXbXbXbXbXbXbXbXbXbXbXbXbXbX",
"bXbXbXbXbXbXbXbXbXbXbXbXbXbXh.pX:X|.g.tXJ.4 v #X>.1XaXn ` R.( }.gX_.C h 9 bXbXbXbXbXbXbXbXbXbXbXbXbX",
"bXbXbXbXbXbXbXbXbXbXbXbXbXbXbX& 2 c.pXyX< 6Xz.u .X].b `./.I.: t g.#XqXxXm.bXbXbXbXbXbXbXbXbXbXbXbXbX",
"bXbXbXbXbXbXbXbXbXbXbXbXbXbXbXbX3 jXlXA.  ;.} r u w X.zXfX/ x.V.,X+XsX).e bXbXbXbXbXbXbXbXbXbXbXbXbX",
"bXbXbXbXbXbXbXbXbXbXbXbXbXbXbXbXbXz.x.8 bXbXZ K.} X.' O.b.1XrXrXkXaXj > bXbXbXbXbXbXbXbXbXbXbXbXbXbX",
"bXbXbXbXbXbXbXbXbXbXbXbXbXbXbXbXbXbXbXbXbXbXt k.| ' j z & H.uXC.uXyX& bXbXbXbXbXbXbXbXbXbXbXbXbXbXbX",
"bXbXbXbXbXbXbXbXbXbXbXbXbXbXbXbXbXbXbXbX6 C , p a y ].s ) j m.X pX(.bXbXbXbXbXbXbXbXbXbXbXbXbXbXbXbX",
"bXbXbXbXbXbXbXbXbXbXbXbXbXbXbXbXbX8 Z C o.R.] +.[.'.oX| ..1 bXbXM.9 bXbXbXbXbXbXbXbXbXbXbXbXbXbXbXbX",
"bXbXbXbXbXbXbXbXbXbXbXbXbXbXbXbX% | R.T.T.I.| U.[.].W.Y.X.] 8 bXbXbXbXbXbXbXbXbXbXbXbXbXbXbXbXbXbXbX",
"bXbXbXbXbXbXbXbXbXbXbXbXbXbXbXbXM Y.T.Y.L.[ ] O..X].E.T.I.L.) bXbXbXbXbXbXbXbXbXbXbXbXbXbXbXbXbXbXbX",
"bXbXbXbXbXbXbXbXbXbXbXbXbXbXbX3 W Y.T...` P.M 9 .X'.l.P.Y.Q.P.> 2 bXbXbXbXbXbXbXbXbXbXbXbXbXbXbXbXbX",
"bXbXbXbXbXbXbXbXbXbXbXbXbXbXH U J ` E J H < bXbXXX'.O.L.I.I...N A 8 bXbXbXbXbXbXbXbXbXbXbXbXbXbXbXbX",
"bXbXbXbXbXbXbXbXbXbXbXbXbXbXH Q D 0 9 U A bXbXbX{.'.;._ R W ] B U B 3 bXbXbXbXbXbXbXbXbXbXbXbXbXbXbX",
"bXbXbXbXbXbXbXbXbXbXbXbXbXbX2 J W Y B W S bXbXbXbXbXbX% 8 B U D D R ; bXbXbXbXbXbXbXbXbXbXbXbXbXbXbX",
"bXbXbXbXbXbXbXbXbXbXbXbXbXbXbX2 j  .[ J 2 bXbXbXbXbXbXbX5 N F D Y B - bXbXbXbXbXbXbXbXbXbXbXbXbXbXbX",
"bXbXbXbXbXbXbXbXbXbXbXbXbXbXbXbXd  X9 3 bXbXbXbXbXbXbXbX6 Y R R ! {.i bXbXbXbXbXbXbXbXbXbXbXbXbXbXbX",
"bXbXbXbXbXbXbXbXbXbXbXbXbXbXbX% @.k $ bXbXbXbXbXbXbXbXbXbX3 , > k @Xk O bXbXbXbXbXbXbXbXbXbXbXbXbXbX",
"bXbXbXbXbXbXbXbXbXbXbXbXbXbXbXx k.> bXbXbXbXbXbXbXbXbXbXbXbXbXbX% >.U.1 bXbXbXbXbXbXbXbXbXbXbXbXbXbX",
"bXbXbXbXbXbXbXbXbXbXbXbXbXbXbX{ { bXbXbXbXbXbXbXbXbXbXbXbXbXbXbXbX= I.!.a bXbXbXbXbXbXbXbXbXbXbXbXbX",
"bXbXbXbXbXbXbXbXbXbXbXbXbXbXm f.k bXbXbXbXbXbXbXbXbXbXbXbXbXbXbXbXbXf $X-.bXbXbXbXbXbXbXbXbXbXbXbXbX",
"bXbXbXbXbXbXbXbXbXbXbXbXbXbXbXbXbXbXbXbXbXbXbXbXbXbXbXbXbXbXbXbXbXbXr w.T bXbXbXbXbXbXbXbXbXbXbXbXbX",
"bXbXbXbXbXbXbXbXbXbXbXbXbXbXbXbXbXbXbXbXbXbXbXbXbXbXbXbXbXbXbXbXbXbXbXbXbXbXbXbXbXbXbXbXbXbXbXbXbXbX",
"bXbXbXbXbXbXbXbXbXbXbXbXbXbXbXbXbXbXbXbXbXbXbXbXbXbXbXbXbXbXbXbXbXbXbXbXbXbXbXbXbXbXbXbXbXbXbXbXbXbX",
"bXbXbXbXbXbXbXbXbXbXbXbXbXbXbXbXbXbXbXbXbXbXbXbXbXbXbXbXbXbXbXbXbXbXbXbXbXbXbXbXbXbXbXbXbXbXbXbXbXbX",
"bXbXbXbXbXbXbXbXbXbXbXbXbXbXbXbXbXbXbXbXbXbXbXbXbXbXbXbXbXbXbXbXbXbXbXbXbXbXbXbXbXbXbXbXbXbXbXbXbXbX"
};
