/* XPM */
static char *result[] = {
/* columns rows colors chars-per-pixel */
"50 50 236 2 ",
"   c #090001",
".  c #140003",
"X  c #11061C",
"o  c #250006",
"O  c #360003",
"+  c #3C001A",
"@  c #360015",
"#  c #290010",
"$  c #17002B",
"%  c #2B002A",
"&  c #360029",
"*  c #3D0239",
"=  c #252036",
"-  c #5A0005",
";  c #44001B",
":  c #4E001E",
">  c #480015",
",  c #53001D",
"<  c #5C001D",
"1  c #580114",
"2  c #4C0101",
"3  c #7A010E",
"4  c #660318",
"5  c #71031C",
"6  c #781419",
"7  c #751702",
"8  c #440124",
"9  c #490024",
"0  c #4A002B",
"q  c #560022",
"w  c #5B0022",
"e  c #58032A",
"r  c #480232",
"t  c #4D0A36",
"y  c #670128",
"u  c #7A022C",
"i  c #7B0138",
"p  c #6F1132",
"a  c #582235",
"s  c #703134",
"d  c #72421A",
"f  c #330C57",
"g  c #141070",
"h  c #2E1970",
"j  c #440944",
"k  c #741053",
"l  c #521170",
"z  c #27426F",
"x  c #705F62",
"c  c #575661",
"v  c #86051B",
"b  c #851417",
"n  c #94100B",
"m  c #A80314",
"M  c #B41A0E",
"N  c #8D300E",
"B  c #A4250B",
"V  c #B42707",
"C  c #B83114",
"Z  c #860127",
"A  c #9D002B",
"S  c #950435",
"D  c #870B31",
"F  c #A60129",
"G  c #BA1621",
"H  c #A4063A",
"J  c #B30930",
"K  c #8F272F",
"L  c #A13838",
"P  c #A93026",
"I  c #CA1618",
"U  c #CC140D",
"Y  c red",
"T  c #E6011F",
"R  c #DA2800",
"E  c #D73603",
"W  c #DA3B13",
"Q  c #CB280C",
"!  c #E43707",
"~  c #FE3C02",
"^  c #C7063B",
"/  c #D70534",
"(  c #FF003D",
")  c #9F4701",
"_  c #BC4C00",
"`  c #9C403B",
"'  c #A4413B",
"]  c #A36A30",
"[  c #C65800",
"{  c #D54C06",
"}  c #FC4E00",
"|  c #F64800",
" . c #FB5900",
".. c #ED5300",
"X. c #C97700",
"o. c #D26500",
"O. c #FD6700",
"+. c #FF7B00",
"@. c #E66E00",
"#. c #CD493C",
"$. c #8B0747",
"%. c #980050",
"&. c #A90046",
"*. c #B90248",
"=. c #B80054",
"-. c #A70D54",
";. c #852C50",
":. c #973B55",
">. c #8C2851",
",. c #AF2C52",
"<. c #B40363",
"1. c #B43B6A",
"2. c #8D026E",
"3. c #C50749",
"4. c #D80548",
"5. c #C21748",
"6. c #DB184E",
"7. c #CD045B",
"8. c #D80B56",
"9. c #FD034B",
"0. c #E4114B",
"q. c #E80051",
"w. c #FE0353",
"e. c #F80559",
"r. c #FE1C54",
"t. c #FF1459",
"y. c #EE104B",
"u. c #DE325A",
"i. c #FE2455",
"p. c #FE235D",
"a. c #FC275C",
"s. c #EE2457",
"d. c #DE0562",
"f. c #ED0164",
"g. c #FF1363",
"h. c #FE1E66",
"j. c #F4116E",
"k. c #CC376B",
"l. c #DC2877",
"z. c #FF2C64",
"x. c #FF266E",
"c. c #FF346C",
"v. c #FF3965",
"b. c #FF3978",
"n. c #F52576",
"m. c #804148",
"M. c #B25457",
"N. c #AC494D",
"B. c #8B526E",
"V. c #BB4E71",
"C. c #9C6E7A",
"Z. c #DD5B58",
"A. c #FF4D58",
"S. c #D57258",
"D. c #DF5276",
"F. c #FF4768",
"G. c #FF4373",
"H. c #FF4979",
"J. c #FF577F",
"K. c #C16A65",
"L. c #E77751",
"P. c #D38300",
"I. c #FF8D00",
"U. c #FF8300",
"Y. c #FF9500",
"T. c #FF9B00",
"R. c #EC8000",
"E. c #FFAD00",
"W. c #FFA400",
"Q. c #FFB200",
"!. c #FFBE00",
"~. c #D98B35",
"^. c #FFCA00",
"/. c #95907E",
"(. c #C68342",
"). c #FF9B5C",
"_. c #F98759",
"`. c #DD887A",
"'. c #EC8D70",
"]. c #FFB17B",
"[. c #FFC15A",
"{. c #FFC866",
"}. c #000F8D",
"|. c #032B98",
" X c #082A92",
".X c #0017AA",
"XX c #0035A4",
"oX c #0030B2",
"OX c #6B1E87",
"+X c #512A8A",
"@X c #5E5185",
"#X c #644282",
"$X c #6E56A0",
"%X c #0039C0",
"&X c #005AD2",
"*X c #005DF8",
"=X c #007CFF",
"-X c #FC3883",
";X c #E43B87",
":X c #BF768E",
">X c #9C7586",
",X c #FE5986",
"<X c #FF6588",
"1X c #FE6897",
"2X c #FF7B9A",
"3X c #769EEA",
"4X c #B68481",
"5X c #B391AF",
"6X c #8F94B9",
"7X c #D89487",
"8X c #D48E95",
"9X c #F09390",
"0X c #CBA29F",
"qX c #FFB885",
"wX c #FFAD92",
"eX c #FF8BAB",
"rX c #FF86A5",
"tX c #FD95AB",
"yX c #FF91B5",
"uX c #FFA5B8",
"iX c #FBB4A5",
"pX c #FFC395",
"aX c #FECCAA",
"sX c #FFD6A6",
"dX c #FFE5B3",
"fX c #A497CE",
"gX c #FFA8C7",
"hX c #FFB3C7",
"jX c #FFD2DF",
"kX c #FFE7C8",
"lX c #FFEED3",
"zX c #FFF9D0",
"xX c #D2DDE1",
"cX c #FFD9EA",
"vX c #FFFFE3",
"bX c None",
/* pixels */
"bXbXbXbXbXbXbXbXbXbXbXbXbXbXbXbXbXbXbXbXbXbXbXbXbXbXbXbXbXbXbXbXbXbXbXbXbXbXbXbXbXbXbXbXbXbXbXbXbXbX",
"bXbXbXbXbXbXbXbXbXbXbXbXbXbXbXbXbXbXbXbXbXbXbXbXbXbXbXbXbXbXbXbXbXbXbXbXbXbXbXbXbXbXbXbXbXbXbXbXbXbX",
"bXbXbXbXbXbXbXbXbXbXbXbXbXbXbXbXbXbXbXbXbXbXbXbXbXbXbXbXbXbXbXbXbXbXbXbXbXbXbXbXbXbXbXbXbXbXbXbXbXbX",
"bXbXbXbXbXbXbXbXbXbXbXbXbXbXbXbXbXbXbXbXbXbXbXbXbXbXbXbXbXbXbXbXbXbXbXbXbXbXbXbXbXbXbXbXbXbXbXbXbXbX",
"bXbXbXbXbXbXbXbXbXbXbXbXbXbXbXbXbXbXbXbXbXbXbXbXbXbXbXbXbXbXbXbXbXbXbXbXbXbXbXbXbXbXbXbXbXbXbXbXbXbX",
"bXbXbXbXbXbXbXbXbXbXbXbXbXbXbXbXbXbXbXbXbXbXbXbXbXbXbXbXbXbXbXbXbXbXbXbXbXbXbXbXbXbXbXbXbXbXbXbXbXbX",
"bXbXbXbXbXbXbXbXbXbXbXbXbXbXbXbXbXbXbXbXbXbXbXbXbXbXbXbXbXbXbXbXbXbXbXbXbXbXbXbXbXbXbXbXbXbXbXbXbXbX",
"bXbXbXbXbXbXbXbXbXbXbXbXbXbXbXbXbXbXbXbXbXq bXbXbXbXbXbXp ;.:.y bXbXbXbXbXbXbXbXbXbXbXbXbXbXbXbXbXbX",
"bXbXbXbXbXbXbXbXbXbXbXbXbXbXbXbXbXbXbXbXbXq bXbXbXbXbXb iXlXiXy bXbXbXbXbXbXbXbXbXbXbXbXbXbXbXbXbXbX",
"bXbXbXbXbXbXbXbXbXbXbXbXbXbXbXbXbXbXbXbXbX; + bXbXbXf 5XzX).2 bXbXbXbXbXbXbXbXbXY bXbXbXbXY bXbXbXbX",
"bXbXbXbXbXbXbXbXbXbXbXbXbXbXbXbXbXq bXbXbXZ A bXs 9X3X=XfXaX`.bXbXbXbXbXbXbXbXbXbXbXbXbXbXY bXbXbXbX",
"bXbXbXbXbXbXbXbXbXbXbXbXbXbXbXbXbXy H bXbX,.k.a 9X7Xc g &X5X`.e O 5.:XV.0.J + bXbXbXY bXbXbXbXbXbXbX",
"bXbXbXbXbXbXbXbXbXbXbXbXbXbXbXbXbXu ,XV.  B.rXu.c - / T k X . , 6.eXeX1Xz.S + bXbXY Y bXbXbXbXbXbXbX",
"bXbXbXbXbXbXbXbXbXbXbXbXbXbXbXbXbXbX5.rX1.*.rXD.- h.c.z.J e q 0.yX,X9.r.y bXbXbXbXbXbXbXbXbXbXbXbXbX",
"bXbXbXbXbXbXbXbXbXbXbXbXbXbXbXbXbXbX1 J.gX( ,XyX7.w.<XtXc.A 6.rX<Xe.g.u   + bXbXbXbXbXY bXbXbXbXbXbX",
"bXbXbXbXbXbXbXbXbXbXbXbXbXbXbXbXq ; w t.2X1Xd.G.t.r.eXjXtX7.1X1X9.g.3.;.tXJ.F @ bXbXbXbXbXbXbXbXbXbX",
"bXbXbXbXbXbXbXbXbXbXbXbXbXbX1 4 e <.-.F <XuXt.r.i.r.2XhXhXn.n.z.f.p.4 1.cXgXtXH.A bXbXbXbXbXbXbXbXbX",
"bXbXbXbXbXbXbXbXbXbXbXbXy 3 C P t D 7.=.3.G.p.0.>.s.c.G.G.r.9.p.f.3.> $.j.n.-X-Xc.^ bXbXbXbXbXbXbXbX",
"bXbXbXbXbXbXbXbXbXbXbX8 V | @Xz o.Y.D <.&.^ 6.V.gXl.9.i.i.H.J.p.7.<.-.Z i 4.9.r.v.a.u bXbXbXbXbXbXbX",
"bXbXbXbXbXbXbXbXbXbXbX8 Q B.|.X.E.Q.Y.4 k &.1.2Xz.g.g.t.w.rXuX,X/ l.uXc.*.e ; q , w w q bXbXbXbXbXbX",
"bXbXbXbXbXbXbXbXbXbXbX8 E C.}.P.!.W.E.Y.5 * *.v.t.p.F.-X8.w.h.rX,X9.G.tX,X&.; bXbXbXbXbXbXbXbXbXbXbX",
"bXbXbXbXbXbXbXbXbXbXbX% @./.}.[ U.O.Y.!.R.; 7.h.f.S.A.1X2X8.q.t.eX,Xq.<X2Xg.&.bXbXbXbXbXbXbXbXbXbXbX",
"bXbXbXbXbXbXbXbXbXbXbXq O.~.oXP ~ O.Q.Q.W._ %.j.Z.[.u.w.uX;Xw.q.x.,X&.^ t.G.,.bXbXbXbXbXbXbXbXbXbXbX",
"bXbXbXbXbXbXbXbXbXbX& C Q. .,.c K ] ] (.!.I.< N.{.#.*.g.<Xj.f.c.h.y.# bX< c.6.bXbXbXbXbXbXbXbXbXbXbX",
"bXbXbXbXbXbXbXbXbXbX% _ ^...} M.f oX.X X~.Y.! 6 L./.2.t.z.&.i 5.H.i.@ bXbXu H bXbXbXbXbXbXbXbXbXbXbX",
"bXbXbXbXbXbXbXbXbXbX$ [ I.O.E.O.u 5X>X}.c I.n > q x k.c.6.; bXbX6.a.; bXbXbX+ y bXbXbXbXbXbXbXbXbXbX",
"bXbXbXbXbXbXbX< 8 b Z { I.I.Q.Q w ].dX6X= B v { N # i.s.+ bXbXbX, S bXbXbXbXbXbXbXbXbXbXbXbXbXbXbXbX",
"bXbXbXbXbXbXt XXg V I W ^.T.E.b e ` ].'.0 V ~ Y.X.bXS > bXbXbXbXbX; bXbXbXbXbXbXbXbXbXbXbXbXbXbXbXbX",
"bXbXbXbXbXbXj XXp Q u { !.W.T.b N.K.7Xy m } E +.o.bXbXbXbXbXbXbXbXbXbXbXbXbXbXbXbXbXbXbXbXbXbXbXbXbX",
"bXbXbXbXbXj +Xi B ! i { Q.Y.O.5 0XqX7X@ m } | | n 0 p y bXbXbXbXbXbXbXbXbXbXbXbXbXbXbXbXbXbXbXbXbXbX",
"bXbXbXbXbXy S 9 y } G G  . .+.b 8XpX'.;.3 R R v N.).wX;.bXbXbXbXbXbXbXbXbXbXbXbXbXbXbXbXbXbXbXbXbXbX",
"bXbXbXbXbXq 4 bXbXB M F U O.W v y aXvXzXS.* 8 M.lXpXK bXbXbXbXbXbXbXbXbXbXbXbXbXbXbXbXbXbXbXbXbXbXbX",
"bXbXbXbXbXbXbXbXbXbXC ~ J G Q 4 ; M.7XaXxX*X3XdXqXK.' N.bXbXbXbXbXbXbXbXbXbXbXbXbXbXbXbXbXbXbXbXbXbX",
"bXbXbXbXbXbXbXbXbXbXb E Q E 4 bX4 4 O K 5XoX$XkXdXL ' _.p bXbXbXbXbXbXbXbXbXbXbXbXbXbXbXbXbXbXbXbXbX",
"bXbXbXbXbXbXbXbXbXbXbX9 9 9 bXbX4 | I u ; v - p lX>Xo > q bXbXbXbXbXbXbXbXbXbXbXbXbXbXbXbXbXbXbXbXbX",
"bXbXbXbXbXbXbXbXbXbXbXbXbXbXbXbXq L | Q I | E . m.N.bXbXbXbXbXbXbXbXbXbXbXbXbXbXbXbXbXbXbXbXbXbXbXbX",
"bXbXbXbXbXbXbXbXbXbXbXbXbXbXbXbXh %XI V B B v bXbX> bXbXbXbXbXbXbXbXbXbXbXbXbXbXbXbXbXbXbXbXbXbXbXbX",
"bXbXbXbXbXbXbXbXbXbXbXbXbXbXbX, XXOXl * bXbXbXbXbXbXbXbXbXbXbXbXbXbXbXbXbXbXbXbXbXbXbXbXbXbXbXbXbXbX",
"bXbXbXbXbXbXbXbXbXbXbXbXbXbXbX, d ) j bXbXbXbXbXbXbXbXbXbXbXbXbXbXbXbXbXbXbXbXbXbXbXbXbXbXbXbXbXbXbX",
"bXbXbXbXbXbXbXbXbXbXbXbXbXbX< h K 7 bXbXbXbXbXbXbXbXbXbXbXbXbXbXbXbXbXbXbXbXbXbXbXbXbXbXbXbXbXbXbXbX",
"bXbXbXbXbXbXbXbXbXbXbXbXbXbX, $.i bXbXbXbXbXbXbXbXbXbXbXbXbXbXbXbXbXbXbXbXbXbXbXbXbXbXbXbXbXbXbXbXbX",
"bXbXbXbXbXbXbXbXbXbXbXbXbXbXq F 5 bXbXbXbXbXbXbXbXbXbXbXbXbXbXbXbXbXbXbXbXbXbXbXbXbXbXbXbXbXbXbXbXbX",
"bXbXbXbXbXbXbXbXbXbXbXbXbXbXq w bXbXbXbXbXbXbXbXbXbXbXbXbXbXbXbXbXbXbXbXbXbXbXbXbXbXbXbXbXbXbXbXbXbX",
"bXbXbXbXbXbXbXbXbXbXbXbXbXbXbXbXbXbXbXbXbXbXbXbXbXbXbXbXbXbXbXbXbXbXbXbXbXbXbXbXbXbXbXbXbXbXbXbXbXbX",
"bXbXbXbXbXbXbXbXbXbXbXbXbXbXbXbXbXbXbXbXbXbXbXbXbXbXbXbXbXbXbXbXbXbXbXbXbXbXbXbXbXbXbXbXbXbXbXbXbXbX",
"bXbXbXbXbXbXbXbXbXbXbXbXbXbXbXbXbXbXbXbXbXbXbXbXbXbXbXbXbXbXbXbXbXbXbXbXbXbXbXbXbXbXbXbXbXbXbXbXbXbX",
"bXbXbXbXbXbXbXbXbXbXbXbXbXbXbXbXbXbXbXbXbXbXbXbXbXbXbXbXbXbXbXbXbXbXbXbXbXbXbXbXbXbXbXbXbXbXbXbXbXbX",
"bXbXbXbXbXbXbXbXbXbXbXbXbXbXbXbXbXbXbXbXbXbXbXbXbXbXbXbXbXbXbXbXbXbXbXbXbXbXbXbXbXbXbXbXbXbXbXbXbXbX",
"bXbXbXbXbXbXbXbXbXbXbXbXbXbXbXbXbXbXbXbXbXbXbXbXbXbXbXbXbXbXbXbXbXbXbXbXbXbXbXbXbXbXbXbXbXbXbXbXbXbX",
"bXbXbXbXbXbXbXbXbXbXbXbXbXbXbXbXbXbXbXbXbXbXbXbXbXbXbXbXbXbXbXbXbXbXbXbXbXbXbXbXbXbXbXbXbXbXbXbXbXbX"
};
