/* XPM */
static char *result[] = {
/* columns rows colors chars-per-pixel */
"50 50 229 2 ",
"   c #050003",
".  c #160101",
"X  c #250005",
"o  c #3B0007",
"O  c #260013",
"+  c #340015",
"@  c #3E001A",
"#  c #3E0016",
"$  c #140023",
"%  c #28002A",
"&  c #360028",
"*  c #2B2B2C",
"=  c #4B0005",
"-  c #590206",
";  c #43001C",
":  c #4A001D",
">  c #480015",
",  c #54001D",
"<  c #5B001D",
"1  c #530016",
"2  c #640006",
"3  c #7C0006",
"4  c #64001A",
"5  c #74031D",
"6  c #7C061D",
"7  c #75151B",
"8  c #6D3500",
"9  c #420025",
"0  c #4D0024",
"q  c #490029",
"w  c #540022",
"e  c #5A0023",
"r  c #570527",
"t  c #470835",
"y  c #4C1234",
"u  c #660229",
"i  c #760525",
"p  c #7A0036",
"a  c #6B1231",
"s  c #5C2428",
"d  c #6F222C",
"f  c #502B1F",
"g  c #0D0752",
"h  c #2D1646",
"j  c #000C64",
"k  c #321D72",
"l  c #002B73",
"z  c #272D54",
"x  c #531950",
"c  c #781A43",
"v  c #5C2944",
"b  c #733448",
"n  c #422B62",
"m  c #18427F",
"M  c #314D7A",
"N  c #45525C",
"B  c #980716",
"V  c #8A1018",
"C  c #910D13",
"Z  c #BE0016",
"A  c #B81819",
"S  c #BD000F",
"D  c #932714",
"F  c #A8220D",
"G  c #B52C0B",
"H  c #AB2411",
"J  c #B1320E",
"K  c #890029",
"L  c #9B0128",
"P  c #8B0136",
"I  c #960639",
"U  c #A70327",
"Y  c #A9073C",
"T  c #B4033A",
"R  c #B60E2A",
"E  c #95333B",
"W  c #AA3D37",
"Q  c #C20017",
"!  c #FF1200",
"~  c #CD3505",
"^  c #D83705",
"/  c #D62B13",
"(  c #CD280A",
")  c #E82300",
"_  c #FE2D00",
"`  c #E43E01",
"'  c #EC3D00",
"]  c #E03703",
"[  c #FB3F00",
"{  c #C50538",
"}  c #D20133",
"|  c #F11330",
" . c #B55501",
".. c #A7510E",
"X. c #BD6E00",
"o. c #85413C",
"O. c #A8403F",
"+. c #954C0B",
"@. c #C15600",
"#. c #E74600",
"$. c #FC4C00",
"%. c #F54500",
"&. c #EA5600",
"*. c #F45A00",
"=. c #FF5B00",
"-. c #F55300",
";. c #D37800",
":. c #FE6300",
">. c #FD6B00",
",. c #EF7C00",
"<. c #FF7900",
"1. c #E85E2C",
"2. c #9E0046",
"3. c #801F43",
"4. c #AF024B",
"5. c #8A3448",
"6. c #842E4B",
"7. c #B6325C",
"8. c #CA0058",
"9. c #DC015B",
"0. c #D70059",
"q. c #DA0C4C",
"w. c #E8004A",
"e. c #F9004C",
"r. c #FD144C",
"t. c #F80C5B",
"y. c #EC1954",
"u. c #FB1A53",
"i. c #E50B55",
"p. c #FF2A5E",
"a. c #FF235C",
"s. c #D60364",
"d. c #D5196D",
"f. c #FE1862",
"g. c #F20968",
"h. c #FF2B65",
"j. c #FE3667",
"k. c #F2346A",
"l. c #9D525D",
"z. c #954A5A",
"x. c #B35351",
"c. c #9A6048",
"v. c #B35069",
"b. c #90646D",
"n. c #B06C67",
"m. c #A36C4F",
"M. c #C75D49",
"N. c #D4684F",
"B. c #FE456A",
"V. c #FC4A76",
"C. c #FF577F",
"Z. c #C57373",
"A. c #EE7F56",
"S. c #7B897C",
"D. c #FF8400",
"F. c #FF8C00",
"G. c #F78708",
"H. c #FF9300",
"J. c #FF9C00",
"K. c #F4930F",
"L. c #FFA300",
"P. c #FFAC00",
"I. c #FFB300",
"U. c #FFBE00",
"Y. c #E5A500",
"T. c #E09E33",
"R. c #BEF920",
"E. c #BA864B",
"W. c #A08A69",
"Q. c #FF965B",
"!. c #F48756",
"~. c #FFA547",
"^. c #C78F75",
"/. c #E78D6C",
"(. c #FFB268",
"). c #FFA677",
"_. c #FFA86D",
"`. c #C4864A",
"'. c #193F82",
"]. c #002AB2",
"[. c #3C3788",
"{. c #552C8A",
"}. c #004491",
"|. c #006A99",
" X c #0247B3",
".X c #124DB2",
"XX c #2D55B3",
"oX c #2666A3",
"OX c #002DCD",
"+X c #257CF3",
"@X c #8770BD",
"#X c #FC5884",
"$X c #CD7E81",
"%X c #FF688C",
"&X c #FF6797",
"*X c #FF789C",
"=X c #F07C94",
"-X c #FF78A4",
";X c #00C8AC",
":X c #0097C6",
">X c #00B0E7",
",X c #499DE6",
"<X c #00C9FF",
"1X c #D38F94",
"2X c #FFB999",
"3X c #FF8AA9",
"4X c #FF90AC",
"5X c #FF96B7",
"6X c #DAABA6",
"7X c #FFA4BB",
"8X c #EFB5A9",
"9X c #DF9198",
"0X c #DFC6B9",
"qX c #FFC2A6",
"wX c #F8D1B1",
"eX c #FFF7BD",
"rX c #ABAEC5",
"tX c #FFB9CC",
"yX c #8CD1F2",
"uX c #FFDCCA",
"iX c #FFC0D6",
"pX c #FFE7C8",
"aX c #FFEBD7",
"sX c #FFF9D3",
"dX c #E9E0CF",
"fX c #FFCAE0",
"gX c #FFFFE9",
"hX c #F8F3F9",
"jX c None",
/* pixels */
"jXjXjXjXjXjXjXjXjXjXjXjXjXjXjXjXjXjXjXjXjXjXjXjXjXjXjXjXjXjXjXjXjXjXjXjXjXjXjXjXjXjXjXjXjXjXjXjXjXjX",
"jXjXjXjXjXjXjXjXjXjXjXjXjXjXjXjXjXjXjXjXjXjXjXjXjXjXjXjXjXjXjXjXjXjXjXjXjXjXjXjXjXjXjXjXjXjXjXjXjXjX",
"jXjXjXjXjXjXjXjXjXjXjXjXjXjXjXjXjXjXjXjXjXjXjXjXjXjXjXjXjXjXjXjXjXjXjXjXjXjXjXjXjXjXjXjXjXjXjXjXjXjX",
"jXjXjXjXjXjXjXjXjXjXjXjXjXjXjXjXjXjXjXjXjXjXjXjXjXjXjXjXjXjXjXjXjXjXjXjXjXjXjXjXjXjXjXjXjXjXjXjXjXjX",
"jXjXjXjXjXjXjXjXjXjXjXjXjXjXjXjXjXjXjXjXjXjXjXjXjXjXjXjXjXjXjXjXjXjXjXjXjXjXjXjXjXjXjXjXjXjXjXjXjXjX",
"jXjXjXjXjXjXjXjXjXjXjXjXjXjXjXjXjXjXjXjXjXjXjXjXjXjXjXjXjXjXjXjXjXjXjXjXjXjXjXjXjXjXjXjXjXjXjXjXjXjX",
"jXjXjXjXjXjXjXjXjXjXjXjXjXjXjXjXjXjXjXjXjXjXjXjXjXjXjXe jXjXjXjXjXjXjXjXjXjXjXjXjXjXjXjXjXjXjXjXjXjX",
"jXjXjXjXjXjXjXjXjXjXjXjXjXjXjXjXjXjXjXjXjXjXjXjXjXjX: e jXjXjXjXjXjXjXjXjXjXjXjXjXjXjXjXjXjXjXjXjXjX",
"jXjXjXjXjXjXjXjXjXjXjXjXjXjXjXjXjXjXjXjXjXe jXjXjXY y.@ jXjXjX@ w e jXjXjXjXjXjXjXjXjXjXjXjXjXjXjXjX",
"jXjXjXjXjXjXjXjXjXjXjXjXjXjXjXjXjXjXjXjXjX+ jXjXU r.2.jXjXjX: y.i : jXjXjXjXjXjXjXjXjXjXjXjXjXjXjXjX",
"jXjXjXjXjXjXjXjXjXjXjXjXjXjXjXjXjXjXjXjXjX{ jX  #XV.  jXjX# { y.u jXjXjXjXjXjXjXjXjXjXjXjXjXjXjXjXjX",
"jXjXjXjXjXjXjXjXjXjXjXjXjXjXjXjXjXjXjXjX+ #XjX2 5X1XjXjXo q.3X: jXjXjXjXjXjXjXjXjXjXjXjXjXjXjXjXjXjX",
"jXjXjXjXjXjXjXjXjXjXjXjXjXjXjXjXjXjXjXjXP 7Xv y.5Xv.. jXT %X9Xr jXjXjXjXjXjXjXjXjXjXjXjXjXjXjXjXjXjX",
"jXjXjXjXjXjXjXjXjXjXjXjXjXjXjXjXjXjXjXe j.7Xc 1X-X} O T 3X7X; jXjXjXjXjXjXjXjXjXjXjXjXjXjXjXjXjXjXjX",
"jXjXjXjXjXjXjXjXjXjXjXjXjXjXjXjXjXjXjX< p.4Xd.&X*Xe.q.#XtX3Xw jXjXjXjXu a u w jXjXjXjXjXjXjXjXjXjXjX",
"jXjXjXjXjXjXjXjXjXjXjXjXjXjXjXw r 4 : e h.j.9.f.j.i.w.%X7Xa., jXjX, @ M.(.O.+ jXjXjXjXjXjXjXjXjXjXjX",
"jXjXjXjXjXjXjXjXjXjXjXjXjX% 5 &.H.J.,., h.h.9.8.9.8.w.*X7Xu.1 > e N.Q.E d u jXjXjXjXjXjXjXjXjXjXjXjX",
"jXjXjXjXjXjXjXjXjXjXjX% J Y.&.=.P.N * : h.j.4.P p 2.9.s.d.9.Y @ n /.!.0 jXjXjXjXjXjXjXjXjXjXjXjXjXjX",
"jXjXjXjXjXjXjXjXjXjX9 3 F.P.:.K.l j n.N.i.9.I u 2.s.h.t.e.j.-X2.t !.Q.!.E jXjXjXjXjXjXjXjXjXjXjXjXjX",
"jXjXjXjXjXjXjXjXjXjX= 9X^...H.E.OXn.(.(.g.s.4 X 2.f.B.j.h.j.*X&X4 d W x.i : jXjXjXjXjXjXjXjXjXjXjXjX",
"jXjXjXjXjXjXjXjXjXjX. hX,X8 U.K.`.K.1.c K K $Xm.K 4.f.f.j.u.j.tXy jXjXjXjXjXjXjXjXjXjXjXjXjXjXjXjXjX",
"jXjXjXjXjXjXjXjXjXjXb.hX|.8 U.L.I.K.*.J z g b.eXc.w s.9.h.r.a.#X8.jXjXjXjXjXjXjXjXjXjXjXjXjXjXjXjXjX",
"jXjXjXjXjXjXjXjXjX, hXyXz X.L.J.P.J.P.K.oX,Xa Z.b o 4.t.B.%X#XC.#X7.b I - jXjXjXjXjXjXjXjXjXjXjXjXjX",
"jXjXjXjXjXjXjXjXjXe rXN @.I.J.F.G.P.F. X.X2X_.5.d b c T k.5X5X5XtXiXfX3Xk.3.K jXjXjXjXjXjXjXjXjXjXjX",
"jXjXjXjXjXjXjXjXjXe * G <.P.P.>.#.L.J..X X/.Q.qXaXgX9X. 5 r.r.r.*X4X3X4X7X&X} + jXjXjXjXjXjXjXjXjXjX",
"jXjXjXjXjXjXjXjXjX0 ,.=.:.P.J.L.<.$.H.XX.X8XpXx.1XgX2X!.N.: , < r w w e a u e e u jXjXjXjXjXjXjXjXjX",
"jXjXjXjXjXjXjXjXjXjX5 ~ $.` >.U.F.' #.t t a z.5.N.(.Q.).wX6XXXXX6XqX5.n.dXl.X jXjXjXjXjXjXjXjXjXjXjX",
"jXjXjXjXjXjXjXjXjXjX# [.x._ %.=.=.^ 4 1 ; + ; e i - x.sXsXhX+X,XuXpXuX^.b u jXjXjXjXjXjXjXjXjXjXjXjX",
"jXjXjXjXjXjXjXjXjXjX4 l l s * y h h % & ~ ` ~ < $ O u z.6.6.x x pX)._.qX0Xl.jXjXjXjXjXjXjXjXjXjXjXjX",
"jXjXjXjXjXjXjXjXjXjXr F n OX].OX}...G B K 6 $.' J i $ . + o = - l.wXW o.1X5.jXjXjXjXjXjXjXjXjXjXjXjX",
"jXjXjXjXjXjXjXjXjXjX9 / <.W.E.n.T.L.%.<...+.V 7 $.$.G V 9 w e 1 jXb.6Xs   jXjXjXjXjXjXjXjXjXjXjXjXjX",
"jXjXjXjXjXjXjXjXjXjX9 ( K.U.L.I.H.*.>.L.I.U. .r i V ' %.u w w r jXjX1Xv.jXjXjXjXjXjXjXjXjXjXjXjXjXjX",
"jXjXjXjXjXjXjXjXjXjXq C &.J.P.J.<.*.P.J.H.J.I.D.J f D B u & & w jXjXjX> jXjXjXjXjXjXjXjXjXjXjXjXjXjX",
"jXjXjXjXjXjXjXjXjXjXjX% H <.L.P.P.I.L.L.L.L.L.P.P.U.G.r 5 D 6 w jXjXjXjXjXjXjXjXjXjXjXjXjXjXjXjXjXjX",
"jXjXjXjXjXjXjXjXjXjXjX&  .:.~ H.D.F.F.H.F.F.D.<.H.J.P.G.=.L.*.u 0 jXjXjX4 4 w jXjXjXjXjXjXjXjXjXjXjX",
"jXjXjXjXjXjXjXjXjXjXjXjXw w 9 u K U ^ ^ ` ` #.` <.P.J.P.D.-.D.U q w 4 < I P : jXjXjXjXjXjXjXjXjXjXjX",
"jXjXjXjXjXjXjXjXjXjXjXjXjXjXjXjXr r w e ^ %.G.L.J.L.J.P.H.^ ` L 0 L { Q {.k 2 jXjXjXjXjXjXjXjXjXjXjX",
"jXjXjXjXjXjXjXjXjXjXjXjXjXjXjXjXjXjXjXjX5 i 7 H R ~ :.:.*.-.] L ( V k .Xk w jXjXjXjXjXjXjXjXjXjXjXjX",
"jXjXjXjXjXjXjXjXjXjXjXjXjXjXjXjXjXjXjXjXjXjXjXq p L L U U A U U ' 4 g k w jXjXjXjXjXjXjXjXjXjXjXjXjX",
"jXjXjXjXjXjXjXjXjXjXjXjXjXjXjXjXjXjXjXjXjXjXjXjXr L ( U p p p K _ ) - jXjXjXjXjXjXjXjXjXjXjXjXjXjXjX",
"jXjXjXjXjXjXjXjXjXjXjXjXjXjXjXjXjXjXjXjXjXjXjXjX% F >.$./ / / / b.S.| 3 jXjXjXjXjXjXjXjXjXjXjXjXjXjX",
"jXjXjXjXjXjXjXjXjXjXjXjXjXjXjXjXjXjXjXjXjXjXjXjXjXV G H G G ~ J >X<X@Xw.4 jXjXjXjXjXjXjXjXjXjXjXjXjX",
"jXjXjXjXjXjXjXjXjXjXjXjXjXjXjXjXjXjXjXjXjXjXjXjXjXjX& 9 9 9 @ 9 '.|.;X~.! B S S Q T w jXjXjXjXjXjXjX",
"jXjXjXjXjXjXjXjXjXjXjXjXjXjXjXjXjXjXjXjXjXjXjXjXjXjXjXjXjXjXjXjX- = ;.R./.u.B.#XB.| < jXjXjXjXjXjXjX",
"jXjXjXjXjXjXjXjXjXjXjXjXjXjXjXjXjXjXjXjXjXjXjXjXjXjXjXjXjXjXjXjXjXjX= }.>X>X:X:X|.> jXjXjXjXjXjXjXjX",
"jXjXjXjXjXjXjXjXjXjXjXjXjXjXjXjXjXjXjXjXjXjXjXjXjXjXjXjXjXjXjXjXjXjXjX2 M >XM - , jXjXjXjXjXjXjXjXjX",
"jXjXjXjXjXjXjXjXjXjXjXjXjXjXjXjXjXjXjXjXjXjXjXjXjXjXjXjXjXjXjXjXjXjXjXjXjXjXjXjXjXjXjXjXjXjXjXjXjXjX",
"jXjXjXjXjXjXjXjXjXjXjXjXjXjXjXjXjXjXjXjXjXjXjXjXjXjXjXjXjXjXjXjXjXjXjXjXjXjXjXjXjXjXjXjXjXjXjXjXjXjX",
"jXjXjXjXjXjXjXjXjXjXjXjXjXjXjXjXjXjXjXjXjXjXjXjXjXjXjXjXjXjXjXjXjXjXjXjXjXjXjXjXjXjXjXjXjXjXjXjXjXjX",
"jXjXjXjXjXjXjXjXjXjXjXjXjXjXjXjXjXjXjXjXjXjXjXjXjXjXjXjXjXjXjXjXjXjXjXjXjXjXjXjXjXjXjXjXjXjXjXjXjXjX"
};
