/* XPM */
static char *result[] = {
/* columns rows colors chars-per-pixel */
"50 50 223 2 ",
"   c #1A000F",
".  c #290019",
"X  c #3F001A",
"o  c #3A0011",
"O  c #2C000F",
"+  c #1C003B",
"@  c #30002B",
"#  c #570008",
"$  c #4C001C",
"%  c #460016",
"&  c #52001D",
"*  c #5D011C",
"=  c #570011",
"-  c #48000A",
";  c #730002",
":  c #69051C",
">  c #7C0917",
",  c #6F1314",
"<  c #570021",
"1  c #5A0022",
"2  c #59052C",
"3  c #590539",
"4  c #540A32",
"5  c #640125",
"6  c #6B0027",
"7  c #75002D",
"8  c #7A012C",
"9  c #750033",
"0  c #780037",
"q  c #741232",
"w  c #462730",
"e  c #78383B",
"r  c #001A43",
"t  c #30154D",
"y  c #313459",
"u  c #1B087B",
"i  c #050E69",
"p  c #15306F",
"a  c #363363",
"s  c #5C1147",
"d  c #412649",
"f  c #54146D",
"g  c #651374",
"h  c #4D246F",
"j  c #0B4470",
"k  c #305153",
"l  c #54515E",
"z  c #4B4C75",
"x  c #52526A",
"c  c #860418",
"v  c #911010",
"b  c #B8000A",
"n  c #A8041B",
"m  c #A31910",
"M  c #BC131A",
"N  c #B00D10",
"B  c #9E3A14",
"V  c #9D2303",
"C  c #A22405",
"Z  c #B33401",
"A  c #BD3200",
"S  c #B92E00",
"D  c #850228",
"F  c #970226",
"G  c #8D003B",
"H  c #830237",
"J  c #93003C",
"K  c #950635",
"L  c #8E1635",
"P  c #A8022B",
"I  c #BD0228",
"U  c #A70438",
"Y  c #B41131",
"T  c #983A3B",
"R  c #B23727",
"E  c #AF3B24",
"W  c #C20D1D",
"Q  c #D21314",
"!  c #D62700",
"~  c #D1300A",
"^  c #EC3501",
"/  c #CC013A",
"(  c #D80A37",
")  c #D50932",
"_  c #F0063C",
"`  c #C03B32",
"'  c #B74406",
"]  c #954438",
"[  c #BD5331",
"{  c #907B33",
"}  c #CE4500",
"|  c #D74700",
" . c #D55200",
".. c #F84200",
"X. c #FD5600",
"o. c #E94C0B",
"O. c #D67300",
"+. c #FE6200",
"@. c #F76000",
"#. c #FF7D00",
"$. c #FF7300",
"%. c #E4671F",
"&. c #C57727",
"*. c #B6004B",
"=. c #B60057",
"-. c #AF0A47",
";. c #842B4B",
":. c #97344C",
">. c #9C3050",
",. c #C80445",
"<. c #D61647",
"1. c #C20153",
"2. c #CE0258",
"3. c #D3005B",
"4. c #CF0A46",
"5. c #FA074A",
"6. c #FD184A",
"7. c #FD0353",
"8. c #FB055A",
"9. c #FA1859",
"0. c #E80D59",
"q. c #CC2B51",
"w. c #C63759",
"e. c #FF295D",
"r. c #FE245B",
"t. c #EC305B",
"y. c #D8186B",
"u. c #E80068",
"i. c #F90B64",
"p. c #FD1864",
"a. c #F6086D",
"s. c #FF2962",
"d. c #FF3265",
"f. c #FF3A69",
"g. c #FF3674",
"h. c #EE307D",
"j. c #B55351",
"k. c #8D7F40",
"l. c #B26B57",
"z. c #A95663",
"x. c #A54F74",
"c. c #9A7064",
"v. c #B66571",
"b. c #C15749",
"n. c #D44C52",
"m. c #CA6556",
"M. c #E2605B",
"N. c #CD4E75",
"B. c #FF4A79",
"V. c #F64E6F",
"C. c #E47B71",
"Z. c #BD862E",
"A. c #CC8908",
"S. c #FF8400",
"D. c #FF8D00",
"F. c #F28700",
"G. c #FF9300",
"H. c #FF9C00",
"J. c #FF9F14",
"K. c #FFB400",
"L. c #FFBE00",
"P. c #FFAC00",
"I. c #E1893A",
"U. c #FFB439",
"Y. c #FFC200",
"T. c #FFDD00",
"R. c #D78C53",
"E. c #FA8652",
"W. c #C88574",
"Q. c #FF986E",
"!. c #FFAF76",
"~. c #BAD277",
"^. c #FFC374",
"/. c #00129B",
"(. c #00388F",
"). c #00358F",
"_. c #00328F",
"`. c #0028A7",
"'. c #003FA9",
"]. c #1D4786",
"[. c #00448A",
"{. c #006898",
"}. c #0F47A3",
"|. c #2D65B7",
" X c #003DD0",
".X c #2E51C2",
"XX c #F93E81",
"oX c #885382",
"OX c #90779E",
"+X c #FF5E86",
"@X c #FC5489",
"#X c #FF548F",
"$X c #DC6A87",
"%X c #FF6B89",
"&X c #FF749B",
"*X c #FF7799",
"=X c #F66C89",
"-X c #CA67A6",
";X c #FF7BA2",
":X c #00A1EA",
">X c #AE869C",
",X c #9A80AF",
"<X c #B78FB6",
"1X c #FE859D",
"2X c #F5978A",
"3X c #FFB18C",
"4X c #FF8DA8",
"5X c #FF96AC",
"6X c #FF96B7",
"7X c #F6B4A4",
"8X c #FFD9A6",
"9X c #FFC8B6",
"0X c #FFE9BB",
"qX c #FFE2AF",
"wX c #8CB3EC",
"eX c #FF9DC1",
"rX c #FFA9C2",
"tX c #F3D4C8",
"yX c #FFECD3",
"uX c #FFF7D8",
"iX c #FFF3C7",
"pX c #FFF8EF",
"aX c None",
/* pixels */
"aXaXaXaXaXaXaXaXaXaXaXaXaXaXaXaXaXaXaXaXaXaXaXaXaXaXaXaXaXaXaXaXaXaXaXaXaXaXaXaXaXaXaXaXaXaXaXaXaXaX",
"aXaXaXaXaXaXaXaXaXaXaXaXaXaXaXaXaXaXaXaXaXaXaXaXaXaXaXaXaXaXaXaXaXaXaXaXaXaXaXaXaXaXaXaXaXaXaXaXaXaX",
"aXaXaXaXaXaXaXaXaXaXaXaXaXaXaXaXaXaXaXaXaXaXaXaXaXaXaXaXaXaXaXaXaXaXaXaXaXaXaXaXaXaXaXaXaXaXaXaXaXaX",
"aXaXaXaXaXaXaXaXaXaXaXaXaXaXaXaXaXaXaXaXaXaXaXaXaXaXaXaXaXaXaXaXaXaXaXaXaXaXaXaXaXaXaXaXaXaXaXaXaXaX",
"aXaXaXaXaXaXaXaXaXaXaXaXaXaXaXaXaXaXaXaXaXaXaXaXaXaXaXaXaXaXaXaXaXaXaXaXaXaXaXaXaXaXaXaXaXaXaXaXaXaX",
"aXaXaXaXaXaXaXaXaXaXaXaXaXaXaXaXaXaXaXaXaXaXaXaXaXaXaXaXaXaXaXaXaXaXaXaXaXaXaXaXaXaXaXaXaXaXaXaXaXaX",
"aXaXaXaXaXaXaXaXaXaXaXaXaXaXaXaXaXaXaXaXaXaXaXaXaXaXaXaXaXaXaXaXaXaXaXaXaXaXaXaXaXaXaXaXaXaXaXaXaXaX",
"aXaXaXaXaXaXaXaXaXaXaXaXaXaXaXaXaXaXaXaXaXaXaXaXaXaXaXaXaXaXaXaXaXaXaXaXaXaXaXaXaXaXaXaXaXaXaXaXaXaX",
"aXaXaXaXaXaXaXaXaXaXaXaXaXaXaXaXaXaXaXaXaXaXaXaXaXaXaXaXaXaXaXaXaXaXaXaXaXaXaXaXaXaXaXaXaXaXaXaXaXaX",
"aXaXaXaXaXaXaXaXaXaXaXaXaXaXaXaXaXaXaXaXaXaXaXaXaXaXaXaXaXaXaXaXaXaXaXaXaXaXaXaXaXaXaXaXaXaXaXaXaXaX",
"aXaXaXaXaXaXaXaXaXaXaXaXaXaXaXaXaXaXaXaXaXaXaXaXaXaXaXaXaXaXaXaXaXaXaXaXaXaXaXaXaXaXaXaXaXaXaXaXaXaX",
"aXaXaXaXaXaXaXaXaXaXaXaXaXaXaXaXaXaXaXaXaXaXaXaXaXaXaXaXaXaXaXaXaXaXaXaXaXaXaXaXaXaXaXaXaXaXaXaXaXaX",
"aXaXaXaXaXaXaXaXaXaXaXaXaXaXaXaXaXaXaXaXaXaXaXaXaXaXaXaXaXaXaXaXaXaXaXaXaXaXaXaXaXaXaXaXaXaXaXaXaXaX",
"aXaXaXaXaXaXaXaXaXaXaXaXaXaXaXaXaXaXaXaXaXaXaXaXaXaXaXaXaXaXaXaXaXaXaXaXaXaXaXaXaXaXaXaXaXaXaXaXaXaX",
"aXaXaXaXaXaXaXaXaXaXaXaXaXaXaXaXaXaXaXaXaXaXaXaXaXaXaXaXaXaXaXaXaXaXaXaXaXaXaXaXaXaXaXaXaXaXaXaXaXaX",
"aXaXaXaXaXaXaXaXaXaXaXaXaXaXaXaXaXaXaXaXaXaXaXaXaXaXaXaXaXaXaXaXaXaXaXaXaXaXaXaXaXaXaXaXaXaXaXaXaXaX",
"aXaXaXaXaXaXaXaXaXaXaXaXaXaXaXaXaXaXaXaXaXaXaXaXaXaXaXaXaXaXaXaXaXaXaXaXaXaXaXaXaXaXaXaXaXaXaXaXaXaX",
"aXaXaXaXaXaXaXaXaXaXaXaXaXaXaXaXaXaXaXaXaXaXaXaXaXaXaXaXaXaXaXaXaXaXaXaXaXaXaXaXaXaXaXaXaXaXaXaXaXaX",
"aXaXaXaXaXaXaXaXaXaXaXaXaXaXaXaXaXaXaXaXaXaXaXaXaXaXaXaXaXaXaXaXaXaXaXaXaXaXaXaXaXaXaXaXaXaXaXaXaXaX",
"aXaXaXaXaXaXaXaXaXaXaXaXaXaXaXaXaXaXaXaXaXaXaXaXaXaXaXaXaXaXaXaXaXaXaXaXaXaXaXaXaXaXaXaXaXaXaXaXaXaX",
"aXaXaXaXaXaXaXaXaXaXaXaXaXaXaXaXaXaXaXaXaXaXaXaXaXaXaXaXaXaXaXaXaXaXaXaXaXaXaXaXaXaXaXaXaXaXaXaXaXaX",
"aXaXaXaXaXaXaXaXaXaXaXaXaX$ 1 aXaXaXaXaXaXaXaXaXaXaXaXaXaXaXaXaXaXaXaXaXaXaXaXaXaXaXaXaXaXaXaXaXaXaX",
"aXaXaXaXaXaXaXaX$ aXaXaXaX7 < aXaXaXaXaXaXaXaXaXaXaXaXaXaXaXaXaXaXaXaXaXaXaXaXaXaXaXaXaXaXaXaXaXaXaX",
"aXaXaXaXaXaXaXU 1 aXaXaX9 *.< aXaXaXaXaXaXaXaXaXaXaXaXaXaXaXaXaXaXaXaXaXaXaXaXaXaXaXaXaXaXaXaXaXaXaX",
"aXaXaXaXaXaXJ g.<.aXaXaX*.*.o aXaXaXaXaXaXaXaXaXaXaXaXaXaXaXaXaXaXaXaXaXaXaXaXaXaXaXaXaXaXaXaXaXaXaX",
"aXaXaXaXaXX 9.g.s.$ aX1 2.=.2 1 8 5 & aXaXaXaXaXaXaXaXaXaXaXaXaXaXaXaXaXaXaXaXaXaXaXaXaXaXaXaXaXaXaX",
"aXaXaXaXaXX e.d.W <.aX  4.&X+Xs.e.6 aXaXaXaXaXaXaXaXaXaXaXaXaXaXaXaXaXaXaXaXaXaXaXaXaXaXaXaXaXaXaXaX",
"aXaXaXaXaXX e.d.F ( <.K +X&Xs.s.D aXaXaXaXaXaXaXaXaXaXaXaXaXaXaXaXaXaXaXaXaXaXaXaXaXaXaXaXaXaXaXaXaX",
"aXaX< aXaX% 0.s.( 6./ *.4Xf.f.K aXaXaXaXaXaXaXaXaXaXaXaXaXaXaXaXaXc m D D : aXaXaXaXaXaXaXaXaXaXaXaX",
"aXaX< % aXaX9 ,.q.;X6.P y.i.i.J O $ $ $ aXaXaXaXaXaXaXaXaXaXaX@ ' H.S.W ~ v aXaXaXaXaXaXaXaXaXaXaXaX",
"aXaXK 9.5 aXaXO U *X&Xp.y.@Xs.7.s.2X7X9Xv.aXaXaXaXaXaXaXaXaX> +.K.Y.D.M F ! : aXaXaXaXaXaXaXaXaXaXaX",
"aXaX8 e.@Xq.= 0 / ( =XXX+XB.9.i.=XiXyXuXyX:.aXC } , aXaXaXaXO.T.L.S.G.o.G ` > aXaXaXaXv b aXaXaXaXaX",
"aXaXaX: B.6Xd.5.8.,.G =.d.s.0.n.E 7XyX9X!.j.2 &.A. .Z aXaXv X.X.^ ! ^ c 4 u g D aXaXn V.N.aXaXaXaXaX",
"aXaXaXaX# B.6X;XXX8.8.5.9.3.M.B E 0XpX3XM.b.l.}.i l Y.A t h g f g g u e S B f $ D o.W.:XaXaXaXaXaXaX",
"aXaXaXaXaX= >.*XrX4X5X5X2.p.4X1X4X%XQ.!.m.j.OX}.r `.I.H.y (.(.(.(.(.`.k.K.#.| c W R k t aXaXaXaXaXaX",
"aXaXaXaXaXaXaX: L s $XrXu.s.%X#XB.N [ C.[ | %.l.S.F.#.X.y }.x z z z ].Z.L.@...P ~ , aXaXaXaXaXaXaXaX",
"aXaXaXaXaXaXaXaXaXaXw.*Xe.8.5._ n * l.;.V #.D.O.#.G.#.R p c.G.K.K.Y.P.D.G.X.M 0 M ^ Q D Z b W 9 aXaX",
"aXaXaXaXaXaXaXaXaXaXN.6X*X9.,.) 5 R.^.;.S J.[./.t N ! |.j @.#.D.} Z } m n Y H G ^ M.-XU.~.-Xt.> aXaX",
"aXaXaXaXaXaXaXaXaXaXK / N.=Xg.e.U T ] 4 C l _.>X<Xv.L t @ X.} # x.oX  . F Q ~ o.^ a {.{ ].{.t aXaXaX",
"aXaXaXaXaXaXaXaXaXaXaXaXw 6X6.F 2.*.7 & o i |.3X8XpXW.R.2X; :.>X9XqXz.aX, C m m 5 aXaXaXaXaXaXaXaXaX",
"aXaXaXaXaXaXaXaXaXaXaXaX4Xf.; *.u.u.1.$ aX3 s q q m.Q.qXtX XwXiXQ.8X0X:.aXaXaXaXaXaXaXaXaXaXaXaXaXaX",
"aXaXaXaXaXaXaXaXaXaXaX-.C.5 U 2.9 G 6 aXaXaXaXaXaX- * = 3 .X,X2X!.9Xv.& aXaXaXaXaXaXaXaXaXaXaXaXaXaX",
"aXaXaXaXaXaXaXaXaXaX$ 4.aXaXa.J aX$ & aXaXaXaXaXaXaXaXaXaX# % o z.4 aXaXaXaXaXaXaXaXaXaXaXaXaXaXaXaX",
"aXaXaXaXaXaXaXaXaXaX1 O aXaX1.5 aX1 aXaXaXaXaXaXaXaXaXaXaXaXaXaXaXaXaXaXaXaXaXaXaXaXaXaXaXaXaXaXaXaX",
"aXaXaXaXaXaXaXaXaXaXaXaXaXaXJ aXaXaXaXaXaXaXaXaXaXaXaXaXaXaXaXaXaXaXaXaXaXaXaXaXaXaXaXaXaXaXaXaXaXaX",
"aXaXaXaXaXaXaXaXaXaXaXaXaXaXaXaXaXaXaXaXaXaXaXaXaXaXaXaXaXaXaXaXaXaXaXaXaXaXaXaXaXaXaXaXaXaXaXaXaXaX",
"aXaXaXaXaXaXaXaXaXaXaXaXaXaXaXaXaXaXaXaXaXaXaXaXaXaXaXaXaXaXaXaXaXaXaXaXaXaXaXaXaXaXaXaXaXaXaXaXaXaX",
"aXaXaXaXaXaXaXaXaXaXaXaXaXaXaXaXaXaXaXaXaXaXaXaXaXaXaXaXaXaXaXaXaXaXaXaXaXaXaXaXaXaXaXaXaXaXaXaXaXaX",
"aXaXaXaXaXaXaXaXaXaXaXaXaXaXaXaXaXaXaXaXaXaXaXaXaXaXaXaXaXaXaXaXaXaXaXaXaXaXaXaXaXaXaXaXaXaXaXaXaXaX",
"aXaXaXaXaXaXaXaXaXaXaXaXaXaXaXaXaXaXaXaXaXaXaXaXaXaXaXaXaXaXaXaXaXaXaXaXaXaXaXaXaXaXaXaXaXaXaXaXaXaX"
};
