/* XPM */
static char *result[] = {
/* columns rows colors chars-per-pixel */
"50 50 228 2 ",
"   c #0F0000",
".  c #240009",
"X  c #3A000D",
"o  c #3D0017",
"O  c #25001D",
"+  c #3D0239",
"@  c #300024",
"#  c #132A3C",
"$  c #570009",
"%  c #4C001C",
"&  c #460018",
"*  c #5B011B",
"=  c #58001A",
"-  c #49000F",
";  c #67031C",
":  c #7C011C",
">  c #710D0A",
",  c #71201A",
"<  c #480026",
"1  c #540023",
"2  c #5B0124",
"3  c #56022A",
"4  c #53162E",
"5  c #6C0123",
"6  c #6A022B",
"7  c #640426",
"8  c #750124",
"9  c #711338",
"0  c #773034",
"q  c #764C29",
"w  c #0B1E46",
"e  c #241B48",
"r  c #371462",
"t  c #780F4B",
"y  c #623B73",
"u  c #565F5D",
"i  c #725258",
"p  c #7E4270",
"a  c #54706D",
"s  c #880408",
"d  c #81051F",
"f  c #981615",
"g  c #811E18",
"h  c #B30710",
"j  c #A6170D",
"k  c #952C11",
"l  c #AA3708",
"z  c #B93902",
"x  c #A62210",
"c  c #B32B0E",
"v  c #870225",
"b  c #97002B",
"n  c #89013A",
"m  c #97023C",
"M  c #8C1B31",
"N  c #A40324",
"B  c #AD0323",
"V  c #A80239",
"C  c #B9003B",
"Z  c #8A2234",
"A  c #B6293A",
"S  c #C41A17",
"D  c #CA1219",
"F  c #C92B10",
"G  c #CB2F10",
"H  c #EC300D",
"J  c #C40821",
"K  c #C50239",
"L  c #E50631",
"P  c #BB4E04",
"I  c #A6421B",
"U  c #A24133",
"Y  c #915227",
"T  c #C54502",
"R  c #D45F00",
"E  c #F94C00",
"W  c #E85100",
"Q  c #FD5800",
"!  c #D36000",
"~  c #FE6800",
"^  c #EA7800",
"/  c #FF7C00",
"(  c #FF7400",
")  c #E66B00",
"_  c #C7543A",
"`  c #CB653F",
"'  c #DE6C21",
"]  c #FA723E",
"[  c #E9523A",
"{  c #9B0143",
"}  c #8E1E48",
"|  c #AA004C",
" . c #BF024C",
".. c #B71341",
"X. c #B30056",
"o. c #8B334D",
"O. c #9D3E49",
"+. c #8B2E4D",
"@. c #AB354B",
"#. c #CA0646",
"$. c #CD0157",
"%. c #FA044A",
"&. c #E80457",
"*. c #F80555",
"=. c #FF1C55",
"-. c #FF1659",
";. c #E81757",
":. c #CF2F4F",
">. c #FF255B",
",. c #FF275B",
"<. c #E82854",
"1. c #D91D6C",
"2. c #FF1964",
"3. c #F9116A",
"4. c #DE3A6D",
"5. c #FD2A67",
"6. c #FF3362",
"7. c #FA3868",
"8. c #FF3975",
"9. c #EC2A68",
"0. c #AA4C4A",
"q. c #BD5A44",
"w. c #AE5059",
"e. c #B75A62",
"r. c #A35C76",
"t. c #B87D7F",
"y. c #C25A4C",
"u. c #F75957",
"i. c #C67155",
"p. c #EB7952",
"a. c #F3764B",
"s. c #C44179",
"d. c #FF446D",
"f. c #FD4677",
"g. c #FF557C",
"h. c #ED4E75",
"j. c #DE7B65",
"k. c #D38000",
"l. c #FF8C00",
"z. c #F98600",
"x. c #FF9A02",
"c. c #FFA400",
"v. c #FFAD00",
"b. c #FFB400",
"n. c #DCAF36",
"m. c #FBA737",
"M. c #FFC300",
"N. c #FFCE00",
"B. c #FFE300",
"V. c #AA885D",
"C. c #DE9641",
"Z. c #FD8D58",
"A. c #FC8E52",
"S. c #C88767",
"D. c #CE9571",
"F. c #D19B75",
"G. c #CD926F",
"H. c #EE8B6D",
"J. c #D5A87E",
"K. c #A6D34D",
"L. c #001182",
"P. c #022B8C",
"I. c #0035A9",
"U. c #47338D",
"Y. c #005ABA",
"T. c #3560B3",
"R. c #6E518F",
"E. c #0039D6",
"W. c #2E7DF9",
"Q. c #0D7CED",
"!. c #B75C86",
"~. c #B97790",
"^. c #FF5D8C",
"/. c #FF5887",
"(. c #F35B8B",
"). c #FD668B",
"_. c #FF6894",
"`. c #FF7A9B",
"'. c #FB799A",
"]. c #FF728F",
"[. c #C773A3",
"{. c #FF7DA5",
"}. c #FF65A9",
"|. c #D45A8B",
" X c #0083B5",
".X c #7D8A95",
"XX c #0090C4",
"oX c #2A82FF",
"OX c #2EA5D5",
"+X c #7597C0",
"@X c #9A86B9",
"#X c #AC87A6",
"$X c #DC9288",
"%X c #F09192",
"&X c #DDBB8B",
"*X c #D9B386",
"=X c #DAA78F",
"-X c #F8A395",
";X c #FFB594",
":X c #ECB293",
">X c #DB99AD",
",X c #FF89A8",
"<X c #F190B0",
"1X c #DCB2BB",
"2X c #F8B9AF",
"3X c #FFA4BC",
"4X c #E4C995",
"5X c #EAD59D",
"6X c #F8D49A",
"7X c #FFE29A",
"8X c #FFCAA9",
"9X c #EFDDA1",
"0X c #FFDBA9",
"qX c #F2E3A5",
"wX c #F7EDAC",
"eX c #FAF2AD",
"rX c #F8ECB4",
"tX c #FEFDBB",
"yX c #F9F5B1",
"uX c #A2AEDA",
"iX c #C3BAD3",
"pX c #FFA8C0",
"aX c #FFB5CA",
"sX c #FFE6C7",
"dX c #FFEAD7",
"fX c #FFFDD0",
"gX c #F7FDFB",
"hX c None",
/* pixels */
"hXhXhXhXhXhXhXhXhXhXhXhXhXhXhXhXhXhXhXhXhXhXhXhXhXhXhXhXhXhXhXhXhXhXhXhXhXhXhXhXhXhXhXhXhXhXhXhXhXhX",
"hXhXhXhXhXhXhXhXhXhXhXhXhXhXhXhXhXhXhXhXhXhXhXhXhXhXhXhXhXhXhXhXhXhXhXhXhXhXhXhXhXhXhXhXhXhXhXhXhXhX",
"hXhXhXhXhXhXhXhXhXhXhXhXhXhXhXhXhXhXhXhXhXhXhXhXhXhXhXhXhXhXhXhXhXhXhXhXhXhXhXhXhXhXhXhXhXhXhXhXhXhX",
"hXhXhXhXhXhXhXhXhXhXhXhXhXhXhXhXhXhXhXhXhXhXhXhXhXhXhXhXhXhXhXhXhXhXhXhXhXhXhXhXhXhXhXhXhXhXhXhXhXhX",
"hXhXhXhXhXhXhXhXhXhXhXhXhXhXhXhXhXhXhXhXhXhXhXhXhXhXhXhXhXhXhXhXhXhXhXhXhXhXhXhXhXhXhXhXhXhXhXhXhXhX",
"hXhXhXhXhXhXhXhXhXhXhXhXhXhXhXhXhXhXhXhXhXhXhXhXhXhXhXhXhXhXhXhXhXhXhXhXhXhXhXhXhXhXhXhXhXhXhXhXhXhX",
"hXhXhXhXhXhXhXhXhXhXhXhXhXhXhXhXhXhXv V 2 hXhXhXhXhXhXhXhXhXhXhXhXhXhXhXhXhXhXhXhXhXhXhXhXhXhXhXhXhX",
"hXhXhXhXhXhXhXhXhXhXhXhXhXhXhXhXhX* ^.6.hXhXhXhXhXhXhXhXhXhXhXhXhXhXhXhXhXhXhXhXhXhXhXhXhXhXhXhXhXhX",
"hXhXhXhXhXhXhXhXhXhXhXhXhXhXhXhX; /.,X6 hXhX* 2 3 2 hXhXhXhXhXhXhXhXhXhXhXhXhXhXhXhXhXhXhXhXhXhXhXhX",
"hXhXhXhXhXhXhXhX3 o hXhXhXhXhX- /.3X%.& hX7.pX3X`.f.K o hXhXhXhXhXhXhXhXhXhXhXhXhXhXhXhXhXhXhXhXhXhX",
"hXhXhXhXhXhXhXhX7 v hXhXhXhXhXV 3X).&.< : 4.%X|.5.,.hXhXhXhXhXhXhXhXhXhXhXhXhXhXhXhXhXhXhXhXhXhXhXhX",
"hXhXhXhXhXhXhXhX6 h.6 hXhXhXX ).,X>.$.v h.|.V b #.hXhXhXhXhXhXhXhXhXhXhXhXhXhXhXhXhXhXhXhXhXhXhXhXhX",
"hXhXhXhXhX1 hXhX3 '.4.hXhXhX  >XaX=.C d.,Xg.>.&.= hXhXhXhXhXhXhXhXhXhXhXhXhXhXhXhXhXhXhXhXhXhXhXhXhX",
"hXhXhXhXhX7 8 hXhX^.).  v n i ,X'.&.f.,X6.K &.{ hXhX1 hXhXhXhXhXhXhXhXhXhXhXhXhXhXhXhXhXhXhXhXhXhXhX",
"hXhXhXhXhX5 d.@.. ,.`.+.=.`.{.d.L &.].f. .n m X hX..6 hXhXhXhXhXhXhXhXhXhXhXhXhXhXhXhXhXhXhXhXhXhXhX",
"hXhXhXhXhXhX..,Xs.K ].}./.).%.,.f.5.=.*.v 5 4.7._.g.5 hXhXhXhXhXhXhXhXhXhXhXhXhXhXhXhXhXhXhXhXhXhXhX",
"hXhXhXhXhXhX- ,.{.1.*.5.3.2.-.&.{.`.>.9.|.$./.pX^.5 hXhXhXhXhXhXhXhXhXhXhXhXhXhXhXhXhXhXhXhXhXhXhXhX",
"hXhXhXhXhXhXhX5 5.5.&.5.&.-.&.X.-.g.{.'.,X_.3.=.5 hXhXhXhXhXhXhXhXhXhXhXhXhXhXhXhXhXhXhXhXhXhXhXhXhX",
"hXhXhXhXhX2 | |  .=.7.*.*.g.,X1.*.-.g.^.-.d.8.#.hXhXhXhXhXhXhXhXhXhXhXhXhXhXhXhXhXhXhXhXhXhXhXhXhXhX",
"hXhXhXhXhXhX2 { |  .6.;.%._.8XA.9.*.-.9.{ m 2.5.m o hXhXhXhXhXhXhXhXhXhXhXhXhXhXhXhXhXhXhXhXhXhXhXhX",
"hXhXhXhXhXhXhXhX% | m Y u.3.%X` U A 6.u.& 8 { 1 hXhXhXhXhXhXhXhXhXhXhXhXhXhXhXhXhXhXhXhXhXhXhXhXhXhX",
"hXhXhXhXhXhXhXhXhXhXO O.Z.@.a.@.iX~.[ A.3 hXhXhXhXhXhXhXhXhXhXhXhXhXhXhXhXhXhXhXhXhXhXhXhXhXhXhXhXhX",
"hXhXhXhXhXhXhXhXhX2 , M 0.i.A.q.gXgX;XM hXhXhXhXhXhXhXhXhXhXhXhXhXhXhXhXhXhXhXhXhXhXhXhXhXhXhXhXhXhX",
"hXhXhXhXhXhXhXz z Q x.o.U p.Z.A.-XgX1X& hXhXhXhXhXhXhXhXhXhXhXhXhXhXhXhXhXhXhXhXhXhXhXhXhXhXhXhXhXhX",
"hXhXhXhXhXhX7 V.V.z.~ y.;Xi._ Z.sX=Xs $ hXhXhXhXhXhXhXhXhXhXhXhXhXhXhXhXhXhXhXhXhXhXhXhXhXhXhXhXhXhX",
"hXhXhXhXhXhX1XuXE.u / q.Q.2Xa.y.e.' E : hXhXhXhXhXhXhXhXhXhXhXhXhXhXhXhXhXhXhXhXhXhXhXhXhXhXhXhXhXhX",
"hXhXhXhXhX- 8X7Xy e l.x.i T.iX#XR.A.z e.M hXhXO.o.hXhXhXhXhXhXhXhXhXhXhXhXhXhXhXhXhXhXhXhXhXhXhXhXhX",
"hXhXhXhX9 :Xp.k $ . T b./ q L.P.L..X0.] $XP.r.;XH.=XhXhXhXhXhXhXhXhXhXhXhXhXhXhXhXhXhXhXhXhXhXhXhXhX",
"hXhXhX0 dXfX+.1 H.r.k N.l.z.Y w # +Xp > R.oX$XU j.sX9 hXhXhXhXhXhXhXhXhXhXhXhXhXhXhXhXhXhXhXhXhXhXhX",
"hXhXhX@.iXoX1X8XrX-Xf z.l.h z l.v.I hXhXhX3 i.-X6X} hXhXhXhXhXhXhXhXhXhXhXhXhXhXhXhXhXhXhXhXhXhXhXhX",
"hXhXhXhX+ U.dX0XA.i.hXO : P l f 0 o hXhXhXhXhX+.t.2 hXhXhXhXhXhXhXhXhXhXhXhXhXhXhXhXhXhXhXhXhXhXhXhX",
"hXhXhXhXhXhXw.sXe.hXhXk ^ b.c.P 4 ) z.R 1 hXhXhXhXhXhXhXhXhXhXhXhXhXhXhXhXhXhXhXhXhXhXhXhXhXhXhXhXhX",
"hXhXhXhXhXhXhXt hXhXhXT N.x.c.v.j R B.b./ f , 7 hXhXhXhXhXhXhXhXhXhXhXhXhXhXhXhXhXhXhXhXhXhXhXhXhXhX",
"hXhXhXhXhXhXhXhXhXhXhXP l.c.b.c.c 6 ) / b.v.b.( 1 hXhXhXhXhXhXhXhXhXhXhXhXhXhXhXhXhXhXhXhXhXhXhXhXhX",
"hXhXhXhXhXhXhXhXhXhXhXg ~ Q z.v.H v : W l.b.v.v.c hXhXhXhXhXhXhXhXhXhXhXhXhXhXhXhXhXhXhXhXhXhXhXhXhX",
"hXhXhXhXhXhXhXhXhXhXhXhX7 N N G F b c l W ~ x.M.( 2 hXhXhXhXhXhXhXhXhXhXhXhXhXhXhXhXhXhXhXhXhXhXhXhX",
"hXhXhXhXhXhXhXhXhXhXhXhXhX5 S S b b c ; 1 b G l.~ B ; hXhXhXhXhXhXhXhXhXhXhXhXhXhXhXhXhXhXhXhXhXhXhX",
"hXhXhXhXhXhXhXhXhXhXhXhXhX3 v x G H d hXhXc H B b J F < hXhXhXhXhXhXhXhXhXhXhXhXhXhXhXhXhXhXhXhXhXhX",
"hXhXhXhXhXhXhXhXhXhXhXhXhXhXhXhX0 !.V hXhXx E J h F v hXhXhXhXhXhXhXhXhXhXhXhXhXhXhXhXhXF.hXhXhXhXhX",
"hXhXhXhXhXhXhXhXhXhXhXhXhXhXhXhXhXa m.s hXhXd } 0.N 2 hXhXhXhXhXhXhXhXhX4XhXhXJ.F.hX4XF.i.hXhXhXhXhX",
"hXhXhXhXhXhXhXhXhXhXhXhXhXhXhXhXhXk K.U hXhXhX< I.t ; hXhXhXhXhXhXhXhX&X&X*X*X5XqX&XG.S.hXhXhXhXhXhX",
"hXhXhXhXhXhXhXhXhXhXhXhXhXhXhXhXhXhXY.@XJ hXhXhXr R.f hXhXhXhXhXhXhXhX5X&X&XwXqX4X&XJ.&X4X4X*XS.hXhX",
"hXhXhXhXhXhXhXhXhXhXhXhXhXhXhXhXhXhXhXOXL hXhXhX& n.C.w hXhXhXhXhX&XwXqXqXfXwX9X&X*X5X4X*XG.S.hXhXhX",
"hXhXhXhXhXhXhXhXhXhXhXhXhXhXhXhXhXhXhXhXhXhXhXhXhXY.[.} hXhXhXhXqXtXtXtXeXwXrXwXqX4X&XG.hXhXhXhXhXhX",
"hXhXhXhXhXhXhXhXhXhXhXhXhXhXhXhXhXhXhXhXhXhXhXhXhXhXXX<.> hX6XqXtX5XeXtX5XwXtX9XqX4XG.S.hXhXhXhXhXhX",
"hXhXhXhXhXhXhXhXhXhXhXhXhXhXhXhXhXhXhXhXhXhXhXhXhXhXhXhXhXhXhXhXhXhXhXhXhXhXhXhXhXhXhXhXhXhXhXhXhXhX",
"hXhXhXhXhXhXhXhXhXhXhXhXhXhXhXhXhXhXhXhXhXhXhXhXhXhXhXhXhXhXhXhXhXhXhXhXhXhXhXhXhXhXhXhXhXhXhXhXhXhX",
"hXhXhXhXhXhXhXhXhXhXhXhXhXhXhXhXhXhXhXhXhXhXhXhXhXhXhXhXhXhXhXhXhXhXhXhXhXhXhXhXhXhXhXhXhXhXhXhXhXhX",
"hXhXhXhXhXhXhXhXhXhXhXhXhXhXhXhXhXhXhXhXhXhXhXhXhXhXhXhXhXhXhXhXhXhXhXhXhXhXhXhXhXhXhXhXhXhXhXhXhXhX",
"hXhXhXhXhXhXhXhXhXhXhXhXhXhXhXhXhXhXhXhXhXhXhXhXhXhXhXhXhXhXhXhXhXhXhXhXhXhXhXhXhXhXhXhXhXhXhXhXhXhX"
};
