/* XPM */
static char *result[] = {
/* columns rows colors chars-per-pixel */
"50 50 232 2 ",
"   c #110001",
".  c #220000",
"X  c #350005",
"o  c #2E0311",
"O  c #390017",
"+  c #1D0029",
"@  c #2A0122",
"#  c #360028",
"$  c #270037",
"%  c #342137",
"&  c #48040E",
"*  c #540009",
"=  c #470019",
"-  c #52001E",
";  c #58001A",
":  c #670008",
">  c #780E07",
",  c #69041E",
"<  c #78051E",
"1  c #751519",
"2  c #5D3C18",
"3  c #4A0024",
"4  c #440326",
"5  c #5B0023",
"6  c #570024",
"7  c #490937",
"8  c #640024",
"9  c #6C042B",
"0  c #780128",
"q  c #7C0233",
"w  c #720032",
"e  c #641337",
"r  c #5D2022",
"t  c #642422",
"y  c #030554",
"u  c #3E0758",
"i  c #310A55",
"p  c #223C5A",
"a  c #061375",
"s  c #003171",
"d  c #2E216C",
"f  c #2A0C72",
"g  c #471047",
"h  c #772442",
"j  c #732A43",
"k  c #481462",
"l  c #6F1A7B",
"z  c #482872",
"x  c #6F3D6C",
"c  c #592956",
"v  c #694E54",
"b  c #785B6B",
"n  c #74536C",
"m  c #756A61",
"M  c #565566",
"N  c #960214",
"B  c #951618",
"V  c #8C130C",
"C  c #AB1D18",
"Z  c #B40C19",
"A  c #962F0D",
"S  c #AD3110",
"D  c #82012B",
"F  c #861729",
"G  c #890334",
"H  c #980339",
"J  c #9B002E",
"K  c #A7033B",
"L  c #B7113B",
"P  c #B20B2D",
"I  c #A8393B",
"U  c #912C2B",
"Y  c #C81919",
"T  c #D01B16",
"R  c #CB2908",
"E  c #D92606",
"W  c #CC2B0E",
"Q  c #C7013B",
"!  c #C50E20",
"~  c #C73221",
"^  c #9C4A0D",
"/  c #B04103",
"(  c #BB5323",
")  c #9C603D",
"_  c #BA7F2F",
"`  c #AF7515",
"'  c #C95804",
"]  c #DC4500",
"[  c #EA4B04",
"{  c #FF5500",
"}  c #F65600",
"|  c #EE5300",
" . c #DF6900",
".. c #EC6400",
"X. c #E16700",
"o. c #FE6600",
"O. c #FF7300",
"+. c #FB7C00",
"@. c #FD6412",
"#. c #E27636",
"$. c #CB4F31",
"%. c #9B0043",
"&. c #850D42",
"*. c #AC0049",
"=. c #A60045",
"-. c #B30347",
";. c #B10A59",
":. c #822A4C",
">. c #96244B",
",. c #96334F",
"<. c #AA374B",
"1. c #803E6B",
"2. c #BD3D6F",
"3. c #D7014D",
"4. c #DF0456",
"5. c #C9135D",
"6. c #CF134A",
"7. c #E60049",
"8. c #FF0249",
"9. c #E30258",
"0. c #FA0757",
"q. c #FB1B58",
"w. c #F71253",
"e. c #D02651",
"r. c #FB2659",
"t. c #EC2356",
"y. c #D60262",
"u. c #EB0065",
"i. c #FC1968",
"p. c #E31869",
"a. c #CC3371",
"s. c #FF2767",
"d. c #FF346A",
"f. c #FF3969",
"g. c #FE2877",
"h. c #FF3876",
"j. c #E32264",
"k. c #9A4B57",
"l. c #9A4A4C",
"z. c #B9524B",
"x. c #AF4740",
"c. c #B5735E",
"v. c #805B69",
"b. c #916E60",
"n. c #B7626D",
"m. c #B97679",
"M. c #AE6D6F",
"N. c #B04C62",
"B. c #C6564D",
"V. c #CB6857",
"C. c #EC7851",
"Z. c #FF4D74",
"A. c #FC4A77",
"S. c #FF5177",
"D. c #C87774",
"F. c #D76C78",
"G. c #FF7268",
"H. c #C98400",
"J. c #FF8C00",
"K. c #FB8600",
"L. c #FF9200",
"P. c #FF9C00",
"I. c #FC9313",
"U. c #FFA500",
"Y. c #FFAD00",
"T. c #FFB100",
"R. c #FD8A3A",
"E. c #FFC600",
"W. c #FFCD39",
"Q. c #8E8855",
"!. c #F88857",
"~. c #FF9051",
"^. c #D49473",
"/. c #F68B60",
"(. c #FF9966",
"). c #FD9874",
"_. c #E3944A",
"`. c #FFD952",
"'. c #001A96",
"]. c #00279A",
"[. c #00399A",
"{. c #002B87",
"}. c #0014A1",
"|. c #453998",
" X c #124687",
".X c #2B4790",
"XX c #794481",
"oX c #4E689F",
"OX c #5F69BB",
"+X c #746B8C",
"@X c #4664CA",
"#X c #822C8A",
"$X c #BD3780",
"%X c #BE7988",
"&X c #B868AE",
"*X c #FF4B83",
"=X c #FE5688",
"-X c #CB7087",
";X c #FF6E93",
":X c #FF769A",
">X c #FF678D",
",X c #FF7DA6",
"<X c #D64787",
"1X c #0085FF",
"2X c #7985C8",
"3X c #62B5F8",
"4X c #B397AA",
"5X c #CD8C86",
"6X c #F09191",
"7X c #E6A599",
"8X c #FF8DAA",
"9X c #FE97B6",
"0X c #FF92B2",
"qX c #DFA9A7",
"wX c #E4AEA6",
"eX c #FFBBA6",
"rX c #FDB1B4",
"tX c #FFC698",
"yX c #FFD69F",
"uX c #FFD9B7",
"iX c #FDCCAA",
"pX c #FFF1B7",
"aX c #9CA6D2",
"sX c #FFB1CA",
"dX c #E5D8DC",
"fX c #F9CDCB",
"gX c #FFFBD6",
"hX c #FFF8CF",
"jX c #E9EDF2",
"kX c #FFFFFD",
"lX c #F9F3E9",
"zX c None",
/* pixels */
"zXzXzXzXzXzXzXzXzXzXzXzXzXzXzXzXzXzXzXzXzXzXzXzXzXzXzXzXzXzXzXzXzXzXzXzXzXzXzXzXzXzXzXzXzXzXzXzXzXzX",
"zXzXzXzXzXzXzXzXzXzXzXzXzXzXzXzXzXzXzXzXzXzXzXzXzXzXzXzXzXzXzXzXzXzXzXzXzXzXzXzXzXzXzXzXzXzXzXzXzXzX",
"zXzXzXzXzXzXzXzXzXzXzXzXzXzXzXzXzXzXzXzXzXzXzXzXzXzXzXzXzXzXzXzXzXzXzXzXzXzXzXzXzXzXzXzXzXzXzXzXzXzX",
"zXzXzXzXzXzXzXzXzXzXzXzXzXzXzXzXzXzXzXzXzXzXzXzXzXzXzXzXzXzXzXzXzXzXzXzXzXzXzXzXzXzXzXzXzXzXzXzXzXzX",
"zXzXzXzXzXzXzXzXzXzXzXzXzXzXzXzXzXzXzXzXzXzXzXzXzXzXzXzXzXzXzXzXzXzXzXzXzXzXzXzXzXzXzXzXzXzXzXzXzXzX",
"zXzXzXzXzXzXzXzXzXzXzXzXzXzXzXzXzXzXzXzXzXzXzXzXzXzXzXzX&.>.8 - zXzXzXzXzXzXzXzXzXzXzXzXzXzXzXzXzXzX",
"zXzXzXzXzXzXzXzXzXzXzXzXzXzXzXzXzXzXzXzXzXzXzXzXzXzXzX6.9XZ.; zXzXzXzXzXzXzXzXzXzXzXzXzXzXzXzXzXzXzX",
"zXzXzXzXzXzXzXzXzXzXzXzXzXzXzXzXzXzXzXzXzXzXzXzXzXzXe.9Xh.0 zXzXX = zXzXzXzXzXzXzXzXzXzXzXzXzXzXzXzX",
"zXzXzXzXzXzXzXzXzXzXzXzXzXzXzXzXzXzXzXzXzXzXzXzXzXe.9X=XQ zX< S.9XA., zXzXzXzXzXzXzXzXzXzXzXzXzXzXzX",
"zXzXzXzXzXzXzXzXzXzXzXzXzXzXzXzXzXzXzXzXzXzXzXzX* :X9Xs.G   6.8XsX0X;Xt.5 zXzXzXzXzXzXzXzXzXzXzXzXzX",
"zXzXzXzXzXzXzXzXzXzXzXzXzXzXzXzXzXzXzXzXzXzXzXzXe.9XS.0.H <.a.H 9 d.A.r.G = zXzXzXzXzXzXzXzXzXzXzXzX",
"zXzXzXzXzXzXzXzXzXzXzXzXzXzXzXzXzXzXzXzXzXzXzXzX-XfXs.3.*X9Xf.Q q.s.=.o zXzXzXzXzXzXzXzXzXzXzXzXzXzX",
"zXzXzXzXzXzXzXzXzXzXzXzXzXzXzX6 8 5 zXzXzXzX; o -XsX4.h.8Xd.-.-.g.G zXzXzXzXzXzXzXzXzXzXzXzXzXzXzXzX",
"zXzXzXzXzXzXzXzXzXzXzXzXzXzXzXO L d.:.7 zXX S.9X=Xq.p.;Xr.7.G u.%.zXzXzXzXzXzXzXzXzXzXzXzXzXzXzXzXzX",
"zXzXzXzXzXzXzXzXzXzXzXzXzXzXzXzXzX6.8X6Xv >.;Xg.9.7.p.:Xi.=.w -.-.F 0 zXzXzXzXzXzXzXzXzXzXzXzXzXzXzX",
"zXzXzXzXzXzXzXzXzXzXzXzXzXzX5 6 zXO 7.g.,XS.0.w.r.0.4.:X:X5.5.a.9.i.d.H zXzXzXzXzXzXzXzXzXzXzXzXzXzX",
"zXzXzXzXzXzXzXzXzXzXzXzXzXzXO G t.r.s.0.7.3.*.r.>X8X9.8.S.:Xd.,X<X9.d.d.G zXzXzXzXzXzXzXzXzXzXzXzXzX",
"zXzXzXzXzXzXzXzXzXzXzXzXzXzXzXzXG t.f.s.i.*.G w.0XyXC.p.8.Z.j.q.,X,.* q 9 - zXzXzXzXzXzXzXzXzXzXzXzX",
"zXzXzXzXzXzXzXzXzXzXzXzXzXzXzXzXzXzX= =.*.%.5.K =XG./ B.g.0.7X9 s.L zXzXzXzXzXzXzXzXzXzXzXzXzXzXzXzX",
"zXzXzXzXzXzXzXzXzXzXzXzXzXzXzXzX- zX*.*.0 t *.5.-.J M.m.F.*XeX@ 0 G zXzXzXzXzXzXzXzXzXzXzXzXzXzXzXzX",
"zXzXzXzXzXzXzXzXzXzXzXzXzXzXzXzX- q *.u.%._.z.<.C.l.kXjXn.6XN.zXzX= zXzXzXzXzXzXzXzXzXzXzXzXzXzXzXzX",
"zXzXzXzXzXzXzXzXzXzXzXzXzXzXzXzXzXzXzX: & z.V.l.~./.dXkXlXfX9 zXzXzXzXzXzXzXzXzXzXzXzXzXzXzXzXzXzXzX",
"zXzXzXzXzXzXzXzXzXzXzXzXzXzXzXzXzXzXzXi u > A I /.!./.uXlXqX@ zXzXzXzXzXzXzXzXzXzXzXzXzXzXzXzXzXzXzX",
"zXzXzXzXzXzXzXzXzXzXzXzXzXzXzXzXzXzXI +X[.( L...l.C.tXgXwXU / S  .V zXzXzXzXzXzXzXzXzXzXzXzXzXzXzXzX",
"zXzXzXzXzXzXzXzXzXzXzXzXzXzXzXzXo ( pX^.].B.L.W.6X( m.M.z.~.K.K.Q.% @ zXzXzXzXzXzXzXzXzXzXzXzXzXzXzX",
"zXzXzXzXzXzXzXzXzXzXzXzXzXzXzX,.uX(.pX4Xy S U._ aXeXU C.uXeXL.H.'..X9 zXzXzXzXzXzXzXzXzXzXzXzXzXzXzX",
"zXzXzXzXzXzXzXzXzXzXzXzXzXzXzXF iX4Xe X o ; L.` }.4X-XfXdXaXI./ n eXV.  zXzXzXzXzXzXzXzXzXzXzXzXzXzX",
"zXzXzXzXzXzXzXzXzXzXzXzXzXzXzXzX|.1Xu m.:.. o.I. X'. X{.a 3XjXV n.kX(.M.h zXzXzXzXzXzXzXzXzXzXzXzXzX",
"zXzXzXzXzXzXzXzXzXzXzXzXzXzXzXzXg z D.5X7X5X( +.J.p y y 2 #.`. .7 l./.kXm.zXzXzXzXzXzXzXzXzXzXzXzXzX",
"zXzXzXzXzXzXzXzXzXzXzXzXzXzXzXzXX $.gXD.r rXe * X.Y.+.O.U.} > c.^.* @X2X1 zXzXzXzXzXzXzXzXzXzXzXzXzX",
"zXzXzXzXzXzXzXzXzXzXzXzXzXzXzXzXzXD.hXD.zX; zXzXa ) { [ v y 4 5XpXeXOXf zXzXzXzXzXzXzXzXzXzXzXzXzXzX",
"zXzXzXzXzXzXzXzXzXzXzXzXzXzXzXzXzXzXk.6 zXzXzXF ^ a s ].d B . 1.gXyX).& zXzXzXzXzXzXzXzXzXzXzXzXzXzX",
"zXzXzXzXzXzXzXzXzXzXzXzXzXzXzXzXzXzXzXzX3 6 B ] L.v.].oXJ.{ ' ( j wX5XzXzXzXzXzXzXzXzXzXzXzXzXzXzXzX",
"zXzXzXzXzXzXzXzXzXzXzXzXzXzXzXzXzXzXzXA ....P.J.Y.m }.b.E.J.J.J.: e zXzXzXzXzXzXzXzXzXzXzXzXzXzXzXzX",
"zXzXzXzXzXzXzXzXzXzXzXzXzXzXzXzXzXzXzX< J.T.T.U.K.b ].b O.U.P.U.+.[ , zXzXzXzXzXzXzXzXzXzXzXzXzXzXzX",
"zXzXzXzXzXzXzXzXzXzXzXzXzXzXzXzXzXzXzX/ Y.U.L.O.{ x ].b O.O.P.U.Y.K., zXzXzXzXzXzXzXzXzXzXzXzXzXzXzX",
"zXzXzXzXzXzXzXzXzXzXzXzXzXzXzXzXzXzXD o.T.P.K...A z [.M ^ ..O.L.Y.Y.B zXzXzXzXzXzXzXzXzXzXzXzXzXzXzX",
"zXzXzXzXzXzXzXzXzXzXzXzXzXzXzXzXzXB Y [ o.} K.S + zXzXzXzX1 O.O.o.} Y B zXzXzXzXzXzXzXzXzXzXzXzXzXzX",
"zXzXzXzXzXzXzXzXzXzXzXzXzXzXzXzX3 R Y Y R P C 5 zXzXzXzXzX4 ~ | Y Z T R 4 zXzXzXzXzXzXzXzXzXzXzXzXzX",
"zXzXzXzXzXzXzXzXzXzXzXzXzXzXzXzX3 R Z q D ! Z 3 zXzXzXzXzX5 Y Z q D T C 4 zXzXzXzXzXzXzXzXzXzXzXzXzX",
"zXzXzXzXzXzXzXzXzXzXzXzXzXzXzXzX6 c ~ E W C 8 zXzXzXzXzXzXzX8 C E E Z 6 zXzXzXzXzXzXzXzXzXzXzXzXzXzX",
"zXzXzXzXzXzXzXzXzXzXzXzXzXzXzXzXzX>.XX1 B zXzXzXzXzXzXzXzXzXzX* b G.x # zXzXzXzXzXzXzXzXzXzXzXzXzXzX",
"zXzXzXzXzXzXzXzXzXzXzXzXzXzXzXzX+ w.l $ zXzXzXzXzXzXzXzXzXzXzXzXs &XXX@ zXzXzXzXzXzXzXzXzXzXzXzXzXzX",
"zXzXzXzXzXzXzXzXzXzXzXzXzXzXzXzXM ~.N zXzXzXzXzXzXzXzXzXzXzXzXzXzXk R.^ zXzXzXzXzXzXzXzXzXzXzXzXzXzX",
"zXzXzXzXzXzXzXzXzXzXzXzXzXzXzXzX[ L.zXzXzXzXzXzXzXzXzXzXzXzXzXzXzXzXJ.@.o zXzXzXzXzXzXzXzXzXzXzXzXzX",
"zXzXzXzXzXzXzXzXzXzXzXzXzXzXzXN 2.k zXzXzXzXzXzXzXzXzXzXzXzXzXzXzXzXi $XJ zXzXzXzXzXzXzXzXzXzXzXzXzX",
"zXzXzXzXzXzXzXzXzXzXzXzXzXzXzXzXzXzXzXzXzXzXzXzXzXzXzXzXzXzXzXzXzXzXzXzXzXzXzXzXzXzXzXzXzXzXzXzXzXzX",
"zXzXzXzXzXzXzXzXzXzXzXzXzXzXzXzXzXzXzXzXzXzXzXzXzXzXzXzXzXzXzXzXzXzXzXzXzXzXzXzXzXzXzXzXzXzXzXzXzXzX",
"zXzXzXzXzXzXzXzXzXzXzXzXzXzXzXzXzXzXzXzXzXzXzXzXzXzXzXzXzXzXzXzXzXzXzXzXzXzXzXzXzXzXzXzXzXzXzXzXzXzX",
"zXzXzXzXzXzXzXzXzXzXzXzXzXzXzXzXzXzXzXzXzXzXzXzXzXzXzXzXzXzXzXzXzXzXzXzXzXzXzXzXzXzXzXzXzXzXzXzXzXzX"
};
