/* XPM */
static char *result[] = {
/* columns rows colors chars-per-pixel */
"50 50 227 2 ",
"   c #180009",
".  c #070017",
"X  c #290002",
"o  c #360003",
"O  c #3B0016",
"+  c #390018",
"@  c #2C0014",
"#  c #000033",
"$  c #350026",
"%  c #350A2F",
"&  c #4C001C",
"*  c #440014",
"=  c #59001B",
"-  c #51070C",
";  c #6A010A",
":  c #771907",
">  c #65001B",
",  c #790316",
"<  c #7A1819",
"1  c #490125",
"2  c #530022",
"3  c #5B0123",
"4  c #5A002B",
"5  c #48073B",
"6  c #481939",
"7  c #5B0A31",
"8  c #650025",
"9  c #68062D",
"0  c #780129",
"q  c #6B0739",
"w  c #7C0033",
"e  c #772C37",
"r  c #242A5B",
"t  c #1D0263",
"y  c #071676",
"u  c #291671",
"i  c #022579",
"p  c #4B114F",
"a  c #730950",
"s  c #542348",
"d  c #712952",
"f  c #7A1769",
"g  c #493B74",
"h  c #78595B",
"j  c #9E1619",
"k  c #930708",
"l  c #AD1115",
"z  c #962517",
"x  c #8E340A",
"c  c #A62416",
"v  c #B52C11",
"b  c #88022B",
"n  c #97012B",
"m  c #880235",
"M  c #990438",
"N  c #89162A",
"B  c #A70322",
"V  c #B60725",
"C  c #A50C39",
"Z  c #B30A39",
"A  c #B0152E",
"S  c #852231",
"D  c #A8293A",
"F  c #B1332F",
"G  c #CE1418",
"H  c #CB000B",
"J  c #CE3309",
"K  c #EE3503",
"L  c #D00130",
"P  c #9B5E1E",
"I  c #AB5503",
"U  c #89412A",
"Y  c #BA5838",
"T  c #B34F2C",
"R  c #A26B2B",
"E  c #D64202",
"W  c #CB5F00",
"Q  c #FE4A00",
"!  c #E75700",
"~  c #D37D09",
"^  c #FE6300",
"/  c #FF6D00",
"(  c #EA7A00",
")  c #FF7400",
"_  c #FF7900",
"`  c #E36C00",
"'  c #D35238",
"]  c #C06236",
"[  c #9A0048",
"{  c #A60245",
"}  c #B90747",
"|  c #B61748",
" . c #8B3045",
".. c #B13253",
"X. c #C90046",
"o. c #D90548",
"O. c #CA184B",
"+. c #DA174B",
"@. c #C70055",
"#. c #DB045A",
"$. c #C41A51",
"%. c #E20049",
"&. c #FB0046",
"*. c #F8144B",
"=. c #FD0353",
"-. c #F70D59",
";. c #FF135B",
":. c #F71759",
">. c #E51354",
",. c #FC235C",
"<. c #EA265A",
"1. c #FD1A66",
"2. c #F30661",
"3. c #C33378",
"4. c #FC2567",
"5. c #FF356B",
"6. c #FE3768",
"7. c #FF2771",
"8. c #FB3777",
"9. c #E23464",
"0. c #984B5A",
"q. c #9D5859",
"w. c #974041",
"e. c #A74657",
"r. c #AA5856",
"t. c #B4554D",
"y. c #916157",
"u. c #96526B",
"i. c #A4586B",
"p. c #B96474",
"a. c #AA7064",
"s. c #927770",
"d. c #CC5C45",
"f. c #CB5A50",
"g. c #D06D50",
"h. c #E57A5B",
"j. c #FB7F53",
"k. c #D04C70",
"l. c #E14C75",
"z. c #FF4476",
"x. c #FF4A75",
"c. c #FF527C",
"v. c #D57969",
"b. c #C86760",
"n. c #EC545A",
"m. c #C88100",
"M. c #FF8300",
"N. c #FF8B00",
"B. c #F38100",
"V. c #FF9300",
"C. c #FF9B00",
"Z. c #FF920B",
"A. c #E78100",
"S. c #FFA300",
"D. c #FFAB00",
"F. c #FFB300",
"G. c #FFBB00",
"H. c #D2AE2C",
"J. c #FFCA00",
"K. c #85817B",
"L. c #B9977F",
"P. c #F69051",
"I. c #D38575",
"U. c #FF9963",
"Y. c #FF9F7B",
"T. c #FFA576",
"R. c #C69356",
"E. c #001390",
"W. c #002898",
"Q. c #002B8D",
"!. c #30299B",
"~. c #0027B5",
"^. c #07428D",
"/. c #0048AA",
"(. c #0073BC",
"). c #72648E",
"_. c #0036C8",
"`. c #0E48C9",
"'. c #0C7EFF",
"]. c #C73C82",
"[. c #EF3D81",
"{. c #844B88",
"}. c #AB6A89",
"|. c #FF5888",
" X c #FF4F94",
".X c #FF6A96",
"XX c #FF779A",
"oX c #F16083",
"OX c #FF70A3",
"+X c #67A982",
"@X c #00B3FB",
"#X c #7095CA",
"$X c #B097AC",
"%X c #D38B8C",
"&X c #EA9588",
"*X c #FD839F",
"=X c #EC9A8F",
"-X c #FCA987",
";X c #F1AD96",
":X c #CD98B3",
">X c #FF84A6",
",X c #FF8AA8",
"<X c #FF95AA",
"1X c #FF9CB8",
"2X c #E490A7",
"3X c #DBBCA5",
"4X c #F8BAAE",
"5X c #FFA5B9",
"6X c #FFC99E",
"7X c #DEC7B9",
"8X c #FFD2B2",
"9X c #FFE4BB",
"0X c #FFF3BF",
"qX c #81A8F8",
"wX c #C3AEC7",
"eX c #FFB3CA",
"rX c #FFB5D0",
"tX c #D7C5CB",
"yX c #FFDDC1",
"uX c #FFCAD5",
"iX c #F3D1CF",
"pX c #FFF4C8",
"aX c #FFEAD2",
"sX c #FFEDCE",
"dX c #FBFCF8",
"fX c #E3E7F2",
"gX c None",
/* pixels */
"gXgXgXgXgXgXgXgXgXgXgXgXgXgXgXgXgXgXgXgXgXgXgXgXgXgXgXgXgXgXgXgXgXgXgXgXgXgXgXgXgXgXgXgXgXgXgXgXgXgX",
"gXgXgXgXgXgXgXgXgXgXgXgXgXgXgXgXgXgXgXgXgXgXgXgXgXgXgXgXgXgXgXgXgXgXgXgXgXgXgXgXgXgXgXgXgXgXgXgXgXgX",
"gXgXgXgXgXgXgXgXgXgXgXgXgXgXgXgXgXgXgXgXgXgXgXgXgXgXgXgXgXgXgXgXgXgXgXgXgXgXgXgXgXgXgXgXgXgXgXgXgXgX",
"gXgXgXgXgXgXgXgXgXgXgXgXgXgXgXgXgXgXgXgXgXgXgXgXgXgXgXgXgXgXgXgXgXgXgXgXgXgXgXgXgXgXgXgXgXgXgXgXgXgX",
"gXgXgXgXgXgXgXgXgXgXgXgXgXgXgXgXgXgXgXgXgXgXgXgXgXgXgXgXgXgXgXgXgXgXgXgXgXgXgXgXgXgXgXgXgXgXgXgXgXgX",
"gXgXgXgXgXgXgXgXgXgXgXgXgXgXgXgXgXgXgXgXgXgXgXgXgXgXgXgXgXgXgXgXgXgXgXgXgXgXgXgXgXgXgXgXgXgXgXgXgXgX",
"gXgXgXgXgXgXgXgXgXgXgXgXgXgXgXgXgXgXgXgXgXgXgXgXgXgXgXgXgXO gXgXgXgXgXgXgXgXgXgXgXgXgXgXgXgXgXgXgXgX",
"gXgXgXgXgXgXgXgXgXgXgXgXgXgXgXgXgXgXgXgXgXgXgXgXgXgXgXgXgXb gXgXgXgXgXgXgXgXgXgXgXgXgXgXgXgXgXgXgXgX",
"gXgXgXgXgXgXgXgXgXgXgXgXgXgXgXgXgXgXgXgXgXgXgXgXgXgXgXgXl.6.& gXgXgXgXgXgXgXgXgXgXgXgXgXgXgXgXgXgXgX",
"gXgXgXgXgXgXgXgXgXgXgXgXgXgXgXgXgXgXgXgXgXgXgXgXgXgXgX| eX5.* gXgXgXgXgXgXgXgXgXgXgXgXgXgXgXgXgXgXgX",
"gXgXgXgXgXgXgXgXgXgXgXgXgXgXgXgXgXgXgXgXgXgXgXgXgXgXC XX.X*.gXgXgXgXgXgXgXgXgXgXgXgXgXgXgXgXgXgXgXgX",
"gXgXgXgXgXgXgXgXgXgXgXgXgXgXgXgXgXgXgXgXgXgXgXgXgXo |.uX5.*.gX& 8 > 9 q 0 gXgXgXgXgXgXgXgXgXgXgXgXgX",
"gXgXgXgXgXgXgXgXgXgXgXgXgXgXgXgXgXgXgXgXgXgXgXgXgXC 1X|.=.:.1 o.X.9.eXXX,.m * gXgXgXgXgXgXgXgXgXgXgX",
"gXgXgXgXgXgXgXgXgXgXgXgXgXgXgXgX2 O gXgXgXgXgXgX* l.uXz.o.#.;.c.| 2X5X5.M gXgXgXgXgXgXgXgXgXgXgXgXgX",
"gXgXgXgXgXgXgXgXgXgXgXgXgXgXgXgX8 M gXgXgXgXgXgX0  XuXz.X.-.*.,X}.6.7.n gXgXgXgXgXgXgXgXgXgXgXgXgXgX",
"gXgXgXgXgXgXgXgXgXgXgXgXgXgXgXgX8 5.O.gXgXgXgXX =  XuXz.%.;.c.,X$.X.M gXgXgXgXgXgXgXgXgXgXgXgXgXgXgX",
"gXgXgXgXgXgXgXgXgXgXgXgXgXgXgXgXgXZ |.p.gXgXO.2Xl.8.uXz.%.x.<X<.0 4 gXgX2 3 gXgXgXgXgXgXgXgXgXgXgXgX",
"gXgXgXgXgXgXgXgXgXgXgXgXgXgX8 & gXO 2.>Xr.% >XrX8.,.z.:.#.XX1.b { m O O.+.gXgXgXgXgXgXgXgXgXgXgXgXgX",
"gXgXgXgXgXgXgXgXgXgXgXgXgXgX& m w gX3 ,.XX5Xc.;.o.=.-.@.8.c.>.].1.:.6.8.| gXgXgXgXgXgXgXgXgXgXgXgXgX",
"gXgXgXgXgXgXgXgXgXgXgXgXgXgXgXC 4.| M @.1.1.;.&.x.[.=.6.1X[.;.,X.X1.5.Z gXgXgXgXgXgXgXgXgXgXgXgXgXgX",
"gXgXgXgXgXgXgXgXgXgXgXgXgXgXgXgXC z.8.:.2.[ m 4.<X8.X.5.XX3.l.&..X8.n gXgXgXgXgXgXgXgXgXgXgXgXgXgXgX",
"gXgXgXgXgXgXgXgXgXgXgXgXgXgXgXgXgXw 1.x.+.@ 9 >X[.+.h.<.7.4.*Xk., -.O.gXgXgXgXgXgXgXgXgXgXgXgXgXgXgX",
"gXgXgXgXgXgXgXgXgXgXgXgXgXgXgXgXgXgXw { 2 U ..OX,.P.P.' -.;.|.t.gX4 M 8 gXgXgXgXgXgXgXgXgXgXgXgXgXgX",
"gXgXgXgXgXgXgXgXgXgXgXgXgXgXgXgX8 } @.@.2 g.n.>.U.d.N D f.aXaXe.gXgXgXgXgXgXgXgXgXgXgXgXgXgXgXgXgXgX",
"gXgXgXgXgXgXgXgXgXgXgXgXgXgXgXgXgX& 0 @.q e 0.S U.F $XdXp.&XI.gXgXgXgXgXgXgXgXgXgXgXgXgXgXgXgXgXgXgX",
"gXgXgXgXgXgXgXgXgXgXgXgXgXgXgXgXgXgXgXgX$ : I w.U.' tXdXfXv.g.X gXgXgXgXgXgXgXgXgXgXgXgXgXgXgXgXgXgX",
"gXgXgXgXgXgXgXgXgXgXgXgXgXgXgXgXgXgXgXgX2 ^ G.f.b.P.-XaXdXpX}.u O gXgXgXgXgXgXgXgXgXgXgXgXgXgXgXgXgX",
"gXgXgXgXgXgXgXgXgXgXgXgXgXgXgXgXgXgX< ~ N.Q Q S.t.d.T.8XyXF t qX7X%X3 gXgXgXgXgXgXgXgXgXgXgXgXgXgXgX",
"gXgXgXgXgXgXgXgXgXgXgXgXgXgXgXgXgXgXz J.M./ M.F.Z.e.b.v.q.. u.8Xg.sX4X& gXgXgXgXgXgXgXgXgXgXgXgXgXgX",
"gXgXgXgXgXgXgXgXgXgXgXgXgXgXgXgXgXgXx C./ s./.h ~ h t.Y r # r.;Xv.pX8X& gXgXgXgXgXgXgXgXgXgXgXgXgXgX",
"gXgXgXgXgXgXgXgXgXgXgXgXgXgXgXgXgXgXz C.a./.y E.y.( i W.^.8 gX0.7X=X9 gXgXgXgXgXgXgXgXgXgXgXgXgXgXgX",
"gXgXgXgXgXgXgXgXgXgXgXgXgXgXgXgXgXgX8 K 0.E.g #X).^ H.K.s gXgXgX* * gXgXgXgXgXgXgXgXgXgXgXgXgXgXgXgX",
"gXgXgXgXgXgXgXgXgXgXgXgXgXgXgXgXgXgXgX, - ).p.0X2Xk V.! gXgX$ gXgXgXgXgXgXgXgXgXgXgXgXgXgXgXgXgXgXgX",
"gXgXgXgXgXgXgXgXgXgXgXgXgXgXgXgXgXgXgXgXX =Xv.Y.%X+ 9 $ 1 J ( A.z $ 4 gXgXgXgXgXgXgXgXgXgXgXgXgXgXgX",
"gXgXgXgXgXgXgXgXgXgXgXgXgXgXgXgXgXgXgXgX6 s h.P.7 Q.d ^ N.C.G.G.V.A.C.W gXgXgXgXgXgXgXgXgXgXgXgXgXgX",
"gXgXgXgXgXgXgXgXgXgXgXgXgXgXgXgXgXgXgX4 V ; 4X6X  /.r.C.F.D.Z.Z.G.G.J.` % gXgXgXgXgXgXgXgXgXgXgXgXgX",
"gXgXgXgXgXgXgXgXgXgXgXgXgXgXgXgXgXgXgX0 G = iXrX% Q.R.D.F.C./ _ N.V.M.B 1 gXgXgXgXgXgXgXgXgXgXgXgXgX",
"gXgXgXgXgXgXgXgXgXgXgXgXgXgXgXgXgXgX$ , Q E i.@X!.. m.J.M.) _ J B V V V j gXgXgXgXgXgXgXgXgXgXgXgXgX",
"gXgXgXgXgXgXgXgXgXgXgXgXgXgXgXgXc J 4 c ^ _ : `.wXL.T x , c A B J n q G J gXgXgXgXgXgXgXgXgXgXgXgXgX",
"gXgXgXgXgXgXgXgXgXgXgXgXgXgXgX& E G A / _ V.< :X8X0X%X. gXgX= s Y K K v 3 gXgXgXgXgXgXgXgXgXgXgXgXgX",
"gXgXgXgXgXgXgXgXgXgXgXgXgXgX1 z V n ) ) C.C.< &X9X;Xt.2X .gXgXy /.A j = gXgXgXgXgXgXgXgXgXgXgXgXgXgX",
"gXgXgXgXgXgXgXgXgXgXgXgXgXgXW.r.H B F.C.S.C.v %X9Xa.X %X .gXgXu f > gXgXgXgXgXgXgXgXgXgXgXgXgXgXgXgX",
"gXgXgXgXgXgXgXgXgXgXgXgXgXt _.D k B M.G.C.F.J d i.gXgX2 1 gXe r., gXgXgXgXgXgXgXgXgXgXgXgXgXgXgXgXgX",
"gXgXgXgXgXgXgXgXgXgXgXgX; P D > gX4 n C.J.( 2 gXgXgXgXgXgX% +XR X gXgXgXgXgXgXgXgXgXgXgXgXgXgXgXgXgX",
"gXgXgXgXgXgXgXgXgXgXgXgX6 Y c @ gXgX2 j I > gXgXgXgXgXgXgXs @X(.D L > gXgXgXgXgXgXgXgXgXgXgXgXgXgXgX",
"gXgXgXgXgXgXgXgXgXgXgXgX5 ~.a a p gXgXgXgXgXgXgXgXgXgXgXgXgXgXgXgXgXgXgXgXgXgXgXgXgXgXgXgXgXgXgXgXgX",
"gXgXgXgXgXgXgXgXgXgXgXgXgXgXgXgXgXgXgXgXgXgXgXgXgXgXgXgXgXgXgXgXgXgXgXgXgXgXgXgXgXgXgXgXgXgXgXgXgXgX",
"gXgXgXgXgXgXgXgXgXgXgXgXgXgXgXgXgXgXgXgXgXgXgXgXgXgXgXgXgXgXgXgXgXgXgXgXgXgXgXgXgXgXgXgXgXgXgXgXgXgX",
"gXgXgXgXgXgXgXgXgXgXgXgXgXgXgXgXgXgXgXgXgXgXgXgXgXgXgXgXgXgXgXgXgXgXgXgXgXgXgXgXgXgXgXgXgXgXgXgXgXgX",
"gXgXgXgXgXgXgXgXgXgXgXgXgXgXgXgXgXgXgXgXgXgXgXgXgXgXgXgXgXgXgXgXgXgXgXgXgXgXgXgXgXgXgXgXgXgXgXgXgXgX"
};
