/* XPM */
static char *_927b0a9507b40acb2f720b50c86e43cUbQ8mpLnMsnfTYwa[] = {
/* columns rows colors chars-per-pixel */
"50 40 158 2 ",
"   c None",
".  c #1F3213",
"X  c #203612",
"o  c #243B14",
"O  c #263F1A",
"+  c #274115",
"@  c #294416",
"#  c #2C4817",
"$  c #2B461C",
"%  c #2E4B19",
"&  c #304E1A",
"*  c #33531C",
"=  c #37591C",
"-  c #385C1E",
";  c #3B611E",
":  c #345422",
">  c #375A23",
",  c #385B23",
"<  c #3C6321",
"1  c #3F6823",
"2  c #3D6429",
"3  c #3C6033",
"4  c #406A22",
"5  c #426C2C",
"6  c #467224",
"7  c #46732B",
"8  c #48762A",
"9  c #4C7C29",
"0  c #466D37",
"q  c #4C7B32",
"w  c #4A7739",
"e  c #4E7C3C",
"r  c #4F812B",
"t  c #52862C",
"y  c #558C2E",
"u  c #59912F",
"i  c #58902F",
"p  c #528334",
"a  c #548A36",
"s  c #558B31",
"d  c #588E36",
"f  c #588F32",
"g  c #52823E",
"h  c #53853E",
"j  c #53853F",
"k  c #53843F",
"l  c #54853E",
"z  c #54853F",
"x  c #53863B",
"c  c #568B39",
"v  c #55893D",
"b  c #598F3D",
"n  c #599130",
"m  c #5A9230",
"M  c #5A9330",
"N  c #5B9435",
"B  c #5D9833",
"V  c #5E9933",
"C  c #5E9934",
"Z  c #5F9B34",
"A  c #5C9438",
"S  c #5D953C",
"D  c #5E983C",
"F  c #619C35",
"G  c #609A3A",
"H  c #619C3D",
"J  c #64A137",
"K  c #64A13D",
"L  c #66A53A",
"P  c #68A73C",
"I  c #69A93C",
"U  c #6CB13B",
"Y  c #70B63F",
"T  c #588C46",
"R  c #5D9442",
"E  c #629D45",
"W  c #639D4C",
"Q  c #629756",
"!  c #6BAB42",
"~  c #6BA948",
"^  c #6FB046",
"/  c #6FB241",
"(  c #71B443",
")  c #74BC44",
"_  c #72B34A",
"`  c #76B94C",
"'  c #77BC49",
"]  c #78BE4A",
"[  c #69A556",
"{  c #6AA558",
"}  c #6AA658",
"|  c #6CA659",
" . c #6CA85B",
".. c #6FAC5D",
"X. c #70AF5E",
"o. c #78BB53",
"O. c #72B05C",
"+. c #74B35D",
"@. c #77B75F",
"#. c #76B75F",
"$. c #75B55F",
"%. c #76B760",
"&. c #79BB67",
"*. c #75C041",
"=. c #7AC644",
"-. c #7CC946",
";. c #7AC14C",
":. c #7ECC49",
">. c #7EC652",
",. c #7FC852",
"<. c #81CE4B",
"1. c #81D14D",
"2. c #81CA54",
"3. c #84CB5D",
"4. c #85D552",
"5. c #88D757",
"6. c #86D850",
"7. c #89D956",
"8. c #87D25C",
"9. c #8AD55E",
"0. c #8CDC5B",
"q. c #8FE15C",
"w. c #85CD60",
"e. c #80C46E",
"r. c #8BD761",
"t. c #8FDC64",
"y. c #8BD668",
"u. c #91DE66",
"i. c #91DE6A",
"p. c #84CA72",
"a. c #85CA72",
"s. c #85CC73",
"d. c #97DE72",
"f. c #8FE060",
"g. c #92E363",
"h. c #95E56B",
"j. c #98E76F",
"k. c #97E86A",
"l. c #99E96E",
"z. c #97E570",
"x. c #98E770",
"c. c #9BEB72",
"v. c #9FF077",
"b. c #A2E67F",
"n. c #A1EF7A",
"m. c #A0F177",
"M. c #A1F17A",
"N. c #ACEE8D",
"B. c #A6F481",
"V. c #A9F386",
"C. c #B1F493",
"Z. c #B7F49D",
"A. c #BAF6A2",
"S. c #C1F7AD",
"D. c #C3F8B0",
"F. c #CBF9BA",
"G. c #CFFAC2",
"H. c #D1FAC4",
/* pixels */
"e.a.a.a.a.a.a.a.a.a.s...                                                                            ",
"&. .{ { { { { [ [ { { T                                                                             ",
"X.e w w w w w w w w w 5 0                                                                           ",
"[ 5 2 2 2 2 2 2 2 2 2 > w Q | O.+.#.#.#.%.%.%.%.#.#.%.#.#.#.#.#.#.#.#.#.#.#.#.#.#.#.#.#.@.#.#.#.#.#.",
"W 2 , , , > > > , , > * : 3 0 w e g g k k k z z z z k z z z z k k k k k k k k k z z z k z z z k k k ",
"R > : : : * * * : : : % O O $ : > , 2 2 2 2 2 2 2 2 2 2 2 2 2 2 2 2 2 2 2 2 2 2 2 2 2 2 2 2 2 2 2 2 ",
"b * * * * * * * * * * # o X O $ & : : > > > > > > > > > > > > > > > > > > > > > > > > > , > > > > > ",
"c * * * * * * * * * * # X . o o $ % * * * * * * * * * * * * * * * * * * * * * * * * * * * * * * * * ",
"a * * * * * * * * * * % X . o o + # # & & & * * * * * * * * * * * * * * * * * * * * * * * * * * * * ",
"a = * * * * * * * * * & X . o o @ # % & & * * * * * * * * * * * * * * * * * * * * * * * * * * * * * ",
"a - - = - - = = - - - * X . o + @ # & * * * * * * * * * * * * * * * * * * * * * * * * * * * * * * * ",
"d < < < < < < ; < ; < * o X o @ # & * * = = = = = = = = = = = = = = = = = = = = = = = = = = = = = = ",
"A 4 4 4 4 4 4 4 4 4 4 - o o + # & * = = - - ; ; ; ; ; ; ; ; ; ; ; ; ; ; ; ; ; ; ; ; ; ; ; ; ; ; ; ; ",
"G 6 6 6 6 6 6 6 6 6 6 < o o @ % * = - ; 1 4 4 4 4 4 4 4 4 4 4 4 4 4 4 4 4 4 4 4 4 4 4 4 4 4 4 4 4 4 ",
"K 9 9 9 9 9 9 9 9 9 9 4 + + # * * - 1 4 6 6 6 6 6 6 6 6 6 6 6 6 6 6 6 6 6 6 6 6 6 6 6 6 6 6 6 6 6 6 ",
"! t t t t t t t t t t 6 @ @ % * = < 6 9 9 9 9 9 9 9 9 9 9 9 9 9 9 9 9 9 9 9 9 9 9 9 9 9 9 9 9 9 9 9 ",
"^ m y y y y y y y y y 9 # # * = < 6 r t t t t t t t t t t t t t t t t t t t t t t t t t t t t t t t ",
"` Z V V V V V V V V V r % % * , 1 r u u m m m m m m m m m m m m m m m m m m m m m m m m u u u u u u ",
">.L L L L J J J J L J t * * , 1 8 M Z F F F F F F F F F F F F F F F F F F F F F F F F F F F F V F Z ",
"3.I P I P P P P P P I f * > < 4 s L P P P P P P P P P P P P P P P P P P P L L L L L L L L L L L L L ",
"y.( ( ( ( ( ( ( ( ( ( C = , 4 8 G ! / / / ( ( ( ( ( ( ( ( / / ( / / / / / / ( ( / / / / / / / / / / ",
"d.;.] ] ] ] ] ] ] ] ;.K , 2 7 p ^ ' ] ] ] ] ] ] ] ] ] ] ] ] ] ] ] ] ] ] ] ] ] ] ] ] ] ] ] ] ] ] ' ' ",
"b.2.2.2.2.2.2.2.2.2.2.! 2 5 q S >.2.2.2.2.2.2.2.2.2.2.2.2.2.2.2.2.2.2.2.2.2.2.2.,.,.>.>.>.>.>.>.>.>.",
"N.r.9.9.9.9.9.9.9.9.9._ 5 q p ~ 8.9.9.9.r.r.r.r.r.r.9.9.9.9.9.9.9.9.9.9.9.9.9.9.9.9.9.9.9.9.9.8.8.8.",
"Z.h.u.u.u.u.u.u.u.u.u.o.7 q v o.u.i.h.h.h.h.h.h.h.h.h.h.h.h.h.h.g.g.g.g.g.u.u.u.u.u.u.u.u.t.t.t.t.t.",
"S.c.x.x.x.j.x.j.j.j.j.>.q k R w.x.x.x.x.x.x.x.x.x.x.x.x.x.x.j.j.j.x.x.j.j.j.j.j.j.j.j.j.j.j.j.j.j.j.",
"F.n.c.c.c.c.c.c.c.c.c.3.q v E y.c.c.c.c.c.c.c.c.c.c.c.c.x.c.c.c.x.c.x.x.x.x.x.x.x.x.x.x.x.x.x.x.x.j.",
"G.B.M.M.M.M.M.M.M.n.M.3.q v E i.c.c.c.c.c.c.c.c.c.c.c.c.c.c.c.c.c.c.c.x.x.x.x.x.x.x.x.x.x.x.x.j.j.j.",
"H.B.M.M.M.M.M.M.M.M.M.w.q x E i.x.x.c.c.c.c.c.c.j.j.j.j.j.j.j.j.j.j.j.j.j.j.j.j.j.j.j.j.j.j.j.j.k.k.",
"H.M.M.M.M.M.m.v.v.v.m.3.8 q E t.k.k.k.k.k.k.k.k.k.k.k.k.k.k.k.k.g.g.g.g.g.g.g.g.g.g.g.g.g.g.g.g.g.g.",
"F.M.c.c.c.c.c.c.c.c.c.3.7 q H 0.g.g.g.g.g.g.g.g.g.g.g.g.g.g.g.g.g.f.f.f.0.0.0.0.0.0.0.0.0.0.0.0.0.0.",
"D.c.j.j.k.k.k.k.k.k.k.2.7 7 D 5.0.0.0.0.0.0.0.0.0.0.0.0.0.0.0.0.0.0.0.0.0.0.0.0.0.0.0.0.0.0.5.5.5.5.",
"A.k.g.g.g.g.g.g.g.g.g.>.5 5 A 4.5.5.5.7.5.5.7.7.7.5.5.5.5.5.6.6.6.6.6.6.6.6.6.6.6.6.4.4.4.4.4.4.4.4.",
"C.g.q.q.0.0.0.0.0.0.q.;.5 4 N :.1.1.4.4.4.1.4.4.4.1.1.1.1.1.1.1.1.1.1.1.1.1.<.<.<.<.<.<.<.<.<.<.<.<.",
"V.0.0.0.0.7.7.7.7.7.7.' 4 2 f =.-.-.:.:.:.:.:.:.:.:.:.-.-.-.-.-.-.-.-.-.-.-.-.-.-.-.-.-.-.-.-.=.-.=.",
"M.7.6.6.6.6.6.6.6.6.6.) 4 1 y *.=.=.=.=.=.=.=.=.=.=.=.=.=.=.=.=.=.=.=.=.=.=.=.=.=.=.=.=.=.=.=.=.=.=.",
"j.1.1.1.1.1.1.1.1.1.1.Y 8 8 A =.:.1.1.1.1.1.1.1.1.1.1.1.1.1.1.1.1.1.1.1.<.<.<.<.:.:.:.:.:.:.:.:.:.:.",
"g.:.-.-.-.-.-.-.-.-.-.U 9                                                                           ",
"q.1.<.:.:.:.:.:.:.:.:.U                                                                             ",
"q.6.6.6.6.6.6.6.6.6.6.)                                                                             "
};
