/* XPM */
static char *f7f0f7cbed4a4dc09b8925001a8106eeNLHDy89gQUJrLVK8[] = {
/* columns rows colors chars-per-pixel */
"50 47 182 2 ",
"   c None",
".  c #485316",
"X  c #4A551B",
"o  c #4E5A1D",
"O  c #47541A",
"+  c #515D1E",
"@  c #54631D",
"#  c #5B6B1C",
"$  c #5E7212",
"%  c #667D0A",
"&  c #6A7F0B",
"*  c #637515",
"=  c #667A13",
"-  c #63741D",
";  c #6C7D1B",
":  c #4D5522",
">  c #4F5A22",
",  c #525D22",
"<  c #585F26",
"1  c #52542B",
"2  c #545B2D",
"3  c #595C2D",
"4  c #575635",
"5  c #585733",
"6  c #575930",
"7  c #5B5C35",
"8  c #5E5D3B",
"9  c #605F3D",
"0  c #566323",
"q  c #596524",
"w  c #5D6B24",
"e  c #576128",
"r  c #5B642B",
"t  c #5E692D",
"y  c #5E7023",
"u  c #5D6234",
"i  c #5F6830",
"p  c #616D26",
"a  c #626C2B",
"s  c #647325",
"d  c #6A7A24",
"f  c #66712A",
"g  c #6A752C",
"h  c #6D7B2A",
"j  c #727E2E",
"k  c #626535",
"l  c #646B34",
"z  c #63643C",
"x  c #67683D",
"c  c #6A6B3F",
"v  c #6B7333",
"b  c #6F7935",
"n  c #6C733A",
"m  c #737C34",
"M  c #71793D",
"N  c #72753E",
"B  c #656541",
"V  c #686742",
"C  c #676A41",
"Z  c #6B6B43",
"A  c #6E6D4A",
"S  c #706F46",
"D  c #706F4B",
"F  c #6E7143",
"G  c #6F704A",
"H  c #717345",
"J  c #757A43",
"K  c #74734C",
"L  c #78774F",
"P  c #76794A",
"I  c #7A7B4D",
"U  c #797D46",
"Y  c #6D6D54",
"T  c #767551",
"R  c #787751",
"E  c #7C7B53",
"W  c #737B54",
"Q  c #7E7F65",
"!  c #807F57",
"~  c #6B830B",
"^  c #6F880C",
"/  c #71880B",
"(  c #789406",
")  c #799209",
"_  c #768A1E",
"`  c #788B1F",
"'  c #6F8028",
"]  c #748424",
"[  c #758A22",
"{  c #7A8B23",
"}  c #74822B",
"|  c #79872B",
" . c #7D8D2B",
".. c #7E9123",
"X. c #7F902C",
"o. c #768132",
"O. c #7C8A32",
"+. c #7B8738",
"@. c #7E8C38",
"#. c #7A8632",
"$. c #7E814D",
"%. c #7A8145",
"&. c #7F8053",
"*. c #7F805A",
"=. c #7C8561",
"-. c #80990A",
";. c #85A008",
":. c #808F2A",
">. c #839425",
",. c #879926",
"<. c #8C9E25",
"1. c #83932A",
"2. c #87982B",
"3. c #899A2E",
"4. c #8A9C2A",
"5. c #808D32",
"6. c #838D3D",
"7. c #819131",
"8. c #849333",
"9. c #8C9C30",
"0. c #849338",
"q. c #909F36",
"w. c #929F3D",
"e. c #91A427",
"r. c #96A730",
"t. c #98A63A",
"y. c #848C4A",
"u. c #80854C",
"i. c #8E9D48",
"p. c #889347",
"a. c #828354",
"s. c #868955",
"d. c #888A57",
"f. c #84845A",
"g. c #88875D",
"h. c #87895C",
"j. c #898A5D",
"k. c #879053",
"l. c #87905B",
"z. c #8E925E",
"x. c #8B9156",
"c. c #92965C",
"v. c #939F53",
"b. c #A6AF54",
"n. c #A0AB5A",
"m. c #878863",
"M. c #8D8D62",
"N. c #83866C",
"B. c #8A8B6C",
"V. c #908F64",
"C. c #8D946B",
"Z. c #929265",
"A. c #969866",
"S. c #959569",
"D. c #979A68",
"F. c #9A9B6D",
"G. c #838770",
"H. c #8F947F",
"J. c #9D9E70",
"K. c #959673",
"L. c #9EA06F",
"P. c #9FA072",
"I. c #A1A260",
"U. c #A1A373",
"Y. c #A2A475",
"T. c #A6A876",
"R. c #A5A678",
"E. c #A8AA7B",
"W. c #B5B97E",
"Q. c #C5C07D",
"!. c #8E8F81",
"~. c #9DA091",
"^. c #B3BA83",
"/. c #B7B989",
"(. c #A3A49D",
"). c #AFB39F",
"_. c #A9ABA6",
"`. c #B5B6B4",
"'. c #B9BBB7",
"]. c #BCBEBB",
"[. c #C7C998",
"{. c #C7C8C8",
/* pixels */
"                                                    m f q q                                         ",
"                                                  @.0.h w w w                                       ",
"                                                z.p.#.s y y y #                                     ",
"                                              S.Y.D.J a w w w 0                                     ",
"                                            M.U.U.Z.g.a.F r p q                                     ",
"                                  #.#.| } j y.U.F.M.&.F t q q 0                                     ",
"                              j 7.8.7.7.O.| o.c.M.P t q q q q 0 +                                   ",
"                            p h 9.3.2.,.1. .| b n t w p s p q q 0                                   ",
"                          j h w ' 1.,.,.>.>.{ d } } | |  . .f 0 h h                                 ",
"                       .1.1.1.[ @ 0 w # w s d  . . . . . .1.} d 1.} 0                               ",
"                     .4.,.,.,...# , , e r , d >.1.:.X. .1.,.]  .,.d w 0                             ",
"                  s } 4.<.<.{ - @ , r G G q ] >.>.1.,.1.3.3._ ,.| s w 0 ,                           ",
"                  f h  .4.d # 0 + , G T K r } >.>.>.2.w.q.>.` ..h g r t ,                           ",
"                p f g h s + , , o 3 T T A r g | >.<.9.b.t.{ s s s p H E i X                         ",
"                f f f f , > > , o 7 T T x q f f h >.e.r.4.d @ w w H E R K , X .                     ",
"              p f p f p u u , > o 7 T T r i J J J h 1...d w @ q F E T E R k X + +                   ",
"              f v l v C S D z > X 2 K K e K M.M.M.M p w w w + l a.E E R T k X @ @                   ",
"            p v I a.f.K D D S 8 O 1 B u l E g.M.M.h.l q w q + k A a.E T K 2 X @ 0 o                 ",
"            p J a.a.&.A A A Z V 2 2 K k K E f.g.M.M.j.I l q + , z a.E K A : X 0 0 o                 ",
"          p v $.E E L A A A A K V u R x A L f.g.j.M.V.M.P n f } b H T K x o O 0 0 +                 ",
"          f J &.E f.f.V V A K K G k K z Z S f.g.g.M.M.M.f.m +.y.#.v A A e 0 : r e +                 ",
"          J a.E f.j.j.K B K K K K V A 8 Z Z a.g.g.j.M.M.I o.+.6.} g k z , t Z K F , X               ",
"        n &.I E a.g.j.E 9 A K K K Z 9 5 Z Z L E a.g.M.f.b o.O.} g f e : , H T A E C r E             ",
"        P E E E f.g.E K B B A K K V 5 8 Z Z A G K E j.E J %.m f a a e X u E E V L E C E E           ",
"        P P E ! g.g.E R S 8 B A A 8 8 x Z Z A G K K a.E h.M.I a p p e > Z E E A a.! K E E           ",
"        K E ! a.j.E L P L 9 8 8 8 4 x x V Z A E K G E a.f.f.g.H r e , > Z R L M.Y.F.E L R           ",
"        L E E a.f.E L A L B 8 8 8 B A Z Z Z A a.L A R E E &.a.E F e , > x K K J.U.U.J.M.E           ",
"        Z K E a.E P L A L A 4 B a.j.j.a.L Z Z K K K L E E &.E E E C , , u A Z P.P.F.F.P.j.A         ",
"      z Z Z L K K P L P L K 8 j.U.J.F.a.E V Z V Z K E E E E L L T T k < u A Z F.E.P.P.L.d.H         ",
"      B Z Z Z Z Z L L K K K h.R.Y.U.F.f.L z B B V a.E L E E E E K K L u 2 Z A j.Y.J.Y.Z.$.F x       ",
"      V Z Z Z x x A R E L P j.Y.R.R.S.E V 9 z x Z j.a.L E E E A B Z Z Z 2 z H L M.Y.L.s.I Z x       ",
"      Z Z Z V x x Z K L P a.a.A.^.R.E Z z 9 r a S g.a.L a.E K V Z T A B 6 7 x x L U.z.a.K x z 3     ",
"    A Z Z Z Z Z Z Z Z Z I s.a.s.T.Z.K A k w # - f K H A a.L Z B B Z Z x u 5 z k Z a.P H x k z 1     ",
"    A Z Z Z Z Z K L Z x P a.s.s.j.E K l # * ~ / * p Z z x B B B B B B z t 3 k p x A Z x k z u       ",
"      j c Z Z Z C Z x x H $.s.s.&.K K t $ ~ ( ;.) = l 8 7 z B B B x z z t q a w 8 z x x k k         ",
"        x V x x x x x G Z H I u.I K D J * & / -.) ~ p 8 8 z B B B z z 8 r t a q 5 z z z z 1         ",
"            z B G K L K n F K M F Z g.S.a % ; ; } ; r 5 8 z B x x z 5 5 8 G.H.N.Y z 8 8             ",
"              M.S.F.J.E l a H g x z E y.J m x.s.j.$.P 7 8 8 B B z 5 5 9 z !.(.N.*.E L K             ",
"          *.M.S.S.F.P.a.C w a w 2 v N 5.I &.f.E H F H z 7 8 8 k 3 5 z z z A m.j.M.h.M.j.L           ",
"          S.Z.Z.S.S.F.g.G.=.W t 3 m | O.J a.E H c c F x r e 8 w 3 z z 8 z a.M.M.M.j.M.j.K           ",
"        M.F.Z.Z.S.F.J.f.Q `.'.~.F g 8.W.I.&.H Z c x F c 3 q < # u 8 5   L Z.Z.Z.Z.Z.F.f.x           ",
"       .j.Z.Z.Z.F.U.F.a.T `.{.{.C.] 0.[.Q.D.c x x x Z Z 7 0 q p s m J P   a.M.Z.Z.F.Z.H             ",
"        a.j.p.c.c.z.s.I T _.].)./.i.% p.^.k.z x x x x x 8       O.1.6.$.L     Z H P H               ",
"          J 6.8.6.U P K G K.B.l.v.[ % ~ = * a x x x z 8           { O.u.A                           ",
"                          L     ~ ^ _ n.[ = k 8 8 8                                                 ",
"                                     .^.                                                            ",
"                                                                                                    "
};
