/* XPM */
static char *_adc8ab65b134a88e3deceae63593143L52X6hTqqV4BUhvK[] = {
/* columns rows colors chars-per-pixel */
"50 46 205 2 ",
"   c None",
".  c #454F1D",
"X  c #47511D",
"o  c #49531F",
"O  c #4E5A1E",
"+  c #505D1C",
"@  c #55621E",
"#  c #5C6A1C",
"$  c #64790F",
"%  c #697B0F",
"&  c #636C1B",
"*  c #686918",
"=  c #657A10",
"-  c #65741C",
";  c #6D7B1D",
":  c #657613",
">  c #484E22",
",  c #4C5423",
"<  c #4E5A21",
"1  c #4F5429",
"2  c #525C23",
"3  c #53542C",
"4  c #555B2C",
"5  c #595C2D",
"6  c #565531",
"7  c #585733",
"8  c #5B5B34",
"9  c #5E5D39",
"0  c #565C30",
"q  c #556323",
"w  c #5A6524",
"e  c #5E6A24",
"r  c #566229",
"t  c #5C642C",
"y  c #5E6A2A",
"u  c #5C6232",
"i  c #5F6930",
"p  c #636D26",
"a  c #63642E",
"s  c #626C2B",
"d  c #6D6C22",
"f  c #7D6424",
"g  c #657424",
"h  c #697426",
"j  c #6D7A24",
"k  c #66732C",
"l  c #6B752D",
"z  c #6E7A2B",
"x  c #737F2D",
"c  c #707C25",
"v  c #626435",
"b  c #646B33",
"n  c #63633B",
"m  c #656B3A",
"M  c #696B3D",
"N  c #6A6B39",
"B  c #6C7431",
"V  c #6F7931",
"C  c #6C723C",
"Z  c #6D793B",
"A  c #607031",
"S  c #727C33",
"D  c #757B3E",
"F  c #77743E",
"G  c #666542",
"H  c #686642",
"J  c #676844",
"K  c #6B6A43",
"L  c #6E6D49",
"P  c #716F4A",
"I  c #706F47",
"U  c #6E7144",
"Y  c #6E7048",
"T  c #727446",
"R  c #767A42",
"E  c #74744C",
"W  c #78774F",
"Q  c #77794C",
"!  c #797B4E",
"~  c #787D46",
"^  c #767651",
"/  c #787750",
"(  c #7C7C54",
")  c #7D7E5A",
"_  c #96711E",
"`  c #88733C",
"'  c #9E7736",
"]  c #B06B2C",
"[  c #BE6439",
"{  c #807F56",
"}  c #807F58",
"|  c #8A7B46",
" . c #6B820C",
".. c #70860D",
"X. c #738A0D",
"o. c #7D9906",
"O. c #7C950A",
"+. c #7A9409",
"@. c #6F8018",
"#. c #73851C",
"$. c #738714",
"%. c #7B9310",
"&. c #758324",
"*. c #7D8D25",
"=. c #75812D",
"-. c #78862B",
";. c #7E8C2B",
":. c #788726",
">. c #768431",
",. c #798533",
"<. c #7D8A32",
"1. c #728038",
"2. c #7E814D",
"3. c #7D8443",
"4. c #7E8152",
"5. c #7F8059",
"6. c #849F0A",
"7. c #808F2C",
"8. c #8B9C26",
"9. c #85952D",
"0. c #8A9B2D",
"q. c #849527",
"w. c #818E34",
"e. c #808B3B",
"r. c #849333",
"t. c #899735",
"y. c #8B9A31",
"u. c #86933A",
"i. c #899639",
"p. c #8A9938",
"a. c #919F33",
"s. c #B3873F",
"d. c #8EA125",
"f. c #8FA02C",
"g. c #92A32C",
"h. c #94A728",
"j. c #95A23B",
"k. c #9EAC3C",
"l. c #93A331",
"z. c #EF8D1E",
"x. c #E58A2B",
"c. c #EE9023",
"v. c #E99636",
"b. c #858C4B",
"n. c #9C824A",
"m. c #869045",
"M. c #8A9445",
"N. c #8C944D",
"B. c #8F994A",
"V. c #929B4E",
"C. c #838553",
"Z. c #858954",
"A. c #898C55",
"S. c #83835A",
"D. c #87885B",
"F. c #8A8B5C",
"G. c #88875E",
"H. c #8D925C",
"J. c #8B9951",
"K. c #919659",
"L. c #94995B",
"P. c #989D5C",
"I. c #9B8958",
"U. c #AE905A",
"Y. c #ABB05F",
"T. c #A8AE59",
"R. c #8C8C62",
"E. c #858B68",
"W. c #8F9064",
"Q. c #8D956D",
"!. c #929366",
"~. c #969866",
"^. c #96946B",
"/. c #959569",
"(. c #96996B",
"). c #9A9B6D",
"_. c #9A9C67",
"`. c #8F9575",
"'. c #9B9A71",
"]. c #9D9D72",
"[. c #9D9E71",
"{. c #A09F76",
"}. c #9EA06C",
"|. c #9FA071",
" X c #A2A176",
".X c #A2A474",
"XX c #A5A57A",
"oX c #A9A97C",
"OX c #A7A87A",
"+X c #B4A778",
"@X c #DC9D4B",
"#X c #E8A140",
"$X c #C09F6C",
"%X c #D4A667",
"&X c #DAAE70",
"*X c #E5BD77",
"=X c #9A9F85",
"-X c #ADAC82",
";X c #B0AF86",
":X c #B7B080",
">X c #DABE84",
",X c #DDC585",
"<X c #E2C890",
"1X c #E1C68A",
"2X c #E0D7A8",
/* pixels */
"                                                                                                    ",
"                                                                                                    ",
"                                                                                                    ",
"                                      &.;.7.7.-.>.,.b.!.^.(.b.;.&.&.;   >.x                         ",
"                                    j ;.t.t.r.m.H.).XXoXOXXXK.7.:.w.w.w.w.<.l                       ",
"                                    <.w.e.b.~.[. X].[.[. X[.K.r.<.w.u.u.u.r.<.4.                    ",
"                                  A.A.H.!.'.XX X'.].[.^.[..XB.r.r.<.u.u.u.u.L.-X!.                  ",
"                                  ^. X XXX.X X).'.{.XX|.L.B.p.i.i.<.u.u.u.m.oX;X^.                  ",
"                                T ].OX X).P.L.).).L.B.i.r.t.p.i.i.<.<.u.r.N.-X XG.                  ",
"                                Z.'.OX}.M.u.u.M.i.t.y.0.9.y.p.p.p.<.g ,.p.u.!.^.G.                  ",
"                      =.>.,.S =.M.N.V.M.t.r.r.t.y.y.y.0.0.0.0.y.t.r.g g r.>.! !.S.                  ",
"                w.r.w.w.w.r.<.h j ;.0.y.y.y.y.y.y.y.0.0.0.0.0.0.0.y.:.# k y C R.(                   ",
"            j 9.t.r.r.r.r.r.<.p e e c ;.0.g.g.y.g.0.f.g.j.j.0.a.f.y.<.q y y b S./                   ",
"            p -.y.t.r.r.r.w.,.p e e e e h 9.h.h.g.f.g.j.Y.T.l.g.0.<.V w w y s R W                   ",
"          + p l 9.0.t.r.r.r.<.p @ w e e e g ;.g.d.g.g.g.k.k.g.9.>.V V e w y k b t                   ",
"          @ s k -.0.9.9.9.9.;.e 4 q e e e p s :.q.8.h.h.f.9.=.V V V S s t b y y q                   ",
"          @ w e k 9.8.0.0.q.;.e n 8 v v w e s p &.*.0.<.S B B l z V B e C D.b w w                   ",
"        + b C y y s q.d.8.8.*.b K n K K n a y e p p l B B B l l s s y w U !.S.b q                   ",
"        t ! C.Q D.T q &.8.d.:.m K n K K K K u q e p s B B l s w w y b i E R./.S.t                   ",
"      t T 4./ S.R.!.u X @ g w K L M K K K K n O q w s B B s w C T b w U / S.R.S.K n                 ",
"      T ( W ( S.D.!.T o X X , K L K K K K K n < O 2 q s y w s S.G.B w W ( / ( / / L                 ",
"      K W E { S.S.S.E 8 3 X 1 K L K K K K K v v 2 < q w w w w C b q m ( S.} / / ( E ( (             ",
"    9 m E ( S.D.S./ ^ G 9 1 1 L L K K K K K 8 K K 2 2 q w w q q i U / E S.G.E / ( E / (             ",
"    9 n / { S.D.( E / T 6 3 3 L x l M K K H 3 8 T u O q q q t Q / ( 5.( { ( S.).!.^ E /             ",
"    9 K ( ( S.S./ W W E 9 4 e &.%.$.j M K n 6 9 K v < 2 q q U S.5.( ( ( / E )..X.X(.S./             ",
"    8 E ( ( S.( W W W / K s ..+.o.o...g n n 6 H L K 2 2 q r v Q ) ( 5.( E K [..X.X[.).R.J           ",
"    8 E ( ( ( W W W W W Y e X.o.o.6.o. .b 9 7 G L M 2 2 2 t T Q ( ( ( S./ J _.OX X[..XH.!           ",
"    8 K ( S./ W W E E E E C : ....O... .e 6 7 H K K 2 < 2 m ( E ( / ( S.L K D.oX[..X).Z.C.T         ",
"    9 K ( { W Q E E E E E 2.t % j - p # u 3 6 H K L 5 , 2 m ( ( ( E ^ / K L ( !.|..XF.C.C.W         ",
"  j v H ( W E W E T K U C.C.2.S 2.L E L G 3 3 H K K v , < m E T T ^ / / G U T / .X_.C.C.C.2.T       ",
">.@.v n K T W / K M K U ! 2.C.Z.( ^ ^ E G 7 3 H K K m , , u T E L L ^ ! K L T T R.A.C.W E E U       ",
"  % a n n n K K n n n K T T ! Z./ ^ E P G n 6 n G G u o o 4 I ( I L I ~ =.D F L 4.C.4.T T T L       ",
"    u n n n E S b v 9 K T T Q S.^ E L K E / K 8 8 8 9 , X , t K K L K S #.#.B K E ! Q D <.D         ",
"      9 n n N x &.p 5 n U T ! ( E L E ( ( ( ( L 8 7 8 , X X O q 2 u v - = = - b L L M S ;.;.        ",
"        9 n b ; @.- a ` n.` T W L E ).!.G.S.S.S.L 8 8 , X 1 < e s 5 2 # $ +.+.; L K M k S           ",
"      ( G.D.D.2.S B s.<X2X@X' G G ^..X).|.[.(.R.S.K 7 , , n b g k n n @ $ X...= T E L Y             ",
"    R.!.!.!.!.!.R.I.#X*X*Xv.%XK n S.D.^.|..X.X.X^.G.n > 1 8 r w y i 9 4 - B 1.3.R.W.G.S.R.R.        ",
"  S.^.!.!.!.!.^.!.:X1Xz.c.x.%X| s K E Z.Z.F.~._.H.W.S.3 3 4 2 q q 2 4 n 4.W.!.^.^.^.!.W.G.5.        ",
"  ( ^./.^.).).[.).+X&Xx.,X>X[ f s b v T C.D.!.Z.C.C.Z.9 3 t q w w < 4 Q ^.^.!.^.^.^.^.~.!.(         ",
"  J C.L.!.).).^.D.F _ ] $XU.f & t l l B T C.Z.C.C.C.3.l n b z k A t u E !.|.!.^.(.^.^.L.V.C.        ",
"    B *.R / W T K   j * d & g Z 0 t #.z v K ! Z.C.! z &.=X(.J.H.4.( ) L E !.^.).).).(.N.9.;.        ",
"      j a                           1.S t 9 n K K n t Z `.Q.`.E.D.)./.^ G G T S.( / T l x           ",
"                                            8 8 9 8             ^ G.S.                              ",
"                                                                                                    ",
"                                                                                                    ",
"                                                                                                    "
};
