/* XPM */
static char *_cd3c1ffeb424146af40c5aea43c49d3qggOYhxbZE225YrP[] = {
/* columns rows colors chars-per-pixel */
"50 44 181 2 ",
"   c None",
".  c #4C551E",
"X  c #4E5A1C",
"o  c #515D1D",
"O  c #5C6B1E",
"+  c #56621F",
"@  c #5E7015",
"#  c #657C0A",
"$  c #6A7B09",
"%  c #606D1D",
"&  c #627513",
"*  c #697716",
"=  c #6B7D16",
"-  c #65751C",
";  c #6C7C1E",
":  c #657917",
">  c #4A4B20",
",  c #4F5822",
"<  c #545D24",
"1  c #52542B",
"2  c #565D2A",
"3  c #595E2C",
"4  c #565532",
"5  c #585635",
"6  c #5B5B35",
"7  c #5D5D39",
"8  c #605F37",
"9  c #605F3A",
"0  c #556223",
"q  c #5B6523",
"w  c #5D6B23",
"e  c #5C642B",
"r  c #5D6C28",
"t  c #5D6132",
"y  c #5F6038",
"u  c #616C25",
"i  c #62672E",
"p  c #636C2C",
"a  c #686F29",
"s  c #647224",
"d  c #6A7624",
"f  c #6C7C26",
"g  c #65722C",
"h  c #6A762B",
"j  c #6C7A2B",
"k  c #707E24",
"l  c #717D2C",
"z  c #616435",
"x  c #656C33",
"c  c #686F33",
"v  c #63633C",
"b  c #67693B",
"n  c #6A6B3D",
"m  c #746C3B",
"M  c #736634",
"N  c #6A7332",
"B  c #6F7831",
"V  c #6C713B",
"C  c #707833",
"Z  c #71743A",
"A  c #757D3C",
"S  c #666540",
"D  c #686741",
"F  c #676841",
"G  c #6B6B43",
"H  c #6E6F49",
"J  c #706F47",
"K  c #706F4C",
"L  c #6F7141",
"P  c #717245",
"I  c #757943",
"U  c #73734B",
"Y  c #78774F",
"T  c #777A49",
"R  c #7A7B4D",
"E  c #767650",
"W  c #7C7C53",
"Q  c #875F21",
"!  c #825F2A",
"~  c #977133",
"^  c #9B7330",
"/  c #C97929",
"(  c #807E57",
")  c #6C840C",
"_  c #70870F",
"`  c #728B0B",
"'  c #6D8212",
"]  c #6E801D",
"[  c #718512",
"{  c #758A15",
"}  c #758A1D",
"|  c #72821B",
" . c #6C8020",
".. c #738424",
"X. c #788624",
"o. c #7B8C25",
"O. c #75842B",
"+. c #79852D",
"@. c #778828",
"#. c #7C8B2D",
"$. c #778B22",
"%. c #768131",
"&. c #7A8632",
"*. c #7E8C32",
"=. c #7E883B",
"-. c #78823B",
";. c #7D814D",
":. c #7C8642",
">. c #7F8055",
",. c #7F8059",
"<. c #84932E",
"1. c #88972F",
"2. c #8A9B2D",
"3. c #8A9B27",
"4. c #808F31",
"5. c #859432",
"6. c #889734",
"7. c #8A9A33",
"8. c #879438",
"9. c #86923A",
"0. c #899738",
"q. c #8D9A3D",
"w. c #8FA028",
"e. c #8FA02C",
"r. c #92A42D",
"t. c #96A82C",
"y. c #91A133",
"u. c #93A13A",
"i. c #9CAA39",
"p. c #88824F",
"a. c #878F4B",
"s. c #808944",
"d. c #91854E",
"f. c #8D9847",
"g. c #8B924E",
"h. c #939F4B",
"j. c #828355",
"k. c #868854",
"l. c #8A8E56",
"z. c #828259",
"x. c #84845A",
"c. c #88875E",
"v. c #87885C",
"b. c #88885E",
"n. c #8A8D5E",
"m. c #8A8A5D",
"M. c #8F9752",
"N. c #8F915D",
"B. c #909656",
"V. c #93965D",
"C. c #959C55",
"Z. c #9AA857",
"A. c #A7B053",
"S. c #868760",
"D. c #888760",
"F. c #878960",
"G. c #8C8C62",
"H. c #8F9064",
"J. c #929365",
"K. c #979967",
"L. c #959669",
"P. c #97996A",
"I. c #9A9C6D",
"U. c #9D9E70",
"Y. c #9EA072",
"T. c #9FA072",
"R. c #A2A26C",
"E. c #A2A475",
"W. c #A8A97B",
"Q. c #AFB57C",
"!. c #ACB074",
"~. c #B6B677",
"^. c #B4BA7C",
"/. c #BCB977",
"(. c #D79649",
"). c #D8A14A",
"_. c #E9AE4E",
"`. c #C7C17C",
"'. c #B6BD8A",
"]. c #C6CA9C",
"[. c #C8CC9F",
/* pixels */
"                                                                                                    ",
"                                                                                                    ",
"                                                                                                    ",
"                                                                                                    ",
"                                            O.@.X.                                                  ",
"                                        &.*.4.4.4.4.j                                               ",
"                    O.#.5.9.5.<.#.l O.#.5.5.8.8.0.7.j                                               ",
"                +.<.5.6.7.q.7.7.7.<.<.6.5.0.5.0.7.7.j w                                             ",
"              #.5.5.6.6.1.2.7.7.7.<.<.7.7.7.7.7.y.5.g p                                             ",
"            <.1.1.1.2.7.1.1.7.7.7.O.j O.O.@.#.#.#.j p g p                                           ",
"          X.2.2.2.2.2.2.2.1.2.7.#.f j f f j d h s 0 r h h q                                         ",
"          O o.3.2.2.2.2.2.7...#.*.8.0.8.5.<.5.5.1.w 0 g h w % - -                                   ",
"          o q d X.2.e.r.2.f O O.0.0.0.<.<.<.2.2.2.f 0 r g p % & & ]                                 ",
"          X o q u s O.1...O d 8.0.7.7.5.2.2.2.2.r.O.0 L n.v.N @ & ) )                               ",
"          o o o q w u c w O *.0.0.0.7.2.2.2.2.e.r.l e Y L.J.j.;.s.k &                               ",
"          o q o o < b P h *.5.7.7.7.7.u.y.2.e.r.#.g x W x.x.J.E.E.I.n.n.>.                          ",
"          o o X < z G P h <.1.y.y.7.u.A.i.r.2.O.p r x b.x.c.P.U.I.E.T.E.T.P.H.                      ",
"        < , 2 2 z D D G < + s ..2.r.r.i.t.2.l i V P R c.v.b.J.E.E.E.E.E.E.E.E.U.J.S.                ",
"      W e 6 D D D D D n < X X X w @.<.<.#.B p V G.G.D.E x.G.P.E.E.E.E.E.E.E.E.E.E.E.U.              ",
"      W t v D D D D D v < X . . < p c N N p i j.G.b.( 7 H G.E.E.E.E.E.T.E.E.E.E.E.E.E.E.            ",
"      Y z G D v D D D D n e . . q c c N g e P c.c.b.W 5 5 D x.U.E.E.E.E.E.E.E.E.E.E.E.E.            ",
"      U W W D D D D D v H P 2 . < p p p e c x.c.c.x.H 4 5 7 v U J.E.E.W.E.E.E.E.E.E.E.T.G.          ",
"    v v.U.I.H.Y D D D 7 J U b < q p i i V j.x.x.W J v 4 H U U Y U x.E.W.I.E.E.E.E.I.I.H.W           ",
"    P n.E.U.E.E.x.v 7 5 U P J t 0 p e T b.b.j.U D D D v Y j.b.x.j.H H L.G.E.E.E.E.I.G.b.U           ",
"  y P k.P.E.I.W.J.D 5 9 U H P b < e z x.x.j.W H D D v U b.H.E.T.I.K.W b.G.L.E.E.L.n.b.W D 7         ",
"  v G R l.E.E.J.W P v v D G b e 2 e x x.x.Y c.W v D 7 Y b.b.I.L.E.E.N.U Y W x.x.W W W H D v         ",
"v v b R k.K.W.x.G H D D D H G b z < n x.j.Y b.j.D v 5 D j.G.I.U.E.I.k.;.U Y Y H v v H G D v         ",
"7 v v n T j.J.U v v 7 D H U U P n < P x.j.P W W G 7 5 9 D x.I.E.E.n.j.k.Y G G n n n D D D v 7       ",
"6 v z v n P Y n z v 6 i v J U Y n 2 U W W D H H D 5 7 7 v K W G.K.j.j.k.R v n U U D D D v 9 v       ",
"1 x x z b G D z e z i i 9 v G H z 3 G G v v G 9 D b.G.H v G U W k.j.k.j.T b v P U n p.d.m v 4       ",
"  e k h z v v t q e u e v v v D z z G Z q 7 D D J.E.E.U.x.U K Y j.k.j.R P D v D D m )._.^ v         ",
"      d z 7 v 6 q q u 1 6 8 v P n V L X.. 4 7 n.E.I.I.E.T.J.U U ;.;.U U G P v v v M / (.~           ",
"        7 v D v       7 5 6 7 n x +.C = > 3 T K.E.U.I.L.b.L.x.D A A I L H U j.j.W P ! Q             ",
"        W >.j.x.W     v v 7 4 6 z h | 9.B A R ;.b.L.J.j.W x.Y z j o.&.n D Y T.U.I.L.F.              ",
"    <.=.l.G.v.G.G.b.H y v v 7 1 q % 4.]./.R.P n Z R j.j.W Y G x = [ k p 5 W U.P.L.J.J.c.            ",
"      %.l.H.m.G.G.G.b.H 5 v v e - = 5.[.`.~.j.V l P >.j.U D D n * $       >.I.L.L.J.J.K.L.          ",
"      n j.I.B.M.V.J.J.W   6 z V.!.o.# :.[.'.;...j G P H D D D D a       S R P.U.K.N.J.L.L.          ",
"        P l.f.7.f.l.j.  Y Y T Q.^.} # # ..; - { c n G D D D v 7         F A g.E.C.g.J.J.J.W         ",
"          V ; ' ;     U j.x.-.} = ) # } ) # ) [ t v v v v 7 5           v :.O.a.7.l.J.b.x.U         ",
"              $       G x.b.;.{ _ ` $.^.h.# = ' 3 b v 7 5           ,.J.  V ..l } I x.W             ",
"                                  { } Q.Z. .; [ 2 7 7                 W     ' : {                   ",
"                                                                                                    ",
"                                                                                                    ",
"                                                                                                    "
};
