/* XPM */
static char *_50ed5c528174402b09ea8782dd9c5bayS6fQHxPEbtjqWMg[] = {
/* columns rows colors chars-per-pixel */
"50 50 157 2 ",
"   c #2F0800",
".  c #340C00",
"X  c #3C0F00",
"o  c #361200",
"O  c #3C1400",
"+  c #3E1903",
"@  c #3F1E0B",
"#  c #421500",
"$  c #481600",
"%  c #441B02",
"&  c #4B1D02",
"*  c #421D0A",
"=  c #491F09",
"-  c #511F00",
";  c #462104",
":  c #4C2205",
">  c #46210B",
",  c #4C240A",
"<  c #4E290C",
"1  c #522405",
"2  c #5B2605",
"3  c #552906",
"4  c #5A2A06",
"5  c #52260B",
"6  c #59260C",
"7  c #542A0D",
"8  c #5A2C0D",
"9  c #57310D",
"0  c #5E310E",
"q  c #452311",
"w  c #4C2511",
"e  c #4E2A11",
"r  c #502711",
"t  c #552C12",
"y  c #5A2E12",
"u  c #572E18",
"i  c #5D2F18",
"p  c #553114",
"a  c #593014",
"s  c #5A3115",
"d  c #5B3214",
"f  c #583016",
"g  c #593117",
"h  c #5A3017",
"j  c #5B3216",
"k  c #5A3316",
"l  c #5E3114",
"z  c #5C3315",
"x  c #5E3215",
"c  c #5D3116",
"v  c #5E3016",
"b  c #5C3317",
"n  c #5F3316",
"m  c #5E3217",
"M  c #5B3417",
"N  c #5C3214",
"B  c #57321A",
"V  c #5B3319",
"C  c #5C3219",
"Z  c #5F3318",
"A  c #5D3418",
"S  c #5C3518",
"D  c #5E3519",
"F  c #5F361A",
"G  c #5E371A",
"H  c #5D3419",
"J  c #5E391C",
"K  c #622A07",
"L  c #602E0B",
"P  c #622D0C",
"I  c #692F0A",
"U  c #64300B",
"Y  c #63310E",
"T  c #62300F",
"R  c #67330E",
"E  c #63310E",
"W  c #68340F",
"Q  c #69320E",
"!  c #612F14",
"~  c #622F15",
"^  c #612F18",
"/  c #653310",
"(  c #623413",
")  c #633513",
"_  c #663411",
"`  c #603314",
"'  c #603117",
"]  c #613216",
"[  c #623514",
"{  c #673615",
"}  c #633415",
"|  c #6C3610",
" . c #6A3613",
".. c #663817",
"X. c #663816",
"o. c #6B3915",
"O. c #6E3A15",
"+. c #6D3B17",
"@. c #6B3916",
"#. c #623319",
"$. c #603719",
"%. c #61351A",
"&. c #63341A",
"*. c #60371B",
"=. c #62361B",
"-. c #643519",
";. c #64351B",
":. c #64371A",
">. c #65361A",
",. c #63371C",
"<. c #65361C",
"1. c #66371D",
"2. c #63351A",
"3. c #69371C",
"4. c #673918",
"5. c #64381B",
"6. c #65381B",
"7. c #653A1A",
"8. c #61381C",
"9. c #60391C",
"0. c #62391D",
"q. c #65391C",
"w. c #67381C",
"e. c #67381E",
"r. c #643B1F",
"t. c #663A1F",
"y. c #673C1C",
"u. c #653C1E",
"i. c #64391C",
"p. c #683B1E",
"a. c #6A3D1E",
"s. c #6A3B1C",
"d. c #723C16",
"f. c #733B16",
"g. c #713D18",
"h. c #723D1B",
"j. c #5E3521",
"k. c #633721",
"l. c #663D21",
"z. c #673E20",
"x. c #663F20",
"c. c #663B22",
"v. c #683C21",
"b. c #6C3E22",
"n. c #6C401A",
"m. c #73411E",
"M. c #6A4123",
"N. c #6C4123",
"B. c #6F4228",
"V. c #714223",
"C. c #794422",
"Z. c #73432A",
"A. c #76492B",
"S. c #7B4C2E",
"D. c #7C4F30",
"F. c #804922",
"G. c #815234",
/* pixels */
"5 5 5 5 5 , , , , < t t e , , , % < 5 ; : 7 8 5 , : 1 1 5 5 1 : 5 5 5 5 5 5 6 t 6 & = 5 , 5 5 ; , , ",
"t t t t t t t t t t 5 , , , , < , , 7 t a t 8 8 h a y 8 8 8 y N , < 5 , , : : : 3 5 8 y 5 5 7 ; , , ",
"5 t u u t t u h C 7 ; % = , , < 7 ; : a *.a 8 h y y a y 8 8 y c t t t t y t 6 3 : 5 c c 5 t p , , , ",
", t u u t t u h y 5 : & 5 8 y t , % % ; 8 t y a 7 8 a y 8 8 y c 0.A A A *.0.-.*.= 5 i c t c M , , , ",
", t V h h h c y 5 1 1 8 ) 4...[ 8 7 : % % 5 y 8 y y N 8 8 8 c 4.0.0.A A *.,.1.1.6 5 y C c A h , 7 7 ",
", t h t y h 8 : & & 1 8 { O.o.) 4.n.c : % : 8 8 y 8 5 & % & 5 y c A 0.0.*.*.-.1.-.6 8 *.A u t , 5 7 ",
"; < t t t y 1 # & & 1 4 T R W ( y.M.z.a : % : 5 8 3 5 : & % # # ; 7 *.z.w.,.1.w.*.= : C u , , 7 5 5 ",
", t t t h c 1 O 3 6 8 L U R | o.` *.z.y.5 O # 5 8 y -.p.-.3 # . . % h w.w.,.1.w.8 # % y 5 % : A 5 5 ",
", , 5 , % ; : # 8 8 T _ O.g.d.O.a.w.4.c : # % 8 4.-.` ` -.w.! 3 #   t 0.C b.i ` # & 5 5 7 5 5 5 8 5 ",
", , t t 5 t N 5 6 8 T _ | | | | [ c N y : # & 8 N ` ` ` -.p.p.-.t O + 5 w.w.5 & & : 5 5 ; ; , p 5 5 ",
"= = t t t A *.y 8 8 ( { { _ _ ( 8 8 8 8 : & : y y ` 3.-.-.p.b.b.t ; O 5 C : % & 6 6 8 8 ; % , A 5 5 ",
", , < t t h ,.c 8 8 8 [ 4.4.[ N 5 : : 5 5 1 8 [ ` p.s.3.3.3.3.-.; , O 8 *.# & y i t y c t : < M 5 , ",
"t , t t t h 0.*.5 5 5 8 [ *.8 : : : 5 8 8 8 y -.p.v.b.3.3.-.! 6 , , . t N., 3 #.*.i i *.A 5 : ; , , ",
"t ; , t , t C C , ; & , 5 5 ; + % : 8 8 8 8 c -.-.1.3.#.` ` 8 1 : , , A *.: 6 b.1.#.c C A 8 ; O , , ",
", % ; 5 , , 5 5 ; ; , , , , > = # : 8 y 8 8 8 ! ! -.#.y 6 6 6 3 : ; w.w.: % 5 b.-.w.1.u t a , + ; , ",
"8 ; 5 y 5 , , , % , < t < < t f O : y y 5 : 3 8 y -.` 3 & & 1 3 a % c y & 5 5 c #.b.w.8 7 A a , : , ",
": 5 t h V f t 7 O : t t 5 5 5 ; t , , 5 , 5 8 & 5 5 5 5 5 5 5 5 8 7 % : V M < , A M A d 7 0 ) 8 8 5 ",
"= : 5 t h p < < ; < M G h y t u G 5 , , : 5 t 5 5 , 5 5 5 5 5 5 y 7 ; 7 0.J p p < ; 7 d 8 3 4 8 8 7 ",
"5 5 5 t M M p < < < f M y 8 y w.A 5 7 8 : : 8 t y y y y t t 8 5 5 : % < J J f k < + ; 9 7 1 4 0 N 8 ",
"t 8 5 5 f M t : p p t 5 5 y c C : : y $.8 % ; 5 5 5 5 , = & % # % % % ; t t < < p ; ; 7 1 3 0 ) [ y ",
"y t 5 : 5 t , % t V M 7 y 0.C : % : { a.3 % : 8 5 8 5 , = , = % ; ; % % , ; + + , , , : : N 4.N [ y ",
"u u 5 : , 7 , % ; 7 M M 0.0.8 O 1 8 4.) : & 8 c *.,.A t t H ,.C t t , , , + . o O % , , 3 p.b.8 c y ",
"y h t : : 5 5 ; + % < V A 5 % % N ) ..8 & 3 [ *.c C t , , t V u u h 5 , , % o O O + % , 6 -.b.` N 8 ",
"5 t 5 ; % , 5 ; % O % h t % % y [ _ ) 3 : 0 p.y 4.w.u & % 5 t t 5 8 , , , % O % , + O & , i b.b.y 7 ",
"5 h t ; % t a , h y ; + % ; < c [ 4.( 1 & 6 N 8 8 5 # # 5 c u C 5 N A t ; = = + C u , # # 6 -.3.c 8 ",
"t t 5 : 5 A A t 8 t ; % : t h $.N s.0 % 1 V.A.[ & % X # 8 ` t 8 8 1 : ; t V , # j.k.%.y 6 6 6 6 ` 8 ",
"7 , ; < h $.*.c c w.8 & 5 0.J G $.) 1 % 8 A.D.b.S.a.: # 1 8 1 & 8 8 8 h h t , , H H k.k.#.y 6 y ` 8 ",
": % % 5 c A c *.w.b.y % 5 0.r.G 0.: + : [ 4.a.N.G.V.6 1 ( o.o.s...4.N.V.$.5 , t k.V i #.;.` ^ 3.-.y ",
"; % : h A y c w.1.,., + ; f V V , + O 7 A y N a.( ( L | C.C.h.C.m.s.4.N.M.A 8 t c.V t t ^ -.-.#.3.y ",
", , t A A c #.v.*.c & O % ; ; ; . + , 5 t *.4.{ { { R O.m.f.Q d.m.n.+.X.8 : : 5 5 5 & & 3 ! #.! p.` ",
"< < t h h c i c t 8 ; % ; + o O O , V V h A ` 8 8 4 1 L h.f.f.F.+.n.) : + + : 8 & 5 , # & y s.3.p.` ",
"< < < < t t t 5 # % % 5 t ; + ; t f 0.M.0.5 & 3 1 - - ( C.C. .O.V.0 # . O 5 8 8 { b.-.& $ y V.Z.p.` ",
"p < ; ; < t , % % , t e > > e V w.4.4.s.s.[ 3 & = = # # i Z.B.b.V , # # : s.V.L ( O.h.{ 6 1 6 c i u ",
"f p e < , , + o > , e , > , e t 4._ { s.h.` 1 & % % O X = t t j.B O O t { {  .| I K 2 4 8 t t , 8 8 ",
"e f B e > % + O , , , , , = , , N 4 8 s.p.8 & % 5 5 & & & # = F B O % 1.V.{ | | g.Q K 8 i c 5 & : : ",
"< B V e % + % % t t 5 , , , : : 3 1 3 [ [ 1 & 5 [ #.c #.8 % = c., # & y { +.g.| g.h.+.4.` u t , , : ",
"t B V , + % , 5 A h 8 8 8 5 1 : 1 1 7 l 8 : 7 4.p.w.w.b.4.: & 1., O # = 6 L O. .( | 4.4.*.u t t 5 5 ",
", , , = = 5 A b.4.[ N 8 8 8 6 3 : : 5 5 : : 8 n.p.p.p.N.a.3 & N N.: % 8 8 - 2 L { { ` *.1.A t = t y ",
"% % % & t c.B.V.4.{ ) T 0 8 8 8 : < , % % : a 4.4.s.4.s...3 & 6 A.y 8 [ ( 3 - & _ 3.p.w.,.t , = h h ",
", & & 5 #.b.a.c { .._ ) U 8 U 0 8 p 7 ; : a $.$.l 4...) 8 : & 1 3 6 8 8 y { 8 # & N N.b.t , , t V c ",
"5 = # % #.b.-.` 4..._ o.o._ 4 1 8 p p 7 7 7 a a 8 [ { 8 3 6 N ` & % 8 w.c 3 8 8 & & & # % , t t u 8 ",
"5 5 % & y 4.p.b.a.s.4.+.+.+._ E 7 7 7 < < 7 t 8 c 8 1 1 8 N [ [ 8 & 5 #.i 8 y 8 1 : & % & 5 t t y 5 ",
", 5 , & : 5 y a.........o.o.o...8 8 7 , : 7 5 7 t : : 5 y 8 y C t & & t t t c y i t 5 5 8 C c y t 5 ",
"5 y 8 : : & & 8 y N ) { [ _ _ [ 8 8 7 < < 7 7 : , , 5 u 5 % % t , + + > , , t u *.#.c N ( [ ` 8 t 5 ",
"5 c h t 8 : % % 5 8 ` -.4.-.{ { 5 7 7 5 u h t , , , , t = . O > * + % > % % , 5 y #.-.` L 8 8 6 y 5 ",
": t y a A 7 % # : 1 8 c *.4.#.c & : 5 8 A 0.V , t = + + + + + * > * q q + + = = t *.b.+._ P L 8 y 8 ",
": 5 5 8 M 7 % % : : , 8 u y t 5 & : 3 y w.c.t = , % O O + * * * q @ q > + * = % u w.V.V.h.O.| P y 8 ",
"7 a t 8 M 8 : : 8 5 , 5 5 5 , & 5 5 8 c 0.,., O . % w > * * * * > + + + + > > % u 1.b.V.m.g.| 8 y 8 ",
"5 7 8 9 p 8 5 7 , , , 5 5 , 5 5 < < 7 a t , % % ; ; > , , = = > > > > > > , , , c y 8 ( { [ ( ` 5 , ",
": 7 7 8 8 8 7 : , , 5 , 5 , 5 5 < < < 7 7 , ; ; , , < < , , , < , , , , , , 5 5 8 1 : 8 8 8 8 8 5 , "
};
