/* XPM */
static char *_0e0dd7bc7e9471bbe4d6ab7aedd8246Auz1l62viLnHSQND[] = {
/* columns rows colors chars-per-pixel */
"50 50 183 2 ",
"   c None",
".  c #010102",
"X  c #0B0606",
"o  c #040309",
"O  c #09060C",
"+  c #0D0B0B",
"@  c #120C0C",
"#  c #140A0C",
"$  c #1A100E",
"%  c #0E0E17",
"&  c #100B13",
"*  c #1C1413",
"=  c #19151B",
"-  c #26180F",
";  c #321E0D",
":  c #2A0E1C",
">  c #251D1A",
",  c #2A1B16",
"<  c #34200D",
"1  c #38220F",
"2  c #2C201B",
"3  c #3D2514",
"4  c #3B2616",
"5  c #191926",
"6  c #231F2F",
"7  c #2E1421",
"8  c #391122",
"9  c #2B2626",
"0  c #32262C",
"q  c #392925",
"w  c #3E332B",
"e  c #2A2A3B",
"r  c #2C2A35",
"t  c #372B38",
"y  c #3C363B",
"u  c #3B393E",
"i  c #571B1D",
"p  c #422813",
"a  c #4F3218",
"s  c #593614",
"d  c #5A3818",
"f  c #623B15",
"g  c #471B2A",
"h  c #4B1C34",
"j  c #462A23",
"k  c #412420",
"l  c #5C2C25",
"z  c #4D332D",
"x  c #483329",
"c  c #493B33",
"v  c #453238",
"b  c #543A30",
"n  c #5B372D",
"m  c #613D2F",
"M  c #6A3A24",
"N  c #6F2937",
"B  c #603D32",
"V  c #6F451A",
"C  c #68411A",
"Z  c #774A1B",
"A  c #59483B",
"S  c #6D4626",
"D  c #734B2A",
"F  c #744920",
"G  c #6A4F3F",
"H  c #70453D",
"J  c #3E3846",
"K  c #393543",
"L  c #423943",
"P  c #573E41",
"I  c #7F3D52",
"U  c #5A4A49",
"Y  c #58525A",
"T  c #614E42",
"R  c #66544D",
"E  c #695345",
"W  c #7D5C4D",
"Q  c #615457",
"!  c #7F614F",
"~  c #796253",
"^  c #635A63",
"/  c #616467",
"(  c #756560",
")  c #872430",
"_  c #8B551C",
"`  c #885119",
"'  c #975B1D",
"]  c #9F601D",
"[  c #A6641C",
"{  c #B16A1F",
"}  c #8A5825",
"|  c #935B22",
" . c #935B28",
".. c #84473C",
"X. c #904A36",
"o. c #A45930",
"O. c #976027",
"+. c #94653A",
"@. c #AD6B24",
"#. c #A96C27",
"$. c #B36D24",
"%. c #B67124",
"&. c #A36C36",
"*. c #B56439",
"=. c #BE6C37",
"-. c #C2721E",
";. c #C67924",
":. c #CC7D23",
">. c #C07729",
",. c #D37F21",
"<. c #D17A2A",
"1. c #833E52",
"2. c #A13344",
"3. c #895642",
"4. c #89594A",
"5. c #955D4A",
"6. c #9B5A48",
"7. c #965E54",
"8. c #854544",
"9. c #A85849",
"0. c #A75851",
"q. c #91614A",
"w. c #846755",
"e. c #9B6A58",
"r. c #A1604C",
"t. c #AB6752",
"y. c #BB6A57",
"u. c #BA725E",
"i. c #B77252",
"p. c #AE7952",
"a. c #846D63",
"s. c #88766C",
"d. c #937560",
"f. c #94726B",
"g. c #987971",
"h. c #A47E65",
"j. c #BD7261",
"k. c #C16C46",
"l. c #CB785A",
"z. c #C37A60",
"x. c #D27F62",
"c. c #DB821F",
"v. c #ED8D1F",
"b. c #E6881F",
"n. c #F18F1E",
"m. c #F5911E",
"M. c #FA931D",
"N. c #CF812B",
"B. c #D38225",
"V. c #DB8624",
"C. c #DD8926",
"Z. c #D48329",
"A. c #E18721",
"S. c #E48A23",
"D. c #EA8D21",
"F. c #F29122",
"G. c #9F8379",
"H. c #A5866C",
"J. c #BA846A",
"K. c #A78A78",
"L. c #B18F73",
"P. c #CA8467",
"I. c #D58B6D",
"U. c #C79B7B",
"Y. c #D89979",
"T. c #E6A27E",
"R. c #B09484",
"E. c #A9A9A8",
"W. c #DC9F82",
"Q. c #C6A186",
"!. c #D8AB88",
"~. c #DFB896",
"^. c #C7A99C",
"/. c #E9AC88",
"(. c #EDBC96",
"). c #E7BA97",
"_. c #F5BE96",
"`. c #F9C59B",
"'. c #FBCA9E",
"]. c #F8C197",
"[. c #FECEA2",
"{. c #FBD5B4",
"}. c #EFD5C9",
/* pixels */
"                                                                                                    ",
"                                                  . .                                               ",
"                                              o . . o                                               ",
"                                            . . . . o                                               ",
"                                            . . . . o     o o o o                                   ",
"                                      o o o . . . . o o o . . . . .                                 ",
"                                      o o o . . . . . . . . . . . . o                               ",
"                                      . . . . . . . . . . . . . o                                   ",
"                          o o o o   o . . . . . . . . . . . . o                                     ",
"                        o o . . . o . . . . . . . . . . . . o                                       ",
"                            o . . . . . . . . . . . . . . . o o                                     ",
"                            o . . . . . . . . . . . . . . . . . . o                                 ",
"                        o . . . . . . . . . @ * @ . . . . . . . . . o                               ",
"                      o o . . . . . . . . $ r.Y.H.* . . . . . . o o o                               ",
"                            o . . . . . . $ 6.U.).U.E > w . . .                                     ",
"                              . . . . . . @ n ( s.L.~.x + . . .                                     ",
"                            o . . . 9 w.w.h.P.}.E.y H.c u 9 o o                                     ",
"                            o o . . + * B /.`.{.E./ ^.R r                                           ",
"                                      . k Y.'.[.~.Q.).e.z                                           ",
"                                      . j u.(.[./.I.Y.j @                                           ",
"                                  3 p ; M 9.j.W./.Y.q.,                                             ",
"                            o . o _ A.b.A.*.k.0.0.8.S p X X                                         ",
"                            . o r U +.D.m.<.6.u.j.t.i.p.&.{ F %                                     ",
"                            + * s.Q y $.M.D.&.h.G.g.f.K.a.Z.&.e                                     ",
"                            H.U.I.u.H [ m.n.M.>.t e e e J Z.O.6                                     ",
"                          > J.T.T.I...' S.v.M.A.D 0 e K G S.` %                                     ",
"                          * 9.x._.! * _ C.S.m.S.V.@.t +.Z.D.V .                                     ",
"                          E z.x.J.c   d V @.V.Z.Z.:. .;.V.} 3 @                                     ",
"                          d.].!.z         , x U Q U b z j 3.t.3.                                    ",
"                          W (.!.q         * 0 y L L J L 9 5.P.5.                                    ",
"                          t ^ Y =         } ,.,.,.:.#.N.Z 0 v 0                                     ",
"                          R R.K.L.T       ] M.M.M.m.:.v.` 5 P 4.z                                   ",
"                          d.[.'._.T .   3 -.M.M.m.D.,.v.` v 5.l.m .                                 ",
"                          d.[.].I.b . o s m.M.m.S.B.:.n.` ..9.9.m .                                 ",
"                          ~ (.`.P.j o 3 _ M.M.m.V.:.B.F.[ l ..y.m .                                 ",
"                            A A w     _ S.M.M.M.[ f V.m.V.< , z q                                   ",
"                            . . .   3 @.S.M.M.A.Z C S.m.A.< . .                                     ",
"                                  C $.S.S.m.D.%.V V.D.M.A.;                                         ",
"                                4 #.D.S.C.D.V.| | V.S.D.V.Z 3                                       ",
"                                s B.S.S.V.S.S.V >.V.S.V.V.F.Z o                                     ",
"                                s V.S.m.m.V._ a O.:.V.m.n.[ s                                       ",
"                                s B.D.m.M.;.$   d %.:.D.c.1                                         ",
"                                  D =.*. .V $     - D o.M                                           ",
"                                  r 1.1.e o       o 6 h 8                                           ",
"                                  e I N 5         O 5 & O                                           ",
"                                  u 7.i .           = @ o                                           ",
"                                  X.k.j             2 g : #                                         ",
"                                7 2.)               = t h h 7                                       ",
"                                i 1.t                                                               ",
"                                                                                                    "
};
