/* XPM */
static char *_c4c0fbabf324c2b8c01ba2e0e170503EAtcoCK2m4nuDvIy[] = {
/* columns rows colors chars-per-pixel */
"50 50 194 2 ",
"   c None",
".  c #010102",
"X  c #080506",
"o  c #03010C",
"O  c #0E0A0A",
"+  c #0F050A",
"@  c #130D0C",
"#  c #1B110A",
"$  c #13100E",
"%  c #0C0D16",
"&  c #0A0B15",
"*  c #13141E",
"=  c #1A1616",
"-  c #1C0E18",
";  c #23150B",
":  c #2A1A0B",
">  c #311D0C",
",  c #241512",
"<  c #2B1A17",
"1  c #2C1D1A",
"2  c #291A17",
"3  c #311E1A",
"4  c #39191F",
"5  c #37210E",
"6  c #37251C",
"7  c #29211C",
"8  c #1A1B25",
"9  c #181522",
"0  c #251E2B",
"q  c #3D1A28",
"w  c #2D2423",
"e  c #242227",
"r  c #352C26",
"t  c #3A2C2A",
"y  c #362724",
"u  c #282538",
"i  c #3B2E33",
"p  c #383538",
"a  c #452B14",
"s  c #502F12",
"d  c #4C3117",
"f  c #5B3615",
"g  c #5C3915",
"h  c #5C3819",
"j  c #643C15",
"k  c #653C1A",
"l  c #5E1D37",
"z  c #4B1825",
"x  c #412721",
"c  c #492D27",
"v  c #4A3A2E",
"b  c #49342B",
"n  c #50332A",
"m  c #5C3829",
"M  c #432139",
"N  c #443933",
"B  c #643D26",
"V  c #663D32",
"C  c #77222C",
"Z  c #6C4016",
"A  c #66411A",
"S  c #694119",
"D  c #74471A",
"F  c #76491E",
"G  c #494230",
"H  c #5A463A",
"J  c #62422F",
"K  c #754B2C",
"L  c #7F5025",
"P  c #604B3E",
"I  c #6A4336",
"U  c #724C35",
"Y  c #775637",
"T  c #3B3749",
"R  c #3A3649",
"E  c #373850",
"W  c #453C47",
"Q  c #773748",
"!  c #3F4158",
"~  c #4E4446",
"^  c #5C4B40",
"/  c #574655",
"(  c #5D5053",
")  c #434255",
"_  c #665142",
"`  c #68554A",
"'  c #755947",
"]  c #605955",
"[  c #78604F",
"{  c #7D6057",
"}  c #5C5260",
"|  c #665F68",
" . c #696463",
".. c #8B551A",
"X. c #955B1C",
"o. c #834E19",
"O. c #B26A1D",
"+. c #BC6F1E",
"@. c #AC671E",
"#. c #814F20",
"$. c #955E29",
"%. c #965D21",
"&. c #8A5D34",
"*. c #9D6222",
"=. c #9C6937",
"-. c #A46725",
";. c #B96F20",
":. c #BE7421",
">. c #B67124",
",. c #B26F36",
"<. c #B97733",
"1. c #C2771E",
"2. c #CC791E",
"3. c #D77F1F",
"4. c #C57620",
"5. c #CB7D25",
"6. c #C47B2C",
"7. c #CF7A2D",
"8. c #D17F21",
"9. c #C96D34",
"0. c #8B3B4D",
"q. c #A5394A",
"w. c #8A5A49",
"e. c #945C4C",
"r. c #9E5E4D",
"t. c #8F5D53",
"y. c #9A5856",
"u. c #B2594F",
"i. c #8D6343",
"p. c #896955",
"a. c #96755A",
"s. c #B56A54",
"d. c #A5725D",
"f. c #B26D55",
"g. c #8A7262",
"h. c #96746A",
"j. c #A67965",
"k. c #B87A66",
"l. c #C27C62",
"z. c #D5801F",
"x. c #DC831F",
"c. c #E2861E",
"v. c #E6881F",
"b. c #EB8B1E",
"n. c #F28F1E",
"m. c #F6911E",
"M. c #FA921C",
"N. c #D38123",
"B. c #DB8524",
"V. c #DC8628",
"C. c #C58239",
"Z. c #E58A23",
"A. c #EC8D21",
"S. c #E5892A",
"D. c #F08F21",
"F. c #F59221",
"G. c #A2845A",
"H. c #AA836B",
"J. c #BF8569",
"K. c #BA8F76",
"L. c #A98A70",
"P. c #CA8459",
"I. c #E49A58",
"U. c #CA8D6F",
"Y. c #D78667",
"T. c #CE8E71",
"R. c #CC9476",
"E. c #D29576",
"W. c #DB9B7A",
"Q. c #DC9575",
"!. c #E29B79",
"~. c #E5A37E",
"^. c #8F9091",
"/. c #B2AAA2",
"(. c #CA9B84",
"). c #CDA687",
"_. c #D6A687",
"`. c #DBB28E",
"'. c #D8AB95",
"]. c #E3A483",
"[. c #EAAC87",
"{. c #ECB18A",
"}. c #F0B48D",
"|. c #E1AA92",
" X c #E9B994",
".X c #F4BB93",
"XX c #EDC098",
"oX c #F4C49B",
"OX c #F9C49A",
"+X c #FAC99E",
"@X c #FDCDA1",
"#X c #CECBC9",
"$X c #FCE6D0",
"%X c #FBF3EA",
/* pixels */
"                                                                                                    ",
"                                                    . . .                                           ",
"                                                  o . . o                                           ",
"                                                . . . .                                             ",
"                                          o   o . . . .       o . . . .                             ",
"                                          o   o . . . .     o o . . . . o                           ",
"                                          o   . . . . . . . . . . . . . . o                         ",
"                                            o . . . . . . . . . . . . . o . o                       ",
"                                        . . . . . . . . . . . . . . . .                             ",
"                        o . . . .       . . . . . . . . . . . . .                                   ",
"                          o . . . . . . . . . . . . . . . . . . .                                   ",
"                            o . . . . . . . . . . . . . . . . . . . .                               ",
"                            o . . . . . . . . . . . . . . . . . . . . .                             ",
"                      o o . . . . . . . . . . O b H @ . . . . . . . . . o o                         ",
"                      o o . . . . . . . . . . , U.oXp.. . . . . . . .                               ",
"                        o . . . . . . . . . . , T.@X).N O $ = . . . .                               ",
"                            . . . . . r 1 . 3 1 ' ).oX Xp.^ _ . . . .                               ",
"                              o . . . [ d., p.d.h. .' +XoXL.r . . . .                               ",
"                          o o o . . . [ ].l.W.Y.'.^.] L. X`.i . . . .                               ",
"                              o . . . r ` p.].[. X%X#X .(.j.= o                                     ",
"                                ; > > : ; m ].@X+X$X#X/.|.d.w                                       ",
"                          . . . g Z.v.x.V.s.k.oX+X@XoX X{.J.c                                       ",
"                          . 9 u ~ i.B.m.S.s.y.].OX@X.X~.I.7.h o                                     ",
"                        3 X 8 W / E U n.Z.i.t.y.j.'.).).a.Z.&.%                                     ",
"                      m f.n o 2 e.U B v.m.D.<.W R T T ) ( Z.&.%         X X                         ",
"                    < k.}.H.@ 1 _.P.k x.n.M.A.J u u u R ` Z.L &         p.d.J                       ",
"                  . 3 W.OXW._ 7  XT.h N.A.M.A.<.t R W ' C.F.D           e.Y.T.r .                   ",
"                    , j. XQ.' 1 E.w.a N.Z.m.A.B.F i &.6.A.A.S o       n J.~.E.6 .                   ",
"                      w v w.p / E.c : -.N.F.Z.Z.+.B 5.A.A.>.d . . . . ' !.~.p.                      ",
"                        @ V W | K.x X ; D $.=.=.=.$.-.%.#.V m P _ H e g.Q.k.H                       ",
"                          1 w e N       X * R ! R u u * X I Q.OX}.T.} ~ n x                         ",
"                            . .         O n J H H _ ' t . 6 R..X!.r.W 8 .                           ",
"                                      @ Z v.n.v.:.B.F.;.5   P U V y                                 ",
"                                    f O.v.M.M.b.1.c.M.m.Z     . .                                   ",
"                              f j O.v.M.M.M.M.b.1.c.M.M.z.k                                         ",
"                          a X.x.m.M.M.M.M.M.m.A.z.c.M.M.M.3...: X                                   ",
"                        X j m.M.M.M.M.m.m.m.A.Z.A.A.M.M.M.M.M.2.o.@                                 ",
"                        # 4.M.M.M.D.8...X.>.X.c.D.A.m.M.M.M.M.M.D.f                                 ",
"                        A B.m.m.O.g d         f j S 2.c.c.M.M.M.A.j o                               ",
"                      X F B.Z.B.S                   5 5 s @.z.A.A.4.;                               ",
"                      X h Z.M.4.#                         O ..A.A.5.;                               ",
"                    . a 5.m.m.N.A                           D Z.n.N.; .                             ",
"                    . d 9.,.6.V.*.                          # :.F.N.; .                             ",
"                    . 0 q./ ` Y m                           X d K K 4 X                             ",
"                      r u.{ p &                               o % 0 q X                             ",
"                      v P.G.G                                   X 6 @ .                             ",
"                      z 0.R *                                     y q - + +                         ",
"                      C Q *                                       9 M l l z                         ",
"                    * 0.Q &                                                                         ",
"                                                                                                    "
};
