/* XPM */
static char *_af49ef2a6794481fe82555c93dc8761uACmat5hu5qc5rfN[] = {
/* columns rows colors chars-per-pixel */
"50 50 232 2 ",
"   c None",
".  c #020104",
"X  c #040309",
"o  c #0C0A0B",
"O  c #0A070A",
"+  c #140D0A",
"@  c #140A07",
"#  c #0B0C13",
"$  c #1A0C17",
"%  c #181516",
"&  c #2A190D",
"*  c #2A1C13",
"=  c #231A14",
"-  c #331D16",
";  c #301D0D",
":  c #3B230D",
">  c #2D251F",
",  c #382518",
"<  c #1D1B24",
"1  c #221F31",
"2  c #2A1A29",
"3  c #212123",
"4  c #2D2929",
"5  c #3B332B",
"6  c #28253A",
"7  c #363533",
"8  c #3C373A",
"9  c #37292D",
"0  c #173139",
"q  c #49280E",
"w  c #5C3713",
"e  c #54361D",
"r  c #4C2E17",
"t  c #653D17",
"y  c #753D13",
"u  c #541E3A",
"i  c #432C26",
"p  c #4B3728",
"a  c #543928",
"s  c #463A35",
"d  c #563336",
"f  c #55253C",
"g  c #6C372C",
"h  c #6E4214",
"j  c #76411B",
"k  c #44433C",
"l  c #56453A",
"z  c #5C4C2D",
"x  c #654328",
"c  c #684838",
"v  c #7C483C",
"b  c #6C5029",
"n  c #3A384B",
"m  c #563843",
"M  c #453F50",
"N  c #6A3A50",
"B  c #4B4946",
"V  c #534749",
"C  c #464154",
"Z  c #5C5C53",
"A  c #5C5551",
"S  c #774D4B",
"D  c #65584B",
"F  c #765743",
"G  c #786C5B",
"H  c #6F6A56",
"J  c #7C7B6C",
"K  c #6E6D62",
"L  c #844E18",
"P  c #995918",
"I  c #8D541A",
"U  c #A9641C",
"Y  c #BD711C",
"T  c #B26B18",
"R  c #8A5827",
"E  c #835A37",
"W  c #8D582B",
"Q  c #9B6228",
"!  c #896D37",
"~  c #95683E",
"^  c #987432",
"/  c #A6682A",
"(  c #B26D26",
")  c #BD772D",
"_  c #A57936",
"`  c #B47031",
"'  c #CA771A",
"]  c #D67D1A",
"[  c #C15438",
"{  c #C4792B",
"}  c #C87927",
"|  c #C97B37",
" . c #B6394A",
".. c #915644",
"X. c #B25F53",
"o. c #B1564C",
"O. c #886647",
"+. c #987A42",
"@. c #956F5C",
"#. c #917452",
"$. c #A96653",
"%. c #BA6B57",
"&. c #A96D4D",
"*. c #944D68",
"=. c #A77C69",
"-. c #8F7662",
";. c #CB785B",
":. c #C36F44",
">. c #C67D67",
",. c #D07D62",
"<. c #A8833B",
"1. c #B2853A",
"2. c #DD8219",
"3. c #DA8019",
"4. c #E38519",
"5. c #EC8A1B",
"6. c #E58719",
"7. c #F28E1C",
"8. c #F6911E",
"9. c #FB931D",
"0. c #CC812D",
"q. c #D78326",
"w. c #CB8634",
"e. c #D28D37",
"r. c #DA9B3B",
"t. c #D59439",
"y. c #C6903B",
"u. c #E38A24",
"i. c #EB8D21",
"p. c #E18621",
"a. c #F59120",
"s. c #ED9025",
"d. c #DDA23E",
"f. c #9C8047",
"g. c #AF8C4A",
"h. c #878675",
"j. c #998F6A",
"k. c #BA8A6A",
"l. c #BA8371",
"z. c #AA946F",
"x. c #B6A97A",
"c. c #ADA67F",
"v. c #C59E46",
"b. c #D79D4B",
"n. c #C88E57",
"m. c #DEA342",
"M. c #D9A34D",
"N. c #D8A556",
"B. c #C6A552",
"V. c #E4AB42",
"C. c #E1AB4B",
"Z. c #E1A743",
"A. c #E8B346",
"S. c #ECB947",
"D. c #E4B24D",
"F. c #EBBA4B",
"G. c #EBBD54",
"H. c #E5B85B",
"J. c #C7856D",
"K. c #D28266",
"L. c #C4987A",
"P. c #D39772",
"I. c #D8AB66",
"U. c #DBB576",
"Y. c #E3B966",
"T. c #E3A57B",
"R. c #E3BE78",
"E. c #ECC25A",
"W. c #EDC662",
"Q. c #EECB6D",
"!. c #EDC967",
"~. c #F3CD6A",
"^. c #EFCD71",
"/. c #EBC876",
"(. c #F0CE73",
"). c #EFD27B",
"_. c #F1D37D",
"`. c #F2D074",
"'. c #E17290",
"]. c #69CAE6",
"[. c #989785",
"{. c #B1AF94",
"}. c #B7B396",
"|. c #B0AB8D",
" X c #809DA2",
".X c #C89284",
"XX c #F19E99",
"oX c #DAA585",
"OX c #DCBA87",
"+X c #DABA9A",
"@X c #E5AA86",
"#X c #EFB093",
"$X c #CBBFAC",
"%X c #D6C699",
"&X c #D7C995",
"*X c #E7CB87",
"=X c #EED489",
"-X c #F1D581",
";X c #F2DB8D",
":X c #F1D789",
">X c #EACB95",
",X c #EAD49A",
"<X c #F2DC93",
"1X c #F6DC9B",
"2X c #F6CB93",
"3X c #F5E19B",
"4X c #D8D7B6",
"5X c #C4C3A9",
"6X c #EFC9A5",
"7X c #EAD8A5",
"8X c #ECD1AF",
"9X c #F5E5A3",
"0X c #F6E9AD",
"qX c #F4E6AD",
"wX c #E9E0B5",
"eX c #F8EDB5",
"rX c #F9EFBA",
"tX c #F3E9B8",
"yX c #FAF1BC",
"uX c #FBF0B6",
"iX c #88D1E3",
"pX c #D0D0D1",
"aX c #F4DFCB",
"sX c #F5EFC3",
"dX c #F1EFCD",
"fX c #FAF3C2",
"gX c #FEFBCD",
"hX c #FBF6C8",
"jX c #FDFCD4",
"kX c #FFFEDA",
"lX c #F7F6D2",
"zX c #EAE5CC",
/* pixels */
"                                                                                                    ",
"                                                X                                                   ",
"                                                k 8                                                 ",
"                                    O H h.h.K X #.c.J 3                                             ",
"                                      Z *XgXwXj.v.`.tX{.h.  #                                       ",
"                            X       < > B.^.^.~.E.F.^.gXdXh.J A                                     ",
"                            # 7 7 7 |.4XsX7XI.qXfX_.!.eXkX&XOXJ                                     ",
"                            7 {.7XwXlXkXkXkX7XOXsXjXfX;XrX3X<XzXB                                   ",
"                              , g._.9X9X9X0XjXOX*XkXkXfX<X).<XlXk . X                               ",
"                            4 J c.;XW.F.F.E.;X*XOXtX0XjX0XF.<XlX#.D #                               ",
"                    X O % h.{.jXeXR.b.*X9X9X3X<XN.Y.<X<XyX).<XjX/.%X3                               ",
"                    X Z }.sXyX_.!.D.C.I.tXkXjXrX,XI.H.b.OX<X<XjX_.%X3                               ",
"                      8 g.H.H.!.9XeXfXqXOXtX0X^.!.*XI.7X,XN.<XhX-X}.3                               ",
"                        a g.N.^.Q.;XrXeX,XM.Y.-XG.I.wXjXfX;X-X-X*Xk                                 ",
"                      B x.sXhX9X_.F.Q.-X_./.I.R.N.>XjX3X-X3XF.F.<.%                                 ",
"                    B 5XjX9X=Xm.H.;XyXjXjXhX1X*Xn.,X9X).=X>XC.<.= X                                 ",
"                    J 0X-XE.A.r.N.U.*X;X:X).F.!.N.Y.!.1X6X@XP.z.= .                                 ",
"                  B |.E.G.<X<XE.D.m.r.e.t.` ! _ Q e.7XzX6X@XK.OX5 .                                 ",
"                X % 5 z.uX).).eXrXyXqXY.=Xg.= c $.;.pX].iXaXT. X0 .                                 ",
"                X . % {.fXE.).jXgXyXyXQ.<Xg.l @...;.P.$XpXpX8X+X7 X                                 ",
"                  4 [.rX^.^.9XeX-XC.C.m.w./ O.T.,.;.K.oX*.N l.2Xs                                   ",
"                  Z rX~.C.R.M.m.N.b.0.{ { | g.J.>.;.K.#X'.*.=.L.5                                   ",
"                7 c.^.F.d.t.t.M.*XY.0.) j a 1 d o.X.%.#XXX.X=.S                                     ",
"                7 D z.3XW.S.E.;XY.0.t.y., L P ( | o.X.>.J.@.d $ X                                   ",
"                  B 4X3XG.S.G.H.w.{ r.b , q.a.9.u.:.X.%.X.g O @ @ +                                 ",
"                k 4X3XG.G.F.V.r.V.w./ * 7 D ~ i.8.` $.K.,.%.&.` ( U = X                             ",
"                G <XD.N.*XG.r.A.m.R * O V n n Q 9./ O..XL.l.oXk.W { 8 X                             ",
"                j.+._ *X).F.F.A.t.w.r , $.m < L 8.5.u.O.C M C M c { s X                             ",
"                O . H eX(.S.F.Z./ Q r =.T...X h u.5.9.{ 9 6 6 n E } * X                             ",
"                    J jX^.S.A.r.1.1.+.+X6Xv . t q.i.8.} Q x l ~ q.' + X                             ",
"                    J jX^.S.V.e.H.f.k.oXk.i X t q.i.8.u.9./ R u.s.( + O                             ",
"                    J jX^.A.e.Q E L.D > -     - : Q q.0.q.{ } q.) e i c o G s                       ",
"                    G gX(.V.e.^ p L.s . X       X 3 s V A V p i , v @.-.c J.p                       ",
"                    z &X`.A.b.! o + O           X , x F D l a = . + + D @X@Xl                       ",
"                    O j.~.D.+.  X X X           @ U 8.a.4.T ' w . X . 5 @.@.s                       ",
"                      z v.!                     t ] 9.8.2.' 2.w X     X . X                         ",
"                        p                     : ' 9.8.5.q.' 6.U &                                   ",
"                        X                   O h 5.9.8.u.w.p.5.2.:                                   ",
"                                            w ' 5.9.a.( j i.8.3.:                                   ",
"                                          w ' 5.6.5.3.R y 2.7.] w                                   ",
"                                        & Y 6.5.2.4.Y r ' 2.4.4.' ;                                 ",
"                                        ; ] 6.8.8.6.I q P ] 7.8.U *                                 ",
"                                        + L 4.6.6.' :   q T ] P ,                                   ",
"                                        O d [ F x q     % a g -                                     ",
"                                        # N  .C <         1 < O                                     ",
"                                        # S o.8 #         < % .                                     ",
"                                        9 ;.n.c           > i $                                     ",
"                                      O m  .8 o           % 9 u f $                                 ",
"                                      O m  .7 X                                                     ",
"                                                                                                    "
};
